<?xml version="1.0" encoding="UTF-8" standalone="no"?>
<!DOCTYPE svg PUBLIC "-//W3C//DTD SVG 1.1//EN" "http://www.w3.org/Graphics/SVG/1.1/DTD/svg11.dtd">
<svg width="100%" height="100%" viewBox="0 0 866 683" version="1.1" xmlns="http://www.w3.org/2000/svg" xmlns:xlink="http://www.w3.org/1999/xlink" xml:space="preserve" xmlns:serif="http://www.serif.com/" style="fill-rule:evenodd;clip-rule:evenodd;stroke-linejoin:round;stroke-miterlimit:2;">
    <ellipse cx="416.87" cy="595.15" rx="387.27" ry="56.5" style="fill:rgb(61,131,246);"/>
    <ellipse cx="416.87" cy="595.15" rx="387.27" ry="56.5" style="fill:white;fill-opacity:0.7;"/>
    <path d="M289.24,518.84C289.24,518.84 82.24,536.65 85.16,372.84C85.16,372.84 73.69,244.48 167.93,167.95C191.377,149.092 218.969,136.067 248.43,129.95C271.99,124.95 312.23,113.95 353.7,91.67C353.7,91.67 532.91,-37.33 725.63,81.53C725.63,81.53 870.54,175.69 828.51,333.65C828.51,333.65 801.65,500.9 544.11,491.91C544.11,491.93 376,514.17 289.24,518.84Z" style="fill:rgb(166,166,166);fill-rule:nonzero;"/>
    <path d="M289.24,518.84C289.24,518.84 82.24,536.65 85.16,372.84C85.16,372.84 73.69,244.48 167.93,167.95C191.377,149.092 218.969,136.067 248.43,129.95C271.99,124.95 312.23,113.95 353.7,91.67C353.7,91.67 532.91,-37.33 725.63,81.53C725.63,81.53 870.54,175.69 828.51,333.65C828.51,333.65 801.65,500.9 544.11,491.91C544.11,491.93 376,514.17 289.24,518.84Z" style="fill:white;fill-opacity:0.7;fill-rule:nonzero;"/>
    <path d="M750.38,141.9C750.38,124.123 735.947,109.69 718.17,109.69L396.42,109.69C378.643,109.69 364.21,124.123 364.21,141.9L364.21,338.58C364.21,356.357 378.643,370.79 396.42,370.79L718.17,370.79C735.947,370.79 750.38,356.357 750.38,338.58L750.38,141.9Z" style="fill:rgb(230,230,230);"/>
    <path d="M743.8,150.68C743.8,132.903 729.367,118.47 711.59,118.47L386.55,118.47C368.773,118.47 354.34,132.903 354.34,150.68L354.34,334.2C354.34,351.977 368.773,366.41 386.55,366.41L711.59,366.41C729.367,366.41 743.8,351.977 743.8,334.2L743.8,150.68Z" style="fill:white;"/>
    <rect x="541.94" y="298.39" width="131.65" height="8.78" style="fill:rgb(221,43,70);fill-opacity:0.37;"/>
    <rect x="541.94" y="313.75" width="85.57" height="8.78" style="fill:rgb(221,43,70);fill-opacity:0.37;"/>
    <rect x="541.94" y="329.1" width="115.19" height="8.78" style="fill:rgb(221,43,70);fill-opacity:0.37;"/>
    <path d="M569.36,153.45C569.36,149.885 566.465,146.99 562.9,146.99L392.61,146.99C389.045,146.99 386.15,149.885 386.15,153.45L386.15,259.01C386.15,262.575 389.045,265.47 392.61,265.47L562.9,265.47C566.465,265.47 569.36,262.575 569.36,259.01L569.36,153.45Z" style="fill:rgb(61,131,246);fill-opacity:0.37;"/>
    <path d="M558.39,237.2L415.64,237.2L415.64,156.83L416.74,156.83L416.74,236.1L558.39,236.1L558.39,237.2Z" style="fill:white;fill-rule:nonzero;"/>
    <rect x="432.23" y="216.11" width="4.39" height="20.84" style="fill:white;"/>
    <rect x="445.4" y="212.81" width="4.39" height="24.14" style="fill:white;"/>
    <rect x="505.74" y="212.81" width="4.39" height="24.14" style="fill:white;"/>
    <rect x="518.9" y="190.87" width="4.39" height="46.08" style="fill:white;"/>
    <path d="M456.37,244.63L414.6,244.63C414.298,244.63 414.05,244.382 414.05,244.08C414.05,243.778 414.298,243.53 414.6,243.53L456.37,243.53C456.672,243.53 456.92,243.778 456.92,244.08C456.92,244.382 456.672,244.63 456.37,244.63Z" style="fill:white;fill-rule:nonzero;"/>
    <path d="M456.37,250.11L414.6,250.11C414.575,250.113 414.551,250.115 414.526,250.115C414.224,250.115 413.976,249.867 413.976,249.565C413.976,249.263 414.224,249.015 414.526,249.015C414.551,249.015 414.575,249.017 414.6,249.02L456.37,249.02C456.395,249.017 456.419,249.015 456.444,249.015C456.746,249.015 456.994,249.263 456.994,249.565C456.994,249.867 456.746,250.115 456.444,250.115C456.419,250.115 456.395,250.113 456.37,250.11Z" style="fill:white;fill-rule:nonzero;"/>
    <path d="M456.37,255.6L414.6,255.6C414.298,255.6 414.05,255.352 414.05,255.05C414.05,254.748 414.298,254.5 414.6,254.5L456.37,254.5C456.672,254.5 456.92,254.748 456.92,255.05C456.92,255.352 456.672,255.6 456.37,255.6Z" style="fill:white;fill-rule:nonzero;"/>
    <rect x="403.16" y="168.3" width="6.03" height="1.1" style="fill:white;"/>
    <rect x="403.16" y="178.18" width="6.03" height="1.1" style="fill:white;"/>
    <rect x="403.16" y="186.95" width="6.03" height="1.1" style="fill:white;"/>
    <rect x="403.16" y="195.73" width="6.03" height="1.1" style="fill:white;"/>
    <rect x="403.16" y="204.51" width="6.03" height="1.1" style="fill:white;"/>
    <rect x="403.16" y="212.19" width="6.03" height="1.1" style="fill:white;"/>
    <rect x="403.16" y="220.96" width="6.03" height="1.1" style="fill:white;"/>
    <rect x="403.16" y="230.84" width="6.03" height="1.1" style="fill:white;"/>
    <g opacity="0.37">
        <path d="M426.23,201.18L425.57,200.31L447.5,183.67L469.48,191.91L494.72,177.1L507.87,182.57L537.25,162.99L537.86,163.9L507.99,183.81L494.81,178.32L469.58,193.12L447.68,184.91L426.23,201.18Z" style="fill:rgb(61,131,246);fill-rule:nonzero;"/>
    </g>
    <g opacity="0.37">
        <path d="M538.1,169.48L537,169.48L537,163.6L529,164.62L528.86,163.53L538.1,162.35L538.1,169.48Z" style="fill:rgb(61,131,246);fill-rule:nonzero;"/>
    </g>
    <path d="M460.31,262L499.7,258.32L505.7,325.83C505.7,325.83 499.06,337.31 497.7,337.83C496.34,338.35 458,336.24 458,336.24L454.23,320.13L460.31,262Z" style="fill:rgb(230,230,230);fill-rule:nonzero;"/>
    <path d="M515.06,565.28C515.06,565.28 515.51,589.1 526.84,594.6C529.296,595.781 532.233,595.387 534.29,593.6C538.36,590.06 543.74,581.13 535.36,560.6L515.06,565.28Z" style="fill:rgb(221,43,70);fill-rule:nonzero;"/>
    <path d="M522.11,432.15L525.48,486C525.48,486 527.68,524.39 527.68,536.46C527.68,548.53 535.36,560.6 535.36,560.6C534.26,572.67 525.48,573.76 525.48,573.76C521.09,574.86 517.8,570.47 515.61,567.18C513.42,563.89 517.8,548.53 517.8,548.53C507.93,527.69 501.35,468.44 501.35,468.44C496.96,457.44 494.76,438.82 494.76,438.82L522.11,432.15Z" style="fill:rgb(249,180,153);fill-rule:nonzero;"/>
    <path d="M460.52,238.75C460.52,238.75 456.22,249.96 452.45,254.42C457.916,252.198 463.664,250.748 469.53,250.11L469.53,243.93C469.53,243.93 465.14,243.53 460.52,238.75Z" style="fill:rgb(47,46,65);fill-rule:nonzero;"/>
    <path d="M391,276.33L392.9,280.33C392.9,280.33 400.96,278.06 407.05,268.11L405.58,265.65C405.338,265.236 404.894,264.981 404.414,264.981C404.112,264.981 403.818,265.083 403.58,265.27L391.38,274.66C390.873,275.053 390.713,275.756 391,276.33Z" style="fill:rgb(47,46,65);fill-rule:nonzero;"/>
    <path d="M469.87,580C469.808,580.732 469.189,581.301 468.455,581.301C467.721,581.301 467.102,580.732 467.04,580L467.04,569C464.976,572.502 462.191,575.526 458.87,577.87C455.615,580.222 451.696,581.483 447.68,581.47L428.94,581.47C424.55,580.37 442.1,567.21 442.1,567.21C442.1,567.21 448.69,573.79 459.66,561.72C459.66,561.72 464.05,555.14 469.53,554.05L469.87,580Z" style="fill:rgb(221,43,70);fill-rule:nonzero;"/>
    <path d="M524.39,384L524.39,427.45C524.405,429.965 522.837,432.234 520.48,433.11C508.329,437.692 495.466,440.102 482.48,440.23C472.895,440.298 463.387,438.512 454.48,434.97C452.296,434.058 450.873,431.906 450.89,429.54L450.89,337.78C455.397,333.627 460.692,330.42 466.46,328.35C476.66,324.554 487.983,325.1 497.77,329.86L501.66,337.78L524.39,384Z" style="fill:rgb(47,46,65);fill-rule:nonzero;"/>
    <path d="M501.65,337.78L494.21,343C493.637,352.147 493.831,361.326 494.79,370.44C488.23,375.58 467.35,380.67 467.35,380.67L466.81,383.72C482.73,384.57 495.39,374.63 495.39,374.63L495.39,374.56C497.76,388.74 503.68,400.33 517.82,390.56C517.82,390.56 520.7,428.41 482.52,440.21C495.506,440.082 508.369,437.672 520.52,433.09C522.877,432.214 524.445,429.945 524.43,427.43L524.43,384L501.65,337.78Z" style="fill-opacity:0.2;fill-rule:nonzero;"/>
    <path d="M497.76,329.86C488.69,335.01 477.21,329.1 477.21,329.1C471.73,326.91 466.39,331.65 466.39,331.65L466.45,328.35C476.65,324.554 487.973,325.1 497.76,329.86Z" style="fill-opacity:0.2;fill-rule:nonzero;"/>
    <ellipse cx="266.57" cy="583.63" rx="46.08" ry="12.07" style="fill:rgb(179,179,179);"/>
    <path d="M250.34,486.31L259.83,577C260.005,578.489 261.271,579.63 262.77,579.65L269.65,579.65C271.296,579.65 272.65,578.296 272.65,576.65L272.65,483L253.28,483C251.651,483.024 250.324,484.371 250.324,486C250.324,486.103 250.329,486.207 250.34,486.31Z" style="fill:rgb(167,169,172);fill-rule:nonzero;"/>
    <path d="M202.94,343.37C202.94,343.37 183.19,345.56 182.1,371.89C182.1,371.89 178.81,402.07 192.52,458.29C192.52,458.29 197.82,491.85 239.32,488.92L286.32,487.18L288.22,451.12L243.36,363.12L202.94,343.37Z" style="fill:rgb(179,179,179);fill-rule:nonzero;"/>
    <path d="M241.16,344.53L273.7,341.72L278.92,383.02L280.83,396.68C280.83,396.68 270.41,408.68 269.32,409.2C268.23,409.72 255.6,396.68 255.6,396.68L241.16,344.53Z" style="fill:rgb(242,242,242);fill-rule:nonzero;"/>
    <path d="M279.39,322.52C279.39,322.52 290.71,319.23 295.1,326.91L309.36,357.63L309.36,394.3L275.36,375.18L279.39,322.52Z" style="fill:rgb(221,43,70);fill-rule:nonzero;"/>
    <path d="M270.92,293.27C270.92,293.27 272.06,299.48 280.83,306.07C280.83,306.07 275.28,308.4 270.92,306.68C270.966,308.235 271.81,309.661 273.15,310.45C269.673,311.888 265.895,312.451 262.15,312.09C258.405,311.729 270.89,307.9 270.92,293.27Z" style="fill:rgb(47,46,65);fill-rule:nonzero;"/>
    <path d="M700.75,587.32L697.61,589.05C696.671,589.567 695.594,589.777 694.53,589.65C688.8,588.88 683.46,596.79 683.46,596.79C681.513,600.047 678.361,602.411 674.69,603.37C653.84,611.05 649.26,600.37 649.26,600.37C644.67,595.17 660.42,589.1 660.42,589.1C666.69,588.2 670.76,574.91 672.04,570.03C680.83,569.57 694.43,562.22 694.43,562.22C695.121,561.831 695.726,561.308 696.21,560.68L704.31,582.52C704.84,584.35 702.42,586.4 700.75,587.32Z" style="fill:rgb(47,46,65);fill-rule:nonzero;"/>
    <path d="M700.75,587.32L697.61,589.05C696.671,589.567 695.594,589.777 694.53,589.65C688.8,588.88 683.46,596.79 683.46,596.79C681.513,600.047 678.361,602.411 674.69,603.37C653.84,611.05 649.26,600.37 649.26,600.37C644.67,595.17 660.42,589.1 660.42,589.1C666.69,588.2 670.76,574.91 672.04,570.03C680.83,569.57 694.43,562.22 694.43,562.22C695.121,561.831 695.726,561.308 696.21,560.68L704.31,582.52C704.84,584.35 702.42,586.4 700.75,587.32Z" style="fill-opacity:0.2;fill-rule:nonzero;"/>
    <ellipse cx="725.15" cy="598.44" rx="41.69" ry="11.52" style="fill:rgb(167,169,172);"/>
    <path d="M696.21,560.69C695.726,561.318 695.121,561.841 694.43,562.23C693.739,562.619 680.83,569.58 672,570C670.586,570.129 669.161,569.955 667.82,569.49C666.402,568.908 665.507,567.48 665.6,565.95C665.64,564.747 666.129,563.601 666.97,562.74C667.811,561.879 669.16,560.55 666.97,555.06L656.25,531.71L630.8,482.7L648.36,459.7L636.63,439.17C636.63,439.17 659.12,429.33 675.12,431.35L683.54,497L693.9,546C694.229,547.499 694.754,548.948 695.46,550.31C696.76,552.86 698.58,557.58 696.21,560.69Z" style="fill:rgb(61,131,246);fill-rule:nonzero;"/>
    <path d="M696.21,560.69C695.726,561.318 695.121,561.841 694.43,562.23C693.739,562.619 680.83,569.58 672,570C670.586,570.129 669.161,569.955 667.82,569.49C666.402,568.908 665.507,567.48 665.6,565.95C665.64,564.747 666.129,563.601 666.97,562.74C667.811,561.879 669.16,560.55 666.97,555.06L656.25,531.71L630.8,482.7L648.36,459.7L636.63,439.17C636.63,439.17 659.12,429.33 675.12,431.35L683.54,497L693.9,546C694.229,547.499 694.754,548.948 695.46,550.31C696.76,552.86 698.58,557.58 696.21,560.69Z" style="fill-opacity:0.2;fill-rule:nonzero;"/>
    <ellipse cx="471.45" cy="220.49" rx="17.28" ry="23.59" style="fill:rgb(249,180,153);"/>
    <path d="M469.53,243.93L469.53,250.11C469.53,250.11 465.06,250.97 463.46,251.11L464.05,269.88C464.05,269.88 480.67,282.29 492.65,266.21C492.65,266.21 487.44,254.21 487.26,247.78L486.86,231.15C486.86,231.15 481.6,245.73 469.53,243.93Z" style="fill:rgb(249,180,153);fill-rule:nonzero;"/>
    <path d="M469.53,243.93L469.53,248.47C469.53,248.47 485.53,249.47 486.86,231.13C486.86,231.13 481.6,245.43 469.53,243.93Z" style="fill:rgb(247,164,139);fill-rule:nonzero;"/>
    <path d="M407.88,266.91C406.74,268.7 401.11,276.91 393.02,280.32C392.501,280.535 392.161,281.043 392.161,281.604C392.161,281.814 392.209,282.021 392.3,282.21C395.3,288.4 408.11,313.61 417.76,319.21C419.41,320.152 421.372,320.39 423.2,319.87C431.989,317.374 439.525,311.659 444.3,303.87L446.49,386.15C446.49,386.15 448.69,386.15 453.08,389.44C453.08,389.44 465.14,398.22 467.34,380.67L466.24,310.45L464.05,269.86L463.46,251.09C463.46,251.09 448.7,253.24 439.78,263.23C439.15,263.963 438.575,264.742 438.06,265.56C435.16,270.01 424.7,285.69 419.06,288.51L408.27,266.94C408.231,266.864 408.152,266.816 408.066,266.816C407.992,266.816 407.923,266.851 407.88,266.91Z" style="fill:rgb(221,43,70);fill-rule:nonzero;"/>
    <path d="M439.49,308.9C439.49,308.9 438.81,284.12 443.2,272.06C443.2,272.06 441.01,292.9 443.2,303.87C443.2,303.87 442.36,305.15 439.49,308.9Z" style="fill:white;fill-opacity:0.2;fill-rule:nonzero;"/>
    <path d="M454.25,254C454.25,254 453.38,312.22 466.39,320.14L463.46,251.14C460.305,251.796 457.221,252.754 454.25,254Z" style="fill:rgb(221,43,70);fill-rule:nonzero;"/>
    <path d="M454.25,254C454.25,254 453.38,312.22 466.39,320.14L463.46,251.14C460.305,251.796 457.221,252.754 454.25,254Z" style="fill:white;fill-opacity:0.2;fill-rule:nonzero;"/>
    <path d="M499.15,379.57C499.15,379.57 493.84,357.33 492.65,314.14L492.65,266.19L502.86,248.48C502.86,248.48 516.71,249.02 532.07,263.28L547.7,274.43C547.7,274.43 554.92,279.01 559.4,274.43L569.4,265.43C573.755,271.52 579.885,276.121 586.95,278.6L566.1,301.6C566.1,301.6 561.72,308.18 548.55,302.69L524.39,294C524.39,294 518.9,303.87 518.9,309.36C518.9,309.36 516.71,345.56 529.9,363.11C529.9,363.11 539.77,374.11 524.42,383.96C524.39,384 501.35,403.71 499.15,379.57Z" style="fill:rgb(221,43,70);fill-rule:nonzero;"/>
    <path d="M502.44,355.43C502.44,355.43 512.32,364.21 525.44,366.43C525.48,366.4 498.06,367.5 502.44,355.43Z" style="fill:white;fill-opacity:0.2;fill-rule:nonzero;"/>
    <path d="M550.29,275.66C550.29,275.66 549.62,287.42 558.4,291.8C558.4,291.8 553.82,282.89 555.56,276.38C555.56,276.38 552.06,277.08 550.29,275.66Z" style="fill:white;fill-opacity:0.2;fill-rule:nonzero;"/>
    <path d="M492.72,316.26C492.72,316.26 501.19,315.96 500.72,281.39L502.86,248.48L492.65,266.19L492.72,316.26Z" style="fill:rgb(221,43,70);fill-rule:nonzero;"/>
    <path d="M492.72,316.26C492.72,316.26 501.19,315.96 500.72,281.39L502.86,248.48L492.65,266.19L492.72,316.26Z" style="fill:white;fill-opacity:0.2;fill-rule:nonzero;"/>
    <path d="M450.88,387.88L450.88,391.64C450.88,391.64 457.76,398.64 461.45,391.3C461.45,391.3 457.45,392.73 453.08,389.44L450.88,387.88Z" style="fill-opacity:0.2;fill-rule:nonzero;"/>
    <path d="M449.78,380.67C449.78,380.67 461.85,376.28 462.95,368.6C463,368.6 469.53,378.47 449.78,380.67Z" style="fill:white;fill-opacity:0.2;fill-rule:nonzero;"/>
    <path d="M468.43,363.11C468.43,363.11 476.87,367.55 491.85,366.43C491.85,366.43 480.5,377.38 468.43,363.11Z" style="fill-opacity:0.2;fill-rule:nonzero;"/>
    <path d="M468.43,317C468.43,317 488.18,330.16 490.38,318.09L468.43,317Z" style="fill:white;fill-opacity:0.2;fill-rule:nonzero;"/>
    <path d="M419.74,290.48C419.74,290.48 423.45,307.16 426.74,307.16C426.74,307.16 430.03,308.26 427.83,303.87L419.74,290.48Z" style="fill:white;fill-opacity:0.2;fill-rule:nonzero;"/>
    <path d="M570.49,267L573.75,264.37L588,274.25L585.13,277.94C585.13,277.94 576,274 570.49,267Z" style="fill:rgb(47,46,65);fill-rule:nonzero;"/>
    <path d="M575.32,265.46C575.32,265.46 589.11,251.21 592.4,252.31C592.4,252.31 593.5,254.5 590.21,261.09C590.21,261.09 591.92,262.09 598.75,258.85C598.75,258.85 609.96,254.85 610.98,260.25C611.063,260.736 610.875,261.231 610.49,261.54L602.34,268.05C600.865,269.236 599.088,269.987 597.21,270.22L584.46,271.79L575.32,265.46Z" style="fill:rgb(249,180,153);fill-rule:nonzero;"/>
    <path d="M480,440.19L478.31,475C478.31,510.1 469.53,545.91 469.53,545.91L469.53,554C464.05,555.09 459.66,561.67 459.66,561.67C448.66,573.74 442.1,567.16 442.1,567.16L456.89,546.89L456.89,458.5C456.904,456.813 456.696,455.132 456.27,453.5C454.18,445.92 454.47,434.92 454.47,434.92C464.64,439.82 480,440.19 480,440.19Z" style="fill:rgb(249,180,153);fill-rule:nonzero;"/>
    <path d="M723.22,600.08C719.365,600.081 716.105,597.109 715.75,593.27L706.5,491.47L731.73,491.47L730.73,592.66C730.692,596.75 727.31,600.091 723.22,600.08Z" style="fill:rgb(188,190,192);fill-rule:nonzero;"/>
    <path d="M663.71,562.78L665.63,570.46C665.843,571.3 665.877,572.176 665.73,573.03C665.329,575.268 664.335,577.358 662.85,579.08C655.17,588.17 635.85,588.48 635.85,588.48C630.25,588.85 632.45,579.3 633.58,575.39C633.912,574.257 633.887,573.049 633.51,571.93C629.65,560.1 622.69,544.8 620.51,540.09C620.205,539.377 619.812,538.705 619.34,538.09C616.86,535.03 617.5,530.75 618.15,528.37C618.482,527.156 618.222,525.854 617.45,524.86L616.13,523.09C615.749,522.577 615.265,522.148 614.71,521.83C611.56,520.05 611.56,516.16 611.84,513.94C611.994,512.793 611.814,511.626 611.32,510.58C600.09,486.84 600.09,459.66 600.09,459.66C595.71,436.66 671.8,436.58 671.8,436.58L651.15,495.48L650.64,496.96C650.71,499.15 656.05,529.87 656.05,529.87C657.13,539.74 663.71,562.78 663.71,562.78Z" style="fill:rgb(61,131,246);fill-rule:nonzero;"/>
    <path d="M662.85,579.08C664.292,575.664 664.594,571.871 663.71,568.27C660.42,577.04 652.71,575.95 652.71,575.95C665.88,568.27 658.2,551.81 658.2,551.81L646.78,506C646.378,504.375 645.497,502.907 644.25,501.79L635.19,493.64C619.83,478.28 626.29,462.4 626.29,462.4L634.09,466.21L651.09,495.45L650.58,496.93C650.65,499.12 655.99,529.84 655.99,529.84C657.08,539.71 663.66,562.75 663.66,562.75L665.58,570.43C665.793,571.27 665.827,572.146 665.68,573C665.299,575.244 664.321,577.344 662.85,579.08Z" style="fill-opacity:0.3;fill-rule:nonzero;"/>
    <path d="M637.38,538.65C633.676,536.972 630.112,535.002 626.72,532.76C623.37,530.48 619.9,528.13 617.44,524.86C623.71,530 630.86,533.86 637.38,538.65Z" style="fill-opacity:0.2;fill-rule:nonzero;"/>
    <path d="M637.38,588.41C637.38,588.41 636.84,601.73 628.61,606.66C628.61,606.66 612.85,612.73 617.44,617.93C617.44,617.93 622.03,628.61 642.87,620.93C646.544,619.966 649.698,617.599 651.65,614.34C653.602,611.081 656.99,606.44 662.72,607.2C663.784,607.336 664.864,607.125 665.8,606.6L668.94,604.87C670.609,603.967 671.416,601.994 670.86,600.18L664.08,577.38C664.08,577.38 659.87,586.37 637.38,588.41Z" style="fill:rgb(47,46,65);fill-rule:nonzero;"/>
    <g transform="matrix(0.928161,-0.372178,0.372178,0.928161,-89.8,114.24)">
        <ellipse cx="251.05" cy="289.74" rx="18.94" ry="24.99" style="fill:rgb(249,180,153);"/>
    </g>
    <path d="M232.88,275.86C232.88,275.86 250.12,290.71 254.5,277.54C254.5,277.54 269.61,285.61 276.32,273.35C276.32,273.35 278.32,267.01 266.96,261.35C267.618,260.422 268.728,259.917 269.86,260.03C270.992,260.143 266.25,249.03 251.05,247.94C251.05,247.94 232.56,245.77 225.98,258.94C225.98,258.94 206.23,256.75 210.62,284.17C210.62,284.17 218.68,305.26 205.87,307.33C205.87,307.33 209.52,313.8 221.59,310.5C221.59,310.5 219.4,315.99 217.2,315.99C217.2,315.99 228.2,318.18 235.85,309.41C235.85,309.41 236.95,312.7 234.76,313.8C234.76,313.8 241.48,314.04 240.31,307.33C240.31,307.28 226.61,293.93 232.88,275.86Z" style="fill:rgb(47,46,65);fill-rule:nonzero;"/>
    <path d="M240.31,307.28C240.31,307.28 243.53,319.28 235.85,322.52L245.73,347.75C245.73,347.75 264.38,349.95 270.96,345.56L267.67,323.62C263.768,321.311 261.315,317.152 261.18,312.62C261.045,308.088 251.76,317.58 240.31,307.28Z" style="fill:rgb(249,180,153);fill-rule:nonzero;"/>
    <path d="M240.31,307.28C240.31,307.28 245.31,319.28 262.53,318.14C261.865,316.346 261.412,314.48 261.18,312.58C260.948,310.68 251.35,318.38 240.31,307.28Z" style="fill:rgb(247,164,139);fill-rule:nonzero;"/>
    <path d="M267.67,323.62C267.67,323.62 265.48,321.14 267.67,320.73C267.67,320.73 279.74,318.86 280.83,325.08C280.83,325.08 286.32,356.53 275.35,375.18L271,345.56L267.67,323.62Z" style="fill:rgb(47,46,65);fill-rule:nonzero;"/>
    <path d="M254.5,460.75C246.21,475.68 230.39,470.55 223.17,467.15C220.673,465.973 218.369,464.422 216.34,462.55C214.055,460.618 212.349,458.091 211.41,455.25C211.116,454.501 210.875,453.733 210.69,452.95C209.949,450.028 209.931,446.97 210.64,444.04L217.2,416.88C208.43,414.69 207.33,401.52 207.33,401.52L206.2,375.74C206.086,371.833 204.985,368.017 203,364.65C197.44,355.55 199.67,343.37 199.67,343.37C204.06,322.52 223.07,322.52 223.07,322.52L234.76,339L255.6,388.37C255.6,388.37 258.44,409.19 259.73,426.22C259.83,427.52 259.91,428.8 259.99,430.06C260.647,440.582 258.764,451.109 254.5,460.75Z" style="fill:rgb(221,43,70);fill-rule:nonzero;"/>
    <path d="M262.18,459.66C258.89,484.89 239.32,483 239.32,483C211.32,479 210.7,453.6 210.69,452.94C210.875,453.723 211.116,454.491 211.41,455.24C212.349,458.081 214.055,460.608 216.34,462.54C218.369,464.412 220.673,465.963 223.17,467.14C230.39,470.54 246.17,475.67 254.5,460.74C258.775,451.084 260.662,440.539 260,430C259.92,428.74 259.84,427.46 259.74,426.16C264.94,442.09 262.18,459.66 262.18,459.66Z" style="fill:rgb(221,43,70);fill-rule:nonzero;"/>
    <path d="M262.18,459.66C258.89,484.89 239.32,483 239.32,483C211.32,479 210.7,453.6 210.69,452.94C210.875,453.723 211.116,454.491 211.41,455.24C212.349,458.081 214.055,460.608 216.34,462.54C218.369,464.412 220.673,465.963 223.17,467.14C230.39,470.54 246.17,475.67 254.5,460.74C258.775,451.084 260.662,440.539 260,430C259.92,428.74 259.84,427.46 259.74,426.16C264.94,442.09 262.18,459.66 262.18,459.66Z" style="fill-opacity:0.2;fill-rule:nonzero;"/>
    <path d="M365.72,550.78C365.319,553.032 363.971,555.006 362.02,556.2C357.865,558.307 353.368,559.662 348.74,560.2C347.49,560.36 346.15,560.5 344.74,560.56C343.325,560.634 342.075,559.595 341.89,558.19C341.37,554.37 340.68,547.02 342.26,543.07C342.26,543.07 320.32,509.07 314.83,486.07L305.1,462.6C304.287,460.614 302.49,459.193 300.37,458.86C295.3,458.07 285.83,458.04 279.37,466.86C277.536,469.328 275.064,471.251 272.22,472.42C270.405,473.197 268.545,473.865 266.65,474.42C263.05,475.463 259.327,476.022 255.58,476.08C251.833,476.138 268.22,465.17 259.71,426.23L266.71,426.7L332.42,431.14L364.23,536.48C364.23,536.48 367.14,544.65 365.72,550.78Z" style="fill:rgb(47,46,65);fill-rule:nonzero;"/>
    <path d="M266.69,474.37C263.09,475.413 259.367,475.972 255.62,476.03C251.873,476.088 268.26,465.12 259.75,426.18L266.75,426.65C266.75,426.65 271.2,463.85 266.69,474.37Z" style="fill-opacity:0.2;fill-rule:nonzero;"/>
    <path d="M309.36,429.55C309.36,429.55 324.74,432.71 338.44,451.12L332.44,431.12L309.36,429.55Z" style="fill-opacity:0.2;fill-rule:nonzero;"/>
    <path d="M269.86,577C269.86,577 281.93,583.59 291.81,580.29L313,481.52L305.1,462.6C305.1,462.6 304.21,456.18 291.42,459.01C286.545,459.934 282.229,462.751 279.42,466.84L277.57,468.94L269.86,577Z" style="fill:rgb(47,46,65);fill-rule:nonzero;"/>
    <path d="M269.86,577C269.86,577 281.93,583.59 291.81,580.29L313,481.52L305.1,462.6C305.1,462.6 304.21,456.18 291.42,459.01C286.545,459.934 282.229,462.751 279.42,466.84L277.57,468.94L269.86,577Z" style="fill-opacity:0.2;fill-rule:nonzero;"/>
    <path d="M297.67,553C297.67,553 290.08,579.29 275.04,579.27C275.04,579.27 285.22,582.55 291.81,580.35L297.67,553Z" style="fill-opacity:0.2;fill-rule:nonzero;"/>
    <path d="M387.92,581.09L368.23,581.09C366.965,581.086 365.832,580.283 365.41,579.09C364.25,575.97 361.85,569.95 359.78,567.36C359.58,567.138 359.298,567.008 359,567L356,567C355.997,567 355.993,567 355.99,567C355.392,567 354.9,567.492 354.9,568.09C354.9,568.097 354.9,568.103 354.9,568.11L355.13,581.05L351.61,581.05L348.82,560.12C353.448,559.582 357.945,558.227 362.1,556.12C364.051,554.926 365.399,552.952 365.8,550.7C369.103,560.872 376.511,569.215 386.22,573.7C395.929,578.185 395.18,578.56 387.92,581.09Z" style="fill:rgb(221,43,70);fill-rule:nonzero;"/>
    <path d="M271.67,577.92C271.67,577.92 261.09,597.92 261.09,604.47C261.09,604.47 261.09,619.83 267.67,617.64C267.67,617.64 283.03,613.25 285.22,601.18L289.45,580.88C289.45,580.88 282.26,582.08 271.67,577.92Z" style="fill:rgb(221,43,70);fill-rule:nonzero;"/>
    <path d="M229.66,429.55L181.75,609.96L199.21,609.96L255.6,429.55L229.66,429.55Z" style="fill:rgb(188,190,192);fill-rule:nonzero;"/>
    <path d="M630.07,429.55L677.98,609.96L660.52,609.96L604.13,429.55L630.07,429.55Z" style="fill:rgb(188,190,192);fill-rule:nonzero;"/>
    <path d="M637.7,355.43L544.41,355.43L556.25,411.93L651.65,411.38L637.7,355.43Z" style="fill:rgb(230,230,230);fill-rule:nonzero;"/>
    <path d="M544.41,355.43L543.04,351.05L635.85,351.05L637.7,355.43L544.41,355.43Z" style="fill:rgb(115,115,115);fill-rule:nonzero;"/>
    <path d="M543,351.05L541.66,355.43L553.26,415.14L653.26,415.77L651.62,411.38L556.23,411.93C552.55,396.56 550.14,384.13 546.85,368.05C546.45,366.12 545.3,359.24 544.65,355.98C544.193,354.307 543.642,352.661 543,351.05Z" style="fill:rgb(115,115,115);fill-rule:nonzero;"/>
    <path d="M563.02,355.43L551.03,387.88L554.78,404.88L575.56,355.43L563.02,355.43Z" style="fill:white;fill-opacity:0.2;fill-rule:nonzero;"/>
    <path d="M595.93,355.43L578.06,411.93L592.48,411.73L610.78,355.43L595.93,355.43Z" style="fill:white;fill-opacity:0.2;fill-rule:nonzero;"/>
    <path d="M625.79,355.43L610.78,411.62L627.51,411.93L640.99,368.6L637.7,355.43L625.79,355.43Z" style="fill:white;fill-opacity:0.2;fill-rule:nonzero;"/>
    <path d="M716.53,179.9C717.875,185.096 718.547,190.443 718.53,195.81C718.53,229.44 692,256.7 659.29,256.7C654.96,256.701 650.643,256.218 646.42,255.26L659.37,196.74L716.53,179.9Z" style="fill:rgb(179,179,179);fill-rule:nonzero;"/>
    <path d="M694.73,147C684.592,139.173 672.138,134.927 659.33,134.93C633.55,134.93 611.63,151.85 603.48,175.46L659.41,196.75L694.73,147Z" style="fill:rgb(47,46,65);fill-rule:nonzero;"/>
    <path d="M646.52,255.27C619.96,249.27 600.08,224.92 600.08,195.81C600.074,188.886 601.22,182.008 603.47,175.46L659.41,196.74L646.52,255.27Z" style="fill:rgb(221,43,70);fill-rule:nonzero;"/>
    <path d="M716.51,179.86C713.088,166.8 705.425,155.239 694.73,147L659.41,196.75L716.51,179.86Z" style="fill:rgb(204,204,204);fill-rule:nonzero;"/>
    <path d="M733.93,321.42L733.93,328.62C733.93,328.62 744.93,321.42 752.58,322.52L752.58,311.15L741.58,309.36L733.93,321.42Z" style="fill:rgb(249,180,153);fill-rule:nonzero;"/>
    <path d="M733.93,321.42L733.93,326.48C733.93,326.48 744.26,322.61 747.87,317.63L747.87,311.55L744.35,309.8L733.93,321.42Z" style="fill:rgb(247,164,139);fill-rule:nonzero;"/>
    <g transform="matrix(0.174508,-0.984656,0.984656,0.174508,307.78,969.72)">
        <ellipse cx="732.23" cy="301.3" rx="23.43" ry="14.61" style="fill:rgb(249,180,153);"/>
    </g>
    <path d="M719.63,292.22L718.32,296.46C718.32,296.46 721.93,297.97 723.05,293.51C723.05,293.51 725.82,299.86 732.23,298.36C731.758,297.577 731.758,296.593 732.23,295.81C732.702,295.027 739.11,304.63 748.35,301.3L740.88,287.94L732.23,283.13L722.3,286.76C721.73,287.475 721.234,288.245 720.82,289.06C720.302,290.064 719.903,291.124 719.63,292.22Z" style="fill:rgb(247,164,139);fill-rule:nonzero;"/>
    <path d="M723,290.71C724.572,293.454 727.518,295.134 730.68,295.09C733.842,295.046 730.11,291.62 732.04,291.71C732.04,291.71 737.72,302.71 747.91,301.71L747.91,317.71C747.91,317.71 761.39,321.5 770.17,300.66C770.17,300.66 782.24,278.72 762.49,269.94C762.49,269.94 740.55,262.26 729.58,271.04C729.58,271.04 708.73,280.91 712.03,288.59C715.33,296.27 717.47,294 723,290.71Z" style="fill:rgb(47,46,65);fill-rule:nonzero;"/>
    <g transform="matrix(0.292372,-0.956305,0.956305,0.292372,235.1,933.07)">
        <ellipse cx="748.05" cy="307.67" rx="7.13" ry="4.53" style="fill:rgb(249,180,153);"/>
    </g>
    <path d="M726.25,333.49C726.25,333.49 742.7,320.33 755.87,322.49C755.87,322.49 766.18,321.15 764.32,327.85L726.25,333.49Z" style="fill:rgb(61,131,246);fill-rule:nonzero;"/>
    <path d="M788.78,353.24L790.24,346.66C790.999,343.455 790.864,340.103 789.85,336.97C784.76,321.88 764.61,327.97 764.32,327.88C764.03,327.79 726.25,333.49 726.25,333.49C703.25,332.4 699.92,357.63 699.92,357.63C699.92,357.63 684.56,377.38 686.75,380.63C686.75,380.63 679.07,383.92 680.17,395.99L627.51,402.57L627.51,415.1L682.66,415.1L788.78,353.24Z" style="fill:rgb(47,46,65);fill-rule:nonzero;"/>
    <path d="M686.75,380.67C679.53,384.83 681.03,394.33 683.69,400.88C684.58,403.26 685.69,405.53 686.75,407.88C686.03,406.82 685.37,405.73 684.68,404.65C682.668,401.32 681.285,397.649 680.6,393.82C679.6,388.82 681.6,382.5 686.75,380.69L686.75,380.67Z" style="fill-opacity:0.2;fill-rule:nonzero;"/>
    <path d="M594.05,415.14L627.51,415.14L627.51,407.86L615.51,405.15C612.519,404.478 609.379,405.052 606.82,406.74L594.05,415.14Z" style="fill:rgb(249,180,153);fill-rule:nonzero;"/>
    <path d="M803.84,397.85C803.08,414.47 799.84,446.79 786.59,471.72C786.59,471.72 771.23,496.96 750.38,496.96L653.29,496.96C650.119,496.815 647.002,496.093 644.09,494.83C638.38,492.464 633.676,488.17 630.8,482.7C627.924,477.23 615.44,458.56 638.48,450.88C638.48,450.88 642.27,448.61 651.72,447.88C659.754,447.323 667.127,443.186 671.79,436.62C672.03,436.28 672.26,435.92 672.49,435.56C672.775,435.209 673.039,434.842 673.28,434.46C674.54,432.52 677.46,427.52 682.77,415.81C685.54,409.72 688.95,401.81 693.11,391.6C693.11,391.6 710.68,327.6 764.54,339.88C764.54,339.88 805.08,350.37 804.06,386.94C804.06,386.9 804.16,391.07 803.84,397.85Z" style="fill:rgb(179,179,179);fill-rule:nonzero;"/>
    <path d="M803.84,397.85C803.08,414.47 799.84,446.79 786.59,471.72C786.59,471.72 771.23,496.96 750.38,496.96L653.29,496.96C650.119,496.815 647.002,496.093 644.09,494.83C641.178,493.567 631.91,485.99 646.17,472.83C646.17,472.83 651.66,465.15 667.02,466.25C667.02,466.25 707.61,471.11 726.26,429.18C726.25,429.17 742.11,365.66 803.84,397.85Z" style="fill:rgb(167,169,172);fill-rule:nonzero;"/>
    <circle cx="231.47" cy="294" r="6.58" style="fill:rgb(249,180,153);"/>
    <path d="M231.47,392.73C228.624,401.249 224.357,409.225 218.85,416.32L274.85,416.32L272.66,396.68L231.47,392.73Z" style="fill:rgb(221,43,70);fill-rule:nonzero;"/>
    <path d="M224.88,346.58C224.88,346.58 231.31,369.7 228.64,388.35C226.043,388.478 223.795,390.239 223.05,392.73C225.224,391.347 227.887,390.95 230.37,391.64C232.853,392.33 221.59,396.03 220.5,401.51C220.5,401.51 227.08,393.83 231.5,392.73C231.5,392.73 254.5,398.06 269.35,398.14L269.35,395.79C269.35,395.79 243.25,394.93 230.79,388.35C230.76,388.35 232.56,358.57 224.88,346.58Z" style="fill:rgb(221,43,70);fill-rule:nonzero;"/>
    <path d="M224.88,346.58C224.88,346.58 231.31,369.7 228.64,388.35C226.043,388.478 223.795,390.239 223.05,392.73C225.224,391.347 227.887,390.95 230.37,391.64C232.853,392.33 221.59,396.03 220.5,401.51C220.5,401.51 227.08,393.83 231.5,392.73C231.5,392.73 254.5,398.06 269.35,398.14L269.35,395.79C269.35,395.79 243.25,394.93 230.79,388.35C230.76,388.35 232.56,358.57 224.88,346.58Z" style="fill-opacity:0.2;fill-rule:nonzero;"/>
    <path d="M235.85,322.52C231.711,321.052 227.189,321.052 223.05,322.52C223.657,325.74 224.373,329.073 225.2,332.52C226.33,337.21 227.9,343.04 229.88,348.84C230.851,351.62 232.197,354.254 233.88,356.67L255.65,388.39C255.65,388.39 252.36,359.86 245.78,347.79L235.85,322.52Z" style="fill:rgb(47,46,65);fill-rule:nonzero;"/>
    <path d="M384.26,351.05L353.09,416.49L260.11,416.49L283.03,351.05L384.26,351.05Z" style="fill:rgb(77,77,77);fill-rule:nonzero;"/>
    <path d="M384.26,351.05L353.09,416.49L260.11,416.49L283.03,351.05L384.26,351.05Z" style="fill:white;fill-opacity:0.4;fill-rule:nonzero;"/>
    <path d="M384,351.51L353,416.51L277.54,416.51C277.54,416.51 346.8,390.72 383.91,351.44C383.913,351.44 383.917,351.439 383.921,351.439C383.961,351.439 383.995,351.47 384,351.51Z" style="fill:white;fill-opacity:0.4;fill-rule:nonzero;"/>
    <circle cx="332.4" cy="363.11" r="3.29" style="fill:white;"/>
    <path d="M682.77,415.77C677.46,427.48 674.54,432.48 673.28,434.42L171.13,434.42C171.127,434.42 171.123,434.42 171.12,434.42C168.717,434.42 166.74,432.443 166.74,430.04L166.74,420.16C166.74,417.752 168.722,415.77 171.13,415.77L682.77,415.77Z" style="fill:rgb(230,230,230);fill-rule:nonzero;"/>
    <path d="M449.9,217C449.9,217 450.65,224.89 454.74,228.14C454.768,228.163 454.804,228.176 454.841,228.176C454.929,228.176 455.001,228.103 455.001,228.016C455.001,228.01 455.001,228.005 455,228C454.64,226.83 453.91,223.39 454.5,215.93C454.5,215.88 453.62,215.56 449.9,217Z" style="fill:rgb(47,46,65);fill-rule:nonzero;"/>
    <path d="M449.9,217C449.9,217 450.65,224.89 454.74,228.14C454.768,228.163 454.804,228.176 454.841,228.176C454.929,228.176 455.001,228.103 455.001,228.016C455.001,228.01 455.001,228.005 455,228C454.64,226.83 453.91,223.39 454.5,215.93C454.5,215.88 453.62,215.56 449.9,217Z" style="fill-opacity:0.2;fill-rule:nonzero;"/>
    <path d="M455.71,210.77C454.69,213.909 454.17,217.189 454.17,220.49C455.01,218.644 456.325,217.053 457.98,215.88C459.635,214.707 460.31,226.27 480.28,210.77C480.28,210.77 481.77,220.02 488.81,221.35L491.47,202.94L478.31,200.75L455.71,210.77Z" style="fill:rgb(247,164,139);fill-rule:nonzero;"/>
    <path d="M486.75,231.46L487.09,241.34C485.99,257.79 498.09,276.44 498.09,276.44L505.77,290.71C512.35,308.26 503.02,318.13 503.02,318.13C512.35,321.42 516.74,310.45 516.74,310.45C517.83,314.84 514.54,318.13 514.54,318.13C516.85,317.813 519.067,317.016 521.05,315.79C523.876,313.97 525.812,311.043 526.38,307.73C528.788,295.265 524.248,282.43 514.54,274.25C507.96,269.86 507.96,261.09 507.96,261.09C509.06,246.82 506.86,222.69 506.86,222.69C503.57,187.58 488.76,191.11 488.76,191.11C464.08,168.31 442.13,210.62 442.13,210.62C439.94,217.2 446.52,215.01 446.52,215.01C449.81,220.49 459.69,212.81 459.69,212.81C459.69,212.81 460.79,224.88 481.63,204.04C481.63,204.04 482.73,216.42 488.76,216.81C488.73,216.81 489.7,222.69 486.75,231.46Z" style="fill:rgb(47,46,65);fill-rule:nonzero;"/>
    <g transform="matrix(0.304366,-0.952555,0.952555,0.304366,131.24,620.14)">
        <ellipse cx="490.18" cy="220.22" rx="6.02" ry="4.07" style="fill:rgb(249,180,153);"/>
    </g>
    <path d="M393.14,273.35C391.438,271.008 389.26,269.052 386.75,267.61C384.528,266.335 382.053,265.563 379.5,265.35C377.473,265.203 375.48,264.748 373.59,264C372.185,263.438 371.259,262.069 371.259,260.556C371.259,258.919 372.342,257.467 373.91,257C376.91,256 382.5,255.64 392.16,259.19C392.16,259.19 393.83,259.26 390.54,256.32C390.54,256.32 386.54,252.64 388.09,249.44C388.142,249.319 388.262,249.239 388.394,249.239C388.488,249.239 388.577,249.28 388.64,249.35C390.269,251.327 392.319,252.915 394.64,254C396.094,254.558 397.394,255.457 398.43,256.62C400.679,259.422 401.96,262.879 402.08,266.47L393.14,273.35Z" style="fill:rgb(249,180,153);fill-rule:nonzero;"/>
    <circle cx="423.45" cy="202.94" r="3.29" style="fill:rgb(61,131,246);"/>
    <circle cx="447.59" cy="184.29" r="3.29" style="fill:rgb(61,131,246);"/>
    <circle cx="494.76" cy="177.71" r="3.29" style="fill:rgb(61,131,246);"/>
    <circle cx="507.93" cy="183.19" r="3.29" style="fill:rgb(61,131,246);"/>
</svg>
