<?xml version="1.0" encoding="UTF-8" standalone="no"?>
<!DOCTYPE svg PUBLIC "-//W3C//DTD SVG 1.1//EN" "http://www.w3.org/Graphics/SVG/1.1/DTD/svg11.dtd">
<svg width="100%" height="100%" viewBox="0 0 822 580" version="1.1" xmlns="http://www.w3.org/2000/svg" xmlns:xlink="http://www.w3.org/1999/xlink" xml:space="preserve" xmlns:serif="http://www.serif.com/" style="fill-rule:evenodd;clip-rule:evenodd;stroke-linejoin:round;stroke-miterlimit:2;">
    <g transform="matrix(1,0,0,1,-189.162,-160.495)">
        <path d="M371.238,218.495L318.838,218.495C308.419,218.505 299.848,227.076 299.838,237.495L299.838,294.305C299.168,294.265 298.498,294.205 297.838,294.125C263.909,290.556 237.849,261.611 237.849,227.494C237.849,190.74 268.094,160.495 304.848,160.495C337.468,160.495 365.583,184.318 370.938,216.495C371.048,217.155 371.148,217.825 371.238,218.495Z" style="fill:rgb(242,242,242);fill-rule:nonzero;"/>
    </g>
    <g transform="matrix(1,0,0,1,-189.162,-160.495)">
        <path d="M989.838,216.495L318.838,216.495C307.323,216.508 297.851,225.98 297.838,237.495L297.838,591.495C297.851,603.011 307.323,612.483 318.838,612.495L989.838,612.495C1001.35,612.483 1010.83,603.011 1010.84,591.495L1010.84,237.495C1010.83,225.98 1001.35,216.508 989.838,216.495ZM1008.84,591.495C1008.83,601.915 1000.26,610.486 989.838,610.495L318.838,610.495C308.419,610.486 299.848,601.915 299.838,591.495L299.838,237.495C299.848,227.076 308.419,218.505 318.838,218.495L989.838,218.495C1000.26,218.505 1008.83,227.076 1008.84,237.495L1008.84,591.495Z" style="fill:rgb(63,61,86);fill-rule:nonzero;"/>
    </g>
    <g transform="matrix(1,0,0,1,-189.162,-160.495)">
        <path d="M956.838,273.865L351.838,273.865C351.29,273.865 350.838,273.413 350.838,272.865C350.838,272.316 351.29,271.865 351.838,271.865L956.838,271.865C957.387,271.865 957.838,272.316 957.838,272.865C957.838,273.413 957.387,273.865 956.838,273.865Z" style="fill:rgb(63,61,86);fill-rule:nonzero;"/>
    </g>
    <g transform="matrix(1,0,0,1,-189.162,-160.495)">
        <path d="M522.838,569.495C522.29,569.495 521.838,569.044 521.838,568.495L521.838,239.495C521.838,238.947 522.29,238.495 522.838,238.495C523.387,238.495 523.838,238.947 523.838,239.495L523.838,568.495C523.838,569.044 523.387,569.495 522.838,569.495Z" style="fill:rgb(63,61,86);fill-rule:nonzero;"/>
    </g>
    <g transform="matrix(1,0,0,1,-189.162,-160.495)">
        <path d="M673.838,569.495C673.29,569.495 672.838,569.044 672.838,568.495L672.838,239.495C672.838,238.947 673.29,238.495 673.838,238.495C674.387,238.495 674.838,238.947 674.838,239.495L674.838,568.495C674.838,569.044 674.387,569.495 673.838,569.495Z" style="fill:rgb(63,61,86);fill-rule:nonzero;"/>
    </g>
    <g transform="matrix(1,0,0,1,-189.162,-160.495)">
        <path d="M824.838,569.495C824.29,569.495 823.838,569.044 823.838,568.495L823.838,239.495C823.838,238.947 824.29,238.495 824.838,238.495C825.387,238.495 825.838,238.947 825.838,239.495L825.838,568.495C825.838,569.044 825.387,569.495 824.838,569.495Z" style="fill:rgb(63,61,86);fill-rule:nonzero;"/>
    </g>
    <g transform="matrix(1,0,0,1,-189.162,-160.495)">
        <path d="M425.754,377.083L389.214,377.083C386.746,377.08 384.717,375.05 384.714,372.583L384.714,329.463C384.717,326.995 386.746,324.966 389.214,324.963L425.754,324.963C428.221,324.966 430.251,326.995 430.254,329.463L430.254,372.583C430.251,375.05 428.221,377.08 425.754,377.083Z" style="fill:rgb(61,131,246);fill-rule:nonzero;"/>
    </g>
    <g transform="matrix(1,0,0,1,-189.162,-160.495)">
        <path d="M477.754,500.083L441.214,500.083C438.746,500.08 436.717,498.05 436.714,495.583L436.714,452.463C436.717,449.995 438.746,447.966 441.214,447.963L477.754,447.963C480.221,447.966 482.251,449.995 482.254,452.463L482.254,495.583C482.251,498.05 480.221,500.08 477.754,500.083Z" style="fill:rgb(221,43,70);fill-rule:nonzero;"/>
    </g>
    <g transform="matrix(1,0,0,1,-189.162,-160.495)">
        <path d="M595.754,403.083L559.214,403.083C556.746,403.08 554.717,401.05 554.714,398.583L554.714,355.463C554.717,352.995 556.746,350.966 559.214,350.963L595.754,350.963C598.221,350.966 600.251,352.995 600.254,355.463L600.254,398.583C600.251,401.05 598.221,403.08 595.754,403.083Z" style="fill:rgb(61,131,246);fill-rule:nonzero;"/>
    </g>
    <g transform="matrix(1,0,0,1,-189.162,-160.495)">
        <path d="M748.754,356.083L712.214,356.083C709.746,356.08 707.717,354.05 707.714,351.583L707.714,308.463C707.717,305.995 709.746,303.966 712.214,303.963L748.754,303.963C751.221,303.966 753.251,305.995 753.254,308.463L753.254,351.583C753.251,354.05 751.221,356.08 748.754,356.083Z" style="fill:rgb(61,131,246);fill-rule:nonzero;"/>
    </g>
    <g transform="matrix(1,0,0,1,-189.162,-160.495)">
        <path d="M889.754,356.083L853.214,356.083C850.746,356.08 848.717,354.05 848.714,351.583L848.714,308.463C848.717,305.995 850.746,303.966 853.214,303.963L889.754,303.963C892.221,303.966 894.251,305.995 894.254,308.463L894.254,351.583C894.251,354.05 892.221,356.08 889.754,356.083Z" style="fill:rgb(221,43,70);fill-rule:nonzero;"/>
    </g>
    <g transform="matrix(1,0,0,1,-189.162,-160.495)">
        <path d="M954.754,368.083L918.214,368.083C915.746,368.08 913.717,366.05 913.714,363.583L913.714,320.463C913.717,317.995 915.746,315.966 918.214,315.963L954.754,315.963C957.221,315.966 959.251,317.995 959.254,320.463L959.254,363.583C959.251,366.05 957.221,368.08 954.754,368.083Z" style="fill:rgb(230,230,230);fill-rule:nonzero;"/>
    </g>
    <g transform="matrix(1,0,0,1,-189.162,-160.495)">
        <path d="M925.754,445.083L889.214,445.083C886.746,445.08 884.717,443.05 884.714,440.583L884.714,397.463C884.717,394.995 886.746,392.966 889.214,392.963L925.754,392.963C928.221,392.966 930.251,394.995 930.254,397.463L930.254,440.583C930.251,443.05 928.221,445.08 925.754,445.083Z" style="fill:rgb(230,230,230);fill-rule:nonzero;"/>
    </g>
    <g transform="matrix(1,0,0,1,-189.162,-160.495)">
        <path d="M801.754,429.083L765.214,429.083C762.746,429.08 760.717,427.05 760.714,424.583L760.714,381.463C760.717,378.995 762.746,376.966 765.214,376.963L801.754,376.963C804.221,376.966 806.251,378.995 806.254,381.463L806.254,424.583C806.251,427.05 804.221,429.08 801.754,429.083Z" style="fill:rgb(131,176,248);fill-rule:nonzero;"/>
    </g>
    <g transform="matrix(1,0,0,1,-189.162,-160.495)">
        <path d="M730.754,445.083L694.214,445.083C691.746,445.08 689.717,443.05 689.714,440.583L689.714,397.463C689.717,394.995 691.746,392.966 694.214,392.963L730.754,392.963C733.221,392.966 735.251,394.995 735.254,397.463L735.254,440.583C735.251,443.05 733.221,445.08 730.754,445.083Z" style="fill:rgb(230,230,230);fill-rule:nonzero;"/>
    </g>
    <g transform="matrix(1,0,0,1,-189.162,-160.495)">
        <path d="M577.754,513.083L541.214,513.083C538.746,513.08 536.717,511.05 536.714,508.583L536.714,465.463C536.717,462.995 538.746,460.966 541.214,460.963L577.754,460.963C580.221,460.966 582.251,462.995 582.254,465.463L582.254,508.583C582.251,511.05 580.221,513.08 577.754,513.083Z" style="fill:rgb(230,230,230);fill-rule:nonzero;"/>
    </g>
    <g transform="matrix(1,0,0,1,-189.162,-160.495)">
        <path d="M392.754,456.083L356.214,456.083C353.746,456.08 351.717,454.05 351.714,451.583L351.714,408.463C351.717,405.995 353.746,403.966 356.214,403.963L392.754,403.963C395.221,403.966 397.251,405.995 397.254,408.463L397.254,451.583C397.251,454.05 395.221,456.08 392.754,456.083Z" style="fill:rgb(131,176,248);fill-rule:nonzero;"/>
    </g>
    <g transform="matrix(1,0,0,1,-189.162,-160.495)">
        <path d="M495.754,377.083L459.214,377.083C456.746,377.08 454.717,375.05 454.714,372.583L454.714,329.463C454.717,326.995 456.746,324.966 459.214,324.963L495.754,324.963C498.221,324.966 500.251,326.995 500.254,329.463L500.254,372.583C500.251,375.05 498.221,377.08 495.754,377.083Z" style="fill:rgb(230,230,230);fill-rule:nonzero;"/>
    </g>
    <g transform="matrix(1,0,0,1,-189.162,-160.495)">
        <path d="M465.838,257.495L408.838,257.495C406.644,257.495 404.838,255.69 404.838,253.495C404.838,251.301 406.644,249.495 408.838,249.495L465.838,249.495C468.032,249.495 469.838,251.301 469.838,253.495C469.838,255.69 468.032,257.495 465.838,257.495Z" style="fill:rgb(204,204,204);fill-rule:nonzero;"/>
    </g>
    <g transform="matrix(1,0,0,1,-189.162,-160.495)">
        <path d="M626.838,257.495L569.838,257.495C567.644,257.495 565.838,255.69 565.838,253.495C565.838,251.301 567.644,249.495 569.838,249.495L626.838,249.495C629.032,249.495 630.838,251.301 630.838,253.495C630.838,255.69 629.032,257.495 626.838,257.495Z" style="fill:rgb(204,204,204);fill-rule:nonzero;"/>
    </g>
    <g transform="matrix(1,0,0,1,-189.162,-160.495)">
        <path d="M777.838,257.495L720.838,257.495C718.644,257.495 716.838,255.69 716.838,253.495C716.838,251.301 718.644,249.495 720.838,249.495L777.838,249.495C780.032,249.495 781.838,251.301 781.838,253.495C781.838,255.69 780.032,257.495 777.838,257.495Z" style="fill:rgb(204,204,204);fill-rule:nonzero;"/>
    </g>
    <g transform="matrix(1,0,0,1,-189.162,-160.495)">
        <path d="M918.838,257.495L861.838,257.495C859.644,257.495 857.838,255.69 857.838,253.495C857.838,251.301 859.644,249.495 861.838,249.495L918.838,249.495C921.032,249.495 922.838,251.301 922.838,253.495C922.838,255.69 921.032,257.495 918.838,257.495Z" style="fill:rgb(204,204,204);fill-rule:nonzero;"/>
    </g>
    <g transform="matrix(1,0,0,1,-189.162,-160.495)">
        <path d="M338.171,550.387C333.048,549.885 329.095,545.526 329.095,540.379C329.095,539.458 329.222,538.542 329.471,537.656L303.838,513.795L317.391,510.357L342.597,530.801C346.624,532.227 349.332,536.059 349.332,540.331C349.332,545.877 344.768,550.441 339.222,550.441C338.871,550.441 338.52,550.423 338.171,550.387L338.171,550.387Z" style="fill:rgb(255,184,184);fill-rule:nonzero;"/>
    </g>
    <path d="M184.404,566.253L196.664,566.253L202.496,518.965L184.402,518.965L184.404,566.253Z" style="fill:rgb(255,184,184);fill-rule:nonzero;"/>
    <g transform="matrix(-1,4.57276e-05,-4.57276e-05,-1,591.28,1300.86)">
        <path d="M370.939,723.245L409.47,723.245L409.47,738.132L385.826,738.132C377.659,738.132 370.939,731.411 370.939,723.245L370.939,723.245Z" style="fill:rgb(47,46,65);fill-rule:nonzero;"/>
    </g>
    <path d="M100.345,557.401L112.193,560.555L129.994,516.359L112.509,511.705L100.345,557.401Z" style="fill:rgb(255,184,184);fill-rule:nonzero;"/>
    <g transform="matrix(-0.96635,-0.25722,0.25722,-0.96635,222.996,1345.39)">
        <path d="M285.307,718.541L323.837,718.541L323.837,733.428L300.194,733.428C292.027,733.428 285.307,726.707 285.307,718.541L285.307,718.541Z" style="fill:rgb(47,46,65);fill-rule:nonzero;"/>
    </g>
    <g transform="matrix(1,0,0,1,-189.162,-160.495)">
        <path d="M389.123,717.795L370.416,717.795C367.979,717.803 365.914,715.928 365.689,713.502L354.333,595.57C354.149,593.658 352.523,592.182 350.603,592.182C348.951,592.182 347.485,593.273 347.012,594.856L314.039,705.055C313.318,707.474 310.787,708.916 308.339,708.301L290.936,703.949C288.829,703.423 287.339,701.515 287.339,699.343C287.339,698.945 287.389,698.548 287.488,698.162C287.772,697.052 315.899,587.134 316.144,586.004C322.517,539.036 330.142,526.45 334.237,519.69C334.577,519.13 334.888,518.615 335.169,518.129C335.52,517.521 337.681,511.484 339.052,507.565C339.412,506.276 340.296,505.195 341.487,504.587C358.698,495.785 378.835,501.878 384.596,503.955C385.551,504.291 386.372,504.929 386.935,505.771C404.219,531.842 395.737,683.262 393.861,713.352C393.699,715.836 391.612,717.793 389.123,717.795Z" style="fill:rgb(47,46,65);fill-rule:nonzero;"/>
    </g>
    <circle cx="151.684" cy="234.024" r="24.561" style="fill:rgb(255,184,184);"/>
    <g transform="matrix(1,0,0,1,-189.162,-160.495)">
        <path d="M338.244,512.333L338.067,512.162C337.736,511.842 305.011,479.782 309.247,450.138C311.058,437.458 321.317,429.357 338.914,426.707C352.22,424.731 365.087,432.932 368.914,445.828L386.314,505.313L338.244,512.333Z" style="fill:rgb(204,204,204);fill-rule:nonzero;"/>
    </g>
    <g transform="matrix(1,0,0,1,-189.162,-160.495)">
        <path d="M321.495,535.136L298.176,511.965C294.937,508.728 293.616,504.023 294.697,499.573L305.985,453.654C307.119,449.041 311.289,445.771 316.04,445.771C317.1,445.771 318.154,445.934 319.165,446.254C324.485,447.969 327.523,453.677 325.974,459.048L314.09,499.444L333.308,520.081L321.495,535.136Z" style="fill:rgb(204,204,204);fill-rule:nonzero;"/>
    </g>
    <g transform="matrix(1,0,0,1,-189.162,-160.495)">
        <path d="M446.566,456.058C444.925,459.611 441.352,461.896 437.438,461.896C435.379,461.896 433.37,461.264 431.682,460.086L400.553,476.221L401.929,462.515L429.526,445.436C431.443,443.043 434.349,441.648 437.416,441.648C442.962,441.648 447.526,446.212 447.526,451.758C447.526,453.244 447.198,454.712 446.566,456.058L446.566,456.058Z" style="fill:rgb(255,184,184);fill-rule:nonzero;"/>
    </g>
    <g transform="matrix(1,0,0,1,-189.162,-160.495)">
        <path d="M428.283,466.26L397.937,479.373C393.834,481.133 389.096,480.624 385.46,478.035L346.871,450.386C344.159,448.443 342.547,445.305 342.547,441.969C342.547,439.574 343.378,437.251 344.897,435.4C348.466,431.097 354.895,430.398 359.306,433.832L392.394,459.874L418.695,449.699L428.283,466.26Z" style="fill:rgb(204,204,204);fill-rule:nonzero;"/>
    </g>
    <g transform="matrix(1,0,0,1,-189.162,-160.495)">
        <path d="M344.918,402.39C347.948,398.593 353.609,398.389 357.771,395.885C363.222,392.605 365.476,385.274 363.72,379.159C361.963,373.044 356.781,368.278 350.841,365.999C344.901,363.719 338.292,363.691 332.025,364.793C322.695,366.433 313.509,370.788 307.819,378.362C302.128,385.936 300.68,397.028 305.837,404.974C308.207,408.627 311.866,411.642 312.813,415.891C314.055,421.471 310.141,426.852 305.948,430.737C301.172,435.164 295.691,438.871 291.507,443.86C287.322,448.85 284.531,455.667 286.441,461.893C288.041,467.109 292.696,470.952 297.802,472.877C302.907,474.801 308.468,475.079 313.923,475.186C319.22,475.29 324.847,475.161 329.309,472.305C334.086,469.247 336.637,463.446 336.825,457.778C337.014,452.109 335.12,446.555 332.581,441.483C331.068,438.46 329.308,435.531 328.303,432.303C327.297,429.075 327.123,425.413 328.733,422.44C330.426,419.315 333.85,417.431 337.337,416.746C337.518,416.71 337.71,416.679 337.911,416.65C341.581,416.174 344.357,413.014 344.357,409.313C344.357,408.88 344.319,408.449 344.244,408.023C343.847,405.808 343.881,403.689 344.918,402.39Z" style="fill:rgb(47,46,65);fill-rule:nonzero;"/>
    </g>
    <path d="M483.229,567.3L470.969,567.3L465.137,520.012L483.231,520.013L483.229,567.3Z" style="fill:rgb(160,97,106);fill-rule:nonzero;"/>
    <path d="M462.212,563.797L485.856,563.797L485.856,578.684L447.325,578.684C447.325,570.517 454.045,563.797 462.212,563.797Z" style="fill:rgb(47,46,65);fill-rule:nonzero;"/>
    <path d="M572.184,553.413L561.033,558.506L536.079,517.917L552.538,510.399L572.184,553.413Z" style="fill:rgb(160,97,106);fill-rule:nonzero;"/>
    <g transform="matrix(0.90961,-0.415464,0.415464,0.90961,-422.528,215.688)">
        <path d="M743.47,716.962L767.114,716.962L767.114,731.849L728.583,731.849C728.583,731.849 728.583,731.849 728.583,731.849C728.583,723.682 735.304,716.962 743.47,716.962Z" style="fill:rgb(47,46,65);fill-rule:nonzero;"/>
    </g>
    <g transform="matrix(1,0,0,1,-189.162,-160.495)">
        <path d="M725.643,568.352C728.166,566.454 729.652,563.474 729.652,560.318C729.652,557.525 728.489,554.855 726.444,552.954L740.856,520.254L722.547,523.357L711.669,553.933C710.203,555.736 709.402,557.99 709.402,560.313C709.402,565.86 713.965,570.424 719.512,570.424C721.727,570.424 723.882,569.696 725.643,568.352Z" style="fill:rgb(160,97,106);fill-rule:nonzero;"/>
    </g>
    <g transform="matrix(1,0,0,1,-189.162,-160.495)">
        <path d="M671.609,715.327L659.897,715.327C657.555,715.319 655.587,713.489 655.409,711.153L649.022,540.594C649.014,540.486 649.01,540.377 649.01,540.268C649.01,537.799 651.042,535.768 653.51,535.768C653.656,535.768 653.802,535.775 653.947,535.789L721.682,542.983C723.944,543.204 725.701,545.105 725.745,547.376L727.164,622.612C727.172,623.02 727.251,623.424 727.398,623.805L755.183,695.858C755.382,696.374 755.484,696.923 755.484,697.477C755.484,699.358 754.305,701.049 752.54,701.699L740.672,706.072C738.549,706.853 736.15,705.919 735.114,703.908L700.982,637.538C700.796,637.178 700.66,636.793 700.577,636.396L694.747,608.302C694.411,606.684 692.972,605.514 691.32,605.514C689.55,605.514 688.044,606.856 687.843,608.615L676.08,711.338C675.822,713.6 673.886,715.327 671.609,715.327Z" style="fill:rgb(47,46,65);fill-rule:nonzero;"/>
    </g>
    <circle cx="488.279" cy="222.178" r="24.561" style="fill:rgb(160,97,106);"/>
    <g transform="matrix(1,0,0,1,-189.162,-160.495)">
        <path d="M694.285,556.19C677.631,556.006 661.369,551.08 647.412,541.991L647.173,541.826L647.198,541.537L656.593,432.121C657.259,424.48 663.531,418.439 671.192,418.059C683.368,417.5 699.723,418.205 708.478,424.726C721.708,434.58 728.085,449.42 725.973,465.438C721.593,498.657 726.555,543.467 727.135,548.467L727.177,548.828L726.847,548.979C716.648,553.724 705.534,556.185 694.285,556.19Z" style="fill:rgb(221,43,70);fill-rule:nonzero;"/>
    </g>
    <g transform="matrix(1,0,0,1,-189.162,-160.495)">
        <path d="M727.022,548.653C725.623,548.65 724.287,548.062 723.341,547.031L717.969,541.17C716.789,539.875 716.368,538.055 716.859,536.375L729.11,494.911L710.47,455.767C709.6,453.935 709.387,451.858 709.866,449.888C710.827,445.958 714.378,443.171 718.423,443.171C721.66,443.171 724.645,444.954 726.18,447.804L751.474,488.846C753.559,492.224 753.829,496.427 752.194,500.044L731.585,545.709C730.895,547.241 729.477,548.325 727.818,548.589C727.555,548.631 727.288,548.653 727.022,548.653Z" style="fill:rgb(221,43,70);fill-rule:nonzero;"/>
    </g>
    <g transform="matrix(1,0,0,1,-189.162,-160.495)">
        <path d="M553.9,469.448C555.634,470.738 557.739,471.435 559.901,471.435C563.706,471.435 567.199,469.275 568.898,465.87L604.336,470.466L596.192,453.778L563.788,451.972C562.551,451.453 561.223,451.186 559.881,451.186C554.335,451.186 549.771,455.75 549.771,461.297C549.771,464.514 551.306,467.545 553.9,469.448L553.9,469.448Z" style="fill:rgb(160,97,106);fill-rule:nonzero;"/>
    </g>
    <g transform="matrix(1,0,0,1,-189.162,-160.495)">
        <path d="M632.011,478.562C631.394,478.562 630.778,478.519 630.167,478.435L574.416,470.702C572.567,470.448 570.966,469.277 570.165,467.591C570.037,467.323 569.931,467.046 569.847,466.762L569.847,466.762C569.411,465.27 569.62,463.662 570.422,462.33L575.035,454.681C576.043,453.021 577.848,452.001 579.791,451.995L579.799,451.995L628.395,452.051L664.689,419.534C666.377,418.025 668.534,417.142 670.796,417.034C670.947,417.027 671.099,417.024 671.251,417.024C676.646,417.024 681.086,421.463 681.086,426.859C681.086,429.484 680.034,432.003 678.168,433.85L641.953,474.128C639.42,476.949 635.802,478.562 632.011,478.562Z" style="fill:rgb(221,43,70);fill-rule:nonzero;"/>
    </g>
    <g transform="matrix(1,0,0,1,-189.162,-160.495)">
        <path d="M680.234,404.523C682.478,399.329 684.377,392.411 680.072,388.738C677.575,386.608 673.978,386.603 670.707,386.338C661.489,385.592 652.001,381.351 647.496,373.275C642.991,365.199 645.507,353.19 654.006,349.547C659.736,347.091 666.304,348.764 672.301,350.464L690.307,355.57C695.657,357.087 701.274,358.761 705.126,362.772C711.268,369.169 710.809,379.984 705.93,387.39C701.051,394.796 693.704,402.521 685.292,405.333L680.234,404.523Z" style="fill:rgb(47,46,65);fill-rule:nonzero;"/>
    </g>
    <g transform="matrix(1,0,0,1,-189.162,-160.495)">
        <path d="M928.647,739.505L190.353,739.505C190.351,739.505 190.35,739.505 190.349,739.505C189.696,739.505 189.158,738.967 189.158,738.314C189.158,737.661 189.696,737.123 190.349,737.123C190.35,737.123 190.351,737.123 190.353,737.123L928.647,737.123C928.648,737.123 928.649,737.123 928.65,737.123C929.303,737.123 929.841,737.661 929.841,738.314C929.841,738.967 929.303,739.505 928.65,739.505C928.649,739.505 928.648,739.505 928.647,739.505Z" style="fill:rgb(63,61,86);fill-rule:nonzero;"/>
    </g>
</svg>
