<?xml version="1.0" encoding="UTF-8" standalone="no"?>
<!DOCTYPE svg PUBLIC "-//W3C//DTD SVG 1.1//EN" "http://www.w3.org/Graphics/SVG/1.1/DTD/svg11.dtd">
<svg width="100%" height="100%" viewBox="0 0 750 600" version="1.1" xmlns="http://www.w3.org/2000/svg" xmlns:xlink="http://www.w3.org/1999/xlink" xml:space="preserve" xmlns:serif="http://www.serif.com/" style="fill-rule:evenodd;clip-rule:evenodd;stroke-linejoin:round;stroke-miterlimit:2;">
    <rect x="38.021" y="9.354" width="624.172" height="480.489" style="fill:white;"/>
    <path d="M662.192,489.843L38.021,489.843L38.021,9.354L662.192,9.354L662.192,489.843ZM47.243,480.621L652.97,480.621L652.97,18.576L47.243,18.576L47.243,480.621Z" style="fill:rgb(229,229,229);fill-rule:nonzero;"/>
    <path d="M201.376,371.551L154.119,371.551C151.472,371.548 149.295,369.371 149.292,366.725L149.292,301.58C149.295,298.933 151.472,296.757 154.119,296.754L201.376,296.754C204.023,296.757 206.2,298.933 206.203,301.58L206.203,366.725C206.2,369.371 204.023,371.548 201.376,371.551Z" style="fill:rgb(230,230,230);fill-rule:nonzero;"/>
    <path d="M287.556,371.551L240.298,371.551C237.652,371.548 235.475,369.371 235.471,366.725L235.471,239.791C235.475,237.144 237.652,234.967 240.298,234.964L287.556,234.964C290.202,234.967 292.379,237.144 292.382,239.791L292.382,366.725C292.379,369.371 290.202,371.548 287.556,371.551Z" style="fill:rgb(230,230,230);fill-rule:nonzero;"/>
    <path d="M373.735,371.551L326.478,371.551C323.831,371.548 321.654,369.371 321.651,366.725L321.651,301.58C321.654,298.933 323.831,296.757 326.478,296.754L373.735,296.754C376.382,296.757 378.559,298.933 378.562,301.58L378.562,366.725C378.559,369.371 376.382,371.548 373.735,371.551Z" style="fill:rgb(230,230,230);fill-rule:nonzero;"/>
    <path d="M459.915,371.551L412.658,371.551C410.071,371.607 407.895,369.529 407.831,366.943L407.831,215.182C407.895,212.596 410.071,210.518 412.658,210.574L459.915,210.574C462.501,210.518 464.677,212.596 464.742,215.182L464.742,366.943C464.677,369.529 462.501,371.607 459.915,371.551Z" style="fill:rgb(230,230,230);fill-rule:nonzero;"/>
    <path d="M546.094,371.551L498.837,371.551C496.19,371.548 494.013,369.371 494.01,366.725L494.01,171.498C494.013,168.851 496.19,166.674 498.837,166.671L546.094,166.671C548.741,166.674 550.918,168.851 550.921,171.498L550.921,366.725C550.918,369.371 548.741,371.548 546.094,371.551Z" style="fill:rgb(242,242,242);fill-rule:nonzero;"/>
    <circle cx="177.747" cy="267.485" r="9.756" style="fill:rgb(63,61,86);"/>
    <circle cx="263.927" cy="204.07" r="9.756" style="fill:rgb(63,61,86);"/>
    <circle cx="350.107" cy="267.485" r="9.756" style="fill:rgb(63,61,86);"/>
    <circle cx="436.286" cy="173.175" r="9.756" style="fill:rgb(63,61,86);"/>
    <circle cx="522.466" cy="137.403" r="9.756" style="fill:rgb(63,61,86);"/>
    <path d="M350.313,269.67L263.927,204.967L178.723,268.786L176.773,266.183L263.927,200.903L349.901,265.299L435.336,171.805L435.679,171.666L521.858,136.943L523.074,139.96L437.237,174.544L350.313,269.67Z" style="fill:rgb(63,61,86);fill-rule:nonzero;"/>
    <path d="M677.017,584.068L662.338,584.067L655.354,527.447L677.02,527.448L677.017,584.068Z" style="fill:rgb(255,182,182);fill-rule:nonzero;"/>
    <path d="M680.76,598.298L633.428,598.296L633.428,597.697C633.429,587.591 641.745,579.275 651.851,579.275L680.761,579.276L680.76,598.298Z" style="fill:rgb(47,46,65);fill-rule:nonzero;"/>
    <path d="M624.556,344.418L632.889,477.2L660.87,570.665L682.549,572.235L671.663,458.326L676.436,382.68C676.436,382.68 699.063,365.813 686.552,345.51L624.556,344.418Z" style="fill:rgb(47,46,65);fill-rule:nonzero;"/>
    <path d="M686.596,584.068L671.916,584.067L664.933,527.447L686.598,527.448L686.596,584.068Z" style="fill:rgb(255,182,182);fill-rule:nonzero;"/>
    <path d="M690.339,598.298L643.007,598.296L643.007,597.697C643.007,587.591 651.324,579.275 661.43,579.275L690.34,579.276L690.339,598.298Z" style="fill:rgb(47,46,65);fill-rule:nonzero;"/>
    <path d="M634.134,344.418L642.468,477.2L670.449,570.665L692.128,572.235L681.242,458.326L686.015,382.68C686.015,382.68 708.642,365.813 696.131,345.51L634.134,344.418Z" style="fill:rgb(47,46,65);fill-rule:nonzero;"/>
    <path d="M549.327,302.177C550.873,300.498 552.865,299.292 555.07,298.701C559.782,297.439 564.815,299.159 567.769,303.041L608.433,289.728L602.575,311.177L564.857,320.531C563.77,321.25 562.574,321.788 561.314,322.125C554.9,323.844 548.207,319.981 546.488,313.566C545.409,309.539 546.483,305.227 549.327,302.177Z" style="fill:rgb(255,182,182);fill-rule:nonzero;"/>
    <path d="M634.683,310.424L593.043,320.451L586.247,292.951L604.134,281.487L624.157,227.901C626.578,221.418 631.998,216.495 638.682,214.704C650.035,211.662 661.88,218.501 664.922,229.855C666.183,234.559 665.803,239.555 663.844,244.014L634.683,310.424Z" style="fill:rgb(61,131,246);fill-rule:nonzero;"/>
    <path d="M682.938,358.986C660.231,369.441 627.117,367.87 625.193,367.769L624.658,367.74L615.554,210.795L635.75,186.718C637.04,185.18 638.656,183.946 640.48,183.106C647.254,179.986 655.396,182.995 658.516,189.769C658.726,190.226 658.911,190.694 659.069,191.172L691.135,287.769L702.357,340.281L702.294,340.445C699.078,348.991 691.799,354.906 682.938,358.986Z" style="fill:rgb(48,122,241);fill-rule:nonzero;"/>
    <path d="M635.823,143.867C650.99,147.93 660.004,163.543 655.94,178.709C651.876,193.876 636.263,202.89 621.097,198.826C605.931,194.762 596.917,179.149 600.981,163.983C605.044,148.817 620.657,139.803 635.823,143.867Z" style="fill:rgb(255,182,182);"/>
    <path d="M599.831,139.131C603.366,137.031 607.477,136.105 611.571,136.487C615.607,136.689 619.863,137.557 623.557,135.98C627.768,134.145 630.701,129.305 635.271,129.276C637.221,129.4 639.099,130.067 640.693,131.2C646.943,135.074 651.903,140.718 654.941,147.415C655.584,149.272 656.575,150.989 657.862,152.474C658.697,153.124 659.495,153.818 660.256,154.553C661.028,155.588 661.531,156.801 661.716,158.08C663.124,165.096 661.928,172.389 658.353,178.587C656.233,182.246 653.333,185.386 651.137,189.05C648.94,192.713 641.676,198.854 640.952,196.653C640.228,194.45 639.124,192.283 639.032,189.94C638.863,185.335 641.193,181.37 638.656,177.523C637.087,175.144 633.691,172.921 631.659,174.905C630.86,175.671 630.584,176.836 629.856,177.658C628.423,179.257 625.618,178.902 624.11,177.357C622.702,175.702 621.97,173.574 622.061,171.404C621.808,161.568 618.753,154.601 607.96,155.887C603.938,156.37 599.395,156.207 596.572,152.773C592.848,148.254 595.53,141.994 599.831,139.131Z" style="fill:rgb(47,46,65);fill-rule:nonzero;"/>
    <path d="M557.359,379.558L510.102,379.558C507.455,379.555 505.278,377.378 505.275,374.731L505.275,179.504C505.278,176.858 507.455,174.681 510.102,174.678L557.359,174.678C560.006,174.681 562.183,176.858 562.186,179.504L562.186,374.731C562.183,377.378 560.006,379.555 557.359,379.558Z" style="fill:rgb(221,43,70);fill-rule:nonzero;"/>
    <path d="M569.779,332.975C570.959,331.021 572.671,329.441 574.714,328.422C579.079,326.245 584.355,326.926 588.023,330.141L625.213,308.985L623.753,331.171L588.66,347.861C587.738,348.782 586.672,349.548 585.506,350.13C579.563,353.094 572.234,350.643 569.27,344.7C567.409,340.97 567.602,336.53 569.779,332.975Z" style="fill:rgb(255,182,182);fill-rule:nonzero;"/>
    <path d="M655.065,324.028L616.263,342.16L604.117,316.569L619.358,301.766L628.288,245.263C629.368,238.428 633.695,232.522 639.889,229.434C650.406,224.188 663.378,228.527 668.624,239.045C670.798,243.403 671.421,248.375 670.392,253.135L655.065,324.028Z" style="fill:rgb(61,131,246);fill-rule:nonzero;"/>
    <path d="M823.806,600L367.606,600C366.949,600 366.409,599.459 366.409,598.803C366.409,598.146 366.949,597.605 367.606,597.605L823.806,597.605C824.463,597.605 825.003,598.146 825.003,598.803C825.003,599.459 824.463,600 823.806,600Z" style="fill:rgb(202,202,202);fill-rule:nonzero;"/>
    <g transform="matrix(1,0,0,1,510.739,111.997)">
        <text x="0px" y="0px" style="font-family:'ArialMT', 'Arial', sans-serif;font-size:95.612px;fill:rgb(221,43,70);">€</text>
    </g>
    <g transform="matrix(1,0,0,1,411.5,151.072)">
        <text x="0px" y="0px" style="font-family:'ArialMT', 'Arial', sans-serif;font-size:59.914px;fill:rgb(63,61,86);">€</text>
    </g>
    <g transform="matrix(1,0,0,1,340.098,239.166)">
        <text x="0px" y="0px" style="font-family:'ArialMT', 'Arial', sans-serif;font-size:39.246px;fill:rgb(63,61,86);">€</text>
    </g>
</svg>
