<?xml version="1.0" encoding="UTF-8" standalone="no"?><!DOCTYPE svg PUBLIC "-//W3C//DTD SVG 1.1//EN" "http://www.w3.org/Graphics/SVG/1.1/DTD/svg11.dtd"><svg width="100%" height="100%" viewBox="0 0 750 600" version="1.1" xmlns="http://www.w3.org/2000/svg" xmlns:xlink="http://www.w3.org/1999/xlink" xml:space="preserve" xmlns:serif="http://www.serif.com/" style="fill-rule:evenodd;clip-rule:evenodd;stroke-linejoin:round;stroke-miterlimit:2;"><rect x="38.021" y="9.354" width="624.172" height="480.489" style="fill:#fff;"/><path d="M662.192,489.843l-624.171,0l0,-480.489l624.171,0l0,480.489Zm-614.949,-9.222l605.727,0l0,-462.045l-605.727,0l0,462.045Z" style="fill:#e5e5e5;fill-rule:nonzero;"/><path d="M201.376,371.551l-47.257,0c-2.647,-0.003 -4.824,-2.18 -4.827,-4.826l0,-65.145c0.003,-2.647 2.18,-4.823 4.827,-4.826l47.257,0c2.647,0.003 4.824,2.179 4.827,4.826l0,65.145c-0.003,2.646 -2.18,4.823 -4.827,4.826Z" style="fill:#e6e6e6;fill-rule:nonzero;"/><path d="M287.556,371.551l-47.258,0c-2.646,-0.003 -4.823,-2.18 -4.827,-4.826l0,-126.934c0.004,-2.647 2.181,-4.824 4.827,-4.827l47.258,0c2.646,0.003 4.823,2.18 4.826,4.827l0,126.934c-0.003,2.646 -2.18,4.823 -4.826,4.826Z" style="fill:#e6e6e6;fill-rule:nonzero;"/><path d="M373.735,371.551l-47.257,0c-2.647,-0.003 -4.824,-2.18 -4.827,-4.826l0,-65.145c0.003,-2.647 2.18,-4.823 4.827,-4.826l47.257,0c2.647,0.003 4.824,2.179 4.827,4.826l0,65.145c-0.003,2.646 -2.18,4.823 -4.827,4.826Z" style="fill:#e6e6e6;fill-rule:nonzero;"/><path d="M459.915,371.551l-47.257,0c-2.587,0.056 -4.763,-2.022 -4.827,-4.608l0,-151.761c0.064,-2.586 2.24,-4.664 4.827,-4.608l47.257,0c2.586,-0.056 4.762,2.022 4.827,4.608l0,151.761c-0.065,2.586 -2.241,4.664 -4.827,4.608Z" style="fill:#e6e6e6;fill-rule:nonzero;"/><path d="M546.094,371.551l-47.257,0c-2.647,-0.003 -4.824,-2.18 -4.827,-4.826l0,-195.227c0.003,-2.647 2.18,-4.824 4.827,-4.827l47.257,0c2.647,0.003 4.824,2.18 4.827,4.827l0,195.227c-0.003,2.646 -2.18,4.823 -4.827,4.826Z" style="fill:#f2f2f2;fill-rule:nonzero;"/><circle cx="177.747" cy="267.485" r="9.756" style="fill:#3f3d56;"/><circle cx="263.927" cy="204.07" r="9.756" style="fill:#3f3d56;"/><circle cx="350.107" cy="267.485" r="9.756" style="fill:#3f3d56;"/><circle cx="436.286" cy="173.175" r="9.756" style="fill:#3f3d56;"/><circle cx="522.466" cy="137.403" r="9.756" style="fill:#3f3d56;"/><path d="M350.313,269.67l-86.386,-64.703l-85.204,63.819l-1.95,-2.603l87.154,-65.28l85.974,64.396l85.435,-93.494l0.343,-0.139l86.179,-34.723l1.216,3.017l-85.837,34.584l-86.924,95.126Z" style="fill:#3f3d56;fill-rule:nonzero;"/><path d="M677.017,584.068l-14.679,-0.001l-6.984,-56.62l21.666,0.001l-0.003,56.62Z" style="fill:#ffb6b6;fill-rule:nonzero;"/><path d="M680.76,598.298l-47.332,-0.002l0,-0.599c0.001,-10.106 8.317,-18.422 18.423,-18.422l28.91,0.001l-0.001,19.022Z" style="fill:#2f2e41;fill-rule:nonzero;"/><path d="M624.556,344.418l8.333,132.782l27.981,93.465l21.679,1.57l-10.886,-113.909l4.773,-75.646c0,0 22.627,-16.867 10.116,-37.17l-61.996,-1.092Z" style="fill:#2f2e41;fill-rule:nonzero;"/><path d="M686.596,584.068l-14.68,-0.001l-6.983,-56.62l21.665,0.001l-0.002,56.62Z" style="fill:#ffb6b6;fill-rule:nonzero;"/><path d="M690.339,598.298l-47.332,-0.002l0,-0.599c0,-10.106 8.317,-18.422 18.423,-18.422l28.91,0.001l-0.001,19.022Z" style="fill:#2f2e41;fill-rule:nonzero;"/><path d="M634.134,344.418l8.334,132.782l27.981,93.465l21.679,1.57l-10.886,-113.909l4.773,-75.646c0,0 22.627,-16.867 10.116,-37.17l-61.997,-1.092Z" style="fill:#2f2e41;fill-rule:nonzero;"/><path d="M682.938,358.986c-22.707,10.455 -55.821,8.884 -57.745,8.783l-0.535,-0.029l-9.104,-156.945l20.196,-24.077c1.29,-1.538 2.906,-2.772 4.73,-3.612c6.774,-3.12 14.916,-0.111 18.036,6.663c0.21,0.457 0.395,0.925 0.553,1.403l32.066,96.597l11.222,52.512l-0.063,0.164c-3.216,8.546 -10.495,14.461 -19.356,18.541Z" style="fill:#3f3d56;fill-rule:nonzero;"/><path d="M549.327,302.177c1.546,-1.679 3.538,-2.885 5.743,-3.476c4.712,-1.262 9.745,0.458 12.699,4.34l40.664,-13.313l-5.858,21.449l-37.718,9.354c-1.087,0.719 -2.283,1.257 -3.543,1.594c-6.414,1.719 -13.107,-2.144 -14.826,-8.559c-1.079,-4.027 -0.005,-8.339 2.839,-11.389Z" style="fill:#ffb6b6;fill-rule:nonzero;"/><path d="M634.683,310.424l-41.64,10.027l-6.796,-27.5l17.887,-11.464l20.023,-53.586c2.421,-6.483 7.841,-11.406 14.525,-13.197c11.353,-3.042 23.198,3.797 26.24,15.151c1.261,4.704 0.881,9.7 -1.078,14.159l-29.161,66.41Z" style="fill:#3f3d56;fill-rule:nonzero;"/><path d="M635.823,143.867c15.167,4.063 24.181,19.676 20.117,34.842c-4.064,15.167 -19.677,24.181 -34.843,20.117c-15.166,-4.064 -24.18,-19.677 -20.116,-34.843c4.063,-15.166 19.676,-24.18 34.842,-20.116Z" style="fill:#ffb6b6;"/><path d="M599.831,139.131c3.535,-2.1 7.646,-3.026 11.74,-2.644c4.036,0.202 8.292,1.07 11.986,-0.507c4.211,-1.835 7.144,-6.675 11.714,-6.704c1.95,0.124 3.828,0.791 5.422,1.924c6.25,3.874 11.21,9.518 14.248,16.215c0.643,1.857 1.634,3.574 2.921,5.059c0.835,0.65 1.633,1.344 2.394,2.079c0.772,1.035 1.275,2.248 1.46,3.527c1.408,7.016 0.212,14.309 -3.363,20.507c-2.12,3.659 -5.02,6.799 -7.216,10.463c-2.197,3.663 -9.461,9.804 -10.185,7.603c-0.724,-2.203 -1.828,-4.37 -1.92,-6.713c-0.169,-4.605 2.161,-8.57 -0.376,-12.417c-1.569,-2.379 -4.965,-4.602 -6.997,-2.618c-0.799,0.766 -1.075,1.931 -1.803,2.753c-1.433,1.599 -4.238,1.244 -5.746,-0.301c-1.408,-1.655 -2.14,-3.783 -2.049,-5.953c-0.253,-9.836 -3.308,-16.803 -14.101,-15.517c-4.022,0.483 -8.565,0.32 -11.388,-3.114c-3.724,-4.519 -1.042,-10.779 3.259,-13.642Z" style="fill:#2f2e41;fill-rule:nonzero;"/><path d="M557.359,379.558l-47.257,-0c-2.647,-0.003 -4.824,-2.18 -4.827,-4.827l0,-195.227c0.003,-2.646 2.18,-4.823 4.827,-4.826l47.257,-0c2.647,0.003 4.824,2.18 4.827,4.826l0,195.227c-0.003,2.647 -2.18,4.824 -4.827,4.827Z" style="fill:#dd2b46;fill-rule:nonzero;"/><path d="M569.779,332.975c1.18,-1.954 2.892,-3.534 4.935,-4.553c4.365,-2.177 9.641,-1.496 13.309,1.719l37.19,-21.156l-1.46,22.186l-35.093,16.69c-0.922,0.921 -1.988,1.687 -3.154,2.269c-5.943,2.964 -13.272,0.513 -16.236,-5.43c-1.861,-3.73 -1.668,-8.17 0.509,-11.725Z" style="fill:#ffb6b6;fill-rule:nonzero;"/><path d="M655.065,324.028l-38.802,18.132l-12.146,-25.591l15.241,-14.803l8.93,-56.503c1.08,-6.835 5.407,-12.741 11.601,-15.829c10.517,-5.246 23.489,-0.907 28.735,9.611c2.174,4.358 2.797,9.33 1.768,14.09l-15.327,70.893Z" style="fill:#3f3d56;fill-rule:nonzero;"/><path d="M823.806,600l-456.2,0c-0.657,0 -1.197,-0.541 -1.197,-1.197c-0,-0.657 0.54,-1.198 1.197,-1.198l456.2,0c0.657,0 1.197,0.541 1.197,1.198c0,0.656 -0.54,1.197 -1.197,1.197Z" style="fill:#cacaca;fill-rule:nonzero;"/><text x="510.739px" y="111.997px" style="font-family:'ArialMT', 'Arial', sans-serif;font-size:95.612px;fill:#dd2b46;">€</text><text x="411.5px" y="151.072px" style="font-family:'ArialMT', 'Arial', sans-serif;font-size:59.914px;fill:#3f3d56;">€</text><text x="340.098px" y="239.166px" style="font-family:'ArialMT', 'Arial', sans-serif;font-size:39.246px;fill:#3f3d56;">€</text></svg>