<?xml version="1.0" encoding="UTF-8" standalone="no"?>
<!DOCTYPE svg PUBLIC "-//W3C//DTD SVG 1.1//EN" "http://www.w3.org/Graphics/SVG/1.1/DTD/svg11.dtd">
<svg width="100%" height="100%" viewBox="0 0 943 632" version="1.1" xmlns="http://www.w3.org/2000/svg" xmlns:xlink="http://www.w3.org/1999/xlink" xml:space="preserve" xmlns:serif="http://www.serif.com/" style="fill-rule:evenodd;clip-rule:evenodd;stroke-linejoin:round;stroke-miterlimit:2;">
    <g transform="matrix(1,0,0,1,-128.726,-134.28)">
        <path d="M879.59,413.72L882.388,391.294C884.27,376.207 897.236,364.758 912.44,364.758C929.053,364.758 942.724,378.429 942.724,395.043C942.724,396.296 942.646,397.548 942.491,398.792L939.693,421.219C939.415,423.432 937.367,425.025 935.153,424.752L883.123,418.261C880.91,417.982 879.317,415.934 879.59,413.72Z" style="fill:rgb(47,46,65);fill-rule:nonzero;"/>
    </g>
    <circle cx="775.786" cy="263.927" r="22.204" style="fill:rgb(255,184,184);"/>
    <g transform="matrix(1,0,0,1,-128.726,-134.28)">
        <path d="M875.055,392.201C876.696,379.167 888.756,369.783 901.793,371.394L906.278,371.954C919.312,373.595 928.696,385.655 927.084,398.692L927.028,399.14L917.55,397.958L915.446,388.502L913.67,397.474L908.771,396.863L907.71,392.092L906.814,396.618L874.999,392.649L875.055,392.201Z" style="fill:rgb(47,46,65);fill-rule:nonzero;"/>
    </g>
    <g transform="matrix(1,0,0,1,-128.726,-134.28)">
        <path d="M795.916,477.411C797.659,480.834 801.189,482.997 805.03,482.997C807.257,482.997 809.424,482.27 811.2,480.926L831.367,492.74L841.536,482.236L812.822,465.952C810.869,463.699 808.03,462.402 805.049,462.402C799.408,462.402 794.766,467.044 794.766,472.685C794.766,474.33 795.16,475.951 795.916,477.412L795.916,477.411Z" style="fill:rgb(255,184,184);fill-rule:nonzero;"/>
    </g>
    <g transform="matrix(1,0,0,1,-128.726,-134.28)">
        <path d="M862.013,498.639C847.137,498.639 820.961,491.98 819.511,491.608L819.053,491.491L823.173,470.632L863.155,478.529L884.876,447.942L909.813,445.407L909.117,446.323C908.793,446.75 876.647,489.066 871.645,496.165C870.382,497.956 866.776,498.639 862.013,498.639Z" style="fill:rgb(63,61,86);fill-rule:nonzero;"/>
    </g>
    <g transform="matrix(1,0,0,1,-128.726,-134.28)">
        <path d="M866.001,576.928L865.405,576.643C865.279,576.583 852.64,570.435 846.094,558.434C839.579,546.49 870.077,495.822 872.211,492.306L872.242,476.216L883.213,446.595L897.205,438.686L885.192,466.716L866.001,576.928Z" style="fill:rgb(63,61,86);fill-rule:nonzero;"/>
    </g>
    <path d="M723.257,615.591L709.885,615.59L703.523,564.011L723.259,564.012L723.257,615.591Z" style="fill:rgb(255,184,184);fill-rule:nonzero;"/>
    <g transform="matrix(1,0,0,1,-128.726,-134.28)">
        <path d="M855.393,762.833L812.276,762.832L812.276,762.286C812.276,753.08 819.852,745.505 829.058,745.504L855.394,745.505L855.393,762.833Z" style="fill:rgb(47,46,65);fill-rule:nonzero;"/>
    </g>
    <path d="M866.891,603.872L854.184,608.035L832.077,561.002L850.832,554.857L866.891,603.872Z" style="fill:rgb(255,184,184);fill-rule:nonzero;"/>
    <g transform="matrix(1,0,0,1,-128.726,-134.28)">
        <path d="M1002.89,749.408L961.92,762.833L961.75,762.315C958.884,753.566 963.724,744.008 972.473,741.141L972.474,741.141L997.5,732.941L1002.89,749.408Z" style="fill:rgb(47,46,65);fill-rule:nonzero;"/>
    </g>
    <g transform="matrix(1,0,0,1,-128.726,-134.28)">
        <path d="M969.726,729.72L931.606,666.079L899.426,598.086L870.467,658.146L858.964,735.934L818.621,736.495L818.78,735.864L880.517,490.554L928.869,497.777L926.668,529.693L927.979,531.557C938.902,547.074 950.195,563.117 943.718,580.411L962.08,634.933L1002.73,725.72L969.726,729.72Z" style="fill:rgb(47,46,65);fill-rule:nonzero;"/>
    </g>
    <g transform="matrix(1,0,0,1,-128.726,-134.28)">
        <path d="M882.726,543.72C875.72,543.72 867.726,535.72 871.873,522.061L871.605,521.867L881.566,477.859C872.873,465.428 884.334,455.168 885.408,454.251L890.878,444.404L915.016,429.096L927.229,530.57L927.048,530.743C918.228,539.182 888.604,543.72 882.726,543.72Z" style="fill:rgb(61,131,246);fill-rule:nonzero;"/>
    </g>
    <g transform="matrix(1,0,0,1,-128.726,-134.28)">
        <path d="M932.159,566.617C931.2,566.632 930.243,566.531 929.308,566.315C928.369,566.08 926.85,564.885 924.501,557.238C915.165,526.841 904.142,435.378 912.15,426.428L912.334,426.222L925.483,428.414C926.576,427.607 932.311,423.603 937.604,424.3C939.805,424.577 941.797,425.754 943.101,427.549L943.191,427.667L947.38,487.262L962.726,557.392L962.358,557.559C961.466,557.966 942.303,566.617 932.159,566.617Z" style="fill:rgb(63,61,86);fill-rule:nonzero;"/>
    </g>
    <g transform="matrix(1,0,0,1,-128.726,-134.28)">
        <path d="M923.317,543.324C928.796,543.142 933.203,538.584 933.203,533.102C933.203,532.386 933.128,531.672 932.979,530.971L952.227,517.714L947.024,504.051L920.104,523.155C915.692,524.406 912.624,528.463 912.624,533.049C912.624,538.691 917.266,543.333 922.907,543.333C923.044,543.333 923.18,543.33 923.317,543.324L923.317,543.324Z" style="fill:rgb(255,184,184);fill-rule:nonzero;"/>
    </g>
    <g transform="matrix(1,0,0,1,-128.726,-134.28)">
        <path d="M945.876,528.337L928.73,515.763L952.831,482.899L934.336,450.261L942.611,426.6L943.146,427.619C943.395,428.093 968.094,475.146 972.402,482.686C976.885,490.53 947.432,526.447 946.177,527.971L945.876,528.337Z" style="fill:rgb(63,61,86);fill-rule:nonzero;"/>
    </g>
    <g transform="matrix(1,0,0,1,-128.726,-134.28)">
        <path d="M560.206,676.255L545.614,670.111L535.604,596.959L402.299,596.959L391.449,669.812L378.393,676.339C377.345,676.864 376.68,677.94 376.68,679.112C376.68,680.813 378.079,682.212 379.78,682.212L559.003,682.212C559.004,682.212 559.004,682.212 559.004,682.212C560.704,682.212 562.104,680.813 562.104,679.112C562.104,677.867 561.354,676.738 560.206,676.255Z" style="fill:rgb(230,230,230);fill-rule:nonzero;"/>
    </g>
    <g transform="matrix(1,0,0,1,-128.726,-134.28)">
        <path d="M797.098,606.692L142.268,606.692C135.162,606.676 129.324,600.824 129.324,593.718L129.324,501.379L810.042,501.379L810.042,593.719C810.042,600.824 804.203,606.676 797.098,606.692Z" style="fill:rgb(204,204,204);fill-rule:nonzero;"/>
    </g>
    <g transform="matrix(1,0,0,1,-128.726,-134.28)">
        <path d="M810.726,545.021L128.726,545.021L128.726,149.92C128.736,141.344 135.79,134.29 144.366,134.28L795.087,134.28C803.662,134.29 810.716,141.344 810.726,149.92L810.726,545.021Z" style="fill:rgb(63,61,86);fill-rule:nonzero;"/>
    </g>
    <g transform="matrix(1,0,0,1,-128.726,-134.28)">
        <path d="M769.993,516.344L169.46,516.344C162.848,516.337 157.41,510.899 157.403,504.288L157.403,175.014C157.41,168.402 162.848,162.964 169.46,162.956L769.993,162.956C776.605,162.964 782.043,168.402 782.05,175.014L782.05,504.288C782.043,510.899 776.605,516.337 769.993,516.344Z" style="fill:white;fill-rule:nonzero;"/>
    </g>
    <g transform="matrix(1,0,0,1,-128.726,-134.28)">
        <path d="M638.146,682.975L300.698,682.975C299.99,682.99 299.355,682.523 299.159,681.842C299.126,681.715 299.109,681.584 299.109,681.452C299.109,680.614 299.798,679.924 300.636,679.923L638.021,679.923C638.769,679.897 639.443,680.394 639.638,681.117C639.662,681.225 639.674,681.336 639.674,681.447C639.674,682.285 638.984,682.975 638.146,682.975Z" style="fill:rgb(204,204,204);fill-rule:nonzero;"/>
    </g>
    <rect x="489.86" y="81.909" width="144.996" height="110.773" style="fill:rgb(242,242,242);"/>
    <rect x="497.065" y="87.414" width="130.586" height="99.765" style="fill:white;"/>
    <g transform="matrix(1,0,0,1,-128.726,-134.28)">
        <path d="M693.377,295.695C693.395,295.695 693.412,295.695 693.429,295.694C711.818,294.732 726.427,279.339 726.427,260.924C726.427,242.803 712.279,227.557 694.208,226.205C693.988,226.187 693.77,226.263 693.607,226.413C693.445,226.561 693.352,226.769 693.35,226.989L692.589,294.891C692.585,295.327 692.941,295.69 693.377,295.695L693.377,295.695Z" style="fill:rgb(63,61,86);fill-rule:nonzero;"/>
    </g>
    <g transform="matrix(1,0,0,1,-128.726,-134.28)">
        <path d="M666.072,237.433C666.343,237.436 666.602,237.547 666.792,237.74L690.167,261.646C690.357,261.839 690.462,262.1 690.458,262.371L690.094,294.863C690.092,295.144 689.972,295.413 689.764,295.603C689.555,295.795 689.276,295.892 688.993,295.87C670.804,294.509 656.564,279.163 656.564,260.924C656.564,252.407 659.668,244.175 665.293,237.78C665.481,237.567 665.75,237.441 666.034,237.433C666.047,237.433 666.059,237.433 666.072,237.433Z" style="fill:rgb(230,230,230);fill-rule:nonzero;"/>
    </g>
    <g transform="matrix(1,0,0,1,-128.726,-134.28)">
        <path d="M689.842,225.927C690.103,225.93 690.353,226.033 690.541,226.213C690.746,226.408 690.86,226.679 690.855,226.961L690.527,256.277C690.52,256.832 690.062,257.286 689.506,257.286C689.231,257.286 688.968,257.175 688.776,256.979L668.378,236.118C668.191,235.927 668.087,235.67 668.087,235.403C668.087,235.11 668.213,234.831 668.433,234.636C674.364,229.416 681.888,226.346 689.779,225.928C689.8,225.927 689.821,225.927 689.842,225.927Z" style="fill:rgb(221,43,70);fill-rule:nonzero;"/>
    </g>
    <g transform="matrix(1,0,0,1,-128.726,-134.28)">
        <path d="M679.334,309.775C679.295,313.179 676.485,315.959 673.08,315.959C669.65,315.959 666.827,313.136 666.827,309.705C666.827,306.275 669.65,303.452 673.08,303.452C673.104,303.452 673.127,303.452 673.151,303.452C676.579,303.495 679.368,306.347 679.334,309.775Z" style="fill:rgb(221,43,70);fill-rule:nonzero;"/>
    </g>
    <g transform="matrix(1,0,0,1,-128.726,-134.28)">
        <path d="M697.199,309.976C697.161,313.38 694.35,316.159 690.946,316.159C687.516,316.159 684.693,313.336 684.693,309.906C684.693,306.475 687.516,303.652 690.946,303.652C690.97,303.652 690.993,303.652 691.016,303.653C694.445,303.695 697.234,306.547 697.199,309.976Z" style="fill:rgb(63,61,86);fill-rule:nonzero;"/>
    </g>
    <g transform="matrix(1,0,0,1,-128.726,-134.28)">
        <path d="M715.065,310.176C715.027,313.58 712.216,316.359 708.812,316.359C705.382,316.359 702.559,313.536 702.559,310.106C702.559,306.675 705.382,303.852 708.812,303.852C708.835,303.852 708.859,303.853 708.882,303.853C712.311,303.895 715.1,306.747 715.065,310.176Z" style="fill:rgb(230,230,230);fill-rule:nonzero;"/>
    </g>
    <rect x="488.333" y="210.116" width="144.996" height="110.773" style="fill:rgb(242,242,242);"/>
    <rect x="495.538" y="215.621" width="130.586" height="99.765" style="fill:white;"/>
    <circle cx="517.695" cy="242.988" r="5.422" style="fill:rgb(63,61,86);"/>
    <g transform="matrix(1,0,0,1,-128.726,-134.28)">
        <path d="M733.539,373.049C733.541,373.049 733.543,373.049 733.545,373.049C735.562,373.049 737.222,374.709 737.222,376.726C737.222,378.744 735.562,380.404 733.545,380.404C733.543,380.404 733.541,380.404 733.539,380.404L676.513,380.404C674.496,380.404 672.836,378.744 672.836,376.726C672.836,374.709 674.496,373.049 676.513,373.049L733.539,373.049M733.539,372.149L676.513,372.149C676.511,372.149 676.509,372.149 676.506,372.149C673.995,372.149 671.929,374.215 671.929,376.726C671.929,379.238 673.995,381.304 676.506,381.304C676.509,381.304 676.511,381.304 676.513,381.304L733.539,381.304C733.541,381.304 733.543,381.304 733.546,381.304C736.057,381.304 738.123,379.238 738.123,376.726C738.123,374.215 736.057,372.149 733.546,372.149C733.543,372.149 733.541,372.149 733.539,372.149Z" style="fill:rgb(63,61,86);fill-rule:nonzero;"/>
    </g>
    <g transform="matrix(1,0,0,1,-128.726,-134.28)">
        <path d="M711.038,381.304L668.109,381.304C665.598,381.304 663.532,379.238 663.532,376.726C663.532,374.215 665.598,372.149 668.109,372.149L711.038,372.149C713.549,372.149 715.615,374.215 715.615,376.726C715.615,379.238 713.549,381.304 711.038,381.304Z" style="fill:rgb(221,43,70);fill-rule:nonzero;"/>
    </g>
    <circle cx="517.695" cy="265.503" r="5.422" style="fill:rgb(63,61,86);"/>
    <g transform="matrix(1,0,0,1,-128.726,-134.28)">
        <path d="M733.539,395.564C733.541,395.564 733.543,395.564 733.545,395.564C735.562,395.564 737.222,397.224 737.222,399.241C737.222,401.259 735.562,402.918 733.545,402.918C733.543,402.918 733.541,402.918 733.539,402.918L676.513,402.918C674.496,402.918 672.836,401.259 672.836,399.241C672.836,397.224 674.496,395.564 676.513,395.564L733.539,395.564M733.539,394.664L676.513,394.664C674.002,394.664 671.936,396.73 671.936,399.241C671.936,401.753 674.002,403.819 676.513,403.819L733.539,403.819C736.05,403.819 738.117,401.753 738.117,399.241C738.117,396.73 736.05,394.664 733.539,394.664Z" style="fill:rgb(63,61,86);fill-rule:nonzero;"/>
    </g>
    <g transform="matrix(1,0,0,1,-128.726,-134.28)">
        <path d="M727.248,403.819L668.109,403.819C665.598,403.819 663.532,401.753 663.532,399.241C663.532,396.73 665.598,394.664 668.109,394.664L727.248,394.664C729.76,394.664 731.826,396.73 731.826,399.241C731.826,401.753 729.76,403.819 727.248,403.819Z" style="fill:rgb(221,43,70);fill-rule:nonzero;"/>
    </g>
    <circle cx="517.695" cy="288.018" r="5.422" style="fill:rgb(63,61,86);"/>
    <g transform="matrix(1,0,0,1,-128.726,-134.28)">
        <path d="M733.539,418.079C733.541,418.079 733.543,418.079 733.545,418.079C735.562,418.079 737.222,419.739 737.222,421.756C737.222,423.773 735.562,425.433 733.545,425.433C733.543,425.433 733.541,425.433 733.539,425.433L676.513,425.433C674.496,425.433 672.836,423.773 672.836,421.756C672.836,419.739 674.496,418.079 676.513,418.079L733.539,418.079M733.539,417.179L676.513,417.179C674.002,417.179 671.936,419.245 671.936,421.756C671.936,424.267 674.002,426.334 676.513,426.334L733.539,426.334C736.05,426.334 738.117,424.267 738.117,421.756C738.117,419.245 736.05,417.179 733.539,417.179Z" style="fill:rgb(63,61,86);fill-rule:nonzero;"/>
    </g>
    <g transform="matrix(1,0,0,1,-128.726,-134.28)">
        <path d="M692.125,426.334L668.109,426.334C668.107,426.334 668.105,426.334 668.102,426.334C665.591,426.334 663.525,424.267 663.525,421.756C663.525,419.245 665.591,417.178 668.102,417.178C668.105,417.178 668.107,417.178 668.109,417.179L692.125,417.179C694.634,417.182 696.696,419.248 696.696,421.756C696.696,424.265 694.634,426.33 692.125,426.334Z" style="fill:rgb(221,43,70);fill-rule:nonzero;"/>
    </g>
    <rect x="51.188" y="101.508" width="405.093" height="207.61" style="fill:rgb(242,242,242);"/>
    <rect x="64.692" y="111.824" width="378.087" height="186.978" style="fill:white;"/>
    <g transform="matrix(1,0,0,1,-128.726,-134.28)">
        <path d="M524.614,404.557L248.996,404.557C248.523,404.557 248.133,404.168 248.133,403.695L248.133,271.591C248.133,271.118 248.523,270.728 248.996,270.728C249.469,270.728 249.859,271.118 249.859,271.591L249.859,402.832L524.614,402.832C525.087,402.832 525.477,403.221 525.477,403.695C525.477,404.168 525.087,404.557 524.614,404.557Z" style="fill:rgb(63,61,86);fill-rule:nonzero;"/>
    </g>
    <g transform="matrix(1,0,0,1,-128.726,-134.28)">
        <path d="M307.884,395.069L282.815,395.069C281.411,395.068 280.256,393.913 280.255,392.509L280.255,357.952C280.256,356.548 281.411,355.393 282.815,355.391L307.884,355.391C309.288,355.393 310.442,356.548 310.444,357.952L310.444,392.509C310.442,393.913 309.288,395.068 307.884,395.069Z" style="fill:rgb(221,43,70);fill-rule:nonzero;"/>
    </g>
    <g transform="matrix(1,0,0,1,-128.726,-134.28)">
        <path d="M353.599,395.069L328.531,395.069C327.127,395.068 325.972,393.913 325.97,392.509L325.97,325.174C325.972,323.77 327.127,322.616 328.531,322.614L353.599,322.614C355.003,322.616 356.158,323.77 356.16,325.174L356.16,392.509C356.158,393.913 355.003,395.068 353.599,395.069Z" style="fill:rgb(221,43,70);fill-rule:nonzero;"/>
    </g>
    <g transform="matrix(1,0,0,1,-128.726,-134.28)">
        <path d="M399.315,395.069L374.246,395.069C372.842,395.068 371.688,393.913 371.686,392.509L371.686,357.952C371.688,356.548 372.842,355.393 374.246,355.391L399.315,355.391C400.719,355.393 401.874,356.548 401.875,357.952L401.875,392.509C401.874,393.913 400.719,395.068 399.315,395.069Z" style="fill:rgb(221,43,70);fill-rule:nonzero;"/>
    </g>
    <g transform="matrix(1,0,0,1,-128.726,-134.28)">
        <path d="M445.031,395.069L419.962,395.069C418.59,395.099 417.436,393.997 417.401,392.625L417.401,312.12C417.436,310.748 418.59,309.646 419.962,309.676L445.031,309.676C446.403,309.646 447.557,310.748 447.591,312.12L447.591,392.625C447.557,393.997 446.403,395.099 445.031,395.069Z" style="fill:rgb(221,43,70);fill-rule:nonzero;"/>
    </g>
    <g transform="matrix(1,0,0,1,-128.726,-134.28)">
        <path d="M490.746,395.069L465.678,395.069C464.274,395.068 463.119,393.913 463.117,392.509L463.117,288.947C463.119,287.543 464.274,286.388 465.678,286.387L490.746,286.387C492.15,286.388 493.305,287.543 493.307,288.947L493.307,392.509C493.305,393.913 492.15,395.068 490.746,395.069Z" style="fill:rgb(221,43,70);fill-rule:nonzero;"/>
    </g>
    <circle cx="166.623" cy="205.585" r="5.175" style="fill:rgb(63,61,86);"/>
    <circle cx="212.339" cy="171.945" r="5.175" style="fill:rgb(63,61,86);"/>
    <circle cx="258.054" cy="205.585" r="5.175" style="fill:rgb(63,61,86);"/>
    <circle cx="303.77" cy="155.556" r="5.175" style="fill:rgb(63,61,86);"/>
    <circle cx="349.486" cy="136.58" r="5.175" style="fill:rgb(63,61,86);"/>
    <path d="M258.163,206.744L212.339,172.421L167.14,206.275L166.106,204.895L212.339,170.265L257.945,204.425L303.266,154.83L303.447,154.756L349.163,136.337L349.808,137.937L304.274,156.283L258.163,206.744Z" style="fill:rgb(63,61,86);fill-rule:nonzero;"/>
    <g transform="matrix(1,0,0,1,-128.726,-134.28)">
        <path d="M1070.27,765.72L689.274,765.72C688.725,765.72 688.274,765.268 688.274,764.72C688.274,764.171 688.725,763.72 689.274,763.72L1070.27,763.72C1070.82,763.72 1071.27,764.171 1071.27,764.72C1071.27,765.268 1070.82,765.72 1070.27,765.72Z" style="fill:rgb(204,204,204);fill-rule:nonzero;"/>
    </g>
</svg>
