<?xml version="1.0" encoding="UTF-8" standalone="no"?>
<!DOCTYPE svg PUBLIC "-//W3C//DTD SVG 1.1//EN" "http://www.w3.org/Graphics/SVG/1.1/DTD/svg11.dtd">
<svg width="100%" height="100%" viewBox="0 0 995 698" version="1.1" xmlns="http://www.w3.org/2000/svg" xmlns:xlink="http://www.w3.org/1999/xlink" xml:space="preserve" xmlns:serif="http://www.serif.com/" style="fill-rule:evenodd;clip-rule:evenodd;stroke-linejoin:round;stroke-miterlimit:2;">
    <g transform="matrix(1,0,0,1,-102.5,-101.159)">
        <path d="M915.189,538.707L274.35,538.707C265.302,538.697 257.86,531.255 257.85,522.207L257.85,127.054C257.857,120.425 263.309,114.973 269.938,114.965L919.391,114.965C926.135,114.973 931.681,120.519 931.689,127.263L931.689,522.207C931.678,531.255 924.236,538.697 915.189,538.707Z" style="fill:rgb(242,242,242);fill-rule:nonzero;"/>
    </g>
    <g transform="matrix(1,0,0,1,-102.5,-101.159)">
        <path d="M891.811,515.341L294.567,515.341C285.812,515.341 278.689,508.671 278.689,500.472L278.689,156.367C278.689,150.287 283.967,145.341 290.455,145.341L895.728,145.341C902.324,145.341 907.689,150.369 907.689,156.549L907.689,500.472C907.689,508.671 900.566,515.341 891.811,515.341Z" style="fill:white;fill-rule:nonzero;"/>
    </g>
    <g transform="matrix(1,0,0,1,-102.5,-101.159)">
        <path d="M931.459,126.11L257.619,126.11L257.619,117.709C257.632,108.631 265.101,101.167 274.179,101.159L914.899,101.159C923.977,101.167 931.446,108.631 931.459,117.709L931.459,126.11Z" style="fill:rgb(204,204,204);fill-rule:nonzero;"/>
    </g>
    <circle cx="185.214" cy="12.5" r="4.283" style="fill:white;"/>
    <circle cx="201.473" cy="12.5" r="4.283" style="fill:white;"/>
    <circle cx="217.731" cy="12.5" r="4.283" style="fill:white;"/>
    <g transform="matrix(1,0,0,1,-102.5,-101.159)">
        <path d="M826.073,457.629L363.234,457.629C353.638,457.618 345.745,449.725 345.734,440.129L345.734,216.975C345.742,209.798 351.645,203.895 358.822,203.886L830.276,203.886C837.567,203.895 843.565,209.892 843.573,217.184L843.573,440.129C843.562,449.725 835.669,457.618 826.073,457.629ZM358.822,205.886C352.742,205.893 347.741,210.895 347.734,216.975L347.734,440.129C347.744,448.628 354.735,455.619 363.234,455.629L826.073,455.629C834.572,455.619 841.563,448.628 841.573,440.129L841.573,217.184C841.566,210.989 836.47,205.893 830.276,205.886L358.822,205.886Z" style="fill:rgb(204,204,204);fill-rule:nonzero;"/>
    </g>
    <g transform="matrix(1,0,0,1,-102.5,-101.159)">
        <path d="M379.234,440.129L810.073,440.129C818.85,440.129 826.073,432.906 826.073,424.129L826.073,237.581C826.073,228.803 818.85,221.581 810.073,221.581L379.234,221.581C370.457,221.581 363.234,228.803 363.234,237.581L363.234,424.129C363.234,432.906 370.457,440.129 379.234,440.129Z" style="fill:rgb(242,242,242);fill-rule:nonzero;"/>
    </g>
    <circle cx="325.654" cy="165.695" r="9" style="fill:rgb(204,204,204);"/>
    <circle cx="325.654" cy="199.695" r="9" style="fill:rgb(204,204,204);"/>
    <circle cx="325.654" cy="233.695" r="9" style="fill:rgb(204,204,204);"/>
    <circle cx="325.654" cy="267.695" r="9" style="fill:rgb(204,204,204);"/>
    <g transform="matrix(1,0,0,1,-102.5,-101.159)">
        <path d="M769.154,267.855L473.154,267.855C472.605,267.855 472.154,267.403 472.154,266.855C472.154,266.306 472.605,265.855 473.154,265.855L769.154,265.855C769.702,265.855 770.154,266.306 770.154,266.855C770.154,267.403 769.702,267.855 769.154,267.855Z" style="fill:rgb(204,204,204);fill-rule:nonzero;"/>
    </g>
    <g transform="matrix(1,0,0,1,-102.5,-101.159)">
        <path d="M769.154,301.855L473.154,301.855C472.605,301.855 472.154,301.403 472.154,300.855C472.154,300.306 472.605,299.855 473.154,299.855L769.154,299.855C769.702,299.855 770.154,300.306 770.154,300.855C770.154,301.403 769.702,301.855 769.154,301.855Z" style="fill:rgb(204,204,204);fill-rule:nonzero;"/>
    </g>
    <g transform="matrix(1,0,0,1,-102.5,-101.159)">
        <path d="M769.154,335.855L473.154,335.855C472.605,335.855 472.154,335.403 472.154,334.855C472.154,334.306 472.605,333.855 473.154,333.855L769.154,333.855C769.702,333.855 770.154,334.306 770.154,334.855C770.154,335.403 769.702,335.855 769.154,335.855Z" style="fill:rgb(204,204,204);fill-rule:nonzero;"/>
    </g>
    <g transform="matrix(1,0,0,1,-102.5,-101.159)">
        <path d="M769.154,369.855L473.154,369.855C472.605,369.855 472.154,369.403 472.154,368.855C472.154,368.306 472.605,367.855 473.154,367.855L769.154,367.855C769.702,367.855 770.154,368.306 770.154,368.855C770.154,369.403 769.702,369.855 769.154,369.855Z" style="fill:rgb(204,204,204);fill-rule:nonzero;"/>
    </g>
    <g transform="matrix(1,0,0,1,-102.5,-101.159)">
        <path d="M529.154,403.855L500.154,403.855C497.412,403.851 495.157,401.596 495.154,398.855L495.154,371.855C495.157,369.113 497.412,366.858 500.154,366.855L529.154,366.855C531.895,366.858 534.15,369.113 534.154,371.855L534.154,398.855C534.15,401.596 531.895,403.851 529.154,403.855Z" style="fill:rgb(221,43,70);fill-rule:nonzero;"/>
    </g>
    <g transform="matrix(1,0,0,1,-102.5,-101.159)">
        <path d="M594.154,403.855L565.154,403.855C562.412,403.852 560.157,401.596 560.154,398.855L560.154,337.855C560.157,335.113 562.412,332.858 565.154,332.855L594.154,332.855C596.895,332.858 599.15,335.113 599.154,337.855L599.154,398.855C599.15,401.596 596.895,403.852 594.154,403.855Z" style="fill:rgb(221,43,70);fill-rule:nonzero;"/>
    </g>
    <g transform="matrix(1,0,0,1,-102.5,-101.159)">
        <path d="M660.154,403.855L631.154,403.855C628.412,403.852 626.157,401.596 626.154,398.855L626.154,303.855C626.157,301.113 628.412,298.858 631.154,298.855L660.154,298.855C662.895,298.858 665.15,301.113 665.154,303.855L665.154,398.855C665.15,401.596 662.895,403.852 660.154,403.855Z" style="fill:rgb(221,43,70);fill-rule:nonzero;"/>
    </g>
    <g transform="matrix(1,0,0,1,-102.5,-101.159)">
        <path d="M728.154,403.855L699.154,403.855C696.412,403.852 694.157,401.596 694.154,398.855L694.154,270.855C694.157,268.113 696.412,265.858 699.154,265.855L728.154,265.855C730.895,265.858 733.15,268.113 733.154,270.855L733.154,398.855C733.15,401.596 730.895,403.852 728.154,403.855Z" style="fill:rgb(221,43,70);fill-rule:nonzero;"/>
    </g>
    <g transform="matrix(1,0,0,1,-102.5,-101.159)">
        <path d="M769.154,403.855L473.154,403.855C472.605,403.855 472.154,403.403 472.154,402.855C472.154,402.306 472.605,401.855 473.154,401.855L769.154,401.855C769.702,401.855 770.154,402.306 770.154,402.855C770.154,403.403 769.702,403.855 769.154,403.855Z" style="fill:rgb(63,61,86);fill-rule:nonzero;"/>
    </g>
    <g transform="matrix(1,0,0,1,-102.5,-101.159)">
        <path d="M899.201,590.402C901.061,587.587 904.218,585.889 907.591,585.889C910.17,585.889 912.653,586.882 914.522,588.659L946.277,572.27L944.302,590.735L914.45,603.467C912.584,605.185 910.137,606.14 907.601,606.14C902.054,606.14 897.49,601.576 897.49,596.03C897.49,594.026 898.086,592.067 899.201,590.402Z" style="fill:rgb(255,184,184);fill-rule:nonzero;"/>
    </g>
    <g transform="matrix(1,0,0,1,-102.5,-101.159)">
        <path d="M926.524,597.289C925.803,596.724 925.272,595.952 925.001,595.077L922.475,586.918C921.92,585.111 922.556,583.139 924.062,581.996L949.799,562.556L977.675,510.844C980.419,507.309 984.65,505.237 989.125,505.237C997.078,505.237 1003.62,511.781 1003.62,519.734C1003.62,522.953 1002.55,526.083 1000.58,528.625L984.716,562.096C979.906,572.252 971.564,580.322 961.253,584.792L931.09,597.875C929.918,598.383 928.583,598.369 927.421,597.836C927.102,597.689 926.801,597.506 926.524,597.289Z" style="fill:rgb(221,43,70);fill-rule:nonzero;"/>
    </g>
    <circle cx="898.775" cy="363.541" r="24.561" style="fill:rgb(255,184,184);"/>
    <path d="M888.812,685.737L876.553,685.736L870.722,638.448L888.817,638.449L888.812,685.737Z" style="fill:rgb(255,184,184);fill-rule:nonzero;"/>
    <path d="M867.795,682.233L891.439,682.233L891.439,697.12L852.908,697.12C852.908,697.12 852.908,697.12 852.908,697.12C852.908,688.953 859.629,682.233 867.795,682.233Z" style="fill:rgb(47,46,65);fill-rule:nonzero;"/>
    <path d="M928.812,685.739L916.553,685.738L910.722,638.449L928.817,638.451L928.812,685.739Z" style="fill:rgb(255,184,184);fill-rule:nonzero;"/>
    <path d="M907.795,682.235L931.439,682.235L931.439,697.121L892.908,697.121C892.908,697.121 892.908,697.121 892.908,697.121C892.908,688.955 899.629,682.235 907.795,682.235Z" style="fill:rgb(47,46,65);fill-rule:nonzero;"/>
    <g transform="matrix(1,0,0,1,-102.5,-101.159)">
        <path d="M1032.21,774.899L1017.84,774.898C1015.81,774.895 1014.03,773.526 1013.5,771.569L992.817,694.868C992.758,694.65 992.559,694.498 992.334,694.498C992.06,694.498 991.834,694.724 991.834,694.998C991.834,695.008 991.834,695.018 991.835,695.028L996.012,767.77C996.017,767.856 996.02,767.943 996.02,768.029C996.02,770.497 993.989,772.528 991.521,772.528C991.395,772.528 991.27,772.523 991.146,772.512L974.998,771.166C972.873,770.984 971.153,769.319 970.902,767.202L956.191,614.457L961.883,617.872L1015.21,608.818L1036.67,769.804C1036.69,770.001 1036.71,770.2 1036.71,770.398C1036.71,772.867 1034.68,774.899 1032.21,774.899L1032.21,774.899Z" style="fill:rgb(47,46,65);fill-rule:nonzero;"/>
    </g>
    <g transform="matrix(1,0,0,1,-102.5,-101.159)">
        <path d="M974.027,630.579C968.144,630.532 962.379,628.909 957.335,625.881C955.748,624.941 954.897,623.112 955.199,621.292C957.074,609.806 966.883,550.884 975.807,518.763C979.442,505.68 987.478,498.633 999.694,497.819C1017.56,496.647 1033.44,510.627 1035.1,529.019C1038.02,561.468 1026.16,607.57 1020.93,625.885C1020.38,627.807 1018.61,629.142 1016.61,629.142C1015.61,629.142 1014.64,628.807 1013.85,628.191L1003.19,619.898C1001.84,618.867 999.926,618.947 998.669,620.086C989.682,628.101 981.146,630.579 974.027,630.579Z" style="fill:rgb(221,43,70);fill-rule:nonzero;"/>
    </g>
    <path d="M906.787,443.738L915.786,481.739L902.784,513.738L911.786,482.739L906.787,443.738Z" style="fill-opacity:0.2;fill-rule:nonzero;"/>
    <g transform="matrix(1,0,0,1,-102.5,-101.159)">
        <path d="M1015.29,484.898C1017.48,484.939 1019.65,484.546 1021.68,483.743C1022.57,483.398 1023.5,483.115 1024.39,482.77C1032.28,479.726 1037.47,471.332 1037.65,462.884C1037.84,454.437 1033.46,446.238 1026.97,440.834C1020.47,435.43 1012.06,432.656 1003.63,432.014C994.56,431.323 984.341,433.624 979.269,441.181C977.92,443.193 976.975,445.634 977.775,448.063C978.015,448.796 978.443,449.453 979.016,449.969C981.28,451.984 983.538,450.469 985.847,450.335C989.02,450.151 991.87,452.72 992.894,455.729C993.919,458.738 993.468,462.051 992.64,465.12C992.01,466.966 991.613,468.885 991.458,470.83C991.322,472.811 992.223,474.726 993.836,475.884C995.819,477.083 998.423,476.39 1000.41,475.193C1002.39,473.996 1004.11,472.333 1006.25,471.452C1008.39,470.572 1011.27,470.767 1012.52,472.72C1012.92,473.43 1013.18,474.205 1013.31,475.008C1014.43,480.103 1014.17,479.803 1015.29,484.898L1015.29,484.898Z" style="fill:rgb(47,46,65);fill-rule:nonzero;"/>
    </g>
    <g transform="matrix(1,0,0,1,-102.5,-101.159)">
        <path d="M977.221,752.591L823.425,699.03C817.967,697.123 815.04,691.067 816.935,685.605L856.901,570.846C858.299,566.847 862.735,564.703 866.737,566.091L1025.73,621.463C1029.8,622.885 1031.98,627.398 1030.57,631.469L990.647,746.101C988.739,751.56 982.684,754.487 977.221,752.591Z" style="fill:rgb(230,230,230);fill-rule:nonzero;"/>
    </g>
    <g transform="matrix(1,0,0,1,-102.5,-101.159)">
        <path d="M836.549,692.435L971.033,739.271C976.33,741.115 982.207,738.275 984.052,732.977L1016.32,640.311C1018.17,635.014 1015.33,629.137 1010.03,627.292L875.547,580.457C870.25,578.612 864.373,581.453 862.528,586.75L830.256,679.417C829.88,680.498 829.687,681.634 829.687,682.779C829.687,687.119 832.451,691.008 836.549,692.435Z" style="fill:white;fill-rule:nonzero;"/>
    </g>
    <g transform="matrix(1,0,0,1,-102.5,-101.159)">
        <path d="M870.32,627.329L863.66,625.009C862.913,624.748 862.513,623.92 862.772,623.173L865.091,616.512C865.352,615.766 866.181,615.365 866.928,615.624L873.588,617.944C874.335,618.205 874.736,619.033 874.476,619.781L872.157,626.441C871.896,627.188 871.067,627.588 870.32,627.329Z" style="fill:rgb(221,43,70);fill-rule:nonzero;"/>
    </g>
    <g transform="matrix(1,0,0,1,-102.5,-101.159)">
        <path d="M864.31,644.585L857.65,642.266C856.903,642.005 856.503,641.176 856.762,640.429L859.082,633.768C859.343,633.022 860.171,632.621 860.919,632.881L867.579,635.2C868.326,635.461 868.726,636.29 868.467,637.037L866.147,643.697C865.886,644.444 865.058,644.844 864.31,644.585Z" style="fill:rgb(63,61,86);fill-rule:nonzero;"/>
    </g>
    <g transform="matrix(1,0,0,1,-102.5,-101.159)">
        <path d="M858.301,661.841L851.641,659.522C850.894,659.261 850.493,658.432 850.753,657.685L853.072,651.025C853.333,650.278 854.162,649.877 854.909,650.137L861.569,652.456C862.316,652.717 862.716,653.546 862.457,654.293L860.138,660.953C859.877,661.7 859.048,662.1 858.301,661.841Z" style="fill:rgb(204,204,204);fill-rule:nonzero;"/>
    </g>
    <g transform="matrix(1,0,0,1,-102.5,-101.159)">
        <path d="M915.074,639.181L882.984,628.005C882.404,627.805 882.012,627.255 882.012,626.642C882.012,625.85 882.663,625.199 883.455,625.199C883.618,625.199 883.779,625.227 883.933,625.28L916.023,636.456C916.603,636.657 916.995,637.206 916.995,637.82C916.995,638.611 916.344,639.262 915.552,639.262C915.389,639.262 915.228,639.235 915.074,639.181Z" style="fill:rgb(204,204,204);fill-rule:nonzero;"/>
    </g>
    <g transform="matrix(1,0,0,1,-102.5,-101.159)">
        <path d="M909.065,656.437L876.974,645.261C876.396,645.06 876.006,644.511 876.006,643.899C876.006,643.108 876.657,642.456 877.449,642.456C877.61,642.456 877.771,642.483 877.923,642.537L910.014,653.712C910.593,653.913 910.985,654.462 910.985,655.076C910.985,655.867 910.333,656.518 909.542,656.518C909.379,656.518 909.218,656.491 909.065,656.437Z" style="fill:rgb(204,204,204);fill-rule:nonzero;"/>
    </g>
    <g transform="matrix(1,0,0,1,-102.5,-101.159)">
        <path d="M903.055,673.693L870.965,662.517C870.386,662.316 869.996,661.767 869.996,661.155C869.996,660.364 870.648,659.713 871.439,659.713C871.601,659.713 871.761,659.74 871.913,659.793L904.004,670.969C904.582,671.17 904.972,671.719 904.972,672.331C904.972,673.122 904.321,673.773 903.529,673.773C903.368,673.773 903.208,673.746 903.055,673.693Z" style="fill:rgb(204,204,204);fill-rule:nonzero;"/>
    </g>
    <g transform="matrix(1,0,0,1,-102.5,-101.159)">
        <path d="M988.454,683.043C988.687,682.482 988.908,681.912 989.11,681.331C994.566,665.665 986.164,648.285 970.499,642.829L959.951,673.116L988.454,683.043Z" style="fill:rgb(61,131,246);fill-rule:nonzero;"/>
    </g>
    <g transform="matrix(1,0,0,1,-102.5,-101.159)">
        <path d="M956.884,674.959L967.431,644.672C964.234,643.558 960.871,642.989 957.485,642.989C940.897,642.989 927.247,656.639 927.247,673.228C927.247,689.816 940.897,703.466 957.485,703.466C969.657,703.466 980.694,696.117 985.386,684.885L956.884,674.959Z" style="fill:rgb(63,61,86);fill-rule:nonzero;"/>
    </g>
    <g transform="matrix(1,0,0,1,-102.5,-101.159)">
        <path d="M994.645,631.512C994.623,631.241 994.612,630.968 994.612,630.696C994.612,625.18 999.151,620.64 1004.67,620.64C1004.99,620.64 1005.31,620.656 1005.62,620.686L1020.5,588.193L1030.34,603.941L1014.71,632.382C1013.91,637.253 1009.66,640.867 1004.73,640.867C999.465,640.867 995.038,636.759 994.645,631.512L994.645,631.512Z" style="fill:rgb(255,184,184);fill-rule:nonzero;"/>
    </g>
    <g transform="matrix(1,0,0,1,-102.5,-101.159)">
        <path d="M1020.39,620.069C1019.48,620.069 1018.58,619.79 1017.83,619.269L1010.81,614.408C1009.26,613.328 1008.54,611.384 1009.02,609.556L1017.27,578.376L1007.3,520.483C1007.3,520.454 1007.3,520.425 1007.3,520.395C1007.3,512.443 1013.84,505.899 1021.79,505.899C1029.72,505.899 1036.26,512.41 1036.29,520.343L1044.46,556.466C1046.95,567.426 1045.36,578.924 1040.01,588.805L1024.35,617.713C1023.74,618.836 1022.68,619.649 1021.44,619.946C1021.1,620.028 1020.75,620.07 1020.39,620.069Z" style="fill:rgb(221,43,70);fill-rule:nonzero;"/>
    </g>
    <g transform="matrix(1,0,0,1,-102.5,-101.159)">
        <path d="M1096.5,798.841L906.5,798.841C905.951,798.841 905.5,798.389 905.5,797.841C905.5,797.292 905.951,796.841 906.5,796.841L1096.5,796.841C1097.05,796.841 1097.5,797.292 1097.5,797.841C1097.5,798.389 1097.05,798.841 1096.5,798.841Z" style="fill:rgb(204,204,204);fill-rule:nonzero;"/>
    </g>
    <path d="M490.541,685.239L502.801,685.238L508.633,637.951L490.539,637.951L490.541,685.239Z" style="fill:rgb(160,97,106);fill-rule:nonzero;"/>
    <g transform="matrix(1,0,0,1,-102.5,-101.159)">
        <path d="M589.914,782.396L614.059,782.395C622.5,782.395 629.445,789.34 629.445,797.781L629.445,798.281L589.915,798.283L589.914,782.396Z" style="fill:rgb(47,46,65);fill-rule:nonzero;"/>
    </g>
    <path d="M441.541,685.239L453.801,685.238L459.633,637.951L441.539,637.951L441.541,685.239Z" style="fill:rgb(160,97,106);fill-rule:nonzero;"/>
    <g transform="matrix(1,0,0,1,-102.5,-101.159)">
        <path d="M540.914,782.396L565.059,782.395C573.5,782.395 580.445,789.34 580.445,797.781L580.445,798.281L540.915,798.283L540.914,782.396Z" style="fill:rgb(47,46,65);fill-rule:nonzero;"/>
    </g>
    <circle cx="492.988" cy="333.297" r="24.561" style="fill:rgb(160,97,106);"/>
    <g transform="matrix(1,0,0,1,-102.5,-101.159)">
        <path d="M612.005,776.192L589.254,776.192C586.785,776.192 584.754,774.161 584.754,771.692C584.754,771.674 584.754,771.656 584.754,771.638L586.076,663.606C586.076,663.6 586.076,663.594 586.076,663.588C586.076,662.765 585.399,662.088 584.576,662.088C583.822,662.088 583.179,662.657 583.087,663.406L569.847,772.236C569.571,774.483 567.643,776.191 565.38,776.192L542.41,776.192C539.942,776.192 537.91,774.161 537.91,771.693C537.91,771.576 537.915,771.459 537.924,771.342L553.092,577.267L553.504,577.222L626.133,569.378L616.5,771.906C616.389,774.293 614.394,776.195 612.005,776.192Z" style="fill:rgb(47,46,65);fill-rule:nonzero;"/>
    </g>
    <g transform="matrix(1,0,0,1,-102.5,-101.159)">
        <path d="M553.976,589.181C551.565,589.175 549.566,587.232 549.492,584.822C549.095,572.551 548.416,530.09 556.314,498.917C560.727,481.482 576.14,468.904 594.106,468.078C611.774,467.113 628.179,477.639 634.665,494.102C647.94,527.805 660.483,569.348 644.846,575.863C624.351,584.402 570.322,588.209 554.252,589.172C554.159,589.178 554.067,589.181 553.976,589.181Z" style="fill:rgb(61,131,246);fill-rule:nonzero;"/>
    </g>
    <g transform="matrix(1,0,0,1,-102.5,-101.159)">
        <path d="M647.847,409.632C648.233,410.029 648.649,410.395 649.093,410.726L646.515,460.252L635.79,465.742L641.961,483.01L661.891,475.135C665.188,473.832 667.245,470.485 666.917,466.955L661.695,410.775C664.349,408.795 665.915,405.672 665.915,402.362C665.915,396.603 661.177,391.865 655.418,391.865C649.66,391.865 644.921,396.603 644.921,402.362C644.921,405.071 645.97,407.678 647.847,409.632L647.847,409.632Z" style="fill:rgb(160,97,106);fill-rule:nonzero;"/>
    </g>
    <g transform="matrix(1,0,0,1,-102.5,-101.159)">
        <path d="M646.718,462.095L654.262,483.534C654.431,484.014 654.517,484.519 654.517,485.028C654.517,487.175 652.981,489.037 650.873,489.446L628.628,493.754C627.314,494.207 625.935,494.439 624.545,494.439C617.689,494.439 612.048,488.798 612.048,481.942C612.048,476.65 615.408,471.907 620.4,470.152L640.374,459.609C641.021,459.267 641.742,459.089 642.473,459.089C644.378,459.089 646.086,460.299 646.718,462.095L646.718,462.095Z" style="fill:rgb(61,131,246);fill-rule:nonzero;"/>
    </g>
    <g transform="matrix(1,0,0,1,-102.5,-101.159)">
        <path d="M541.46,409.632C541.074,410.029 540.658,410.395 540.214,410.726L542.793,460.252L553.517,465.742L547.346,483.01L527.416,475.135C524.119,473.832 522.062,470.485 522.39,466.955L527.612,410.775C524.958,408.795 523.392,405.672 523.392,402.362C523.392,396.603 528.13,391.865 533.889,391.865C539.647,391.865 544.386,396.603 544.386,402.362C544.386,405.071 543.337,407.678 541.46,409.632L541.46,409.632Z" style="fill:rgb(160,97,106);fill-rule:nonzero;"/>
    </g>
    <g transform="matrix(1,0,0,1,-102.5,-101.159)">
        <path d="M545.192,459.399C546.41,458.922 547.777,458.998 548.933,459.609L568.907,470.152C573.899,471.907 577.259,476.65 577.259,481.942C577.259,488.798 571.618,494.439 564.762,494.439C563.372,494.439 561.993,494.207 560.679,493.754L538.434,489.446C536.326,489.037 534.79,487.175 534.79,485.028C534.79,484.519 534.876,484.014 535.045,483.534L542.589,462.095C543.023,460.861 543.974,459.876 545.192,459.399Z" style="fill:rgb(61,131,246);fill-rule:nonzero;"/>
    </g>
    <g transform="matrix(1,0,0,1,-102.5,-101.159)">
        <path d="M605.027,438.643C604.764,432.253 608.322,426.284 614.068,423.475C621.534,419.621 626.224,411.4 624.169,403.893C621.538,394.284 608.46,388.053 597.864,391.359C594.996,392.377 592.23,393.662 589.603,395.198L582.68,398.909C579.722,400.389 576.871,402.073 574.146,403.947C565.843,410.065 561.515,420.254 562.875,430.477C564.239,440.245 570.636,449.204 579.393,455.338C582.742,457.84 586.61,459.56 590.712,460.369C594.909,461.061 599.582,460.274 602.651,457.664C607.448,453.585 606.952,446.753 605.401,441.048C605.196,440.261 605.071,439.455 605.027,438.643Z" style="fill:rgb(47,46,65);fill-rule:nonzero;"/>
    </g>
    <g transform="matrix(1,0,0,1,-102.5,-101.159)">
        <path d="M688.5,798.841L498.5,798.841C497.951,798.841 497.5,798.389 497.5,797.841C497.5,797.292 497.951,796.841 498.5,796.841L688.5,796.841C689.049,796.841 689.5,797.292 689.5,797.841C689.5,798.389 689.049,798.841 688.5,798.841Z" style="fill:rgb(204,204,204);fill-rule:nonzero;"/>
    </g>
    <g transform="matrix(1,0,0,1,-102.5,-101.159)">
        <path d="M378.41,616.413L221.633,680.73C216.064,683.008 209.607,680.307 207.317,674.744L159.325,557.761C157.657,553.681 159.635,548.951 163.711,547.273L325.788,480.782C329.939,479.084 334.751,481.097 336.457,485.243L384.396,602.098C386.673,607.667 383.973,614.123 378.41,616.413Z" style="fill:rgb(230,230,230);fill-rule:nonzero;"/>
    </g>
    <g transform="matrix(1,0,0,1,-102.5,-101.159)">
        <path d="M227.311,666.541L364.402,610.3C369.802,608.085 372.422,601.819 370.207,596.419L331.454,501.956C329.819,497.971 325.918,495.355 321.611,495.355C320.226,495.355 318.854,495.625 317.573,496.151L180.482,552.392C176.497,554.027 173.881,557.928 173.881,562.235C173.881,563.62 174.151,564.992 174.677,566.273L213.43,660.736C215.065,664.721 218.966,667.337 223.273,667.337C224.658,667.337 226.03,667.067 227.311,666.541Z" style="fill:white;fill-rule:nonzero;"/>
    </g>
    <g transform="matrix(0.925172,-0.379549,0.379549,0.925172,-278.34,63.5316)">
        <rect x="328.668" y="528.117" width="2.179" height="0.363" style="fill:rgb(230,230,230);"/>
    </g>
    <g transform="matrix(1,0,0,1,-102.5,-101.159)">
        <path d="M324.747,530.551L320.675,532.221L320.538,531.885L324.609,530.215L324.747,530.551ZM316.604,533.892L312.532,535.562L312.394,535.226L316.466,533.556L316.604,533.892ZM308.46,537.232L304.388,538.903L304.251,538.567L308.322,536.896L308.46,537.232ZM300.317,540.573L296.245,542.244L296.107,541.908L300.179,540.237L300.317,540.573ZM292.173,543.914L288.101,545.584L287.964,545.249L292.035,543.578L292.173,543.914ZM284.03,547.255L279.958,548.925L279.82,548.589L283.892,546.919L284.03,547.255ZM275.886,550.596L271.814,552.266L271.677,551.93L275.748,550.26L275.886,550.596ZM267.743,553.937L263.671,555.607L263.533,555.271L267.605,553.601L267.743,553.937ZM259.599,557.277L255.527,558.948L255.39,558.612L259.461,556.942L259.599,557.277ZM251.456,560.618L247.384,562.289L247.246,561.953L251.318,560.282L251.456,560.618ZM243.312,563.959L239.24,565.63L239.102,565.294L243.174,563.623L243.312,563.959ZM235.168,567.3L231.097,568.97L230.959,568.635L235.031,566.964L235.168,567.3ZM227.025,570.641L222.953,572.311L222.815,571.975L226.887,570.305L227.025,570.641ZM218.881,573.982L214.81,575.652L214.672,575.316L218.744,573.646L218.881,573.982ZM210.738,577.323L206.666,578.993L206.528,578.657L210.6,576.987L210.738,577.323ZM202.594,580.663L198.523,582.334L198.385,581.998L202.457,580.328L202.594,580.663Z" style="fill:rgb(230,230,230);fill-rule:nonzero;"/>
    </g>
    <g transform="matrix(0.925172,-0.379549,0.379549,0.925172,-309.782,15.9541)">
        <rect x="192.285" y="584.068" width="2.179" height="0.363" style="fill:rgb(230,230,230);"/>
    </g>
    <g transform="matrix(0.925172,-0.379549,0.379549,0.925172,-304.495,47.6481)">
        <rect x="275.309" y="586.506" width="2.179" height="0.363" style="fill:rgb(230,230,230);"/>
    </g>
    <g transform="matrix(1,0,0,1,-102.5,-101.159)">
        <path d="M271.448,588.915L267.436,590.561L267.299,590.225L271.31,588.579L271.448,588.915ZM263.425,592.206L259.414,593.852L259.276,593.516L263.287,591.87L263.425,592.206ZM255.403,595.497L251.391,597.143L251.253,596.807L255.265,595.162L255.403,595.497ZM247.38,598.789L243.369,600.434L243.231,600.098L247.242,598.453L247.38,598.789ZM239.357,602.08L235.346,603.726L235.208,603.39L239.22,601.744L239.357,602.08ZM231.335,605.371L227.324,607.017L227.186,606.681L231.197,605.035L231.335,605.371ZM223.312,608.662L219.301,610.308L219.163,609.972L223.175,608.327L223.312,608.662ZM215.29,611.954L211.279,613.599L211.141,613.263L215.152,611.618L215.29,611.954Z" style="fill:rgb(230,230,230);fill-rule:nonzero;"/>
    </g>
    <g transform="matrix(0.925172,-0.379549,0.379549,0.925172,-320.68,23.1562)">
        <rect x="205.101" y="615.309" width="2.179" height="0.363" style="fill:rgb(230,230,230);"/>
    </g>
    <g transform="matrix(0.925172,-0.379549,0.379549,0.925172,-318.712,37.3448)">
        <rect x="242.07" y="617.411" width="2.179" height="0.363" style="fill:rgb(230,230,230);"/>
    </g>
    <g transform="matrix(1,0,0,1,-102.5,-101.159)">
        <path d="M238.093,619.867L233.966,621.56L233.828,621.224L237.955,619.531L238.093,619.867ZM229.839,623.253L225.712,624.946L225.574,624.61L229.701,622.917L229.839,623.253ZM221.585,626.639L217.458,628.332L217.32,627.996L221.447,626.303L221.585,626.639Z" style="fill:rgb(230,230,230);fill-rule:nonzero;"/>
    </g>
    <g transform="matrix(0.925172,-0.379549,0.379549,0.925172,-325.836,26.5637)">
        <rect x="211.165" y="630.089" width="2.179" height="0.363" style="fill:rgb(230,230,230);"/>
    </g>
    <g transform="matrix(0.925172,-0.379549,0.379549,0.925172,-327.511,43.1597)">
        <rect x="252.417" y="642.634" width="2.179" height="0.363" style="fill:rgb(230,230,230);"/>
    </g>
    <g transform="matrix(1,0,0,1,-102.5,-101.159)">
        <path d="M248.441,645.09L244.314,646.783L244.176,646.447L248.303,644.754L248.441,645.09ZM240.187,648.476L236.06,650.169L235.922,649.833L240.049,648.14L240.187,648.476ZM231.933,651.862L227.806,653.555L227.668,653.22L231.795,651.526L231.933,651.862Z" style="fill:rgb(230,230,230);fill-rule:nonzero;"/>
    </g>
    <g transform="matrix(0.925172,-0.379549,0.379549,0.925172,-334.635,32.3786)">
        <rect x="221.513" y="655.313" width="2.179" height="0.363" style="fill:rgb(230,230,230);"/>
    </g>
    <g transform="matrix(1,0,0,1,-102.5,-101.159)">
        <path d="M233.132,651.671L349.308,604.011C355.123,601.618 357.945,594.869 355.565,589.048L332.092,531.832L331.865,531.933L303.356,600.1L282.211,591.26C281.421,590.927 280.518,590.984 279.776,591.412C279.225,591.744 278.799,592.247 278.564,592.845L263.622,628.567L248.162,622.105C247.826,621.964 247.465,621.891 247.1,621.891C245.992,621.891 244.987,622.56 244.56,623.583C244.461,623.825 234.928,647.213 233.132,651.671Z" style="fill:rgb(61,131,246);fill-rule:nonzero;"/>
    </g>
    <g transform="matrix(1,0,0,1,-102.5,-101.159)">
        <path d="M232.775,652.21L232.44,652.07L244.394,623.484C245.049,621.923 246.87,621.176 248.432,621.827L263.587,628.165L278.443,592.64C279.098,591.079 280.919,590.332 282.481,590.983L303.32,599.698L331.976,531.175L332.311,531.315L303.515,600.173L282.341,591.318C282.008,591.179 281.651,591.107 281.29,591.107C280.194,591.107 279.201,591.769 278.778,592.78L263.782,628.64L248.292,622.162C246.914,621.588 245.307,622.247 244.729,623.624L232.775,652.21Z" style="fill:rgb(63,61,86);fill-rule:nonzero;"/>
    </g>
    <circle cx="141.667" cy="516.019" r="2.542" style="fill:rgb(63,61,86);"/>
    <circle cx="174.906" cy="485.115" r="2.542" style="fill:rgb(63,61,86);"/>
    <circle cx="226.662" cy="426.636" r="2.542" style="fill:rgb(63,61,86);"/>
    <g transform="matrix(1,0,0,1,-102.5,-101.159)">
        <path d="M186.901,614.295C190.325,612.591 192.499,609.082 192.499,605.257C192.499,603.091 191.802,600.982 190.511,599.242L198.06,525.438L181.746,525.438L175.747,597.504C173.48,599.431 172.171,602.262 172.171,605.238C172.171,610.806 176.753,615.387 182.321,615.387C183.912,615.387 185.481,615.013 186.901,614.295Z" style="fill:rgb(255,184,184);fill-rule:nonzero;"/>
    </g>
    <circle cx="99.38" cy="360.468" r="23.08" style="fill:rgb(255,184,184);"/>
    <g transform="matrix(1,0,0,1,-102.5,-101.159)">
        <path d="M206.225,568.419C204.332,568.419 202.659,567.145 202.157,565.319C200.308,558.601 195.497,547.242 187.858,531.556C186.006,527.746 185.044,523.565 185.044,519.329C185.044,507.486 192.566,496.87 203.74,492.944C206.729,491.888 209.877,491.349 213.047,491.349C225.159,491.349 235.956,499.22 239.661,510.752C245.582,529.314 245.296,549.199 244.899,556.885C244.797,558.782 243.433,560.39 241.578,560.799L207.132,568.321C206.834,568.387 206.53,568.42 206.225,568.419Z" style="fill:rgb(221,43,70);fill-rule:nonzero;"/>
    </g>
    <path d="M137.082,686.425L148.602,686.425L154.083,641.988L137.08,641.989L137.082,686.425Z" style="fill:rgb(255,184,184);fill-rule:nonzero;"/>
    <g transform="matrix(-1,4.57276e-05,-4.57276e-05,-1,407.97,1481.4)">
        <path d="M237.113,784.293L273.321,784.293L273.321,798.282L251.103,798.282C243.428,798.282 237.113,791.967 237.113,784.293Z" style="fill:rgb(47,46,65);fill-rule:nonzero;"/>
    </g>
    <path d="M21.882,671.495L31.978,677.045L58.19,640.747L43.291,632.555L21.882,671.495Z" style="fill:rgb(255,184,184);fill-rule:nonzero;"/>
    <g transform="matrix(-0.876299,-0.481768,0.481768,-0.876299,-224.194,1434.46)">
        <path d="M118.196,776.437L154.403,776.437L154.403,790.426L132.185,790.426C124.511,790.426 118.196,784.111 118.196,776.437L118.196,776.437Z" style="fill:rgb(47,46,65);fill-rule:nonzero;"/>
    </g>
    <g transform="matrix(1,0,0,1,-102.5,-101.159)">
        <path d="M239.044,762.92C236.93,762.919 235.126,761.332 234.854,759.236L220.446,648.211C220.295,647.046 219.292,646.164 218.117,646.164C217.262,646.164 216.472,646.631 216.059,647.379L156.014,756.319C154.994,758.15 152.766,758.967 150.805,758.231L137.717,753.244C136.081,752.621 134.994,751.044 134.994,749.293C134.994,748.746 135.1,748.205 135.306,747.699L176.901,645.518C177.006,645.259 177.078,644.986 177.113,644.709C182.747,601.103 197.082,578.929 201.341,573.171C201.971,572.313 202.145,571.199 201.807,570.19L201.221,568.433C200.746,567.016 201.056,565.449 202.035,564.32C217.381,546.84 244.13,556.379 244.398,556.477L244.532,556.526L244.616,556.641C274.609,597.774 263.52,731.373 260.992,757.737C260.798,759.774 259.148,761.391 257.108,761.543L239.372,762.908C239.262,762.917 239.152,762.92 239.044,762.92Z" style="fill:rgb(47,46,65);fill-rule:nonzero;"/>
    </g>
    <g transform="matrix(1,0,0,1,-102.5,-101.159)">
        <path d="M291.606,488.437C291.491,488.944 291.416,489.459 291.381,489.978L251.014,513.266L241.202,507.617L230.742,521.311L247.14,532.999C249.854,534.932 253.544,534.843 256.16,532.779L297.785,499.94C298.881,500.346 300.041,500.554 301.21,500.554C306.621,500.554 311.074,496.101 311.074,490.689C311.074,485.278 306.621,480.825 301.21,480.825C296.645,480.825 292.648,483.993 291.606,488.437L291.606,488.437Z" style="fill:rgb(255,184,184);fill-rule:nonzero;"/>
    </g>
    <g transform="matrix(1,0,0,1,-102.5,-101.159)">
        <path d="M249.665,514.369L236.618,531.278C235.818,532.315 234.58,532.923 233.27,532.923C232.122,532.923 231.021,532.455 230.224,531.628L215.455,516.291C212.606,514.067 210.938,510.648 210.938,507.034C210.938,500.592 216.239,495.29 222.682,495.29C225.278,495.29 227.802,496.151 229.857,497.737L248.382,508.096C249.716,508.842 250.545,510.257 250.545,511.786C250.545,512.72 250.235,513.629 249.665,514.369L249.665,514.369Z" style="fill:rgb(221,43,70);fill-rule:nonzero;"/>
    </g>
    <g transform="matrix(1,0,0,1,-102.5,-101.159)">
        <path d="M199.098,543.746L178.081,539.951C176.076,539.589 174.603,537.827 174.603,535.79C174.603,535.33 174.678,534.873 174.826,534.437L181.639,514.264C182.671,508.726 187.55,504.672 193.184,504.672C199.627,504.672 204.928,509.973 204.928,516.415C204.928,517.116 204.865,517.816 204.741,518.505L204.076,539.718C204.004,541.987 202.118,543.813 199.849,543.813C199.597,543.813 199.346,543.791 199.098,543.746L199.098,543.746Z" style="fill:rgb(255,101,132);fill-rule:nonzero;"/>
    </g>
    <g transform="matrix(1,0,0,1,-102.5,-101.159)">
        <path d="M205.533,456.318C211.465,460.378 219.254,464.552 225.312,460.228C229.194,457.273 230.673,452.076 228.931,447.519C226.03,439.223 218.059,435.57 210.437,432.771C200.528,429.131 189.739,426.236 179.51,428.842C169.281,431.449 160.241,441.352 162.088,451.745C163.573,460.103 171.456,467.058 170.337,475.473C169.211,483.941 159.687,488.399 151.279,489.913C142.871,491.426 133.462,491.912 127.419,497.952C119.71,505.656 121.635,519.427 128.889,527.562C136.142,535.696 147.088,539.383 157.694,541.89C171.747,545.211 186.946,546.956 200.293,541.444C213.64,535.933 224.026,521.096 220.159,507.183C218.526,501.306 214.679,496.34 210.961,491.505C207.243,486.67 203.478,481.613 202.06,475.681C200.878,470.738 201.753,464.998 205.031,461.29C206.251,459.962 206.478,457.986 205.59,456.416L205.533,456.318Z" style="fill:rgb(47,46,65);fill-rule:nonzero;"/>
    </g>
    <g transform="matrix(1,0,0,1,-102.5,-101.159)">
        <path d="M293.5,798.841L103.5,798.841C102.951,798.841 102.5,798.389 102.5,797.841C102.5,797.292 102.951,796.841 103.5,796.841L293.5,796.841C294.049,796.841 294.5,797.292 294.5,797.841C294.5,798.389 294.049,798.841 293.5,798.841Z" style="fill:rgb(204,204,204);fill-rule:nonzero;"/>
    </g>
</svg>
