<?xml version="1.0" encoding="UTF-8" standalone="no"?>
<!DOCTYPE svg PUBLIC "-//W3C//DTD SVG 1.1//EN" "http://www.w3.org/Graphics/SVG/1.1/DTD/svg11.dtd">
<svg width="100%" height="100%" viewBox="0 0 722 664" version="1.1" xmlns="http://www.w3.org/2000/svg" xmlns:xlink="http://www.w3.org/1999/xlink" xml:space="preserve" xmlns:serif="http://www.serif.com/" style="fill-rule:evenodd;clip-rule:evenodd;stroke-linejoin:round;stroke-miterlimit:2;">
    <g transform="matrix(1,0,0,1,-68,-10)">
        <ellipse cx="319.56" cy="638.2" rx="74.74" ry="17.84" style="fill:rgb(221,44,71);"/>
    </g>
    <g transform="matrix(1,0,0,1,-68,-10)">
        <ellipse cx="319.56" cy="638.2" rx="74.74" ry="17.84" style="fill:white;fill-opacity:0.7;"/>
    </g>
    <g transform="matrix(1,0,0,1,-68,-10)">
        <ellipse cx="556.58" cy="627.19" rx="74.74" ry="17.84" style="fill:rgb(59,130,246);"/>
    </g>
    <g transform="matrix(1,0,0,1,-68,-10)">
        <ellipse cx="556.58" cy="627.19" rx="74.74" ry="17.84" style="fill:white;fill-opacity:0.7;"/>
    </g>
    <g transform="matrix(1,0,0,1,-68,-10)">
        <path d="M394.28,124.15C394.28,124.15 560.37,46.07 667.88,111.15C667.88,111.15 744.49,150.28 764.74,255.37C764.74,255.37 778.14,295.28 757.59,380.27C757.59,380.27 735.16,472.11 589.87,504.27C589.87,504.27 506.78,523.73 424.65,512.27C424.65,512.27 375.35,503.44 340.07,510.5C340.07,510.5 240.34,548.5 162.58,462.18C162.58,462.18 88.71,382.18 97.45,300.3C97.45,300.3 101.84,223.04 165.2,178.75C167.24,177.323 169.24,175.847 171.2,174.32C185.77,163.06 256.2,113.89 357.53,129.42C357.54,129.46 373.28,132.86 394.28,124.15Z" style="fill:rgb(221,44,71);fill-rule:nonzero;"/>
    </g>
    <g transform="matrix(1,0,0,1,-68,-10)">
        <path d="M394.28,124.15C394.28,124.15 560.37,46.07 667.88,111.15C667.88,111.15 744.49,150.28 764.74,255.37C764.74,255.37 778.14,295.28 757.59,380.27C757.59,380.27 735.16,472.11 589.87,504.27C589.87,504.27 506.78,523.73 424.65,512.27C424.65,512.27 375.35,503.44 340.07,510.5C340.07,510.5 240.34,548.5 162.58,462.18C162.58,462.18 88.71,382.18 97.45,300.3C97.45,300.3 101.84,223.04 165.2,178.75C167.24,177.323 169.24,175.847 171.2,174.32C185.77,163.06 256.2,113.89 357.53,129.42C357.54,129.46 373.28,132.86 394.28,124.15Z" style="fill:white;fill-opacity:0.7;fill-rule:nonzero;"/>
    </g>
    <g transform="matrix(1,0,0,1,-68,-10)">
        <clipPath id="_clip1">
            <path d="M394.28,124.15C394.28,124.15 560.37,46.07 667.88,111.15C667.88,111.15 744.49,150.28 764.74,255.37C764.74,255.37 778.14,295.28 757.59,380.27C757.59,380.27 735.16,472.11 589.87,504.27C589.87,504.27 506.78,523.73 424.65,512.27C424.65,512.27 375.35,503.44 340.07,510.5C340.07,510.5 240.34,548.5 162.58,462.18C162.58,462.18 88.71,382.18 97.45,300.3C97.45,300.3 101.84,223.04 165.2,178.75C167.24,177.323 169.24,175.847 171.2,174.32C185.77,163.06 256.2,113.89 357.53,129.42C357.54,129.46 373.28,132.86 394.28,124.15Z"/>
        </clipPath>
        <g clip-path="url(#_clip1)">
            <path d="M557.06,333.37L538.55,341.95L585.4,369.18L557.06,333.37Z" style="fill:rgb(209,211,212);fill-rule:nonzero;"/>
            <rect x="621.26" y="85.25" width="13.98" height="421.82" style="fill:white;"/>
            <rect x="111.12" y="414.95" width="556.76" height="14.18" style="fill:white;"/>
            <rect x="418.03" y="102.75" width="15.76" height="444.6" style="fill:white;"/>
            <path d="M407,384.26L425.17,516.1L687.8,526.56L757.73,403.99L764.74,384.89L407,384.26Z" style="fill:rgb(167,169,172);fill-rule:nonzero;"/>
            <rect x="398.19" y="380.26" width="366.55" height="7.99" style="fill:rgb(188,190,192);"/>
            <path d="M640.06,384.26L569.52,521.85L633.94,509.54L698.37,386.25L640.06,384.26Z" style="fill:rgb(241,242,242);fill-opacity:0.18;fill-rule:nonzero;"/>
            <rect x="96.73" y="238.65" width="678.54" height="14.26" style="fill:white;"/>
            <rect x="635.24" y="376.59" width="10.01" height="3.67" style="fill:rgb(47,46,65);"/>
            <rect x="597.9" y="262.38" width="136.45" height="92.34" style="fill:rgb(47,46,65);"/>
            <circle cx="667.88" cy="299.08" r="5.59" style="fill-opacity:0.2;"/>
            <path d="M652.84,315.84L648.34,315.84C648.34,315.84 675.07,351.28 648.34,376.59L652.71,376.59L679.44,370.28L679.44,333.37L652.84,315.84Z" style="fill:rgb(47,46,65);fill-rule:nonzero;"/>
            <path d="M652.84,315.84L648.34,315.84C648.34,315.84 675.07,351.28 648.34,376.59L652.71,376.59L679.44,370.28L679.44,333.37L652.84,315.84Z" style="fill-opacity:0.2;fill-rule:nonzero;"/>
            <rect x="645.25" y="376.59" width="56.02" height="3.67" style="fill:rgb(47,46,65);"/>
            <rect x="645.25" y="376.59" width="56.02" height="3.67" style="fill-opacity:0.2;"/>
            <rect x="213.47" y="127.94" width="18.4" height="390.94" style="fill:white;"/>
            <path d="M138.28,414.95L197.03,252.91L210.21,252.91L151.4,414.95L138.28,414.95Z" style="fill:white;fill-opacity:0.36;fill-rule:nonzero;"/>
            <path d="M213.47,501.72L267,501.72L264.67,517.43C246.874,514.962 229.588,509.658 213.47,501.72Z" style="fill:white;fill-rule:nonzero;"/>
            <path d="M248.4,453.08C248.4,453.08 250.35,445 264.52,442C264.52,442 273.73,437.91 278.41,429.1L289,470.41C289,470.41 293.24,485.84 269.84,492.72C269.84,492.72 254.43,497.23 248.37,501.72L226.1,501.72L244,465.43L248.4,453.08Z" style="fill:rgb(236,54,57);fill-rule:nonzero;"/>
            <path d="M248.4,453.08C248.4,453.08 250.35,445 264.52,442C264.52,442 273.73,437.91 278.41,429.1L289,470.41C289,470.41 293.24,485.84 269.84,492.72C269.84,492.72 254.43,497.23 248.37,501.72L226.1,501.72L244,465.43L248.4,453.08Z" style="fill-opacity:0.2;fill-rule:nonzero;"/>
            <path d="M245.26,488.4C247.942,487.321 250.546,486.055 253.05,484.61C255.532,483.162 257.875,481.488 260.05,479.61C262.216,477.769 264.099,475.619 265.64,473.23C267.148,470.832 268.136,468.144 268.54,465.34L268.54,465.44C268.497,464.145 268.581,462.849 268.79,461.57C268.988,460.307 269.292,459.062 269.7,457.85C270.103,456.636 270.643,455.472 271.31,454.38C271.963,453.287 272.749,452.28 273.65,451.38C272.877,452.362 272.207,453.421 271.65,454.54C271.103,455.657 270.661,456.822 270.33,458.02C269.661,460.402 269.397,462.88 269.55,465.35L269.55,465.44C269.373,466.922 269.038,468.38 268.55,469.79C268.038,471.183 267.392,472.522 266.62,473.79C265.023,476.286 263.038,478.51 260.74,480.38C258.461,482.226 255.99,483.822 253.37,485.14C250.783,486.48 248.065,487.553 245.26,488.34L245.26,488.4Z" style="fill-opacity:0.2;fill-rule:nonzero;"/>
            <path d="M169.89,469.91C169.89,469.91 162.79,461.91 167.74,449.78C169.864,445.054 170.85,439.896 170.62,434.72C170.365,430.221 168.793,425.894 166.1,422.28C161.83,416.52 152.71,399.57 168.32,373.8C168.32,373.8 166.32,385.69 181.23,398.47C181.23,398.47 190.86,406.01 191.42,417.02C191.415,422.988 194.553,428.538 199.67,431.61C204.787,434.682 213.47,438.77 213.47,453.61L209.85,499.8C209.85,499.8 194.33,493.08 169.89,469.91Z" style="fill:rgb(236,54,57);fill-rule:nonzero;"/>
            <path d="M169.89,469.91C169.89,469.91 162.79,461.91 167.74,449.78C169.864,445.054 170.85,439.896 170.62,434.72C170.365,430.221 168.793,425.894 166.1,422.28C161.83,416.52 152.71,399.57 168.32,373.8C168.32,373.8 166.32,385.69 181.23,398.47C181.23,398.47 190.86,406.01 191.42,417.02C191.415,422.988 194.553,428.538 199.67,431.61C204.787,434.682 213.47,438.77 213.47,453.61L209.85,499.8C209.85,499.8 194.33,493.08 169.89,469.91Z" style="fill-opacity:0.2;fill-rule:nonzero;"/>
            <path d="M176.83,420.17C181.039,423.191 184.415,427.231 186.64,431.91C187.213,433.073 187.701,434.276 188.1,435.51C188.471,436.757 188.765,438.026 188.98,439.31C189.395,441.892 189.476,444.517 189.22,447.12C188.375,452.114 188.375,457.216 189.22,462.21C189.631,464.699 190.477,467.095 191.72,469.29C192.342,470.385 193.105,471.394 193.99,472.29C194.893,473.172 195.901,473.941 196.99,474.58C194.622,473.502 192.612,471.766 191.2,469.58C189.823,467.369 188.848,464.931 188.32,462.38C187.779,459.846 187.511,457.261 187.52,454.67C187.49,452.086 187.67,449.504 188.06,446.95C188.64,441.944 187.862,436.873 185.81,432.27C184.808,429.946 183.525,427.753 181.99,425.74C180.484,423.696 178.753,421.827 176.83,420.17Z" style="fill-opacity:0.2;fill-rule:nonzero;"/>
            <path d="M159.55,252.91L107.17,396.54L122.48,412.1L181.05,252.91L159.55,252.91Z" style="fill:white;fill-opacity:0.36;fill-rule:nonzero;"/>
            <path d="M468.53,85.25L433.8,173.46L433.8,238.65L468.53,238.65L529.63,74.09L468.53,85.25Z" style="fill:white;fill-opacity:0.36;fill-rule:nonzero;"/>
            <path d="M572.91,76.39L512.44,238.65L542.68,238.64L605.7,81.55L572.91,76.39Z" style="fill:white;fill-opacity:0.36;fill-rule:nonzero;"/>
            <path d="M652.84,315.84L684.84,315.84C684.84,315.84 706.93,357.84 683.61,376.59L652.71,376.59C652.71,376.59 679.69,353.51 652.84,315.84Z" style="fill:rgb(47,46,65);fill-rule:nonzero;"/>
            <path d="M208.76,499.1C208.76,499.1 211.04,493.17 206.91,489.6C206.91,489.6 186.02,475.31 204.99,457.71C204.99,457.71 217.08,447.19 216.26,435.71C216.26,435.71 210.79,423.1 222.73,418.71C222.73,418.71 236.04,415.41 231.92,395.07C231.92,395.07 226.43,371.42 250.62,359.88C250.62,359.88 260.79,352.18 260.79,344.48C260.79,344.48 266.02,351.08 264.09,368.4C264.09,368.4 264.64,376.1 258.09,386.82C258.09,386.82 251.22,399.46 251.22,404.14C251.22,404.14 249.85,415.14 253.7,420.21C253.7,420.21 257.82,424.75 251.22,433.28C251.22,433.28 241.6,444.55 248.47,453.07C248.47,453.07 261.94,490.01 226.21,501.64L213.54,501.64L208.76,499.1Z" style="fill:rgb(221,44,71);fill-rule:nonzero;"/>
            <path d="M219.22,501.72C220.421,500.774 221.438,499.614 222.22,498.3C223.034,497.027 223.743,495.689 224.34,494.3C225.513,491.483 226.437,488.568 227.1,485.59C228.54,479.65 228.89,473.52 229.76,467.44C230.63,461.36 231.47,455.3 232.46,449.25C232.96,446.25 233.46,443.19 234.08,440.18C234.637,437.135 235.389,434.129 236.33,431.18C237.33,429.27 238.17,427.27 238.96,425.27C239.767,423.263 240.461,421.214 241.04,419.13C241.643,417.064 242.065,414.949 242.3,412.81C242.575,410.697 242.457,408.55 241.95,406.48L241.95,406.41C241.63,402.41 241.44,398.41 241.51,394.36C241.51,392.36 241.63,390.36 241.82,388.36C241.983,386.357 242.338,384.375 242.88,382.44C242.426,384.391 242.155,386.379 242.07,388.38C241.94,390.38 241.92,392.38 241.96,394.38C242.04,398.38 242.27,402.38 242.68,406.38L242.68,406.31C243.261,408.466 243.437,410.71 243.2,412.93C243.007,415.13 242.605,417.306 242,419.43C241.425,421.545 240.737,423.628 239.94,425.67C239.14,427.67 238.28,429.73 237.3,431.67L237.3,431.61C236.399,434.508 235.684,437.461 235.16,440.45C234.58,443.45 234.02,446.45 233.51,449.45C232.49,455.45 231.553,461.5 230.7,467.6C229.7,473.6 229.24,479.78 227.7,485.76C226.977,488.748 225.972,491.661 224.7,494.46C224.052,495.854 223.289,497.192 222.42,498.46C221.566,499.736 220.48,500.842 219.22,501.72Z" style="fill-opacity:0.2;fill-rule:nonzero;"/>
        </g>
    </g>
    <g transform="matrix(1,0,0,1,-68,-10)">
        <path d="M481.11,543.02L549.05,406.56L607.44,407.28L526.82,555.91L481.11,543.02Z" style="fill:rgb(241,242,242);fill-opacity:0.18;fill-rule:nonzero;"/>
    </g>
    <g transform="matrix(1,0,0,1,-68,-10)">
        <path d="M564.43,608.23L564.43,617.52C564.447,618.638 563.98,619.711 563.15,620.46C556.86,625.94 544.02,627.19 544.02,627.19L529.19,627.19C519.41,627.186 509.648,626.38 500,624.78C499.458,624.689 499.057,624.215 499.057,623.666C499.057,623.52 499.085,623.375 499.14,623.24C499.136,623.203 499.136,623.167 499.14,623.13C499.19,623.05 499.24,623 499.27,622.94L499.36,622.83C502.77,619.47 515.81,615.77 515.81,615.77C530.16,614.77 537.69,605.77 537.69,605.77C538.69,602.6 548.62,601.89 548.62,601.89L559.32,601.89L564.43,608.23Z" style="fill:rgb(59,130,246);fill-rule:nonzero;"/>
    </g>
    <g transform="matrix(1,0,0,1,-68,-10)">
        <path d="M503,628.66C497,627.66 498.43,624.39 499.15,623.24C499.095,623.375 499.067,623.52 499.067,623.666C499.067,624.215 499.468,624.689 500.01,624.78C509.671,626.382 519.447,627.188 529.24,627.19L544,627.19C544,627.19 556.84,625.94 563.13,620.46C563.96,619.711 564.427,618.638 564.41,617.52C568.07,636.53 503,628.66 503,628.66Z" style="fill:rgb(47,46,65);fill-rule:nonzero;"/>
    </g>
    <g transform="matrix(1,0,0,1,-68,-10)">
        <path d="M607.44,617.24C604.28,625.24 589.61,633.96 589.61,633.96C566.61,647.42 554.55,641.69 554.55,641.69C553.431,641.11 552.727,639.95 552.73,638.69C552.725,638.62 552.725,638.55 552.73,638.48C553.19,630.48 579.39,615.91 579.39,615.91L579.49,617.21L607.44,617.24Z" style="fill:rgb(59,130,246);fill-rule:nonzero;"/>
    </g>
    <g transform="matrix(1,0,0,1,-68,-10)">
        <path d="M607.44,617.24C604.28,625.24 589.61,633.96 589.61,633.96C566.61,647.42 554.55,641.69 554.55,641.69C553.431,641.11 552.727,639.95 552.73,638.69C552.696,638.624 552.696,638.546 552.73,638.48C553,637.9 555.55,636.25 575.37,635.75C576.352,635.728 577.318,635.492 578.2,635.06C583.4,632.52 602.05,623.06 605.45,617.21L607.44,617.24Z" style="fill:rgb(47,46,65);fill-rule:nonzero;"/>
    </g>
    <g transform="matrix(1,0,0,1,-68,-10)">
        <path d="M607.44,617.24L579.5,617.24L574.15,549.67C573.97,548.38 573.76,547.1 573.55,545.85C571.777,534.918 568.544,524.273 563.94,514.2C566.37,524.2 566.86,544.57 566.86,544.57L566.86,604.11C566.37,612.86 555.2,605.81 555.2,605.81C547.91,603.14 537.7,605.81 537.7,605.81L537.52,601.68L535,543.84C533.79,519.79 528,492.84 528,492.84C521.2,472.19 517.78,403.94 517.78,403.94L522.9,398.8L574.42,389.33L600,398.74C600.942,414.9 600.272,431.113 598,447.14C598,456.85 600.68,488.69 600.68,488.69C604.08,499.38 606.51,528.3 606.51,528.3L607.44,617.24Z" style="fill:rgb(47,46,65);fill-rule:nonzero;"/>
    </g>
    <g transform="matrix(1,0,0,1,-68,-10)">
        <path d="M540.85,263.43C544.517,261.161 548.383,259.229 552.4,257.66C556.417,256.091 566.4,251.47 574.5,253.66C574.5,253.66 578.27,253.59 581.68,257.66L568.53,340.66L562.53,407.24L534.83,403.87L530.45,387.07L534.82,276.26L540.85,263.43Z" style="fill:rgb(230,231,232);fill-rule:nonzero;"/>
    </g>
    <g transform="matrix(1,0,0,1,-68,-10)">
        <path d="M356.72,420.22C356.72,420.22 356.44,411.96 349.33,412.48L334.07,410.9L333.66,418.55L356.72,420.22Z" style="fill:rgb(221,44,71);fill-rule:nonzero;"/>
    </g>
    <g transform="matrix(1,0,0,1,-68,-10)">
        <path d="M356.72,420.22C356.72,420.22 356.44,411.96 349.33,412.48L334.07,410.9L333.66,418.55L356.72,420.22Z" style="fill:white;fill-opacity:0.2;fill-rule:nonzero;"/>
    </g>
    <g transform="matrix(1,0,0,1,-68,-10)">
        <path d="M286.7,412.48L286.61,412.48C284.135,412.479 282.041,414.386 281.81,416.85L275.65,482.11C275.362,485.209 277.663,488.001 280.76,488.31L362.65,496.41C365.719,496.713 368.506,494.473 368.87,491.41L373.28,453.28L286.7,412.48Z" style="fill:rgb(221,44,71);fill-rule:nonzero;"/>
    </g>
    <g transform="matrix(1,0,0,1,-68,-10)">
        <path d="M286.7,412.48L286.61,412.48C284.135,412.479 282.041,414.386 281.81,416.85L275.65,482.11C275.362,485.209 277.663,488.001 280.76,488.31L362.65,496.41C365.719,496.713 368.506,494.473 368.87,491.41L373.28,453.28L286.7,412.48Z" style="fill:white;fill-opacity:0.2;fill-rule:nonzero;"/>
    </g>
    <g transform="matrix(1,0,0,1,-68,-10)">
        <path d="M286.53,453.6L373.24,463.18C373.362,463.194 373.484,463.201 373.606,463.201C375.231,463.201 376.607,461.956 376.77,460.34L380.33,425.11C380.341,425.005 380.346,424.899 380.346,424.793C380.346,423.189 379.09,421.842 377.49,421.73L287.24,415.18L283.83,450.28C283.818,450.391 283.811,450.502 283.811,450.613C283.811,452.153 284.997,453.456 286.53,453.6Z" style="fill:rgb(221,44,71);fill-rule:nonzero;"/>
    </g>
    <g transform="matrix(1,0,0,1,-68,-10)">
        <path d="M286.53,453.6L373.24,463.18C373.362,463.194 373.484,463.201 373.606,463.201C375.231,463.201 376.607,461.956 376.77,460.34L380.33,425.11C380.341,425.005 380.346,424.899 380.346,424.793C380.346,423.189 379.09,421.842 377.49,421.73L287.24,415.18L283.83,450.28C283.818,450.391 283.811,450.502 283.811,450.613C283.811,452.153 284.997,453.456 286.53,453.6Z" style="fill:rgb(221,44,71);fill-rule:nonzero;"/>
    </g>
    <g transform="matrix(1,0,0,1,-68,-10)">
        <path d="M286.53,453.6L373.24,463.18C373.362,463.194 373.484,463.201 373.606,463.201C375.231,463.201 376.607,461.956 376.77,460.34L380.33,425.11C380.341,425.005 380.346,424.899 380.346,424.793C380.346,423.189 379.09,421.842 377.49,421.73L287.24,415.18L283.83,450.28C283.818,450.391 283.811,450.502 283.811,450.613C283.811,452.153 284.997,453.456 286.53,453.6Z" style="fill:white;fill-opacity:0.3;fill-rule:nonzero;"/>
    </g>
    <g transform="matrix(1,0,0,1,-68,-10)">
        <path d="M322.3,614.4C325.681,619.375 331.411,622.255 337.42,622C338.253,621.95 339.087,621.95 339.92,622C344.83,622.41 361.72,624.27 364.47,631C364.912,632.101 364.548,633.371 363.59,634.07C361.86,635.35 357.71,637.07 347.76,637.93L314.76,635.72L300.66,607.58L322.3,614.4Z" style="fill:rgb(221,44,71);fill-rule:nonzero;"/>
    </g>
    <g transform="matrix(1,0,0,1,-68,-10)">
        <path d="M322.3,614.4C325.681,619.375 331.411,622.255 337.42,622C338.253,621.95 339.087,621.95 339.92,622C344.82,622.41 361.67,624.26 364.46,631C364.896,632.092 364.547,633.35 363.61,634.06C361.89,635.38 357.74,637.19 347.76,637.97L314.76,635.76L300.66,607.62L322.3,614.4Z" style="fill-opacity:0.2;fill-rule:nonzero;"/>
    </g>
    <g transform="matrix(1,0,0,1,-68,-10)">
        <path d="M286.91,620.64C286.91,620.64 280.27,638.46 292.11,639.82C292.11,639.82 309.64,640.9 321,641.44C321,641.44 347.66,645.56 347.76,637.97C347.741,637.147 347.4,636.364 346.81,635.79C341.021,630.003 333.033,626.947 324.86,627.39C322.831,627.508 320.804,627.123 318.96,626.27C315.27,624.51 309.57,621.27 309.16,618.08L286.91,620.64Z" style="fill:rgb(221,44,71);fill-rule:nonzero;"/>
    </g>
    <g transform="matrix(1,0,0,1,-68,-10)">
        <path d="M350.63,446C350.63,446 350.27,480.39 343.04,509L330.04,578.51L324.97,611.57C324.749,613.012 323.642,614.168 322.21,614.45L310.79,616.71L336.91,508.28C336.91,508.28 347.35,472.55 350.18,446.01L350.63,446Z" style="fill:rgb(47,46,65);fill-rule:nonzero;"/>
    </g>
    <g transform="matrix(1,0,0,1,-68,-10)">
        <path d="M350.63,446C350.63,446 350.27,480.39 343.04,509L330.04,578.51L324.97,611.57C324.749,613.012 323.642,614.168 322.21,614.45L310.79,616.71L336.91,508.28C336.91,508.28 347.35,472.55 350.18,446.01L350.63,446Z" style="fill-opacity:0.2;fill-rule:nonzero;"/>
    </g>
    <g transform="matrix(1,0,0,1,-68,-10)">
        <path d="M350.31,266.25C350.31,266.25 361.09,277.67 360.6,289L360.6,307.3C360.6,307.3 352.45,285.81 347.21,274.24L350.31,266.25Z" style="fill:rgb(221,44,71);fill-rule:nonzero;"/>
    </g>
    <g transform="matrix(1,0,0,1,-68,-10)">
        <path d="M350.31,266.25C350.31,266.25 361.09,277.67 360.6,289L360.6,307.3C360.6,307.3 352.45,285.81 347.21,274.24L350.31,266.25Z" style="fill-opacity:0.2;fill-rule:nonzero;"/>
    </g>
    <g transform="matrix(1,0,0,1,-68,-10)">
        <path d="M601.85,377.87L604,397.81L577.23,403.91L562.47,407.28L556.39,374.47C553.774,357.863 554.687,340.89 559.07,324.66C564.9,299.15 581.66,257.66 581.66,257.66C589.943,262.579 597.809,268.168 605.18,274.37C614.65,282.62 615.68,286.74 615.68,286.74L601.85,377.87Z" style="fill:rgb(59,130,246);fill-rule:nonzero;"/>
    </g>
    <g transform="matrix(1,0,0,1,-68,-10)">
        <path d="M601.85,377.87L604,397.81L577.23,403.91C577.23,403.91 579.43,375.66 575.08,368.39C575.08,368.39 561.49,356.01 573.4,348.72C573.4,348.72 585.09,343.12 585.32,336.32C585.32,336.32 582.04,284.37 605.18,274.38C614.65,282.63 615.68,286.75 615.68,286.75L601.85,377.87Z" style="fill-opacity:0.2;fill-rule:nonzero;"/>
    </g>
    <g transform="matrix(1,0,0,1,-68,-10)">
        <path d="M562.73,323.69C564.95,320.643 567.203,317.613 569.49,314.6C571.78,311.6 574.04,308.6 576.36,305.6L583.36,296.67L583.78,296.13C583.882,295.987 583.96,295.828 584.01,295.66C584.111,295.334 584.111,294.986 584.01,294.66C583.865,294.295 583.631,293.972 583.33,293.72L582.33,292.72L578.42,288.63L577.58,287.74L587.24,287.74C587.7,287.75 588.147,287.578 588.48,287.26C588.65,287.104 588.789,286.917 588.89,286.71L589.21,285.95L589.84,284.38C591.54,280.2 593.287,276.043 595.08,271.91C593.6,276.17 592.077,280.413 590.51,284.64L589.93,286.23L589.62,287.04C589.208,287.985 588.281,288.607 587.25,288.63L578.8,288.63L579.17,287.76L584.17,292.76C584.592,293.126 584.918,293.589 585.12,294.11C585.3,294.676 585.3,295.284 585.12,295.85C585.026,296.13 584.887,296.394 584.71,296.63L584.26,297.21L577.2,306.06C574.85,309.06 572.44,311.91 570.06,314.84C567.68,317.77 565.17,320.81 562.73,323.69Z" style="fill-opacity:0.2;fill-rule:nonzero;"/>
    </g>
    <g transform="matrix(1,0,0,1,-68,-10)">
        <path d="M535.27,336.8C533.32,353.09 534.79,403.9 534.79,403.9L516.07,403.9C516.07,390.33 518.01,359.15 518.01,359.15L466.84,377.45C466.647,377.518 466.444,377.553 466.239,377.553C465.27,377.553 464.465,376.769 464.44,375.8C464.44,375.34 464.39,374.87 464.34,374.4C464.34,374.19 464.28,373.98 464.26,373.77C463.6,368.71 461.26,363.07 459.77,359.88C459.56,359.41 459.36,358.99 459.19,358.64C459.092,358.44 459.04,358.219 459.04,357.996C459.04,357.4 459.406,356.861 459.96,356.64L500.52,340.23C508.78,335.61 510.52,305.97 510.52,305.97C510.218,297.218 512.767,288.6 517.78,281.42C526.78,268.51 540.89,263.42 540.89,263.42C541.59,268.52 535.27,336.8 535.27,336.8Z" style="fill:rgb(59,130,246);fill-rule:nonzero;"/>
    </g>
    <g transform="matrix(1,0,0,1,-68,-10)">
        <path d="M513.64,322.22C516.07,330.98 508.53,332.46 508.53,332.46C504.89,334.7 508.78,337.78 508.78,337.78C512.39,341.71 510.97,344.34 510.97,344.34C501.97,338.75 493.97,346.34 493.97,346.34C489.565,350.44 483.628,352.497 477.63,352C475.297,351.75 472.94,352.173 470.84,353.22C468.762,354.355 467.521,356.597 467.66,358.96C467.97,366.18 464.44,373.35 464.26,373.7C463.5,367.91 460.56,361.39 459.19,358.58C459.092,358.38 459.04,358.159 459.04,357.936C459.04,357.34 459.406,356.801 459.96,356.58L500.52,340.17C508.78,335.55 510.52,305.91 510.52,305.91C510.22,297.158 512.768,288.541 517.78,281.36C511.67,292.57 513.64,322.22 513.64,322.22Z" style="fill-opacity:0.2;fill-rule:nonzero;"/>
    </g>
    <g transform="matrix(1,0,0,1,-68,-10)">
        <path d="M511.58,361.46L519.47,334.86L518.01,359.16L511.58,361.46Z" style="fill-opacity:0.2;fill-rule:nonzero;"/>
    </g>
    <g transform="matrix(1,0,0,1,-68,-10)">
        <path d="M529.44,276.3C529.57,278.2 529.62,280.11 529.72,282.01L529.88,287.72L529.37,287.28C531.55,286.9 533.73,286.56 535.92,286.21L536.92,286.04L536.46,286.99C535.37,289.19 534.29,291.38 533.18,293.56L533.24,293.28C533.413,296.48 533.543,299.683 533.63,302.89C533.73,306.09 533.79,309.3 533.78,312.51C533.4,309.32 533.1,306.13 532.84,302.93C532.58,299.73 532.33,296.54 532.14,293.34L532.14,293.2L532.2,293.06C533.28,290.867 534.377,288.683 535.49,286.51L536.06,287.29C533.87,287.59 531.68,287.9 529.48,288.16L528.96,288.22L528.96,287.72L529.12,282.01C529.25,280.11 529.31,278.2 529.44,276.3Z" style="fill-opacity:0.2;fill-rule:nonzero;"/>
    </g>
    <g transform="matrix(1,0,0,1,-68,-10)">
        <path d="M573.55,545.85C571.777,534.918 568.544,524.273 563.94,514.2C566.37,524.2 566.86,544.57 566.86,544.57L566.86,604.11C566.37,612.86 555.2,605.81 555.2,605.81C547.91,603.14 537.7,605.81 537.7,605.81L537.52,601.68C537.52,601.68 556.65,603.87 557.86,589.28C557.86,589.28 565.63,542.14 562.6,519.28L556.16,492.28C556.16,492.28 548.16,441.01 554.98,426.42C554.98,426.42 554.22,484.26 566.13,508.07C569.842,520.372 572.331,533.01 573.56,545.8L573.55,545.85Z" style="fill-opacity:0.2;fill-rule:nonzero;"/>
    </g>
    <g transform="matrix(1,0,0,1,-68,-10)">
        <path d="M578.46,604.12C578.46,604.12 587.03,620.63 607.46,611.89L607.46,617.24L579.5,617.24L578.46,604.12Z" style="fill-opacity:0.2;fill-rule:nonzero;"/>
    </g>
    <g transform="matrix(1,0,0,1,-68,-10)">
        <path d="M510.33,391.1L574.28,427.62L595.49,392.28L532.37,355.59L510.33,391.1Z" style="fill:rgb(241,242,242);fill-rule:nonzero;"/>
    </g>
    <g transform="matrix(1,0,0,1,-68,-10)">
        <path d="M563.6,373.74C563.37,381.25 558.6,387.19 554.67,390.85C552.159,393.137 549.209,394.889 546,396C535.86,399.67 535.13,405.25 535.13,405.25L566.13,422.94C566.13,422.94 570.67,411.66 569.8,403.94L576.55,381.28L563.6,373.74Z" style="fill-opacity:0.2;fill-rule:nonzero;"/>
    </g>
    <g transform="matrix(1,0,0,1,-68,-10)">
        <path d="M455.76,375.88C455.505,376.005 455.224,376.07 454.94,376.07C454.485,376.071 454.044,375.908 453.7,375.61L448.19,370.84L444.34,367.5L449.12,373L451.12,377.65C451.12,377.65 451.45,377.7 452.01,377.74C451.904,378.369 451.542,378.927 451.01,379.28C450.615,379.55 450.148,379.693 449.67,379.69C449,379.684 448.361,379.406 447.9,378.92L441.77,372.28L446.33,378.14C446.651,378.555 446.825,379.065 446.825,379.59C446.825,380.888 445.758,381.957 444.46,381.96C444.008,381.956 443.565,381.828 443.18,381.59L438.99,378.89C438.99,378.89 431.11,379.98 428.18,376.81C426.651,374.989 424.315,374.041 421.95,374.28C421.69,374.28 421.42,374.36 421.15,374.42L421.15,361.42C421.15,361.42 430.93,347.74 439.88,353.42L455.24,364.7C455.795,365.102 456.125,365.748 456.125,366.433C456.125,366.889 455.98,367.333 455.71,367.7C455.303,368.248 454.662,368.574 453.98,368.58C453.484,368.579 453.003,368.405 452.62,368.09L449.14,364.46C448.952,364.2 448.65,364.046 448.33,364.046C447.781,364.046 447.33,364.497 447.33,365.046C447.33,365.094 447.333,365.142 447.34,365.19C447.334,365.512 447.483,365.817 447.74,366.01L456.15,372.72C456.588,373.077 456.843,373.613 456.843,374.178C456.843,374.906 456.419,375.571 455.76,375.88Z" style="fill:rgb(247,164,139);fill-rule:nonzero;"/>
    </g>
    <g transform="matrix(1,0,0,1,-68,-10)">
        <path d="M356.2,373.74L357.59,410.25C358.97,417.42 346.53,417.48 346.53,417.48L309,420.74C298.15,421.35 291.26,418.15 287.28,415.18C284.385,413.003 283.144,409.231 284.18,405.76L287.95,393.06C290.002,386.139 291.046,378.959 291.05,371.74L291.05,304.74C291.32,260.26 314.25,255.01 314.25,255.01C340.49,244.78 357.34,296.16 357.34,296.16C359.54,300.69 361.7,311.54 363.34,321.78C365.21,333.39 366.46,344.23 366.46,344.23C368.92,350.74 383.79,355.17 397.41,357.9C409.79,360.39 421.13,361.48 421.13,361.48L422.53,380.7C398.72,383.22 356.2,373.74 356.2,373.74Z" style="fill:rgb(221,44,71);fill-rule:nonzero;"/>
    </g>
    <g transform="matrix(1,0,0,1,-68,-10)">
        <path d="M356.2,373.74L356.72,387.31C356.72,387.31 323.33,360 319.18,333.72C319.18,333.72 330.51,355.2 356.2,373.74Z" style="fill-opacity:0.2;fill-rule:nonzero;"/>
    </g>
    <g transform="matrix(1,0,0,1,-68,-10)">
        <path d="M397.37,357.88C373.94,359.11 371.95,352.81 371.95,352.81C370.57,351.29 369.12,352.88 368.09,354.6C367.873,354.958 367.483,355.178 367.064,355.178C366.542,355.178 366.078,354.837 365.92,354.34C364.65,350.42 362.28,344.5 362.28,344.5C358.97,337.86 353.14,314.38 353.14,314.38C350.35,295.04 339.08,280.67 339.08,280.67C355.93,293.67 363.3,321.76 363.3,321.76C365.17,333.37 366.42,344.21 366.42,344.21C368.88,350.72 383.75,355.15 397.37,357.88Z" style="fill-opacity:0.2;fill-rule:nonzero;"/>
    </g>
    <g transform="matrix(1,0,0,1,-68,-10)">
        <path d="M350.63,417L351.04,438.55C351.112,441.725 350.978,444.902 350.64,448.06C347.82,474.6 336.89,508.16 336.89,508.16L310.76,616.68C310.581,617.438 309.936,618.003 309.16,618.08L285.6,620.62C285.55,620.624 285.5,620.626 285.45,620.626C284.444,620.626 283.613,619.806 283.6,618.8C283.46,607.59 289.15,574.12 289.15,574.12C293.86,540.82 295.3,521.27 295.3,521.27L295.37,504.09L295.37,503.89L295.72,419.33C302.49,421.43 311.22,420.53 311.22,420.53L350.63,417Z" style="fill:rgb(47,46,65);fill-rule:nonzero;"/>
    </g>
    <g transform="matrix(1,0,0,1,-68,-10)">
        <path d="M290.91,598C289.45,617.18 297.38,619.32 297.38,619.32L285.6,620.59C285.55,620.594 285.5,620.596 285.45,620.596C284.444,620.596 283.613,619.776 283.6,618.77C283.46,607.56 289.15,574.09 289.15,574.09C293.86,540.79 295.3,521.24 295.3,521.24L295.37,504.06C295.45,510.53 300.73,518.06 300.73,521.6C300.846,525.153 300.198,528.689 298.83,531.97C298.012,533.823 297.668,535.851 297.83,537.87C298.325,546.959 297.076,556.06 294.15,564.68L290.91,598Z" style="fill-opacity:0.2;fill-rule:nonzero;"/>
    </g>
    <g transform="matrix(1,0,0,1,-68,-10)">
        <path d="M370.54,194.66L369.54,192.48C363.98,197.63 348.74,196.84 348.74,196.84C342.4,197.03 342.4,198.42 342.4,198.42C338.04,201.59 342.99,204.75 342.99,204.75C347.35,208.32 344.58,210.9 344.58,210.9L336.65,219.81C335.241,219.123 333.672,218.83 332.11,218.96C329.826,219.136 327.953,220.884 327.62,223.15C327.287,225.416 313.29,212.46 314.08,201.37C315.03,188.12 334.88,184.92 334.88,184.92C336.47,176.41 352.71,172.64 352.71,172.64C366.58,170.07 365.18,175.81 365.18,175.81C365.206,177.611 365.987,179.32 367.33,180.52C368.956,182.125 370.12,184.14 370.7,186.35C371.41,189.082 371.355,191.957 370.54,194.66Z" style="fill:rgb(47,46,65);fill-rule:nonzero;"/>
    </g>
    <g transform="matrix(1,0,0,1,-68,-10)">
        <path d="M369.34,241C366,248.73 351,242.58 351,242.58C346.73,250.32 348.5,261.87 348.5,261.87C340.94,252.44 327.77,247.27 327.77,247.27L332.09,230.7C329.241,229.308 327.478,226.348 327.61,223.18C327.943,220.914 329.816,219.166 332.1,218.99C333.662,218.86 335.231,219.153 336.64,219.84L344.57,210.93C344.57,210.93 347.34,208.35 342.98,204.78C342.98,204.78 338.03,201.62 342.39,198.45C342.39,198.45 342.39,197.06 348.73,196.87C348.73,196.87 363.97,197.66 369.53,192.51L370.53,194.69C380.64,223.58 369.34,241 369.34,241Z" style="fill:rgb(249,180,153);fill-rule:nonzero;"/>
    </g>
    <g transform="matrix(1,0,0,1,-68,-10)">
        <path d="M370.54,194.66C363,201.4 348.35,200 348.35,200C341.62,199.81 343.59,203.18 343.59,203.18C348.35,207.72 346.77,210.69 346.77,210.69L336.66,219.81L344.59,210.9C344.59,210.9 347.36,208.32 343,204.75C343,204.75 338.05,201.59 342.41,198.42C342.41,198.42 342.41,197.03 348.75,196.84C348.75,196.84 363.99,197.63 369.55,192.48L370.54,194.66Z" style="fill:rgb(247,164,139);fill-rule:nonzero;"/>
    </g>
    <g transform="matrix(1,0,0,1,-68,-10)">
        <path d="M351,242.58C347.646,242.154 344.61,240.367 342.61,237.64C340.61,234.913 341.25,249.28 348.16,254.85C348.37,250.624 349.332,246.469 351,242.58Z" style="fill:rgb(247,164,139);fill-rule:nonzero;"/>
    </g>
    <g transform="matrix(0.836286,-0.548293,0.548293,0.836286,-137.13,210.54)">
        <ellipse cx="334.78" cy="226.05" rx="1.88" ry="2.87" style="fill:rgb(247,164,139);"/>
    </g>
    <g transform="matrix(1,0,0,1,-68,-10)">
        <path d="M319.28,253.74C319.28,253.74 320.78,245.09 327.78,247.26C327.78,247.26 340.78,251.93 348.51,261.87C349.495,263.14 350.117,264.654 350.31,266.25C350.75,269.72 351.4,276.31 350.71,280.67C350.71,280.67 337.37,252.4 319.28,253.74Z" style="fill:rgb(47,46,65);fill-rule:nonzero;"/>
    </g>
    <g transform="matrix(1,0,0,1,-68,-10)">
        <path d="M464.34,374.38C459.84,377.79 454.18,377.83 452.01,377.7C451.45,377.7 451.12,377.61 451.12,377.61L449.12,372.96L443.71,366.96L453.71,375.57C454.054,375.868 454.495,376.031 454.95,376.03C455.234,376.03 455.515,375.965 455.77,375.84C456.423,375.529 456.841,374.867 456.841,374.143C456.841,373.569 456.579,373.026 456.13,372.67L447.71,366C447.453,365.807 447.304,365.502 447.31,365.18C447.303,365.132 447.3,365.084 447.3,365.036C447.3,364.487 447.751,364.036 448.3,364.036C448.62,364.036 448.922,364.19 449.11,364.45L452.59,368.08C452.973,368.395 453.454,368.569 453.95,368.57C454.632,368.564 455.273,368.238 455.68,367.69C455.95,367.323 456.095,366.879 456.095,366.423C456.095,365.738 455.765,365.092 455.21,364.69L439.85,353.41C446.55,350.41 453.85,359.81 453.85,359.81L459.73,359.81C461.23,363 463.56,368.64 464.22,373.7C464.28,374 464.32,374.17 464.34,374.38Z" style="fill:rgb(249,180,153);fill-rule:nonzero;"/>
    </g>
    <g transform="matrix(1,0,0,1,-68,-10)">
        <path d="M452,377.74C451.44,377.74 451.11,377.65 451.11,377.65L449.11,373L451.45,375.7C451.94,376.257 452.143,377.012 452,377.74Z" style="fill:rgb(247,164,139);fill-rule:nonzero;"/>
    </g>
    <g transform="matrix(1,0,0,1,-68,-10)">
        <path d="M556.58,399.28L572.2,409L602,379.08C602,379.08 614.51,367.67 615.72,352.08C615.72,352.08 626.17,287.68 611.83,284.28C611.83,284.28 590.19,276.28 588.74,318.79L587.2,348.19L556.58,399.28Z" style="fill:rgb(59,130,246);fill-rule:nonzero;"/>
    </g>
    <g transform="matrix(1,0,0,1,-68,-10)">
        <path d="M569.77,407.47C569.77,407.47 563.77,425.26 554.98,418.69C554.67,418.69 546.2,418.69 545.98,413.83C545.962,412.908 546.254,412.006 546.81,411.27L549.66,407.34C549.725,407.252 549.759,407.146 549.759,407.037C549.759,406.758 549.529,406.527 549.249,406.527C549.188,406.527 549.127,406.538 549.07,406.56C547.553,407.078 545.971,407.378 544.37,407.45C544.343,407.452 544.315,407.452 544.288,407.452C543.498,407.452 542.848,406.802 542.848,406.012C542.848,405.985 542.848,405.957 542.85,405.93C542.853,405.44 543.121,404.988 543.55,404.75C545.201,403.806 547.011,403.172 548.89,402.88L556.6,399.28L569.77,407.47Z" style="fill:rgb(249,180,153);fill-rule:nonzero;"/>
    </g>
    <g transform="matrix(1,0,0,1,-68,-10)">
        <path d="M553.77,418.18C553.875,418.203 553.95,418.297 553.95,418.405C553.95,418.531 553.846,418.635 553.72,418.635C553.703,418.635 553.686,418.634 553.67,418.63C551.21,418.42 546.14,417.54 545.96,413.83C545.942,412.908 546.234,412.006 546.79,411.27L549.64,407.34C549.702,407.253 549.736,407.149 549.736,407.042C549.736,406.762 549.506,406.532 549.226,406.532C549.169,406.532 549.113,406.542 549.06,406.56C547.539,407.074 545.954,407.374 544.35,407.45C544.323,407.452 544.295,407.452 544.268,407.452C543.478,407.452 542.828,406.802 542.828,406.012C542.828,405.985 542.828,405.957 542.83,405.93C545.208,406.004 547.586,405.809 549.92,405.35C550.048,405.314 550.18,405.296 550.313,405.296C551.12,405.296 551.783,405.96 551.783,406.766C551.783,407.001 551.727,407.232 551.62,407.44C551.149,408.286 550.56,409.06 549.87,409.74C549.18,410.42 547.26,415 553.77,418.18Z" style="fill:rgb(247,164,139);fill-rule:nonzero;"/>
    </g>
    <g transform="matrix(1,0,0,1,-68,-10)">
        <path d="M570.63,233L575.16,257.18L563,270.76C551,282.01 552.4,268.18 552.4,268.18L552.4,246.45C529.77,255.5 529.63,231.23 529.63,231.23C528.75,231.113 527.947,230.662 527.39,229.97C526.31,228.49 526.76,225.74 528.84,223.27C529.307,222.717 529.485,221.975 529.32,221.27C528.823,219.159 528.488,217.012 528.32,214.85C528.22,213.54 528.17,212.27 528.18,211.05C528.212,208.459 528.473,205.875 528.96,203.33C529.17,202.23 529.42,201.22 529.66,200.33C529.66,200.33 530.73,198.63 532,200.98C534.59,205.77 540.15,205.37 540.15,205.37C539.729,204.135 539.971,202.766 540.79,201.75C544.67,213.65 551.44,211.97 551.44,211.97C550.947,210.769 550.947,209.421 551.44,208.22C553.04,214.03 568.08,218.96 568.08,218.96C568.188,220.043 568.443,221.106 568.84,222.12C569.001,222.562 569.223,222.98 569.5,223.36C572.86,219.86 575.19,223.74 575.19,223.74C578.29,229.35 571.82,232.53 570.8,232.99C570.745,233.005 570.687,233.008 570.63,233Z" style="fill:rgb(249,180,153);fill-rule:nonzero;"/>
    </g>
    <g transform="matrix(1,0,0,1,-68,-10)">
        <path d="M568.81,222.07C563.48,224.07 554.21,215.29 554.21,215.29C554.11,215.846 554.11,216.414 554.21,216.97C548.21,218.28 541.28,208.69 541.28,208.69C540.12,209.46 541.28,210.63 541.28,210.63C536.251,210.242 531.68,207.529 528.93,203.3C529.14,202.2 529.39,201.19 529.63,200.3C529.63,200.3 530.7,198.6 531.97,200.95C534.56,205.74 540.12,205.34 540.12,205.34C539.699,204.105 539.941,202.736 540.76,201.72C544.64,213.62 551.41,211.94 551.41,211.94C550.917,210.739 550.917,209.391 551.41,208.19C553.01,214 568.05,218.93 568.05,218.93C568.159,220.006 568.415,221.063 568.81,222.07Z" style="fill:rgb(247,164,139);fill-rule:nonzero;"/>
    </g>
    <g transform="matrix(0.60793,-0.79399,0.79399,0.60793,-25.48,531.99)">
        <ellipse cx="570.02" cy="227.94" rx="3.16" ry="2.43" style="fill:rgb(247,164,139);"/>
    </g>
    <g transform="matrix(1,0,0,1,-68,-10)">
        <path d="M577.4,229.63C575.353,231.033 573.122,232.147 570.77,232.94C571.77,232.48 578.26,229.3 575.16,223.69C575.16,223.69 572.83,219.81 569.47,223.31C569.193,222.93 568.971,222.512 568.81,222.07C568.413,221.056 568.158,219.993 568.05,218.91C567.942,217.827 553.05,213.98 551.41,208.17C550.917,209.371 550.917,210.719 551.41,211.92C551.903,213.121 544.64,213.6 540.76,201.7C539.941,202.716 539.699,204.085 540.12,205.32C540.541,206.555 534.56,205.72 531.97,200.93C530.7,198.58 529.63,200.28 529.63,200.28C529.39,201.19 529.14,202.2 528.93,203.28C528.443,205.825 528.182,208.409 528.15,211L528.09,211C526.286,209.915 524.843,208.321 523.94,206.42C523.894,206.336 523.854,206.249 523.82,206.16C522.82,203.83 522.57,200.62 524.5,196.44C524.8,195.88 534.65,177.83 553,178.15C553,178.15 566.13,177.83 568.8,187.71C568.8,187.71 584.42,183.85 588.31,199.71C588.32,199.68 591.93,219.7 577.4,229.63Z" style="fill:rgb(47,46,65);fill-rule:nonzero;"/>
    </g>
    <g transform="matrix(1,0,0,1,-68,-10)">
        <path d="M579.57,205.11C580.65,206.84 586.36,217.22 577.4,229.63C575.353,231.033 573.122,232.147 570.77,232.94C571.77,232.48 578.26,229.3 575.16,223.69C575.16,223.69 572.83,219.81 569.47,223.31C569.193,222.93 568.971,222.512 568.81,222.07C568.413,221.056 568.158,219.993 568.05,218.91C567.942,217.827 553.05,213.98 551.41,208.17C550.917,209.371 550.917,210.719 551.41,211.92C551.903,213.121 544.64,213.6 540.76,201.7C539.941,202.716 539.699,204.085 540.12,205.32C540.541,206.555 534.56,205.72 531.97,200.93C530.7,198.58 529.63,200.28 529.63,200.28C529.39,201.19 529.14,202.2 528.93,203.28C528.443,205.825 528.182,208.409 528.15,211L528.09,211C526.335,209.856 524.906,208.278 523.94,206.42C523.894,206.336 523.854,206.249 523.82,206.16C522.71,203.76 522.36,200.51 524.5,196.44C524.75,196.37 532.95,193.95 535.83,189.97C535.83,189.97 545.06,176.54 561.9,188.83C560.967,187.064 559.684,185.505 558.13,184.25C558.072,184.207 558.038,184.138 558.038,184.066C558.038,183.94 558.142,183.836 558.268,183.836C558.282,183.836 558.296,183.837 558.31,183.84C560.43,184.36 564.66,186.19 566.45,192.73C566.45,192.73 578.21,193.15 582.81,203.31C582.83,203.36 582.841,203.413 582.841,203.466C582.841,203.691 582.656,203.876 582.431,203.876C582.407,203.876 582.383,203.874 582.36,203.87C581.48,203.68 580.09,203.57 579.56,204.48C579.451,204.676 579.454,204.917 579.57,205.11Z" style="fill-opacity:0.2;fill-rule:nonzero;"/>
    </g>
    <g transform="matrix(1,0,0,1,-68,-10)">
        <path d="M552.4,246.45C555.627,244.961 558.339,242.544 560.19,239.51C562.041,236.476 566.64,248.07 552.4,257.66L552.4,246.45Z" style="fill:rgb(247,164,139);fill-rule:nonzero;"/>
    </g>
    <g id="e37e942a-8264-442d-800c-6d764dbfd862" transform="matrix(1,0,0,1,-68,-10)">
        <path d="M669.53,207.25C670.134,208.061 670.844,208.787 671.64,209.41L669.88,213.57L674.41,215.5L676.1,211.5C677.17,211.73 678.269,211.8 679.36,211.71L681.26,216.42L685.87,214.55L684.1,210.22C685.317,209.502 686.389,208.562 687.26,207.45L691.43,209.21L693.36,204.67L689.43,203C689.703,201.731 689.747,200.424 689.56,199.14L693.46,197.56L691.59,193L687.83,194.53C687.009,193.277 685.94,192.205 684.69,191.38L686.37,187.38L681.83,185.45L680.07,189.62C679.075,189.483 678.065,189.483 677.07,189.62L675.27,185.18L670.65,187L672.39,191.31C671.143,192.138 670.072,193.206 669.24,194.45L665.24,192.77L663.31,197.31L667.49,199.06C667.32,200.263 667.35,201.487 667.58,202.68L663.27,204.44L665.14,209.03L669.53,207.25ZM674.3,198.83C675.018,197.173 676.66,196.095 678.466,196.095C680.956,196.095 683.006,198.144 683.006,200.635C683.006,203.125 680.956,205.175 678.466,205.175C677.87,205.175 677.28,205.058 676.73,204.83C675.035,204.133 673.923,202.473 673.923,200.64C673.923,200.017 674.051,199.401 674.3,198.83Z" style="fill:rgb(59,130,246);fill-rule:nonzero;"/>
        <g opacity="0.5">
            <path d="M669.53,207.25C670.134,208.061 670.844,208.787 671.64,209.41L669.88,213.57L674.41,215.5L676.1,211.5C677.17,211.73 678.269,211.8 679.36,211.71L681.26,216.42L685.87,214.55L684.1,210.22C685.317,209.502 686.389,208.562 687.26,207.45L691.43,209.21L693.36,204.67L689.43,203C689.703,201.731 689.747,200.424 689.56,199.14L693.46,197.56L691.59,193L687.83,194.53C687.009,193.277 685.94,192.205 684.69,191.38L686.37,187.38L681.83,185.45L680.07,189.62C679.075,189.483 678.065,189.483 677.07,189.62L675.27,185.18L670.65,187L672.39,191.31C671.143,192.138 670.072,193.206 669.24,194.45L665.24,192.77L663.31,197.31L667.49,199.06C667.32,200.263 667.35,201.487 667.58,202.68L663.27,204.44L665.14,209.03L669.53,207.25ZM674.3,198.83C675.018,197.173 676.66,196.095 678.466,196.095C680.956,196.095 683.006,198.144 683.006,200.635C683.006,203.125 680.956,205.175 678.466,205.175C677.87,205.175 677.28,205.058 676.73,204.83C675.035,204.133 673.923,202.473 673.923,200.64C673.923,200.017 674.051,199.401 674.3,198.83Z" style="fill:white;fill-rule:nonzero;"/>
        </g>
        <path d="M109.65,306.79C110.253,307.601 110.959,308.331 111.75,308.96L110,313.12L114.53,315.05L116.22,311.05C117.289,311.288 118.388,311.362 119.48,311.27L121.38,315.97L125.99,314.1L124.22,309.77C125.437,309.052 126.509,308.112 127.38,307L131.55,308.76L133.48,304.23L129.55,302.51C129.823,301.245 129.867,299.941 129.68,298.66L133.58,297.07L131.71,292.53L128,294.05C127.177,292.799 126.109,291.727 124.86,290.9L126.54,286.9L122,285L120.24,289.18C119.245,289.033 118.235,289.033 117.24,289.18L115.44,284.73L110.85,286.6L112.59,290.91C111.348,291.744 110.278,292.81 109.44,294.05L105.44,292.37L103.51,296.91L107.69,298.67C107.52,299.87 107.55,301.09 107.78,302.28L103.4,304L105.27,308.6L109.65,306.79ZM114.42,298.38C115.138,296.723 116.78,295.645 118.586,295.645C121.076,295.645 123.126,297.694 123.126,300.185C123.126,302.675 121.076,304.725 118.586,304.725C117.99,304.725 117.4,304.608 116.85,304.38C115.156,303.679 114.046,302.018 114.046,300.185C114.046,299.564 114.173,298.95 114.42,298.38Z" style="fill:rgb(59,130,246);fill-rule:nonzero;"/>
        <g opacity="0.5">
            <path d="M109.65,306.79C110.253,307.601 110.959,308.331 111.75,308.96L110,313.12L114.53,315.05L116.22,311.05C117.289,311.288 118.388,311.362 119.48,311.27L121.38,315.97L125.99,314.1L124.22,309.77C125.437,309.052 126.509,308.112 127.38,307L131.55,308.76L133.48,304.23L129.55,302.51C129.823,301.245 129.867,299.941 129.68,298.66L133.58,297.07L131.71,292.53L128,294.05C127.177,292.799 126.109,291.727 124.86,290.9L126.54,286.9L122,285L120.24,289.18C119.245,289.033 118.235,289.033 117.24,289.18L115.44,284.73L110.85,286.6L112.59,290.91C111.348,291.744 110.278,292.81 109.44,294.05L105.44,292.37L103.51,296.91L107.69,298.67C107.52,299.87 107.55,301.09 107.78,302.28L103.4,304L105.27,308.6L109.65,306.79ZM114.42,298.38C115.138,296.723 116.78,295.645 118.586,295.645C121.076,295.645 123.126,297.694 123.126,300.185C123.126,302.675 121.076,304.725 118.586,304.725C117.99,304.725 117.4,304.608 116.85,304.38C115.156,303.679 114.046,302.018 114.046,300.185C114.046,299.564 114.173,298.95 114.42,298.38Z" style="fill:white;fill-rule:nonzero;"/>
        </g>
        <path d="M255.05,185.6C255.648,186.418 256.359,187.149 257.16,187.77L255.4,191.94L259.94,193.87L261.63,189.87C262.697,190.103 263.792,190.177 264.88,190.09L266.79,194.78L271.39,192.91L269.62,188.58C270.84,187.862 271.915,186.923 272.79,185.81L276.96,187.58L278.89,183.04L274.89,181.32C275.158,180.047 275.202,178.738 275.02,177.45L278.92,175.88L277.05,171.27L273.29,172.8C272.461,171.553 271.394,170.483 270.15,169.65L271.83,165.65L267.29,163.72L265.53,167.89C264.534,167.763 263.526,167.763 262.53,167.89L260.73,163.46L256.19,165.32L257.91,169.58C256.662,170.418 255.588,171.492 254.75,172.74L250.75,171.05L248.82,175.58L253,177.34C252.83,178.543 252.86,179.767 253.09,180.96L248.78,182.7L250.65,187.31L255.05,185.6ZM259.82,177.2C260.538,175.543 262.18,174.465 263.986,174.465C266.476,174.465 268.526,176.514 268.526,179.005C268.526,181.495 266.476,183.545 263.986,183.545C263.39,183.545 262.8,183.428 262.25,183.2C260.556,182.499 259.446,180.838 259.446,179.005C259.446,178.384 259.573,177.77 259.82,177.2Z" style="fill:rgb(59,130,246);fill-rule:nonzero;"/>
        <g opacity="0.5">
            <path d="M255.05,185.6C255.648,186.418 256.359,187.149 257.16,187.77L255.4,191.94L259.94,193.87L261.63,189.87C262.697,190.103 263.792,190.177 264.88,190.09L266.79,194.78L271.39,192.91L269.62,188.58C270.84,187.862 271.915,186.923 272.79,185.81L276.96,187.58L278.89,183.04L274.89,181.32C275.158,180.047 275.202,178.738 275.02,177.45L278.92,175.88L277.05,171.27L273.29,172.8C272.461,171.553 271.394,170.483 270.15,169.65L271.83,165.65L267.29,163.72L265.53,167.89C264.534,167.763 263.526,167.763 262.53,167.89L260.73,163.46L256.19,165.32L257.91,169.58C256.662,170.418 255.588,171.492 254.75,172.74L250.75,171.05L248.82,175.58L253,177.34C252.83,178.543 252.86,179.767 253.09,180.96L248.78,182.7L250.65,187.31L255.05,185.6ZM259.82,177.2C260.538,175.543 262.18,174.465 263.986,174.465C266.476,174.465 268.526,176.514 268.526,179.005C268.526,181.495 266.476,183.545 263.986,183.545C263.39,183.545 262.8,183.428 262.25,183.2C260.556,182.499 259.446,180.838 259.446,179.005C259.446,178.384 259.573,177.77 259.82,177.2Z" style="fill:white;fill-rule:nonzero;"/>
        </g>
    </g>
    <g id="b901c145-a1d4-4b29-9098-21bae61eea9e" transform="matrix(1,0,0,1,-68,-10)">
        <path d="M455.33,104.46L455.33,143.26L338.91,143.26L338.91,26.86L349.41,26.86C349.41,26.86 356.56,28.86 358.93,34.58C361.07,39.64 357.88,45.74 357.15,47.05L357.03,47.27C355.478,49.958 354.66,53.008 354.66,56.112C354.66,65.811 362.641,73.792 372.34,73.792C382.039,73.792 390.02,65.811 390.02,56.112C390.02,53.008 389.202,49.958 387.65,47.27C387.592,47.21 387.547,47.139 387.52,47.06C386.79,45.77 383.6,39.67 385.72,34.59C388.11,28.92 395.26,26.87 395.26,26.87L455.36,26.87L455.36,58.66C455.36,58.66 453.31,65.82 447.64,68.2C442.58,70.33 436.48,67.14 435.16,66.42L435,66.3C432.311,64.723 429.247,63.897 426.13,63.91C416.448,63.935 408.495,71.908 408.495,81.59C408.495,91.289 416.476,99.27 426.175,99.27C429.272,99.27 432.316,98.456 435,96.91L435.2,96.79C436.49,96.06 442.6,92.86 447.68,94.99C453.27,97.3 455.33,104.46 455.33,104.46Z" style="fill:rgb(236,54,57);fill-rule:nonzero;"/>
        <g opacity="0.6">
            <path d="M455.33,104.46L455.33,143.26L338.91,143.26L338.91,26.86L349.41,26.86C349.41,26.86 356.56,28.86 358.93,34.58C361.07,39.64 357.88,45.74 357.15,47.05L357.03,47.27C355.478,49.958 354.66,53.008 354.66,56.112C354.66,65.811 362.641,73.792 372.34,73.792C382.039,73.792 390.02,65.811 390.02,56.112C390.02,53.008 389.202,49.958 387.65,47.27C387.592,47.21 387.547,47.139 387.52,47.06C386.79,45.77 383.6,39.67 385.72,34.59C388.11,28.92 395.26,26.87 395.26,26.87L455.36,26.87L455.36,58.66C455.36,58.66 453.31,65.82 447.64,68.2C442.58,70.33 436.48,67.14 435.16,66.42L435,66.3C432.311,64.723 429.247,63.897 426.13,63.91C416.448,63.935 408.495,71.908 408.495,81.59C408.495,91.289 416.476,99.27 426.175,99.27C429.272,99.27 432.316,98.456 435,96.91L435.2,96.79C436.49,96.06 442.6,92.86 447.68,94.99C453.27,97.3 455.33,104.46 455.33,104.46Z" style="fill:white;fill-rule:nonzero;"/>
        </g>
        <path d="M571.67,26.86L571.67,143.15L556.12,143.15C554.98,142.76 548.93,140.6 546.78,135.49C544.63,130.38 547.84,124.35 548.56,123.02L548.7,122.8C550.27,120.116 551.092,117.059 551.08,113.95C551.071,104.268 543.102,96.306 533.42,96.306C523.732,96.306 515.76,104.278 515.76,113.966C515.76,117.075 516.581,120.13 518.14,122.82L518.27,123.03C519,124.31 522.18,130.41 520.05,135.5C517.92,140.59 511.9,142.77 510.72,143.16L455.33,143.16L455.33,104.39C455.33,104.39 453.28,97.23 447.61,94.85C442.61,92.74 436.47,95.92 435.14,96.64L434.94,96.77C432.221,98.374 429.121,99.22 425.964,99.22C416.27,99.22 408.294,91.243 408.294,81.55C408.294,71.856 416.27,63.88 425.964,63.88C425.999,63.88 426.035,63.88 426.07,63.88C429.179,63.868 432.236,64.69 434.92,66.26C434.985,66.313 435.056,66.36 435.13,66.4C436.42,67.12 442.52,70.31 447.6,68.18C453.27,65.81 455.31,58.65 455.31,58.65L455.31,26.9L571.67,26.86Z" style="fill:rgb(59,130,246);fill-rule:nonzero;"/>
        <path d="M571.67,26.86L571.67,143.15L556.12,143.15C554.98,142.76 548.93,140.6 546.78,135.49C544.63,130.38 547.84,124.35 548.56,123.02L548.7,122.8C550.27,120.116 551.092,117.059 551.08,113.95C551.071,104.268 543.102,96.306 533.42,96.306C523.732,96.306 515.76,104.278 515.76,113.966C515.76,117.075 516.581,120.13 518.14,122.82L518.27,123.03C519,124.31 522.18,130.41 520.05,135.5C517.92,140.59 511.9,142.77 510.72,143.16L455.33,143.16L455.33,104.39C455.33,104.39 453.28,97.23 447.61,94.85C442.61,92.74 436.47,95.92 435.14,96.64L434.94,96.77C432.221,98.374 429.121,99.22 425.964,99.22C416.27,99.22 408.294,91.243 408.294,81.55C408.294,71.856 416.27,63.88 425.964,63.88C425.999,63.88 426.035,63.88 426.07,63.88C429.179,63.868 432.236,64.69 434.92,66.26C434.985,66.313 435.056,66.36 435.13,66.4C436.42,67.12 442.52,70.31 447.6,68.18C453.27,65.81 455.31,58.65 455.31,58.65L455.31,26.9L571.67,26.86Z" style="fill:white;fill-opacity:0.5;fill-rule:nonzero;"/>
    </g>
</svg>
