<?xml version="1.0" encoding="UTF-8" standalone="no"?>
<!DOCTYPE svg PUBLIC "-//W3C//DTD SVG 1.1//EN" "http://www.w3.org/Graphics/SVG/1.1/DTD/svg11.dtd">
<svg width="100%" height="100%" viewBox="0 0 704 574" version="1.1" xmlns="http://www.w3.org/2000/svg" xmlns:xlink="http://www.w3.org/1999/xlink" xml:space="preserve" xmlns:serif="http://www.serif.com/" style="fill-rule:evenodd;clip-rule:evenodd;stroke-linejoin:round;stroke-miterlimit:2;">
    <g id="e77d6775-0d6e-4379-8bfc-a6b010ad5ee5-3433" transform="matrix(1,0,0,1,-248.091,-163.315)">
        <path d="M454.389,703.636C459.846,708.82 467.635,710.786 474.898,708.815C484.062,706.213 490.282,697.946 495.802,690.182L512.135,667.223L498.37,669.747C488.471,671.561 478.326,673.467 469.705,678.661C461.084,683.855 454.179,693.127 454.725,703.176" style="fill:rgb(230,230,230);fill-rule:nonzero;"/>
    </g>
    <g id="a925376f-81ed-452b-bc21-27b5ed1cb659-3434" transform="matrix(1,0,0,1,-248.091,-163.315)">
        <path d="M441.594,734.564C444.008,726.333 446.436,717.99 450.699,710.488C454.484,703.826 459.656,697.98 466.48,694.346C470.099,692.422 474.027,691.144 478.085,690.57C479.144,690.421 479.316,692.068 478.263,692.218C471.237,693.222 464.709,696.432 459.625,701.383C453.988,706.899 450.29,714.009 447.557,721.327C445.902,725.752 444.566,730.285 443.237,734.818C443.156,735.26 442.738,735.566 442.292,735.511C441.843,735.439 441.532,735.014 441.598,734.565L441.594,734.564Z" style="fill:rgb(242,242,242);fill-rule:nonzero;"/>
    </g>
    <g transform="matrix(1,0,0,1,-248.091,-163.315)">
        <path d="M707.405,403.053C708.252,402.849 709.12,402.745 709.992,402.745C715.798,402.745 720.663,407.327 721.011,413.123L758.775,423.739L743.366,437.085L709.867,424.957C703.804,424.919 698.837,419.921 698.837,413.859C698.837,408.722 702.404,404.224 707.405,403.053L707.405,403.053Z" style="fill:rgb(255,183,183);fill-rule:nonzero;"/>
    </g>
    <path d="M556.357,561.294L545.349,561.293L540.112,518.835L556.359,518.836L556.357,561.294Z" style="fill:rgb(255,183,183);fill-rule:nonzero;"/>
    <g transform="matrix(1,0,0,1,-248.091,-163.315)">
        <path d="M807.255,735.279L771.762,735.278L771.762,734.829C771.762,727.25 777.999,721.014 785.577,721.014L807.256,721.015L807.255,735.279Z" style="fill:rgb(47,46,65);fill-rule:nonzero;"/>
    </g>
    <path d="M620.859,561.294L609.851,561.293L604.614,518.835L620.86,518.836L620.859,561.294Z" style="fill:rgb(255,183,183);fill-rule:nonzero;"/>
    <g transform="matrix(1,0,0,1,-248.091,-163.315)">
        <path d="M871.757,735.279L836.264,735.278L836.264,734.829C836.264,727.25 842.5,721.014 850.079,721.014L871.758,721.015L871.757,735.279Z" style="fill:rgb(47,46,65);fill-rule:nonzero;"/>
    </g>
    <path d="M547.363,317.603L531.148,429.917L535.188,548.251L559.537,550.19L567.151,444.067L586.533,384.893L597.928,469.245L598.396,548.251L623.539,550.19L632.308,384.09L625.858,311.854L547.363,317.603Z" style="fill:rgb(47,46,65);fill-rule:nonzero;"/>
    <circle cx="594.261" cy="141.578" r="25.651" style="fill:rgb(255,183,183);"/>
    <g transform="matrix(1,0,0,1,-248.091,-163.315)">
        <path d="M826.542,344.496L798.223,487.162C798.223,487.162 845.901,500.846 866.788,488.213C887.675,475.581 878.316,436.583 878.316,436.583L874.49,370.225L867.421,353.444L861.423,339.592L826.542,344.496Z" style="fill:rgb(61,131,246);fill-rule:nonzero;"/>
    </g>
    <g transform="matrix(1,0,0,1,-248.091,-163.315)">
        <path d="M818.253,445.764L828.035,341.727L820.212,347.438L792.858,356.322L790.986,429.568L771.851,525.888C771.851,525.888 785.528,552.576 802.479,508.424L818.253,445.764Z" style="fill:rgb(47,46,65);fill-rule:nonzero;"/>
    </g>
    <path d="M557.931,203.962L544.767,193.007L515.18,257.279L482.164,250.047L480.604,269.546L528.44,288.477L561.038,243.095L557.931,203.962Z" style="fill:rgb(47,46,65);fill-rule:nonzero;"/>
    <path d="M609.144,259.677L612.831,175.005L626.399,185.512L650.63,192.266L647.077,259.677L652.19,364.277L626.786,372.323L619.655,306.32L609.144,259.677Z" style="fill:rgb(47,46,65);fill-rule:nonzero;"/>
    <g transform="matrix(1,0,0,1,-248.091,-163.315)">
        <path d="M858.866,491.152C859.804,485.91 864.407,482.057 869.732,482.057C871.036,482.057 872.331,482.288 873.554,482.74L898.451,452.425L904.48,471.898L879.913,497.7C878.131,501.692 874.15,504.275 869.778,504.275C863.69,504.275 858.679,499.265 858.679,493.177C858.679,492.497 858.742,491.82 858.866,491.152L858.866,491.152Z" style="fill:rgb(255,183,183);fill-rule:nonzero;"/>
    </g>
    <path d="M634.407,201.665L650.63,192.266L691.451,272.878L651.652,328.143L628.952,309.993L656.516,274.048L631.394,235.44L634.407,201.665Z" style="fill:rgb(47,46,65);fill-rule:nonzero;"/>
    <g transform="matrix(1,0,0,1,-248.091,-163.315)">
        <path d="M866.478,284.385L867.722,281.883L861.465,278.774C861.465,278.774 854.562,267.542 842.071,270.698C829.58,273.855 823.96,275.744 823.96,275.744L817.719,278.884L820.851,282.001L815.231,283.89L818.986,285.755L814.618,288.266L816.969,301.138C816.969,301.138 820.875,291.375 828.384,295.106C835.892,298.836 849.627,293.177 849.627,293.177L861.559,316.27C861.559,316.27 864.021,308.175 868.41,310.333C868.41,310.334 879.623,292.477 866.478,284.385Z" style="fill:rgb(47,46,65);fill-rule:nonzero;"/>
    </g>
    <g transform="matrix(1,0,0,1,-248.091,-163.315)">
        <path d="M710.664,322.019L710.5,322.019L616.429,362.188L487.72,417.148C486.704,417.575 485.56,417.581 484.54,417.164L351.75,362.073L255.368,322.085L255.221,322.019L255.057,322.019C251.911,322.023 249.324,324.61 249.321,327.755L249.321,576.864C249.324,580.009 251.911,582.597 255.057,582.6L710.664,582.6C713.809,582.597 716.396,580.009 716.4,576.864L716.4,327.755C716.396,324.61 713.809,322.023 710.664,322.019Z" style="fill:white;fill-rule:nonzero;"/>
    </g>
    <g transform="matrix(1,0,0,1,-248.091,-163.315)">
        <path d="M711.073,323.658C710.906,323.658 710.742,323.607 710.605,323.511L483.982,165.685C482.573,164.708 480.694,164.711 479.288,165.693L254.298,323.51C254.16,323.606 253.996,323.658 253.828,323.658C253.379,323.658 253.009,323.288 253.009,322.838C253.009,322.571 253.139,322.321 253.357,322.168L478.347,164.351C480.316,162.977 482.946,162.972 484.919,164.34L711.542,322.166C711.762,322.319 711.893,322.571 711.893,322.838C711.893,323.288 711.523,323.658 711.073,323.658C711.073,323.658 711.073,323.658 711.073,323.658L711.073,323.658Z" style="fill:rgb(63,61,86);fill-rule:nonzero;"/>
    </g>
    <path d="M19.063,165.938L233.765,6.817L450.097,177.26L244.827,298.946L133.384,273.544L19.063,165.938Z" style="fill:rgb(230,230,230);fill-rule:nonzero;"/>
    <g transform="matrix(1,0,0,1,-248.091,-163.315)">
        <path d="M390.898,537.422L284.815,537.422C284.81,537.422 284.805,537.422 284.801,537.422C282.082,537.422 279.845,535.185 279.845,532.466C279.845,529.748 282.082,527.511 284.8,527.511L390.883,527.511C390.888,527.511 390.892,527.511 390.897,527.511C393.615,527.511 395.852,529.748 395.852,532.466C395.852,535.184 393.616,537.421 390.898,537.422Z" style="fill:rgb(221,43,70);fill-rule:nonzero;"/>
    </g>
    <g transform="matrix(1,0,0,1,-248.091,-163.315)">
        <path d="M322.884,516.116L284.815,516.116C284.81,516.116 284.805,516.116 284.8,516.116C282.082,516.116 279.845,513.879 279.845,511.161C279.845,508.442 282.082,506.206 284.8,506.205L322.87,506.205C325.589,506.205 327.826,508.442 327.826,511.161C327.826,513.874 325.597,516.108 322.884,516.116Z" style="fill:rgb(221,43,70);fill-rule:nonzero;"/>
    </g>
    <g transform="matrix(1,0,0,1,-248.091,-163.315)">
        <path d="M484.876,417.881C484.07,417.882 483.271,417.725 482.525,417.42L350.111,362.478L350.111,190.499C350.115,187.354 352.702,184.767 355.847,184.763L609.873,184.763C613.018,184.767 615.605,187.354 615.609,190.499L615.609,362.598L615.36,362.704L487.298,417.393C486.532,417.716 485.708,417.881 484.876,417.881Z" style="fill:rgb(221,43,70);fill-rule:nonzero;"/>
    </g>
    <g transform="matrix(1,0,0,1,-248.091,-163.315)">
        <path d="M709.435,322.019L709.271,322.019L615.199,362.188L486.49,417.148C485.475,417.575 484.33,417.581 483.311,417.164L350.521,362.073L254.139,322.085L253.992,322.019L253.827,322.019C250.682,322.023 248.095,324.61 248.091,327.755L248.091,576.864C248.095,580.009 250.682,582.597 253.827,582.6L709.435,582.6C712.58,582.597 715.167,580.009 715.171,576.864L715.171,327.755C715.167,324.61 712.58,322.023 709.435,322.019ZM713.532,576.864C713.531,579.111 711.682,580.96 709.435,580.961L253.827,580.961C251.58,580.96 249.731,579.111 249.73,576.864L249.73,327.755C249.733,325.567 251.485,323.746 253.672,323.658L350.521,363.843L482.68,418.68C484.11,419.262 485.714,419.253 487.138,418.655L615.199,363.966L709.599,323.658C711.781,323.752 713.527,325.571 713.532,327.755L713.532,576.864Z" style="fill:rgb(63,61,86);fill-rule:nonzero;"/>
    </g>
    <g transform="matrix(1,0,0,1,-248.091,-163.315)">
        <path d="M464.262,249.049L374.123,249.049C370.532,249.043 367.579,246.086 367.579,242.494C367.579,238.902 370.532,235.945 374.123,235.938L464.262,235.938C467.854,235.945 470.806,238.902 470.806,242.494C470.806,246.086 467.854,249.043 464.262,249.049Z" style="fill:white;fill-rule:nonzero;"/>
    </g>
    <g transform="matrix(1,0,0,1,-248.091,-163.315)">
        <path d="M417.554,221.188L374.123,221.188C370.527,221.188 367.568,218.229 367.568,214.633C367.568,211.037 370.527,208.077 374.123,208.077L417.554,208.077C421.15,208.077 424.109,211.037 424.109,214.633C424.109,218.229 421.15,221.188 417.554,221.188Z" style="fill:white;fill-rule:nonzero;"/>
    </g>
    <g transform="matrix(1,0,0,1,-248.091,-163.315)">
        <path d="M550.277,314.604L412.611,314.604C409.015,314.604 406.056,311.645 406.056,308.049C406.056,304.453 409.015,301.493 412.611,301.493L550.277,301.493C553.873,301.493 556.832,304.453 556.832,308.049C556.832,311.645 553.873,314.604 550.277,314.604Z" style="fill:white;fill-rule:nonzero;"/>
    </g>
    <g transform="matrix(1,0,0,1,-248.091,-163.315)">
        <path d="M550.277,344.924L412.611,344.924C412.607,344.924 412.604,344.924 412.6,344.924C409.003,344.924 406.044,341.964 406.044,338.368C406.044,334.772 409.003,331.813 412.6,331.813C412.604,331.813 412.607,331.813 412.611,331.813L550.277,331.813C550.281,331.813 550.284,331.813 550.288,331.813C553.884,331.813 556.844,334.772 556.844,338.368C556.844,341.964 553.884,344.924 550.288,344.924C550.284,344.924 550.281,344.924 550.277,344.924Z" style="fill:white;fill-rule:nonzero;"/>
    </g>
    <g transform="matrix(1,0,0,1,-248.091,-163.315)">
        <path d="M950.909,736.315L687.909,736.315C687.36,736.315 686.909,735.863 686.909,735.315C686.909,734.766 687.36,734.315 687.909,734.315L950.909,734.315C951.457,734.315 951.909,734.766 951.909,735.315C951.909,735.863 951.457,736.315 950.909,736.315Z" style="fill:rgb(203,203,203);fill-rule:nonzero;"/>
    </g>
    <g transform="matrix(1,0,0,1,-248.091,-163.315)">
        <path d="M491.909,736.315L394.909,736.315C394.36,736.315 393.909,735.863 393.909,735.315C393.909,734.766 394.36,734.315 394.909,734.315L491.909,734.315C492.457,734.315 492.909,734.766 492.909,735.315C492.909,735.863 492.457,736.315 491.909,736.315Z" style="fill:rgb(203,203,203);fill-rule:nonzero;"/>
    </g>
    <g id="e8398aff-523f-434a-af20-c024070a1d12-3435" transform="matrix(1,0,0,1,-248.091,-163.315)">
        <path d="M430.575,705.397C438.099,705.224 445.009,701.126 448.769,694.606C453.432,686.299 452.012,676.051 450.451,666.654L445.842,638.857L437.861,650.354C432.122,658.621 426.273,667.126 423.823,676.888C421.373,686.65 423.016,698.093 430.489,704.833" style="fill:rgb(230,230,230);fill-rule:nonzero;"/>
    </g>
    <g id="e2bc4c04-3c78-4f76-9d7c-3717db50fbca-3436" transform="matrix(1,0,0,1,-248.091,-163.315)">
        <path d="M443.313,736.348C439.22,728.81 435.058,721.182 432.79,712.857C430.776,705.464 430.321,697.672 432.597,690.283C433.806,686.367 435.69,682.692 438.163,679.423C438.808,678.571 440.092,679.617 439.45,680.466C435.177,686.132 432.812,693.011 432.699,700.107C432.591,707.993 434.984,715.642 438.206,722.758C440.152,727.063 442.402,731.219 444.656,735.37C444.91,735.741 444.83,736.252 444.474,736.528C444.106,736.793 443.585,736.712 443.316,736.346L443.313,736.348Z" style="fill:rgb(242,242,242);fill-rule:nonzero;"/>
    </g>
</svg>
