<?xml version="1.0" encoding="UTF-8" standalone="no"?><!DOCTYPE svg PUBLIC "-//W3C//DTD SVG 1.1//EN" "http://www.w3.org/Graphics/SVG/1.1/DTD/svg11.dtd"><svg width="100%" height="100%" viewBox="0 0 406 612" version="1.1" xmlns="http://www.w3.org/2000/svg" xmlns:xlink="http://www.w3.org/1999/xlink" xml:space="preserve" xmlns:serif="http://www.serif.com/" style="fill-rule:evenodd;clip-rule:evenodd;stroke-linejoin:round;stroke-miterlimit:2;"><path d="M320.859,492.28c-0.31,0.35 -0.62,0.71 -0.92,1.07c-4.19,4.863 -7.976,10.06 -11.32,15.54c-0.27,0.42 -0.53,0.85 -0.77,1.27c-7.914,13.239 -13.302,27.834 -15.89,43.04c-0.58,3.44 -1.016,6.9 -1.31,10.38c-0.21,2.68 -0.336,5.363 -0.38,8.05c-0.16,11.28 0.84,23.83 -6.43,32.45c-1.943,2.268 -4.315,4.131 -6.98,5.48c-2.007,1.039 -4.128,1.841 -6.32,2.39l-22.67,0c-1.14,-0.17 -2.28,-0.35 -3.42,-0.53c-0.03,0 -0.06,-0.01 -0.09,-0.01l-0.23,0.08l-1.37,0.46l-0.06,0.02l0,-0.02c0.002,-0.04 -0.001,-0.081 -0.01,-0.12c0.002,-0.073 -0.001,-0.147 -0.01,-0.22l0,-0.01c-0.01,-0.2 -0.02,-0.39 -0.02,-0.59l-0.03,-0.53c0,0 -0.01,-0.01 0,-0.01c-0.01,-0.3 -0.03,-0.6 -0.04,-0.91c-1.05,-26.1 1.51,-53.07 13.83,-76.05c4.225,-7.873 9.665,-15.032 16.12,-21.21c0.038,-0.039 0.078,-0.076 0.12,-0.11c12.81,-12.22 29.37,-20.21 46.85,-19.94c0.45,0 0.9,0.01 1.35,0.03Z" style="fill:#f0f0f0;fill-rule:nonzero;"/><path d="M320.91,492.845c-19.794,10.158 -35.892,26.302 -45.993,46.125c-2.25,4.23 -3.82,8.788 -4.651,13.506c-0.662,4.622 -0.073,9.338 1.704,13.656c1.577,4.059 3.659,8.029 4.221,12.401c0.515,4.533 -0.932,9.076 -3.972,12.477c-3.639,4.289 -8.601,7.016 -13.547,9.513c-5.492,2.773 -11.239,5.566 -15.052,10.578c-0.462,0.608 -1.377,-0.144 -0.916,-0.751c6.633,-8.721 18.316,-10.624 26.272,-17.715c3.712,-3.309 6.45,-7.757 6.141,-12.88c-0.27,-4.48 -2.414,-8.575 -4.046,-12.672c-1.795,-4.187 -2.538,-8.75 -2.164,-13.29c0.588,-4.746 1.98,-9.357 4.115,-13.635c4.654,-9.709 10.806,-18.627 18.229,-26.425c8.423,-8.947 18.315,-16.388 29.247,-21.999c0.677,-0.347 1.085,0.766 0.412,1.111l0,-0Z" style="fill:#fff;fill-rule:nonzero;"/><path d="M277.795,532.395c-6.368,-4.415 -8.623,-12.877 -5.296,-19.875c0.33,-0.687 1.414,-0.207 1.084,0.481c-3.112,6.512 -0.993,14.401 4.963,18.477c0.629,0.432 -0.126,1.346 -0.751,0.917l-0,-0Z" style="fill:#fff;fill-rule:nonzero;"/><path d="M270.9,564.179c7.588,-1.305 14.412,-5.425 19.099,-11.533c0.464,-0.606 1.38,0.146 0.916,0.751c-4.89,6.347 -11.999,10.621 -19.899,11.961c-0.753,0.127 -0.865,-1.053 -0.116,-1.179l-0,-0Z" style="fill:#fff;fill-rule:nonzero;"/><path d="M300.296,506.228c2.08,2.192 5.131,3.194 8.106,2.662c0.751,-0.137 0.863,1.043 0.116,1.179c-3.288,0.573 -6.654,-0.524 -8.973,-2.924c-0.242,-0.212 -0.278,-0.58 -0.082,-0.834c0.206,-0.25 0.581,-0.287 0.833,-0.083Z" style="fill:#fff;fill-rule:nonzero;"/><path d="M376.069,564.64c-0.46,0.1 -0.92,0.2 -1.39,0.31l-0.01,0c-6.267,1.362 -12.413,3.228 -18.38,5.58c-0.46,0.18 -0.92,0.36 -1.38,0.55l-0.01,0c-14.222,5.791 -27.255,14.158 -38.44,24.68c-0.04,0.04 -0.08,0.07 -0.12,0.11c-0.024,0.029 -0.05,0.056 -0.08,0.08l-0.05,0.05c-4.438,4.204 -8.553,8.737 -12.31,13.56c0,0.01 -0.01,0.02 -0.02,0.03c-0.6,0.78 -1.21,1.56 -1.81,2.36l-59.31,0l-0.06,0.02l0,-0.02l-0.25,0c0,-0.01 0.01,-0.02 0.02,-0.03c0,-0.01 0.01,-0.01 0.01,-0.02c0.07,-0.1 0.14,-0.2 0.2,-0.29l0,-0.01c0.015,-0.03 0.036,-0.057 0.06,-0.08c0.06,-0.1 0.13,-0.18 0.18,-0.27c0.4,-0.56 0.79,-1.13 1.19,-1.69c0.65,-0.93 1.31,-1.86 1.98,-2.78c0,-0 0,-0 0,-0c0,-0.006 0.005,-0.01 0.01,-0.01c0,0 0,0 0,0l0,-0.01c0.01,-0.01 0.01,-0.02 0.02,-0.03l0.02,-0.02c8.25,-11.42 17.53,-22.26 28.16,-31.34c0.32,-0.28 0.64,-0.56 0.98,-0.82c4.814,-4.072 9.955,-7.742 15.37,-10.97c2.96,-1.75 6.01,-3.357 9.15,-4.82c8.099,-3.732 16.735,-6.169 25.59,-7.22l0.02,0c0.02,0 0.04,-0.01 0.07,-0.01c0.03,0 0.05,-0.01 0.07,-0.01c17.61,-2.04 35.66,1.55 49.47,12.29c0.36,0.28 0.7,0.55 1.05,0.83Z" style="fill:#f0f0f0;fill-rule:nonzero;"/><path d="M242.399,611.95l0.3,0l0,0.02l0.06,-0.02l15.87,0c-4.73,-0.81 -9.45,-1.44 -14.18,-0.53c-0.11,0.02 -0.21,0.04 -0.32,0.07c-0.48,0.09 -0.96,0.21 -1.44,0.34c-0.03,0.01 -0.07,0.02 -0.1,0.03c-0.043,0.012 -0.084,0.032 -0.12,0.06c-0.025,0.004 -0.049,0.014 -0.07,0.03Z" style="fill:#fff;fill-rule:nonzero;"/><path d="M375.779,565.13c-0.37,-0.06 -0.73,-0.13 -1.1,-0.18l-0.01,0c-7.715,-1.258 -15.547,-1.654 -23.35,-1.18c-0.39,0.02 -0.79,0.05 -1.19,0.07c-10.831,0.755 -21.48,3.181 -31.57,7.19c-0.01,0 -0.01,0 -0.01,0.01c-0.11,0.04 -0.22,0.08 -0.32,0.12c-2.35,0.95 -4.67,1.99 -6.94,3.11c-4.343,2.022 -8.342,4.715 -11.85,7.98c-2.807,2.771 -4.933,6.157 -6.21,9.89c-0.13,0.38 -0.26,0.75 -0.38,1.13c-0.09,0.3 -0.18,0.61 -0.27,0.91c-1.18,4.19 -1.91,8.61 -4.09,12.44c-0.607,1.068 -1.346,2.056 -2.2,2.94c-0.882,0.918 -1.876,1.721 -2.96,2.39l-2.52,0c1.38,-0.596 2.658,-1.402 3.79,-2.39c0.881,-0.76 1.652,-1.638 2.29,-2.61c2.48,-3.74 3.24,-8.3 4.4,-12.55c0.19,-0.69 0.39,-1.36 0.61,-2.03c1.155,-3.667 3.089,-7.041 5.67,-9.89c3.326,-3.434 7.212,-6.278 11.49,-8.41c2.7,-1.42 5.474,-2.707 8.32,-3.86c0.37,-0.16 0.74,-0.3 1.11,-0.44c17.973,-6.994 37.494,-9.053 56.53,-5.96c0.37,0.05 0.73,0.12 1.1,0.18c0.75,0.13 0.41,1.27 -0.34,1.14Z" style="fill:#fff;fill-rule:nonzero;"/><path d="M317.545,570.747c-2.427,-7.358 0.868,-15.472 7.738,-19.056c0.677,-0.351 1.253,0.685 0.575,1.036c-6.405,3.326 -9.462,10.9 -7.162,17.741c0.243,0.723 -0.91,0.998 -1.151,0.279l-0,0Z" style="fill:#fff;fill-rule:nonzero;"/><path d="M292.903,591.974c6.845,3.527 14.774,4.346 22.194,2.291c0.735,-0.204 1.013,0.948 0.279,1.152c-7.726,2.123 -15.975,1.255 -23.089,-2.431c-0.678,-0.352 -0.058,-1.362 0.616,-1.012Z" style="fill:#fff;fill-rule:nonzero;"/><path d="M351.265,563.403c0.341,3.002 2.174,5.639 4.869,7.005c0.682,0.343 0.061,1.353 -0.617,1.012c-2.97,-1.523 -4.997,-4.426 -5.404,-7.738c-0.065,-0.315 0.127,-0.63 0.437,-0.715c0.315,-0.075 0.637,0.121 0.715,0.436Z" style="fill:#fff;fill-rule:nonzero;"/><path d="M317.069,166.29c0.27,-33.11 1.617,-66.54 4.04,-100.29c0.04,-0.67 0.09,-1.33 0.14,-2c1.28,-17.57 2.847,-35.203 4.7,-52.9l0,-0.1c-0.003,-6.033 -4.967,-10.996 -11,-11l-295,0c-6.011,0.012 -10.96,4.939 -11,10.95c-2.56,24.37 -4.566,48.62 -6.02,72.75c-0.06,0.79 -0.1,1.57 -0.14,2.36c-0.72,11.93 -1.293,23.83 -1.72,35.7c-0.03,0.7 -0.06,1.4 -0.07,2.1c-2.73,72.83 -0.073,145.762 7.95,218.2c0.044,6.008 4.993,10.929 11,10.94l295,0c6.033,-0.004 10.997,-4.967 11,-11l0,-0.11c-1.45,-12.87 -2.723,-25.823 -3.82,-38.86c-0.16,-1.91 -0.316,-3.82 -0.47,-5.73c-0.76,-9.39 -1.423,-18.817 -1.99,-28.28c-0.12,-1.91 -0.23,-3.82 -0.33,-5.73c-1.07,-18.94 -1.77,-38.027 -2.1,-57.26c-0.04,-1.91 -0.07,-3.81 -0.1,-5.73c-0.12,-9.39 -0.156,-18.817 -0.11,-28.28c0,-1.91 0.01,-3.82 0.04,-5.73Z" style="fill:#f0f0f0;fill-rule:nonzero;"/><path d="M405.949,75c-0.003,-6.033 -4.967,-10.996 -11,-11l-295,0c-6.011,0.012 -10.96,4.939 -11,10.95c-9.96,94.97 -11.61,188.26 -4.94,278.05c0.81,11.11 1.757,22.163 2.84,33.16c0.58,5.89 1.197,11.763 1.85,17.62c0.08,0.76 0.16,1.52 0.25,2.28c0.044,6.008 4.993,10.929 11,10.94l295,0c6.033,-0.004 10.997,-4.967 11,-11l0,-0.11c-11.93,-105.77 -11.93,-217.06 0,-330.79l0,-0.1Z" style="fill:#fff;fill-rule:nonzero;"/><path d="M405.949,75c-0.003,-6.033 -4.967,-10.996 -11,-11l-295,0c-6.011,0.012 -10.96,4.939 -11,10.95c-9.96,94.97 -11.61,188.26 -4.94,278.05c0.81,11.11 1.757,22.163 2.84,33.16c0.58,5.89 1.197,11.763 1.85,17.62c0.08,0.76 0.16,1.52 0.25,2.28c0.044,6.008 4.993,10.929 11,10.94l295,0c6.033,-0.004 10.997,-4.967 11,-11l0,-0.11c-11.93,-105.77 -11.93,-217.06 0,-330.79l0,-0.1Zm-2,331.06c-0.036,4.913 -4.087,8.936 -9,8.94l-295,0c-4.934,-0.007 -8.992,-4.066 -9,-9l0,-0.11c-0.07,-0.64 -0.14,-1.29 -0.21,-1.93c-0.69,-6.12 -1.333,-12.257 -1.93,-18.41c-1.05,-10.79 -1.98,-21.64 -2.79,-32.55c-6.67,-89.74 -5.03,-182.97 4.93,-277.9l0,-0.1c0.008,-4.934 4.066,-8.993 9,-9l295,0c4.918,0.002 8.971,4.032 9,8.95c-11.93,113.82 -11.93,225.23 0,331.11Z" style="fill:#e4e4e4;fill-rule:nonzero;"/><path id="a974c3de-8d03-408b-a459-3ce6ba461bdb-323" d="M120.283,166.29c-1.569,0.004 -2.858,1.297 -2.858,2.867c-0,1.569 1.289,2.862 2.858,2.866l239.732,-0c1.569,-0.004 2.858,-1.297 2.858,-2.866c0,-1.57 -1.289,-2.863 -2.858,-2.867l-239.732,0Z" style="fill:#e6e6e6;fill-rule:nonzero;"/><path id="e9133026-9528-4ac3-aa69-83f109aff1e3-324" d="M120.283,183.49c-1.57,0.003 -2.861,1.296 -2.861,2.866c0,1.571 1.291,2.864 2.861,2.867l162.745,-0c1.571,-0.003 2.861,-1.296 2.861,-2.867c0,-1.57 -1.29,-2.863 -2.861,-2.866l-162.745,0Z" style="fill:#e6e6e6;fill-rule:nonzero;"/><path id="a406ca83-8296-4426-a4ed-8cd27cbcb96b-325" d="M120.283,200.301c-1.57,0.002 -2.861,1.295 -2.861,2.866c0,1.57 1.291,2.863 2.861,2.866l239.732,0c1.57,-0.003 2.861,-1.296 2.861,-2.866c-0,-1.571 -1.291,-2.864 -2.861,-2.866l-239.732,-0Z" style="fill:#e6e6e6;fill-rule:nonzero;"/><path id="be321b5a-3e39-41eb-b9b2-711d73db0143-326" d="M120.283,217.5c-1.569,0.004 -2.858,1.297 -2.858,2.867c-0,1.569 1.289,2.862 2.858,2.866l162.745,-0c1.57,-0.004 2.859,-1.297 2.859,-2.866c-0,-1.57 -1.289,-2.863 -2.859,-2.867l-162.745,0Z" style="fill:#e6e6e6;fill-rule:nonzero;"/><path id="a5a7e885-834f-470d-9162-1a1fa51c1163-327" d="M120.283,263.29c-1.569,0.004 -2.858,1.297 -2.858,2.867c-0,1.569 1.289,2.862 2.858,2.866l239.732,-0c1.569,-0.004 2.858,-1.297 2.858,-2.866c0,-1.57 -1.289,-2.863 -2.858,-2.867l-239.732,0Z" style="fill:#e6e6e6;fill-rule:nonzero;"/><path id="a5fcdb43-4805-483f-9462-6a7e4850dca6-328" d="M120.283,280.49c-1.57,0.003 -2.861,1.296 -2.861,2.866c0,1.571 1.291,2.864 2.861,2.867l162.745,-0c1.571,-0.003 2.861,-1.296 2.861,-2.867c0,-1.57 -1.29,-2.863 -2.861,-2.866l-162.745,0Z" style="fill:#e6e6e6;fill-rule:nonzero;"/><path id="b765b6a8-7afa-43c2-95d1-39dcbde99f83-329" d="M120.283,297.301c-1.57,0.002 -2.861,1.295 -2.861,2.866c0,1.57 1.291,2.863 2.861,2.866l239.732,0c1.57,-0.003 2.861,-1.296 2.861,-2.866c-0,-1.571 -1.291,-2.864 -2.861,-2.866l-239.732,-0Z" style="fill:#e6e6e6;fill-rule:nonzero;"/><path id="e421dd9d-74a5-4920-9c7d-c121b8cd01e8-330" d="M120.283,314.5c-1.569,0.004 -2.858,1.297 -2.858,2.867c-0,1.569 1.289,2.862 2.858,2.866l162.745,-0c1.57,-0.004 2.859,-1.297 2.859,-2.866c-0,-1.57 -1.289,-2.863 -2.859,-2.867l-162.745,0Z" style="fill:#e6e6e6;fill-rule:nonzero;"/><path id="ea3081fc-4e36-4189-92a3-e6d1b5b4a040-331" d="M167.717,130.7l-45.788,-0c-1.226,-0.001 -2.235,-1.01 -2.237,-2.237l0,-7.336c0.002,-1.227 1.011,-2.236 2.237,-2.237l45.788,0c1.227,0.001 2.236,1.01 2.237,2.237l0,7.336c-0.001,1.227 -1.01,2.236 -2.237,2.237Z" style="fill:#3b82f6;fill-rule:nonzero;"/><path d="M326.785,366.676l-14.025,4.635c-2.337,0.773 -4.675,1.545 -7.013,2.318c-2.165,0.713 -4.507,1.561 -6.825,1.254c-1.601,-0.212 -3.427,-1.134 -3.926,-2.782c-0.472,-1.559 0.529,-3.19 1.741,-4.113c3.347,-2.546 7.579,0.046 9.95,2.683c2.901,3.225 4.543,7.388 7.263,10.764c2.422,3.027 5.492,5.473 8.985,7.155c6.941,3.278 15.407,2.93 21.599,-1.846c7.392,-5.703 8.146,-15.587 8.186,-24.21c-0.028,-0.804 -0.696,-1.449 -1.5,-1.449c-0.804,-0 -1.472,0.645 -1.5,1.449c-0.036,7.815 -0.48,17.395 -7.606,22.285c-6.826,4.685 -15.797,3.442 -22.082,-1.549c-3.502,-2.781 -5.656,-6.408 -7.956,-10.164c-2.244,-3.665 -5.031,-7.22 -9.255,-8.645c-3.72,-1.352 -7.915,0.113 -9.986,3.486c-0.582,0.981 -0.89,2.101 -0.89,3.242c-0,2.526 1.507,4.821 3.825,5.824c4.897,2.334 10.5,-0.401 15.216,-1.959l16.597,-5.485c1.824,-0.603 1.043,-3.501 -0.798,-2.893l0,0Z" style="fill:#3b82f6;fill-rule:nonzero;"/><path d="M285.224,587.176l-9.835,3.24l-17.178,-36.39l14.515,-4.782l12.498,37.932Z" style="fill:#9f616a;fill-rule:nonzero;"/><path d="M292.239,595.44l-0.67,-2.03l-1.76,-5.35l-1.2,-3.64l-3.28,1.08l-0.68,-0.05l-9.01,-0.61l-1.2,-0.08l-1.78,-0.12l-1.84,-0.13l-5.14,7.47l-0.01,0c-3.879,1.263 -7.094,4.031 -8.92,7.68c-0.11,0.22 -0.21,0.44 -0.31,0.66c-0.248,0.538 -0.458,1.093 -0.63,1.66c-0.778,2.45 -0.922,5.059 -0.42,7.58c0.13,0.625 0.293,1.243 0.49,1.85l0.03,0.1l0.12,0.37l0.72,-0.24l6.32,-2.08l22.14,-7.29l4.39,-1.45l1.35,-0.45l0.01,0l2.62,-0.86l-1.34,-4.07Z" style="fill:#2f2e41;fill-rule:nonzero;"/><path d="M192.004,595.731l-10.354,-0.001l-4.926,-39.938l15.282,0.001l-0.002,39.938Z" style="fill:#9f616a;fill-rule:nonzero;"/><path d="M175.434,420.653l-4.59,7.94c-0,-0 -5.044,1.377 -3.396,17.818c1.164,11.61 1.542,63.59 4.472,97.359c1.22,14.055 2.882,24.955 5.227,28.477l1.443,1.293l15.067,1.44l0.38,-0.133l5.533,-39.076c0.993,-7.015 0.844,-14.144 -0.441,-21.111l-1,-11l13.873,-55.697c0,-0 14.127,35.697 23.127,69.697c2.167,8.185 10.396,13.39 13.516,20.413c1.045,2.353 2.073,4.633 3.075,6.821c6.599,14.406 9.906,24.894 12.409,25.766l2,0l12,-4l2.361,-5.935l-18.361,-54.065l-13.749,-87.294c-26.197,-14.087 -50.771,-15.654 -72.946,1.287Z" style="fill:#2f2e41;fill-rule:nonzero;"/><path d="M250.479,303.03c-0.904,-1.992 -1.968,-3.908 -3.18,-5.73c-2.77,-4.318 -6.621,-7.838 -11.17,-10.21l-3.94,-0.87l-7.06,-1.56l-3.72,-4.17l-6.1,-6.83l-21,0l-2.81,6.83l-2.36,5.73l-1.01,2.44l-18,9c0.24,1.8 0.477,3.59 0.71,5.37c0.51,3.87 0.99,7.693 1.44,11.47c0.23,1.92 0.45,3.83 0.66,5.73c0.67,5.96 1.247,11.817 1.73,17.57c0.43,5.14 0.774,10.207 1.03,15.2c0.626,11.34 0.672,22.705 0.14,34.05c-0.14,2.67 2.51,5.71 2.3,8.32c-0.35,4.26 -3.64,8.04 -4.22,12.11c-0.36,2.5 -0.2,5.16 -0.83,7.52c-0.175,0.69 -0.437,1.356 -0.78,1.98c0,0.01 -0.01,0.01 -0.01,0.02c-7.2,12.86 -1.55,6.72 -2.22,9.61l0.32,0.08c0.15,0.04 0.61,0.16 1.35,0.33c4.23,1.01 21.67,-15.36 33.38,-15.36c7.03,0 25.64,11.56 31.87,12.4c4.93,0.66 9.33,1.26 11.95,-1.05c0.761,-0.674 1.341,-1.526 1.69,-2.48l0.03,-0.09l-0.01,-0.09l-0.25,-3.35l-0.15,-2l-2.14,-28.7c-2.434,-3.018 -2.939,-7.176 -1.3,-10.69l0.44,-0.93l-1.62,-21.68l-0.3,-4.05l-0.11,-1.37l0,-0.01l-0.78,-10.47l1.88,-5.72l0,-0.01l3.66,-11.14l1.88,-5.73l1.18,-3.6l0.08,-0.24c-0.629,-2.624 -1.517,-5.18 -2.65,-7.63Z" style="fill:#dd2b46;fill-rule:nonzero;"/><path d="M268.723,406.439l-20.16,-52.101l-9.363,-19.025l18.005,-9.947l14.501,25.549l9.72,53.381c2.533,1.73 4.052,4.606 4.052,7.673c0,5.097 -4.193,9.29 -9.29,9.29c-5.096,0 -9.29,-4.193 -9.29,-9.29c0,-1.991 0.64,-3.93 1.825,-5.53l-0,0Z" style="fill:#9f616a;fill-rule:nonzero;"/><path d="M269.129,334.66l-5.16,-3.34l-5.93,-11.09l-3.06,-5.73l-1.93,-3.6l-0.82,-1.54l-9.27,-6.33l-6.26,-4.28l-5.1,4.28l-2.43,2.04l2.38,9.43l1.44,5.73l3.14,12.43l9.21,16.29l2.29,4.05l1.31,2.33l0.01,0.02l0.18,0.31l23.27,-0.97l0.73,-0.03l0.04,-1.66l0.02,-0.6c0.01,-0.3 0.01,-0.6 0.01,-0.9c-0.003,-5.856 -1.398,-11.629 -4.07,-16.84Z" style="fill:#dd2b46;fill-rule:nonzero;"/><path d="M93.004,385.719l41.241,-37.685l14.333,-15.627l15.8,13.171l-18.549,22.781l-46.22,28.421c-0.973,4.196 -4.743,7.192 -9.05,7.192c-5.096,-0 -9.29,-4.194 -9.29,-9.29c-0,-5.097 4.194,-9.29 9.29,-9.29c0.826,-0 1.648,0.11 2.445,0.327l0,0Z" style="fill:#9f616a;fill-rule:nonzero;"/><path d="M178.139,320.23l-0.08,-5.73l-0.15,-11.47l-0.06,-4.45l-0.17,-0.12c-0.931,-0.611 -1.987,-1.007 -3.09,-1.16c-0.97,-0.161 -1.96,-0.161 -2.93,0c-0.511,0.079 -1.016,0.196 -1.51,0.35c-0.01,0 -0.01,0 -0.02,0.01c-2.964,1.064 -5.582,2.918 -7.57,5.36l-0.01,0.01c-2.998,3.567 -5.657,7.407 -7.94,11.47c-1.13,1.92 -2.21,3.86 -3.22,5.73c-3.82,7.11 -6.57,13.27 -6.62,13.38l-11.42,14.83l0.16,0.27l2.51,4.29l9.2,15.73l1.46,2.5l3.73,-1.99c4.347,-2.319 7.777,-6.052 9.72,-10.58l1.33,-5.08l0.49,-0.58l12.72,-15.2l3.64,-4.36l-0.17,-13.21Z" style="fill:#dd2b46;fill-rule:nonzero;"/><path d="M183.72,247.923c1.702,-10.488 11.598,-17.621 22.086,-15.919c10.487,1.702 17.62,11.599 15.918,22.086c-1.701,10.488 -11.598,17.621 -22.085,15.919c-10.488,-1.702 -17.621,-11.599 -15.919,-22.086Z" style="fill:#9f616a;"/><path d="M184.113,238.387c-0.856,-2.995 -2.567,-5.562 -1.711,-5.562c0.856,0 1.283,-2.139 1.283,-2.139c0,0 0.856,-0.428 1.284,0c0.428,0.428 0.855,-2.994 0.855,-2.994c0,-0 0.428,-1.284 0.856,-0.428c0.428,0.855 0.428,0.428 0.855,-0.856c0.428,-1.283 2.567,-2.139 2.567,-2.139c0,0 8.128,0.428 9.412,-1.283c1.283,-1.711 15.828,-0.428 18.823,1.711c2.994,2.139 14.792,5.963 7.792,17.963c4,7 -1.971,19.485 -3.514,20.966c-2.44,2.343 -4.129,3.187 -15.675,5.485c-2.259,0.449 -7.811,-18.451 -7.811,-18.451c0,0 -14.16,-9.279 -15.016,-12.273Z" style="fill:#2f2e41;fill-rule:nonzero;"/><path d="M192.629,594.17l-0.62,-0.25l-11.14,-4.54l-1.71,-0.69l-7.22,5.48l-0.01,0c-8.437,0.01 -15.375,6.953 -15.38,15.39l0,0.5l39.53,0l0,-15.89l-3.45,0Z" style="fill:#2f2e41;fill-rule:nonzero;"/><path d="M308.819,610.75c0,0.002 0,0.003 0,0.005c0,0.654 -0.536,1.192 -1.19,1.195l-203.3,0c-0.655,0 -1.195,-0.539 -1.195,-1.195c0,-0.656 0.54,-1.195 1.195,-1.195l203.3,0c0.653,0.002 1.189,0.538 1.19,1.19Z" style="fill:#ccc;fill-rule:nonzero;"/><path d="M98.929,0c-3.217,57.194 -42.697,106.315 -97.86,121.76c-0.03,0.7 -0.06,1.4 -0.07,2.1c56.316,-15.492 96.696,-65.542 99.93,-123.86l-2,0Z" style="fill:#fff;fill-rule:nonzero;"/><path d="M68.299,0c-9.387,35.667 -33.039,65.951 -65.37,83.7c-0.06,0.79 -0.1,1.57 -0.14,2.36c33.517,-18.011 58.031,-49.228 67.58,-86.06l-2.07,0Z" style="fill:#fff;fill-rule:nonzero;"/></svg>