<?xml version="1.0" encoding="UTF-8" standalone="no"?>
<!DOCTYPE svg PUBLIC "-//W3C//DTD SVG 1.1//EN" "http://www.w3.org/Graphics/SVG/1.1/DTD/svg11.dtd">
<svg width="100%" height="100%" viewBox="0 0 757 581" version="1.1" xmlns="http://www.w3.org/2000/svg" xmlns:xlink="http://www.w3.org/1999/xlink" xml:space="preserve" xmlns:serif="http://www.serif.com/" style="fill-rule:evenodd;clip-rule:evenodd;stroke-miterlimit:10;">
    <g transform="matrix(1,0,0,1,-51,-56)">
        <path d="M793.24,347.17C793.378,437.36 746.87,521.489 670.42,569.34C668.82,570.34 667.21,571.32 665.59,572.28C604.237,608.634 530.476,617.971 462,598.05C354,566.53 275.11,466.14 275.11,347.17C275.11,202.94 391.09,86 534.17,86C677.25,86 793.24,202.94 793.24,347.17Z" style="fill:rgb(221,45,70);fill-rule:nonzero;"/>
    </g>
    <g transform="matrix(1,0,0,1,-51,-56)">
        <path d="M793.24,347.17C793.378,437.36 746.87,521.489 670.42,569.34C668.82,570.34 667.21,571.32 665.59,572.28C604.237,608.634 530.476,617.971 462,598.05C354,566.53 275.11,466.14 275.11,347.17C275.11,202.94 391.09,86 534.17,86C677.25,86 793.24,202.94 793.24,347.17Z" style="fill:white;fill-opacity:0.7;fill-rule:nonzero;"/>
    </g>
    <g transform="matrix(1,0,0,1,-51,-56)">
        <path d="M277.55,185.81C242.82,185.81 228.74,164.47 224.1,154.63C217.143,139.844 216.397,122.869 222.03,107.53C227.856,91.367 241.23,79.033 257.81,74.53L258,75.53C241.777,79.976 228.702,92.065 223,107.89C217.45,122.974 218.17,139.67 225,154.22C229.56,163.87 243.4,184.81 277.57,184.82C280.941,184.81 284.309,184.619 287.66,184.25L287.77,185.25C284.376,185.621 280.964,185.808 277.55,185.81Z" style="fill:rgb(47,46,65);fill-rule:nonzero;"/>
    </g>
    <g transform="matrix(1,0,0,1,-51,-56)">
        <path d="M342.68,128.37C342.68,128.377 342.68,128.384 342.68,128.391C342.68,159.506 317.076,185.111 285.96,185.111C254.844,185.111 229.24,159.506 229.24,128.391C229.24,110.085 238.102,92.868 253,82.23C255.085,80.747 257.27,79.41 259.54,78.23C267.686,73.942 276.754,71.701 285.96,71.701C317.075,71.701 342.679,97.305 342.68,128.42L342.68,128.37Z" style="fill:rgb(59,130,246);fill-rule:nonzero;"/>
    </g>
    <g transform="matrix(1,0,0,1,-51,-56)">
        <path d="M287.36,131.87L256.16,71.65C270.599,64.398 287.267,62.896 302.77,67.45L287.36,131.87Z" style="fill:rgb(221,45,70);fill-rule:nonzero;"/>
    </g>
    <g transform="matrix(1,0,0,1,-51,-56)">
        <path d="M287.36,131.87L253,82.23C255.085,80.747 257.27,79.41 259.54,78.23L287.36,131.87Z" style="fill-opacity:0.2;fill-rule:nonzero;"/>
    </g>
    <g transform="matrix(1,0,0,1,-51,-56)">
        <path d="M306.28,221.18L313.71,230.59C328.274,221.636 341.959,211.323 354.58,199.79L347.39,190.21C347.014,189.692 346.411,189.384 345.771,189.384C345.329,189.384 344.9,189.53 344.55,189.8L306.7,218C306.127,218.415 305.787,219.082 305.787,219.789C305.787,220.295 305.961,220.787 306.28,221.18Z" style="fill:rgb(221,45,70);fill-rule:nonzero;"/>
    </g>
    <g transform="matrix(1,0,0,1,-51,-56)">
        <path d="M306.28,221.18L313.71,230.59C328.274,221.636 341.959,211.323 354.58,199.79L347.39,190.21C347.014,189.692 346.411,189.384 345.771,189.384C345.329,189.384 344.9,189.53 344.55,189.8L306.7,218C306.127,218.415 305.787,219.082 305.787,219.789C305.787,220.295 305.961,220.787 306.28,221.18Z" style="fill:white;fill-opacity:0.3;fill-rule:nonzero;"/>
    </g>
    <g transform="matrix(1,0,0,1,-51,-56)">
        <path d="M670.42,569.34C608.213,608.069 532.361,618.517 462,598.05L477.81,545L496.71,529.6L620.64,533.1L670.42,569.34Z" style="fill:rgb(47,46,65);fill-rule:nonzero;"/>
    </g>
    <g transform="matrix(1,0,0,1,-51,-56)">
        <path d="M694.16,194.18L689.26,233.39C647.95,250.2 634.65,221.49 634.65,221.49L640.95,198.39L674.56,180.88L694.16,194.18Z" style="fill:rgb(249,180,153);fill-rule:nonzero;"/>
    </g>
    <g transform="matrix(1,0,0,1,-51,-56)">
        <path d="M641,198.39L636.41,215.2C636.41,215.2 651.5,217.12 664.41,197.95L641,198.39Z" style="fill:rgb(247,164,139);fill-rule:nonzero;"/>
    </g>
    <g transform="matrix(1,0,0,1,-51,-56)">
        <path d="M761.38,362.23C761.38,362.23 751.91,441.12 716.79,532.39C702.797,546.454 687.239,558.868 670.42,569.39C668.82,570.39 667.21,571.37 665.59,572.33C630.35,573.49 561,571.83 503.72,546.42L505.82,400L522.62,347.49C522.62,347.49 507.92,355.89 475.71,366.4L421.8,316L434.4,303.4L526.82,252.29C526.82,252.29 538.23,243.94 557.73,238.66C557.73,238.66 578.51,231.78 618.26,224.37C623.4,223.41 628.863,222.447 634.65,221.48C640.437,220.513 647.95,250.19 689.26,233.38L699.06,243.89C699.06,243.89 736.87,270.49 752.98,292.89C753,292.91 769.08,317.41 761.38,362.23Z" style="fill:rgb(221,45,70);fill-rule:nonzero;"/>
    </g>
    <g transform="matrix(1,0,0,1,-51,-56)">
        <path d="M522.62,347.52L533.82,314.61" style="fill:none;fill-rule:nonzero;stroke:black;stroke-opacity:0.2;stroke-width:1px;"/>
    </g>
    <g transform="matrix(1,0,0,1,-51,-56)">
        <path d="M699.06,243.9C683.66,257.9 650.38,251.22 650.38,251.22C626.91,248.73 618.26,224.38 618.26,224.38C623.4,223.42 628.863,222.457 634.65,221.49C640.437,220.523 647.95,250.2 689.26,233.39L699.06,243.9Z" style="fill:rgb(221,45,70);fill-rule:nonzero;"/>
    </g>
    <g transform="matrix(1,0,0,1,-51,-56)">
        <path d="M699.06,243.9C683.66,257.9 650.38,251.22 650.38,251.22C626.91,248.73 618.26,224.38 618.26,224.38C623.4,223.42 628.863,222.457 634.65,221.49C640.437,220.523 647.95,250.2 689.26,233.39L699.06,243.9Z" style="fill:white;fill-opacity:0.3;fill-rule:nonzero;"/>
    </g>
    <g transform="matrix(1,0,0,1,-51,-56)">
        <path d="M663.36,262.43C656.426,262.477 649.536,261.317 643,259C618.27,250.11 608,226.73 607.89,226.49C607.869,226.433 607.858,226.373 607.858,226.313C607.858,226.039 608.083,225.813 608.358,225.813C608.551,225.813 608.728,225.925 608.81,226.1C608.91,226.33 619.03,249.33 643.35,258.1C661.55,264.63 682.89,261.7 706.78,249.38C706.851,249.343 706.93,249.324 707.01,249.324C707.285,249.324 707.511,249.55 707.511,249.825C707.511,250.012 707.406,250.184 707.24,250.27C691.5,258.36 676.8,262.43 663.36,262.43Z" style="fill:rgb(47,46,65);fill-rule:nonzero;"/>
    </g>
    <g transform="matrix(1,0,0,1,-51,-56)">
        <path d="M665.65,253.55C660.65,253.55 657.06,253.19 656.65,253.15C625.17,250.35 617.84,224.77 617.77,224.51C617.759,224.469 617.754,224.427 617.754,224.384C617.754,224.157 617.909,223.956 618.13,223.9C618.393,223.83 618.667,223.988 618.74,224.25C618.81,224.5 625.97,249.41 656.74,252.15C657.04,252.15 686.42,255.15 698.74,243.53C698.937,243.339 699.253,243.339 699.45,243.53C699.545,243.624 699.598,243.752 699.598,243.885C699.598,244.018 699.545,244.146 699.45,244.24C691,252.16 675.53,253.55 665.65,253.55Z" style="fill:rgb(47,46,65);fill-rule:nonzero;"/>
    </g>
    <g transform="matrix(1,0,0,1,-51,-56)">
        <path d="M332.17,406.34L564.63,627.59L654.95,537.27L421.8,316.01L473.61,261.92L244.65,230.59L278.66,461.53L332.17,406.34Z" style="fill:rgb(59,130,246);fill-rule:nonzero;"/>
    </g>
    <g transform="matrix(1,0,0,1,-51,-56)">
        <path d="M332.17,406.34L349.77,423.08L421.8,316.01L332.17,406.34Z" style="fill:rgb(47,104,197);fill-opacity:0.4;fill-rule:nonzero;"/>
    </g>
    <g transform="matrix(1,0,0,1,-51,-56)">
        <path d="M86.78,266.95L155.24,332.12L181.85,305.51L113.17,240.35L128.44,224.42L61,215.19L71.02,283.21L86.78,266.95Z" style="fill:rgb(221,45,70);fill-rule:nonzero;"/>
    </g>
    <g transform="matrix(1,0,0,1,-51,-56)">
        <path d="M86.78,266.95L91.96,271.88L113.17,240.35L86.78,266.95Z" style="fill-opacity:0.2;fill-rule:nonzero;"/>
    </g>
    <g transform="matrix(1,0,0,1,-51,-56)">
        <path d="M152.67,519.82L248.66,611.19L285.96,573.89L189.68,482.52L211.07,460.18L116.52,447.24L130.57,542.61L152.67,519.82Z" style="fill:rgb(47,46,65);fill-rule:nonzero;"/>
    </g>
    <g transform="matrix(1,0,0,1,-51,-56)">
        <path d="M152.67,519.82L159.93,526.73L189.68,482.52L152.67,519.82Z" style="fill-opacity:0.2;fill-rule:nonzero;"/>
    </g>
    <g transform="matrix(1,0,0,1,-51,-56)">
        <path d="M307,233.39L312.16,239.83L395.89,251.28L354.61,199.79C354.61,199.79 323.77,227.09 307,233.39Z" style="fill:rgb(221,45,70);fill-rule:nonzero;"/>
    </g>
    <g transform="matrix(1,0,0,1,-51,-56)">
        <path d="M286,185.08C286,185.08 291.65,201.72 310.18,215.46L344.18,190.09C344.18,190.09 335.71,173.18 338.51,157.09C338.51,157.09 341.86,135.83 336.08,131.82C334.824,130.977 333.128,131.16 332.08,132.25C330.2,134.1 327.22,138.94 327.08,151.12C327.08,154.68 325.72,158.12 324.48,161.45C322.37,167.14 318.7,174.96 313.79,177.81C313.525,178.009 313.244,178.186 312.95,178.34C304.432,182.15 295.309,184.432 286,185.08Z" style="fill:rgb(249,180,153);fill-rule:nonzero;"/>
    </g>
    <g transform="matrix(1,0,0,1,-51,-56)">
        <path d="M364.14,211.71C364.14,211.71 337.78,234.09 325.14,239" style="fill:none;fill-rule:nonzero;stroke:black;stroke-opacity:0.2;stroke-width:1px;"/>
    </g>
    <g transform="matrix(0.664318,-0.74745,0.74745,0.664318,55.31,492.26)">
        <ellipse cx="663.58" cy="155.76" rx="54.45" ry="34.83" style="fill:rgb(249,180,153);"/>
    </g>
    <g transform="matrix(1,0,0,1,-51,-56)">
        <path d="M684.36,139.57C684.36,139.57 628.73,108.07 678.78,80.48C680.751,79.394 683.241,79.886 684.65,81.64L727.07,134.64C727.07,134.64 730.57,131.84 731.27,123.44C731.27,123.44 736.17,133.24 729.87,140.94C729.87,140.94 737.57,146.54 736.17,150.74L729.17,150.74C729.17,150.74 717.94,179.45 694.17,194.15C694.17,194.15 666.17,187.85 673.17,171.75C673.16,171.78 666.16,157.08 684.36,139.57Z" style="fill:rgb(47,46,65);fill-rule:nonzero;"/>
    </g>
    <g transform="matrix(0.264546,-0.964373,0.964373,0.264546,284.57,719.95)">
        <ellipse cx="676.55" cy="167.96" rx="12.99" ry="11.2" style="fill:rgb(249,180,153);"/>
    </g>
    <g transform="matrix(1,0,0,1,-51,-56)">
        <path d="M753,369.93C715.89,456.75 691.07,477.05 691.07,477.05C650.14,510.66 536.64,538.67 536.64,538.67C535.24,519.06 519.14,479.15 519.14,479.15L611.56,439.24C611.56,439.24 631.62,439.32 663.56,382.92L702.56,316.71" style="fill:rgb(221,45,70);fill-rule:nonzero;"/>
    </g>
    <g transform="matrix(1,0,0,1,-51,-56)">
        <path d="M536.62,539C536.548,538.997 536.478,538.972 536.42,538.93C536.332,538.871 536.277,538.775 536.27,538.67C534.89,519.35 518.96,479.67 518.79,479.26C518.727,479.084 518.81,478.887 518.98,478.81L611.4,438.9C611.446,438.891 611.494,438.891 611.54,438.9C611.74,438.9 631.83,438.22 663.28,382.76L702.28,316.55C702.343,316.441 702.459,316.373 702.585,316.373C702.778,316.373 702.937,316.532 702.937,316.725C702.937,316.786 702.921,316.847 702.89,316.9L663.89,383.11C632.89,437.87 613.21,439.56 611.63,439.6L519.63,479.35C521.14,483.14 535.5,519.6 537,538.24C544.47,536.36 651.7,508.97 690.88,476.79C691.13,476.59 716.09,455.5 752.71,369.79C752.764,369.659 752.893,369.573 753.035,369.573C753.228,369.573 753.387,369.732 753.387,369.925C753.387,369.971 753.378,370.017 753.36,370.06C716.64,455.97 691.58,477.12 691.36,477.32C650.75,510.6 537.84,538.73 536.71,539L536.62,539Z" style="fill:rgb(221,45,70);fill-rule:nonzero;"/>
    </g>
    <g transform="matrix(1,0,0,1,-51,-56)">
        <path d="M536.62,539C536.548,538.997 536.478,538.972 536.42,538.93C536.332,538.871 536.277,538.775 536.27,538.67C534.89,519.35 518.96,479.67 518.79,479.26C518.727,479.084 518.81,478.887 518.98,478.81L611.4,438.9C611.446,438.891 611.494,438.891 611.54,438.9C611.74,438.9 631.83,438.22 663.28,382.76L702.28,316.55C702.343,316.441 702.459,316.373 702.585,316.373C702.778,316.373 702.937,316.532 702.937,316.725C702.937,316.786 702.921,316.847 702.89,316.9L663.89,383.11C632.89,437.87 613.21,439.56 611.63,439.6L519.63,479.35C521.14,483.14 535.5,519.6 537,538.24C544.47,536.36 651.7,508.97 690.88,476.79C691.13,476.59 716.09,455.5 752.71,369.79C752.764,369.659 752.893,369.573 753.035,369.573C753.228,369.573 753.387,369.732 753.387,369.925C753.387,369.971 753.378,370.017 753.36,370.06C716.64,455.97 691.58,477.12 691.36,477.32C650.75,510.6 537.84,538.73 536.71,539L536.62,539Z" style="fill-opacity:0.2;fill-rule:nonzero;"/>
    </g>
    <g transform="matrix(1,0,0,1,-51,-56)">
        <path d="M535.29,472.17C535.29,472.17 547.83,502.26 551.29,520.46" style="fill:none;fill-rule:nonzero;stroke:black;stroke-opacity:0.2;stroke-width:1px;"/>
    </g>
    <g transform="matrix(1,0,0,1,-51,-56)">
        <path d="M672.45,489.47C672.45,489.47 663.34,443 709.21,454.4" style="fill:none;fill-rule:nonzero;stroke:black;stroke-opacity:0.2;stroke-width:1px;"/>
    </g>
    <g transform="matrix(1,0,0,1,-51,-56)">
        <path d="M519.12,479.15L507.22,483.35L523.73,538.67L536.28,535.36C536.28,535.36 529.62,503 519.12,479.15Z" style="fill:rgb(221,45,70);fill-rule:nonzero;"/>
    </g>
    <g transform="matrix(1,0,0,1,-51,-56)">
        <path d="M519.12,479.15L507.22,483.35L523.73,538.67L536.28,535.36C536.28,535.36 529.62,503 519.12,479.15Z" style="fill:white;fill-opacity:0.3;fill-rule:nonzero;"/>
    </g>
    <g transform="matrix(1,0,0,1,-51,-56)">
        <path d="M507.22,483.35L478.56,462C477.532,461.234 476.076,461.364 475.2,462.3C468.54,469.3 485.51,487.53 485.51,487.53C489.57,492.48 486.37,495.41 483.58,496.86C482.204,497.561 480.714,498.012 479.18,498.19C469.7,499.39 442.1,505.03 442.1,505.03C416.89,510.63 419,514.13 419,514.13C417.6,522.53 447,517.63 447,517.63C445.6,537.27 461.71,535 461.71,535C459.61,544.6 469.41,546.4 469.41,546.4C470.81,561.8 522.62,535 522.62,535L507.22,483.35ZM457,524C455.193,524.452 453.28,523.796 452.13,522.33L449.06,518.38L470.74,518.38C467,521.18 460.75,523.05 457,524Z" style="fill:rgb(249,180,153);fill-rule:nonzero;"/>
    </g>
    <g transform="matrix(1,0,0,1,-51,-56)">
        <path d="M461.71,534.97L473.61,531.67" style="fill:none;fill-rule:nonzero;stroke:rgb(247,164,139);stroke-width:1px;"/>
    </g>
    <g transform="matrix(1,0,0,1,-51,-56)">
        <path d="M469.41,546.37L480.92,542.44" style="fill:none;fill-rule:nonzero;stroke:rgb(247,164,139);stroke-width:1px;"/>
    </g>
</svg>
