<?xml version="1.0" encoding="UTF-8" standalone="no"?>
<!DOCTYPE svg PUBLIC "-//W3C//DTD SVG 1.1//EN" "http://www.w3.org/Graphics/SVG/1.1/DTD/svg11.dtd">
<svg width="100%" height="100%" viewBox="0 0 888 545" version="1.1" xmlns="http://www.w3.org/2000/svg" xmlns:xlink="http://www.w3.org/1999/xlink" xml:space="preserve" xmlns:serif="http://www.serif.com/" style="fill-rule:evenodd;clip-rule:evenodd;stroke-linejoin:round;stroke-miterlimit:2;">
    <g transform="matrix(1,0,0,1,-156,-177.821)">
        <path d="M691.817,659.775L659.786,668.368L692.048,648.528C691.354,616.9 680.315,584.104 680.315,584.104C680.315,584.104 611.365,604.079 593.269,638.668C575.173,673.257 589.418,696.092 614.783,709.363C640.149,722.633 667.03,721.314 685.126,686.724C689.154,679.026 691.147,669.669 691.817,659.775Z" style="fill:rgb(242,242,242);fill-rule:nonzero;"/>
    </g>
    <g transform="matrix(1,0,0,1,-156,-177.821)">
        <path d="M653.662,666.536L652.77,668.241C642.301,688.006 630.869,701.721 618.614,709.178C618.437,709.29 618.257,709.388 618.08,709.5L617.58,708.669L617.109,707.863C630.535,699.912 641.804,684.64 650.941,667.402C651.241,666.85 651.545,666.289 651.832,665.719C655.635,658.388 659.061,650.751 662.105,643.185C662.346,642.601 662.583,642.005 662.82,641.408C666.787,631.4 670.095,621.585 672.746,612.941C672.936,612.331 673.118,611.717 673.295,611.111C677.723,596.463 680.179,585.46 680.705,583.015C680.774,582.718 680.807,582.553 680.816,582.514L681.738,582.706L681.75,582.702L682.68,582.898C682.671,582.936 682.563,583.492 682.331,584.511C681.485,588.326 679.085,598.627 675.127,611.801C674.946,612.394 674.764,613.008 674.574,613.618C672.43,620.635 669.868,628.389 666.875,636.37C666.126,638.376 665.366,640.343 664.593,642.272C664.365,642.873 664.128,643.469 663.888,644.053C660.597,652.233 657.189,659.727 653.662,666.536Z" style="fill:white;fill-rule:nonzero;"/>
    </g>
    <g transform="matrix(1,0,0,1,-156,-177.821)">
        <path d="M675.128,611.801C674.522,611.581 673.909,611.356 673.295,611.111C671.629,610.446 669.997,609.697 668.407,608.865C661.626,605.329 655.725,600.317 651.139,594.198C650.55,594.46 649.962,594.722 649.36,594.987C654.15,601.492 660.363,606.816 667.524,610.553C669.221,611.441 670.964,612.238 672.746,612.941C673.351,613.183 673.965,613.407 674.574,613.618C679.593,615.391 684.851,616.391 690.17,616.585C690.05,615.931 689.933,615.289 689.821,614.661C684.809,614.436 679.858,613.472 675.128,611.801Z" style="fill:white;fill-rule:nonzero;"/>
    </g>
    <g transform="matrix(1,0,0,1,-156,-177.821)">
        <path d="M664.594,642.272C663.993,642.001 663.402,641.713 662.82,641.408C662.638,641.324 662.453,641.227 662.275,641.134C647.386,633.345 637.227,618.729 635.115,602.059C634.517,602.38 633.918,602.701 633.324,603.035C635.72,620.032 646.184,634.865 661.392,642.822C661.628,642.946 661.865,643.07 662.106,643.185C662.701,643.485 663.292,643.773 663.888,644.053C673.14,648.305 683.425,649.804 693.506,648.367C693.496,647.728 693.487,647.089 693.469,646.445C683.644,647.893 673.606,646.442 664.594,642.272Z" style="fill:white;fill-rule:nonzero;"/>
    </g>
    <g transform="matrix(1,0,0,1,-156,-177.821)">
        <path d="M653.662,666.536C653.045,666.278 652.436,666.003 651.832,665.719C651.186,665.413 650.544,665.099 649.911,664.767C629.718,654.173 618.847,631.376 623.325,609.017C622.588,609.502 621.855,609.979 621.134,610.472C617.402,633.137 628.687,655.786 649.028,666.455C649.661,666.787 650.298,667.109 650.941,667.402C651.549,667.699 652.157,667.974 652.77,668.241C665.189,673.549 679.173,673.94 691.868,669.334C692.018,668.617 692.137,667.895 692.262,667.164C679.807,671.98 665.953,671.755 653.662,666.536Z" style="fill:white;fill-rule:nonzero;"/>
    </g>
    <g transform="matrix(1,0,0,1,-156,-177.821)">
        <path d="M271.183,662.775L303.214,671.368L270.952,651.528C271.646,619.9 282.685,587.104 282.685,587.104C282.685,587.104 351.635,607.079 369.731,641.668C387.827,676.257 373.582,699.092 348.217,712.363C322.851,725.633 295.97,724.314 277.874,689.724C273.846,682.026 271.853,672.669 271.183,662.775Z" style="fill:rgb(242,242,242);fill-rule:nonzero;"/>
    </g>
    <g transform="matrix(1,0,0,1,-156,-177.821)">
        <path d="M309.338,669.536L310.23,671.241C320.699,691.006 332.131,704.721 344.386,712.178C344.563,712.29 344.743,712.388 344.92,712.5L345.42,711.669L345.891,710.863C332.465,702.912 321.196,687.64 312.059,670.402C311.759,669.85 311.455,669.289 311.168,668.719C307.365,661.388 303.939,653.751 300.895,646.185C300.654,645.601 300.417,645.005 300.18,644.408C296.213,634.4 292.905,624.585 290.254,615.941C290.064,615.331 289.882,614.717 289.705,614.111C285.277,599.463 282.821,588.46 282.295,586.015C282.226,585.718 282.193,585.553 282.184,585.514L281.262,585.706L281.25,585.702L280.32,585.898C280.329,585.936 280.437,586.492 280.669,587.511C281.515,591.326 283.915,601.627 287.873,614.801C288.054,615.394 288.236,616.008 288.426,616.618C290.57,623.635 293.132,631.389 296.125,639.37C296.874,641.376 297.634,643.343 298.407,645.272C298.635,645.873 298.872,646.469 299.112,647.053C302.403,655.233 305.811,662.727 309.338,669.536Z" style="fill:white;fill-rule:nonzero;"/>
    </g>
    <g transform="matrix(1,0,0,1,-156,-177.821)">
        <path d="M273.179,617.661C273.066,618.289 272.95,618.931 272.83,619.585C278.149,619.391 283.407,618.391 288.426,616.618C289.035,616.407 289.649,616.183 290.254,615.941C292.036,615.238 293.779,614.441 295.476,613.553C302.637,609.816 308.85,604.492 313.64,597.987C313.038,597.722 312.45,597.46 311.861,597.198C307.275,603.317 301.374,608.329 294.593,611.865C293.003,612.697 291.371,613.446 289.705,614.111C289.091,614.356 288.478,614.581 287.872,614.801C283.142,616.472 278.191,617.436 273.179,617.661Z" style="fill:white;fill-rule:nonzero;"/>
    </g>
    <g transform="matrix(1,0,0,1,-156,-177.821)">
        <path d="M269.531,649.445C269.513,650.089 269.504,650.728 269.494,651.367C279.575,652.804 289.86,651.305 299.112,647.053C299.708,646.773 300.299,646.485 300.894,646.185C301.135,646.07 301.372,645.946 301.608,645.822C316.816,637.865 327.28,623.032 329.676,606.035C329.082,605.701 328.483,605.38 327.885,605.059C325.773,621.729 315.614,636.345 300.725,644.134C300.547,644.227 300.362,644.324 300.18,644.408C299.598,644.713 299.007,645.001 298.406,645.272C289.394,649.442 279.356,650.893 269.531,649.445Z" style="fill:white;fill-rule:nonzero;"/>
    </g>
    <g transform="matrix(1,0,0,1,-156,-177.821)">
        <path d="M270.738,670.164C270.863,670.895 270.982,671.617 271.132,672.334C283.827,676.94 297.811,676.549 310.23,671.241C310.843,670.974 311.451,670.699 312.059,670.402C312.702,670.109 313.339,669.787 313.972,669.456C334.313,658.786 345.598,636.137 341.866,613.473C341.145,612.979 340.412,612.502 339.675,612.017C344.153,634.376 333.282,657.173 313.089,667.767C312.456,668.099 311.814,668.413 311.168,668.719C310.564,669.003 309.955,669.278 309.338,669.536C297.047,674.755 283.193,674.98 270.738,670.164Z" style="fill:white;fill-rule:nonzero;"/>
    </g>
    <g transform="matrix(1,0,0,1,-156,-177.821)">
        <path d="M421.356,686.995L440.425,692.111L421.218,680.3C421.631,661.471 428.203,641.946 428.203,641.946C428.203,641.946 469.251,653.838 480.024,674.43C490.797,695.022 482.317,708.616 467.216,716.516C452.115,724.416 436.112,723.631 425.339,703.039C422.941,698.456 421.755,692.885 421.356,686.995Z" style="fill:rgb(242,242,242);fill-rule:nonzero;"/>
    </g>
    <g transform="matrix(1,0,0,1,-156,-177.821)">
        <path d="M444.07,691.02L444.601,692.035C450.834,703.802 457.64,711.967 464.935,716.406C465.041,716.473 465.148,716.531 465.254,716.598L465.551,716.103L465.832,715.623C457.838,710.89 451.13,701.798 445.691,691.536C445.512,691.207 445.331,690.873 445.16,690.534C442.896,686.169 440.857,681.623 439.044,677.119C438.901,676.771 438.76,676.416 438.619,676.061C436.257,670.103 434.288,664.26 432.709,659.114C432.596,658.751 432.488,658.385 432.382,658.024C429.747,649.304 428.284,642.753 427.971,641.298C427.93,641.121 427.91,641.023 427.905,641L427.356,641.114L427.349,641.112L426.795,641.228C426.801,641.251 426.865,641.582 427.003,642.188C427.507,644.46 428.936,650.592 431.292,658.435C431.4,658.788 431.508,659.154 431.621,659.517C432.897,663.694 434.423,668.31 436.205,673.062C436.65,674.256 437.103,675.427 437.563,676.575C437.699,676.933 437.84,677.288 437.983,677.635C439.942,682.505 441.971,686.967 444.07,691.02Z" style="fill:white;fill-rule:nonzero;"/>
    </g>
    <g transform="matrix(1,0,0,1,-156,-177.821)">
        <path d="M422.544,660.138C422.477,660.512 422.408,660.894 422.337,661.283C425.503,661.168 428.633,660.572 431.621,659.517C431.984,659.391 432.349,659.258 432.709,659.114C433.77,658.695 434.808,658.221 435.818,657.692C440.081,655.468 443.78,652.298 446.631,648.425C446.273,648.267 445.923,648.111 445.573,647.955C442.842,651.598 439.329,654.582 435.293,656.687C434.346,657.182 433.375,657.628 432.382,658.024C432.017,658.17 431.652,658.304 431.292,658.435C428.475,659.43 425.528,660.004 422.544,660.138Z" style="fill:white;fill-rule:nonzero;"/>
    </g>
    <g transform="matrix(1,0,0,1,-156,-177.821)">
        <path d="M420.373,679.06C420.362,679.443 420.356,679.823 420.351,680.204C426.352,681.059 432.475,680.167 437.983,677.635C438.338,677.469 438.69,677.298 439.044,677.119C439.187,677.05 439.328,676.976 439.469,676.903C448.523,672.166 454.752,663.335 456.178,653.217C455.824,653.018 455.468,652.826 455.112,652.635C453.855,662.559 447.807,671.261 438.943,675.898C438.837,675.953 438.727,676.011 438.619,676.061C438.272,676.243 437.92,676.414 437.563,676.575C432.197,679.058 426.222,679.922 420.373,679.06Z" style="fill:white;fill-rule:nonzero;"/>
    </g>
    <g transform="matrix(1,0,0,1,-156,-177.821)">
        <path d="M421.091,691.394C421.165,691.829 421.236,692.259 421.325,692.686C428.883,695.428 437.208,695.196 444.601,692.035C444.966,691.877 445.329,691.713 445.691,691.536C446.073,691.362 446.452,691.169 446.829,690.972C458.939,684.621 465.657,671.137 463.435,657.644C463.006,657.35 462.57,657.067 462.131,656.778C464.797,670.089 458.325,683.66 446.304,689.967C445.927,690.165 445.545,690.352 445.16,690.534C444.8,690.703 444.438,690.867 444.07,691.02C436.753,694.127 428.506,694.261 421.091,691.394Z" style="fill:white;fill-rule:nonzero;"/>
    </g>
    <g transform="matrix(1,0,0,1,-156,-177.821)">
        <path d="M802.236,513.878L802.155,513.871C786.988,511.367 770.139,511.368 750.647,513.874L750.639,513.874C750.624,513.874 750.61,513.875 750.595,513.875C748.579,513.875 746.918,512.221 746.909,510.205L746.909,492.552C746.912,490.537 748.569,488.881 750.583,488.878C767.748,486.64 785.132,486.641 802.298,488.882L802.304,488.882C804.295,488.912 805.915,490.561 805.909,492.552L805.909,510.205C805.907,512.219 804.25,513.876 802.236,513.878Z" style="fill:white;fill-rule:nonzero;"/>
    </g>
    <g transform="matrix(1,0,0,1,-156,-177.821)">
        <path d="M802.236,513.878L802.155,513.871C786.988,511.367 770.139,511.368 750.647,513.874L750.639,513.874C750.624,513.874 750.61,513.875 750.595,513.875C748.579,513.875 746.918,512.221 746.909,510.205L746.909,492.552C746.912,490.537 748.569,488.881 750.583,488.878C767.748,486.64 785.132,486.641 802.298,488.882L802.304,488.882C804.295,488.912 805.915,490.561 805.909,492.552L805.909,510.205C805.907,512.219 804.25,513.876 802.236,513.878ZM775.754,488.203C767.358,488.188 758.971,488.746 750.651,489.873C750.637,489.873 750.622,489.873 750.608,489.873C749.135,489.873 747.921,491.079 747.909,492.552L747.909,510.205C747.911,511.671 749.117,512.877 750.583,512.878C770.092,510.366 787.022,510.365 802.275,512.878C803.726,512.855 804.908,511.656 804.909,510.205L804.909,492.552C804.908,491.086 803.702,489.88 802.236,489.878C793.451,488.776 784.607,488.217 775.754,488.203Z" style="fill:rgb(221,43,70);fill-rule:nonzero;"/>
    </g>
    <circle cx="620.409" cy="322.714" r="7" style="fill:rgb(221,43,70);"/>
    <g transform="matrix(1,0,0,1,-156,-177.821)">
        <path d="M758.409,496.878L752.409,496.878C751.587,496.877 750.91,496.201 750.909,495.378L750.909,493.378C750.91,492.556 751.587,491.879 752.409,491.878L758.409,491.878C759.232,491.879 759.909,492.556 759.909,493.378L759.909,495.378C759.909,496.201 759.232,496.877 758.409,496.878Z" style="fill:rgb(221,43,70);fill-rule:nonzero;"/>
    </g>
    <g transform="matrix(1,0,0,1,-156,-177.821)">
        <path d="M800.409,510.878L794.409,510.878C793.587,510.877 792.91,510.201 792.909,509.378L792.909,507.378C792.91,506.556 793.587,505.879 794.409,505.878L800.409,505.878C801.232,505.879 801.909,506.556 801.909,507.378L801.909,509.378C801.909,510.201 801.232,510.877 800.409,510.878Z" style="fill:rgb(221,43,70);fill-rule:nonzero;"/>
    </g>
    <g transform="matrix(1,0,0,1,-156,-177.821)">
        <path d="M793.699,506.577L793.627,506.539C780.628,498.333 765.105,491.782 746.172,486.511L746.165,486.508C744.781,485.943 743.872,484.59 743.872,483.095C743.872,482.608 743.969,482.126 744.156,481.677L751.021,465.413C751.807,463.558 753.977,462.676 755.834,463.457C772.519,468.071 788.534,474.833 803.477,483.572L803.483,483.575C805.305,484.376 806.157,486.526 805.377,488.358L798.512,504.621C797.726,506.476 795.556,507.358 793.699,506.577Z" style="fill:white;fill-rule:nonzero;"/>
    </g>
    <g transform="matrix(1,0,0,1,-156,-177.821)">
        <path d="M793.699,506.577L793.627,506.539C780.628,498.333 765.105,491.782 746.172,486.511L746.165,486.508C744.781,485.943 743.872,484.59 743.872,483.095C743.872,482.608 743.969,482.126 744.156,481.677L751.021,465.413C751.807,463.558 753.977,462.676 755.834,463.457C772.519,468.071 788.534,474.833 803.477,483.572L803.483,483.575C805.305,484.376 806.157,486.526 805.377,488.358L798.512,504.621C797.726,506.476 795.556,507.358 793.699,506.577ZM779.286,472.624C771.557,469.345 763.613,466.598 755.51,464.401C755.167,464.249 754.796,464.171 754.421,464.171C753.345,464.171 752.368,464.814 751.943,465.802L745.077,482.066C744.509,483.417 745.151,484.997 746.501,485.568C765.452,490.84 781.049,497.424 794.124,505.67C795.47,506.214 797.025,505.569 797.591,504.232L804.456,487.969C805.024,486.617 804.382,485.038 803.032,484.466C795.368,480.035 787.437,476.08 779.286,472.624L779.286,472.624Z" style="fill:rgb(221,43,70);fill-rule:nonzero;"/>
    </g>
    <circle cx="619.094" cy="306.419" r="7" style="fill:rgb(221,43,70);"/>
    <g transform="matrix(1,0,0,1,-156,-177.821)">
        <path d="M759.933,473.871L754.406,471.538C753.648,471.217 753.288,470.331 753.607,469.573L754.385,467.73C754.706,466.973 755.592,466.613 756.35,466.932L761.878,469.265C762.635,469.586 762.996,470.472 762.676,471.23L761.899,473.073C761.578,473.83 760.692,474.19 759.933,473.871Z" style="fill:rgb(221,43,70);fill-rule:nonzero;"/>
    </g>
    <g transform="matrix(1,0,0,1,-156,-177.821)">
        <path d="M793.183,503.103L787.655,500.769C786.898,500.449 786.538,499.562 786.857,498.804L787.634,496.962C787.955,496.204 788.842,495.844 789.6,496.163L795.127,498.496C795.885,498.817 796.245,499.703 795.926,500.462L795.148,502.304C794.827,503.062 793.941,503.422 793.183,503.103Z" style="fill:rgb(221,43,70);fill-rule:nonzero;"/>
    </g>
    <g transform="matrix(1,0,0,1,-156,-177.821)">
        <path d="M807.475,496.913C810.493,495.096 812.345,491.82 812.345,488.297C812.345,485.863 811.462,483.511 809.86,481.679L827.569,450.64L809.038,451.838L795.062,481.129C793.163,483.024 792.095,485.601 792.095,488.284C792.095,493.83 796.659,498.394 802.205,498.394C804.064,498.394 805.888,497.881 807.475,496.912L807.475,496.913Z" style="fill:rgb(255,182,182);fill-rule:nonzero;"/>
    </g>
    <path d="M787.796,530.684L775.536,530.684L769.704,483.396L787.798,483.397L787.796,530.684Z" style="fill:rgb(255,182,182);fill-rule:nonzero;"/>
    <g transform="matrix(1,0,0,1,-156,-177.821)">
        <path d="M946.922,720.39L907.392,720.388L907.392,719.888C907.392,711.448 914.338,704.502 922.778,704.502L946.923,704.503L946.922,720.39Z" style="fill:rgb(47,46,65);fill-rule:nonzero;"/>
    </g>
    <path d="M703.796,530.684L691.536,530.684L685.704,483.396L703.798,483.397L703.796,530.684Z" style="fill:rgb(255,182,182);fill-rule:nonzero;"/>
    <g transform="matrix(1,0,0,1,-156,-177.821)">
        <path d="M862.922,720.39L823.392,720.388L823.392,719.888C823.392,711.448 830.338,704.502 838.778,704.502L862.923,704.503L862.922,720.39Z" style="fill:rgb(47,46,65);fill-rule:nonzero;"/>
    </g>
    <g transform="matrix(1,0,0,1,-156,-177.821)">
        <path d="M828.271,451.974C828.271,451.974 824.899,499.995 831.54,524.18C838.182,548.365 839.368,694.621 839.368,694.621L861.629,694.621L880.924,495.536L925.406,695.323L946.611,693.865L934.982,458.443L828.271,451.974Z" style="fill:rgb(47,46,65);fill-rule:nonzero;"/>
    </g>
    <g transform="matrix(1,0,0,1,-156,-177.821)">
        <path d="M925.783,290.096L908.764,277.677L880.247,283.887L872.527,302.229L859.226,308.824C850.356,313.222 844.198,321.718 842.779,331.517L823.776,462.742L934.982,458.443L948.445,303.9C948.475,303.55 948.491,303.199 948.491,302.848C948.491,296.467 943.449,291.123 937.078,290.753L925.783,290.096Z" style="fill:rgb(61,131,246);fill-rule:nonzero;"/>
    </g>
    <path d="M696.189,141.253L685.918,155.099L641.182,291.544L662.152,299.94L695.729,236.359L696.189,141.253Z" style="fill:rgb(61,131,246);fill-rule:nonzero;"/>
    <circle cx="732.961" cy="57.795" r="34.037" style="fill:rgb(47,46,65);"/>
    <circle cx="733.421" cy="68.534" r="24.838" style="fill:rgb(255,185,185);"/>
    <g transform="matrix(1,0,0,1,-156,-177.821)">
        <path d="M908.279,243.136C892.463,237.432 887.112,233.927 869.642,243.136L863.203,217.378L914.718,217.378L908.279,243.136Z" style="fill:rgb(47,46,65);fill-rule:nonzero;"/>
    </g>
    <circle cx="730.201" cy="23.918" r="19.318" style="fill:rgb(47,46,65);"/>
    <g transform="matrix(1,0,0,1,-156,-177.821)">
        <path d="M863.203,197.14C863.208,186.895 871.368,178.348 881.601,177.868C881.294,177.853 880.992,177.821 880.681,177.821C870.084,177.821 861.363,186.542 861.363,197.14C861.363,207.738 870.084,216.458 880.681,216.458C880.992,216.458 881.294,216.426 881.601,216.412C871.368,215.932 863.208,207.385 863.203,197.14Z" style="fill:rgb(47,46,65);fill-rule:nonzero;"/>
    </g>
    <path d="M778.087,149.111L771.157,218.196L746.683,266.431L778.087,149.111Z" style="fill-opacity:0.1;fill-rule:nonzero;"/>
    <rect x="39.5" y="361.737" width="6" height="5" style="fill:rgb(240,240,240);"/>
    <g transform="matrix(1,0,0,1,-156,-177.821)">
        <path d="M769.029,544.558L757.206,544.558L757.206,539.558L769.029,539.558L769.029,544.558ZM745.383,544.558L733.559,544.558L733.559,539.558L745.383,539.558L745.383,544.558ZM721.735,544.558L709.912,544.558L709.912,539.558L721.735,539.558L721.735,544.558ZM698.089,544.558L686.265,544.558L686.265,539.558L698.089,539.558L698.089,544.558ZM674.441,544.558L662.618,544.558L662.618,539.558L674.441,539.558L674.441,544.558ZM650.794,544.558L638.971,544.558L638.971,539.558L650.794,539.558L650.794,544.558ZM627.147,544.558L615.324,544.558L615.324,539.558L627.147,539.558L627.147,544.558ZM603.5,544.558L591.677,544.558L591.677,539.558L603.5,539.558L603.5,544.558ZM579.853,544.558L568.03,544.558L568.03,539.558L579.853,539.558L579.853,544.558ZM556.206,544.558L544.382,544.558L544.382,539.558L556.206,539.558L556.206,544.558ZM532.559,544.558L520.735,544.558L520.735,539.558L532.559,539.558L532.559,544.558ZM508.912,544.558L497.088,544.558L497.088,539.558L508.912,539.558L508.912,544.558ZM485.265,544.558L473.441,544.558L473.441,539.558L485.265,539.558L485.265,544.558ZM461.618,544.558L449.794,544.558L449.794,539.558L461.618,539.558L461.618,544.558ZM437.971,544.558L426.147,544.558L426.147,539.558L437.971,539.558L437.971,544.558ZM414.324,544.558L402.5,544.558L402.5,539.558L414.324,539.558L414.324,544.558ZM390.677,544.558L378.853,544.558L378.853,539.558L390.677,539.558L390.677,544.558ZM367.03,544.558L355.206,544.558L355.206,539.558L367.03,539.558L367.03,544.558ZM343.382,544.558L331.559,544.558L331.559,539.558L343.382,539.558L343.382,544.558ZM319.735,544.558L307.912,544.558L307.912,539.558L319.735,539.558L319.735,544.558ZM296.088,544.558L284.265,544.558L284.265,539.558L296.088,539.558L296.088,544.558ZM272.441,544.558L260.618,544.558L260.618,539.558L272.441,539.558L272.441,544.558ZM248.794,544.558L236.971,544.558L236.971,539.558L248.794,539.558L248.794,544.558ZM225.147,544.558L213.324,544.558L213.324,539.558L225.147,539.558L225.147,544.558Z" style="fill:rgb(240,240,240);fill-rule:nonzero;"/>
    </g>
    <rect x="39.5" y="234.737" width="6" height="5" style="fill:rgb(240,240,240);"/>
    <g transform="matrix(1,0,0,1,-156,-177.821)">
        <path d="M769.029,417.558L757.206,417.558L757.206,412.558L769.029,412.558L769.029,417.558ZM745.383,417.558L733.559,417.558L733.559,412.558L745.383,412.558L745.383,417.558ZM721.735,417.558L709.912,417.558L709.912,412.558L721.735,412.558L721.735,417.558ZM698.089,417.558L686.265,417.558L686.265,412.558L698.089,412.558L698.089,417.558ZM674.441,417.558L662.618,417.558L662.618,412.558L674.441,412.558L674.441,417.558ZM650.794,417.558L638.971,417.558L638.971,412.558L650.794,412.558L650.794,417.558ZM627.147,417.558L615.324,417.558L615.324,412.558L627.147,412.558L627.147,417.558ZM603.5,417.558L591.677,417.558L591.677,412.558L603.5,412.558L603.5,417.558ZM579.853,417.558L568.03,417.558L568.03,412.558L579.853,412.558L579.853,417.558ZM556.206,417.558L544.382,417.558L544.382,412.558L556.206,412.558L556.206,417.558ZM532.559,417.558L520.735,417.558L520.735,412.558L532.559,412.558L532.559,417.558ZM508.912,417.558L497.088,417.558L497.088,412.558L508.912,412.558L508.912,417.558ZM485.265,417.558L473.441,417.558L473.441,412.558L485.265,412.558L485.265,417.558ZM461.618,417.558L449.794,417.558L449.794,412.558L461.618,412.558L461.618,417.558ZM437.971,417.558L426.147,417.558L426.147,412.558L437.971,412.558L437.971,417.558ZM414.324,417.558L402.5,417.558L402.5,412.558L414.324,412.558L414.324,417.558ZM390.677,417.558L378.853,417.558L378.853,412.558L390.677,412.558L390.677,417.558ZM367.03,417.558L355.206,417.558L355.206,412.558L367.03,412.558L367.03,417.558ZM343.382,417.558L331.559,417.558L331.559,412.558L343.382,412.558L343.382,417.558ZM319.735,417.558L307.912,417.558L307.912,412.558L319.735,412.558L319.735,417.558ZM296.088,417.558L284.265,417.558L284.265,412.558L296.088,412.558L296.088,417.558ZM272.441,417.558L260.618,417.558L260.618,412.558L272.441,412.558L272.441,417.558ZM248.794,417.558L236.971,417.558L236.971,412.558L248.794,412.558L248.794,417.558ZM225.147,417.558L213.324,417.558L213.324,412.558L225.147,412.558L225.147,417.558Z" style="fill:rgb(240,240,240);fill-rule:nonzero;"/>
    </g>
    <rect x="39.5" y="107.737" width="6" height="5" style="fill:rgb(240,240,240);"/>
    <g transform="matrix(1,0,0,1,-156,-177.821)">
        <path d="M769.029,290.558L757.206,290.558L757.206,285.558L769.029,285.558L769.029,290.558ZM745.383,290.558L733.559,290.558L733.559,285.558L745.383,285.558L745.383,290.558ZM721.735,290.558L709.912,290.558L709.912,285.558L721.735,285.558L721.735,290.558ZM698.089,290.558L686.265,290.558L686.265,285.558L698.089,285.558L698.089,290.558ZM674.441,290.558L662.618,290.558L662.618,285.558L674.441,285.558L674.441,290.558ZM650.794,290.558L638.971,290.558L638.971,285.558L650.794,285.558L650.794,290.558ZM627.147,290.558L615.324,290.558L615.324,285.558L627.147,285.558L627.147,290.558ZM603.5,290.558L591.677,290.558L591.677,285.558L603.5,285.558L603.5,290.558ZM579.853,290.558L568.03,290.558L568.03,285.558L579.853,285.558L579.853,290.558ZM556.206,290.558L544.382,290.558L544.382,285.558L556.206,285.558L556.206,290.558ZM532.559,290.558L520.735,290.558L520.735,285.558L532.559,285.558L532.559,290.558ZM508.912,290.558L497.088,290.558L497.088,285.558L508.912,285.558L508.912,290.558ZM485.265,290.558L473.441,290.558L473.441,285.558L485.265,285.558L485.265,290.558ZM461.618,290.558L449.794,290.558L449.794,285.558L461.618,285.558L461.618,290.558ZM437.971,290.558L426.147,290.558L426.147,285.558L437.971,285.558L437.971,290.558ZM414.324,290.558L402.5,290.558L402.5,285.558L414.324,285.558L414.324,290.558ZM390.677,290.558L378.853,290.558L378.853,285.558L390.677,285.558L390.677,290.558ZM367.03,290.558L355.206,290.558L355.206,285.558L367.03,285.558L367.03,290.558ZM343.382,290.558L331.559,290.558L331.559,285.558L343.382,285.558L343.382,290.558ZM319.735,290.558L307.912,290.558L307.912,285.558L319.735,285.558L319.735,290.558ZM296.088,290.558L284.265,290.558L284.265,285.558L296.088,285.558L296.088,290.558ZM272.441,290.558L260.618,290.558L260.618,285.558L272.441,285.558L272.441,290.558ZM248.794,290.558L236.971,290.558L236.971,285.558L248.794,285.558L248.794,290.558ZM225.147,290.558L213.324,290.558L213.324,285.558L225.147,285.558L225.147,290.558Z" style="fill:rgb(240,240,240);fill-rule:nonzero;"/>
    </g>
    <rect x="186" y="363.237" width="49" height="180" style="fill:rgb(63,61,86);"/>
    <rect x="195" y="363.237" width="49" height="180" style="fill:rgb(227,127,145);"/>
    <rect x="302" y="236.237" width="49" height="307" style="fill:rgb(63,61,86);"/>
    <rect x="311" y="236.237" width="49" height="307" style="fill:rgb(228,89,115);"/>
    <rect x="418" y="109.237" width="49" height="434" style="fill:rgb(63,61,86);"/>
    <rect x="427" y="109.237" width="49" height="434" style="fill:rgb(221,43,70);"/>
    <circle cx="40" cy="110.237" r="12" style="fill:rgb(240,240,240);"/>
    <circle cx="40" cy="237.237" r="12" style="fill:rgb(240,240,240);"/>
    <circle cx="40" cy="364.237" r="12" style="fill:rgb(240,240,240);"/>
    <rect x="0" y="542.116" width="888" height="2.241" style="fill:rgb(63,61,86);"/>
    <g transform="matrix(1,0,0,1,-156,-177.821)">
        <path d="M905.236,491.878L905.155,491.871C889.988,489.367 873.139,489.368 853.647,491.874L853.639,491.874C853.624,491.874 853.61,491.875 853.595,491.875C851.579,491.875 849.918,490.221 849.909,488.205L849.909,470.552C849.912,468.537 851.569,466.881 853.583,466.878C870.748,464.64 888.132,464.641 905.298,466.882L905.304,466.882C907.295,466.912 908.915,468.561 908.909,470.552L908.909,488.205C908.907,490.219 907.25,491.876 905.236,491.878Z" style="fill:white;fill-rule:nonzero;"/>
    </g>
    <g transform="matrix(1,0,0,1,-156,-177.821)">
        <path d="M905.236,491.878L905.155,491.871C889.988,489.367 873.139,489.368 853.647,491.874L853.639,491.874C853.624,491.874 853.61,491.875 853.595,491.875C851.579,491.875 849.918,490.221 849.909,488.205L849.909,470.552C849.912,468.537 851.569,466.881 853.583,466.878C870.748,464.64 888.132,464.641 905.298,466.882L905.304,466.882C907.295,466.912 908.915,468.561 908.909,470.552L908.909,488.205C908.907,490.219 907.25,491.876 905.236,491.878ZM878.754,466.203C870.358,466.188 861.971,466.746 853.651,467.873C853.637,467.873 853.622,467.873 853.608,467.873C852.135,467.873 850.921,469.079 850.909,470.552L850.909,488.205C850.911,489.671 852.117,490.877 853.583,490.878C873.092,488.366 890.022,488.365 905.275,490.878C906.726,490.855 907.908,489.656 907.909,488.205L907.909,470.552C907.908,469.086 906.702,467.88 905.236,467.878C896.451,466.776 887.607,466.217 878.754,466.203Z" style="fill:rgb(221,43,70);fill-rule:nonzero;"/>
    </g>
    <circle cx="723.409" cy="300.714" r="7" style="fill:rgb(221,43,70);"/>
    <g transform="matrix(1,0,0,1,-156,-177.821)">
        <path d="M861.409,474.878L855.409,474.878C854.587,474.877 853.91,474.201 853.909,473.378L853.909,471.378C853.91,470.556 854.587,469.879 855.409,469.878L861.409,469.878C862.232,469.879 862.909,470.556 862.909,471.378L862.909,473.378C862.909,474.201 862.232,474.877 861.409,474.878Z" style="fill:rgb(221,43,70);fill-rule:nonzero;"/>
    </g>
    <g transform="matrix(1,0,0,1,-156,-177.821)">
        <path d="M903.409,488.878L897.409,488.878C896.587,488.877 895.91,488.201 895.909,487.378L895.909,485.378C895.91,484.556 896.587,483.879 897.409,483.878L903.409,483.878C904.232,483.879 904.909,484.556 904.909,485.378L904.909,487.378C904.909,488.201 904.232,488.877 903.409,488.878Z" style="fill:rgb(221,43,70);fill-rule:nonzero;"/>
    </g>
    <g transform="matrix(1,0,0,1,-156,-177.821)">
        <path d="M893.994,468.738C893.977,468.504 893.969,468.269 893.969,468.034C893.969,462.518 898.508,457.979 904.025,457.979C904.382,457.979 904.739,457.998 905.094,458.036L920.332,425.712L929.995,441.57L914.043,469.833C913.203,474.654 908.977,478.206 904.084,478.206C898.779,478.206 894.331,474.032 893.994,468.738Z" style="fill:rgb(255,182,182);fill-rule:nonzero;"/>
    </g>
    <g transform="matrix(1,0,0,1,-156,-177.821)">
        <path d="M935.422,299.661L941.697,291.477C941.697,291.477 956.988,288.362 959.585,309.364L957.949,402.729L924.444,455.466L902.683,449.91L931.134,387.262L935.422,299.661Z" style="fill:rgb(61,131,246);fill-rule:nonzero;"/>
    </g>
</svg>
