<?xml version="1.0" encoding="UTF-8" standalone="no"?>
<!DOCTYPE svg PUBLIC "-//W3C//DTD SVG 1.1//EN" "http://www.w3.org/Graphics/SVG/1.1/DTD/svg11.dtd">
<svg width="100%" height="100%" viewBox="0 0 429 493" version="1.1" xmlns="http://www.w3.org/2000/svg" xmlns:xlink="http://www.w3.org/1999/xlink" xml:space="preserve" xmlns:serif="http://www.serif.com/" style="fill-rule:evenodd;clip-rule:evenodd;stroke-linejoin:round;stroke-miterlimit:2;">
    <g>
        <path d="M403.784,401.622C402.94,400.198 399.287,401.723 398.616,400.431C397.947,399.143 401.34,397.182 403.279,392.701C403.629,391.893 405.832,386.801 404.201,385.229C401.109,382.251 386.961,394.542 382.01,390.52C380.924,389.637 380.164,387.875 376.876,385.014C375.568,383.876 374.776,383.362 374.011,383.553C372.925,383.824 372.838,385.278 371.674,388.137C369.927,392.424 368.893,392.165 367.875,395.586C367.12,398.125 367.292,399.601 366.403,399.889C365.145,400.296 363.987,397.603 362.392,397.844C360.765,398.09 359.781,401.226 359.471,403.574C358.887,407.98 360.506,410.887 361.402,413.945C362.377,417.267 362.955,422.319 360.705,429.472L338.427,492.238C343.346,479.359 357.586,444.053 363.57,430.933C365.297,427.146 367.204,423.304 371.121,421.788C374.891,420.328 380.069,421.199 386.671,419.609C387.442,419.423 389.581,418.879 389.851,417.621C390.073,416.58 388.815,415.999 389.008,415.025C389.268,413.718 391.742,413.702 394.784,412.194C396.928,411.131 398.264,409.866 399.413,408.779C399.759,408.451 404.908,403.517 403.784,401.622L403.784,401.622L403.784,401.622Z" style="fill:rgb(242,242,242);fill-rule:nonzero;"/>
        <path d="M316.139,434.665C315.197,434.668 314.891,436.901 314.063,436.858C313.238,436.815 313.254,434.583 311.615,432.339C311.319,431.934 309.455,429.383 308.214,429.73C305.86,430.388 307.81,440.879 304.407,442.148C303.661,442.427 302.577,442.291 300.224,443.079C299.288,443.393 298.807,443.633 298.68,444.064C298.5,444.676 299.188,445.137 300.255,446.534C301.856,448.628 301.43,449.061 302.816,450.547C303.844,451.651 304.618,451.992 304.503,452.511C304.339,453.246 302.683,453.038 302.342,453.89C301.993,454.76 303.248,456.147 304.311,456.977C306.305,458.535 308.199,458.579 309.958,459.021C311.87,459.502 314.517,460.676 317.378,463.844L341.756,492.888C336.854,486.758 323.635,469.582 318.922,462.859C317.561,460.919 316.226,458.874 316.612,456.515C316.983,454.243 318.905,451.953 320.029,448.254C320.161,447.822 320.511,446.615 319.971,446.119C319.525,445.71 318.876,446.16 318.454,445.784C317.887,445.28 318.593,444.06 318.731,442.133C318.828,440.773 318.593,439.753 318.39,438.875C318.329,438.61 317.393,434.66 316.139,434.665L316.139,434.665L316.139,434.665Z" style="fill:rgb(242,242,242);fill-rule:nonzero;"/>
        <path d="M334.939,438.885L334.371,433.817L334.63,433.432C335.831,431.656 336.442,429.921 336.45,428.274C336.451,428.012 336.439,427.75 336.426,427.483C336.377,426.426 336.316,425.112 337.002,423.58C337.386,422.726 338.465,420.749 340.087,420.993C340.524,421.054 340.855,421.255 341.105,421.49C341.142,421.431 341.18,421.373 341.221,421.309C341.726,420.538 342.126,420.208 342.511,419.89C342.808,419.645 343.113,419.393 343.593,418.796C343.804,418.534 343.967,418.304 344.106,418.11C344.525,417.526 345.074,416.828 346.04,416.84C347.073,416.889 347.614,417.743 347.972,418.309C348.612,419.317 348.902,420.044 349.094,420.526C349.164,420.702 349.244,420.9 349.284,420.961C349.617,421.451 352.322,420.993 353.342,420.827C355.631,420.445 357.612,420.115 358.428,421.559C359.013,422.591 358.579,423.957 357.098,425.726C356.637,426.277 356.146,426.695 355.71,427.023C356.071,427.239 356.394,427.569 356.525,428.088C356.834,429.316 355.778,430.547 353.388,431.751C352.795,432.052 351.996,432.454 350.876,432.647C350.349,432.737 349.874,432.759 349.468,432.772C349.459,433.007 349.404,433.261 349.261,433.523C348.841,434.294 347.967,434.661 346.651,434.573C345.202,434.497 344.009,434.22 342.957,433.978C342.038,433.768 341.246,433.589 340.625,433.631C339.472,433.724 338.584,434.646 337.541,435.843L334.939,438.885L334.939,438.885Z" style="fill:rgb(242,242,242);fill-rule:nonzero;"/>
        <path d="M337.572,408.709L332.814,410.544L332.376,410.39C330.353,409.68 328.52,409.528 326.925,409.939C326.671,410.004 326.421,410.082 326.166,410.162C325.156,410.477 323.9,410.87 322.245,410.595C321.321,410.44 319.135,409.898 318.96,408.267C318.908,407.829 319.018,407.458 319.182,407.156C319.116,407.135 319.05,407.113 318.978,407.09C318.104,406.797 317.683,406.494 317.277,406.202C316.966,405.977 316.644,405.746 315.945,405.433C315.638,405.296 315.374,405.196 315.152,405.111C314.48,404.853 313.666,404.5 313.433,403.562C313.218,402.55 313.907,401.811 314.363,401.32C315.176,400.446 315.805,399.981 316.223,399.673C316.376,399.561 316.547,399.433 316.596,399.379C316.985,398.933 315.856,396.432 315.437,395.488C314.487,393.37 313.665,391.538 314.855,390.382C315.705,389.555 317.136,389.628 319.223,390.612C319.873,390.918 320.402,391.287 320.83,391.625C320.947,391.221 321.184,390.825 321.653,390.567C322.763,389.957 324.221,390.666 325.992,392.672C326.434,393.17 327.025,393.841 327.496,394.875C327.717,395.362 327.859,395.816 327.974,396.206C328.203,396.154 328.463,396.143 328.753,396.215C329.605,396.426 330.182,397.177 330.431,398.473C330.725,399.894 330.76,401.118 330.792,402.197C330.822,403.14 330.85,403.951 331.048,404.542C331.43,405.633 332.548,406.258 333.97,406.963L337.572,408.709L337.572,408.709L337.572,408.709Z" style="fill:rgb(242,242,242);fill-rule:nonzero;"/>
        <path d="M334.939,393.778L334.371,388.71L334.63,388.326C335.831,386.549 336.442,384.814 336.45,383.167C336.451,382.905 336.439,382.643 336.426,382.376C336.377,381.319 336.316,380.005 337.002,378.473C337.386,377.619 338.465,375.642 340.087,375.886C340.524,375.948 340.855,376.148 341.105,376.383C341.142,376.324 341.18,376.266 341.221,376.202C341.726,375.431 342.126,375.101 342.511,374.783C342.808,374.538 343.113,374.286 343.593,373.689C343.804,373.427 343.967,373.197 344.106,373.004C344.525,372.419 345.074,371.721 346.04,371.733C347.073,371.782 347.614,372.636 347.972,373.202C348.612,374.21 348.902,374.937 349.094,375.419C349.164,375.595 349.244,375.793 349.284,375.855C349.617,376.344 352.322,375.886 353.342,375.72C355.631,375.338 357.612,375.008 358.428,376.452C359.013,377.484 358.579,378.85 357.098,380.619C356.637,381.17 356.146,381.588 355.71,381.916C356.071,382.132 356.394,382.462 356.525,382.981C356.834,384.209 355.778,385.44 353.388,386.644C352.795,386.945 351.996,387.347 350.876,387.54C350.349,387.631 349.874,387.653 349.468,387.665C349.459,387.9 349.404,388.154 349.261,388.416C348.841,389.187 347.967,389.554 346.651,389.466C345.202,389.39 344.009,389.114 342.957,388.871C342.038,388.661 341.246,388.482 340.625,388.524C339.472,388.617 338.584,389.539 337.541,390.736L334.939,393.778L334.939,393.778Z" style="fill:rgb(242,242,242);fill-rule:nonzero;"/>
        <path d="M340.124,492.156L339.062,491.49L338.805,490.264L339.062,491.49L337.824,491.632C337.804,491.517 337.737,491.253 337.635,490.839C337.081,488.573 335.391,481.677 333.982,470.816C332.998,463.235 332.441,455.44 332.326,447.646C332.211,439.839 332.581,433.929 332.877,429.179C333.101,425.597 333.372,422.185 333.639,418.862C334.349,409.983 335.018,401.597 334.52,392.312C334.41,390.239 334.179,385.925 331.658,381.334C330.196,378.671 328.182,376.307 325.671,374.31L327.232,372.348C330.004,374.555 332.232,377.174 333.856,380.13C336.65,385.22 336.902,389.921 337.024,392.18C337.53,401.629 336.853,410.096 336.136,419.06C335.872,422.371 335.6,425.768 335.378,429.336C335.084,434.042 334.718,439.9 334.832,447.607C334.945,455.308 335.495,463.007 336.466,470.493C337.858,481.217 339.523,488.01 340.07,490.242C340.362,491.434 340.423,491.683 340.124,492.156L340.124,492.156L340.124,492.156Z" style="fill:rgb(242,242,242);fill-rule:nonzero;"/>
        <path d="M321.075,378.292C320.972,378.292 320.868,378.29 320.763,378.282C318.629,378.167 316.653,376.89 314.889,374.487C314.061,373.356 313.638,372.066 312.794,369.494C312.663,369.098 312.027,367.086 311.64,364.318C311.387,362.51 311.418,361.754 311.777,361.086C312.175,360.342 312.818,359.823 313.543,359.473C313.511,359.233 313.536,358.986 313.64,358.734C314.068,357.689 315.203,357.826 315.817,357.892C316.128,357.931 316.516,357.983 316.934,357.961C317.593,357.929 317.946,357.733 318.482,357.439C318.995,357.158 319.632,356.808 320.578,356.615C322.443,356.226 324.006,356.754 324.521,356.928C327.231,357.831 328.567,359.938 330.114,362.378C330.422,362.867 331.481,364.649 332.179,367.091C332.683,368.853 332.612,369.636 332.461,370.219C332.152,371.415 331.424,372.101 329.575,373.613C327.645,375.196 326.676,375.989 325.843,376.471C323.906,377.59 322.69,378.292 321.075,378.292L321.075,378.292L321.075,378.292Z" style="fill:rgb(242,242,242);fill-rule:nonzero;"/>
    </g>
    <g>
        <path id="b-2634" d="M240.516,140.416C247.296,137.027 251.043,130.782 248.885,126.468C246.727,122.153 239.484,121.404 232.702,124.796C229.974,126.113 227.602,128.065 225.783,130.487L197.239,145.21L204.433,158.457L231.809,142.537C234.839,142.536 237.825,141.809 240.516,140.416Z" style="fill:rgb(255,182,182);fill-rule:nonzero;"/>
        <g>
            <path d="M78.789,482.896L92.377,482.895L98.84,430.486L78.787,430.487L78.789,482.896Z" style="fill:rgb(255,182,182);fill-rule:nonzero;"/>
            <path d="M125.342,482.588C125.765,483.3 125.988,485.6 125.988,486.429C125.988,488.976 123.923,491.04 121.376,491.04L79.298,491.04C77.56,491.04 76.152,489.632 76.152,487.894L76.152,486.142C76.152,486.142 74.07,480.877 78.356,474.387C78.356,474.387 83.682,479.469 91.641,471.51L93.988,467.258L110.978,479.683L120.395,480.842C122.455,481.096 124.282,480.803 125.341,482.588L125.342,482.588Z" style="fill:rgb(47,46,65);fill-rule:nonzero;"/>
        </g>
        <g>
            <path d="M100.126,425.269L112.192,431.515L142.028,387.945L124.219,378.726L100.126,425.269Z" style="fill:rgb(255,182,182);fill-rule:nonzero;"/>
            <path d="M141.608,446.398C141.656,447.226 140.797,449.37 140.416,450.106C139.245,452.368 136.462,453.252 134.2,452.081L96.833,432.735C95.29,431.936 94.686,430.038 95.485,428.495L96.291,426.939C96.291,426.939 96.863,421.306 103.652,417.514C103.652,417.514 106.046,424.475 116.774,421.066L120.813,418.37L130.187,437.215L138.017,442.574C139.73,443.746 141.487,444.326 141.607,446.398L141.608,446.398L141.608,446.398Z" style="fill:rgb(47,46,65);fill-rule:nonzero;"/>
        </g>
        <path d="M64.991,66.908L100.624,66.908L99.846,78.527L123.083,152.594L127.44,201.973L83.871,209.234L63.539,117.739L67.895,75.622L64.991,66.908Z" style="fill:rgb(61,131,246);fill-rule:nonzero;"/>
        <path d="M67.169,76.348L29.409,95.228L52.646,173.653L48.289,253.53C48.289,253.53 107.834,272.41 104.929,218.674C102.025,164.939 102.025,156.225 102.025,156.225L67.169,76.348L67.169,76.348Z" style="fill:rgb(47,46,65);fill-rule:nonzero;"/>
        <path d="M127.44,86.131C127.44,86.131 136.88,79.253 141.237,89.419C145.594,99.585 173.914,151.142 173.914,151.142L218.209,131.536L225.471,147.511C225.471,147.511 189.163,182.366 167.379,178.01C145.594,173.653 128.166,135.893 128.166,135.893L127.44,86.131L127.44,86.131Z" style="fill:rgb(47,46,65);fill-rule:nonzero;"/>
        <path d="M52.646,239.006C52.646,239.006 51.194,262.243 54.099,281.123C57.003,300.003 76.609,460.483 76.609,460.483L101.299,459.031L103.477,270.957L138.332,326.145L107.834,408.926L128.892,418.366L173.188,327.597L142.689,224.483L133.975,198.342L68.622,205.603L52.646,239.006L52.646,239.006Z" style="fill:rgb(47,46,65);fill-rule:nonzero;"/>
        <path d="M149.951,244.816C149.951,244.816 110.739,256.434 102.025,156.225L100.054,75.426L136.88,85.062L132.523,157.677L149.951,244.816Z" style="fill:rgb(47,46,65);fill-rule:nonzero;"/>
        <circle cx="83.145" cy="31.327" r="26.142" style="fill:rgb(255,182,182);"/>
        <path d="M66.443,56.742C66.443,56.742 54.825,43.671 53.372,37.862C51.92,32.053 51.92,16.077 53.372,14.625C54.825,13.173 70.8,-1.35 76.609,0.102C82.419,1.554 93.934,8.816 104.203,8.816C107.108,8.816 108.56,23.339 108.56,23.339L96.942,24.791C96.942,24.791 82.419,17.53 83.871,24.791C85.323,32.053 73.705,32.053 73.705,32.053L75.157,37.862L70.8,39.314L67.895,33.505C67.895,33.505 69.348,46.576 73.705,52.385C78.062,58.194 66.443,56.742 66.443,56.742L66.443,56.742Z" style="fill:rgb(47,46,65);fill-rule:nonzero;"/>
        <path id="c-2635" d="M54.868,265.848C58.854,272.295 65.411,275.465 69.514,272.928C73.616,270.391 73.71,263.109 69.722,256.66C68.164,254.062 66.007,251.875 63.431,250.281L46.199,223.178L33.652,231.536L51.972,257.368C52.246,260.385 53.239,263.293 54.868,265.848L54.868,265.848Z" style="fill:rgb(255,182,182);fill-rule:nonzero;"/>
        <path d="M35.219,95.228L27.957,95.228C27.957,95.228 -1.089,160.582 0.363,173.653C0.363,173.653 0.363,185.271 7.625,193.985C14.886,202.699 45.385,252.077 45.385,252.077L58.455,241.911L32.314,180.914L48.289,117.013L35.219,95.228Z" style="fill:rgb(47,46,65);fill-rule:nonzero;"/>
    </g>
    <path d="M428.04,491.016C428.04,491.48 427.664,491.856 427.2,491.856L0.84,491.856C0.376,491.856 0,491.48 0,491.016C0,490.552 0.376,490.176 0.84,490.176L427.2,490.176C427.664,490.176 428.04,490.552 428.04,491.016Z" style="fill:rgb(230,230,230);fill-rule:nonzero;"/>
    <path d="M270.88,186.13C267.45,186.13 264.181,184.729 261.829,182.229C246.686,166.131 238.347,145.097 238.347,123C238.347,104.586 244.059,87.006 254.867,72.16C257.003,69.227 260.317,67.386 263.96,67.11C267.66,66.825 271.279,68.18 273.888,70.816L317.8,115.171C322.195,119.61 322.644,126.697 318.845,131.656L280.897,181.188C278.642,184.131 275.224,185.927 271.518,186.114C271.305,186.125 271.092,186.13 270.88,186.13L270.88,186.13Z" style="fill:rgb(221,43,70);fill-rule:nonzero;"/>
    <path d="M340.847,212C327.307,212 314.316,208.999 302.233,203.081C297.843,200.932 294.685,196.97 293.566,192.21C292.448,187.45 293.511,182.496 296.484,178.617L328.108,137.34C333.86,129.831 333.18,119.099 326.525,112.375L294.153,79.677C289.474,74.951 287.352,68.468 288.332,61.892C289.317,55.282 293.264,49.667 299.16,46.488C312.453,39.321 327.517,35.693 342.724,36.02C388.552,36.976 426.328,73.543 428.723,119.268C430.002,143.697 421.467,166.887 404.689,184.565C387.9,202.257 365.227,212 340.847,212ZM340.879,39C326.797,39 330.166,52.358 317.847,59C312.791,61.726 292.144,56.668 291.299,62.334C290.46,67.966 292.277,73.519 296.285,77.567L328.657,110.265C336.361,118.048 337.149,130.472 330.489,139.164L298.866,180.441C296.442,183.604 295.575,187.644 296.487,191.524C297.399,195.404 299.974,198.635 303.552,200.388C315.221,206.103 327.769,186 340.847,186C364.396,186 386.296,199.589 402.513,182.501C418.719,165.424 426.963,143.023 425.727,119.425C423.414,75.261 386.927,39.942 342.661,39.019C342.067,39.006 341.472,39 340.879,39L340.879,39Z" style="fill:rgb(230,230,230);fill-rule:nonzero;"/>
    <path d="M346.614,124.363C344.904,122.365 344.049,119.441 344.049,115.588C344.049,111.773 344.904,108.865 346.614,106.867C348.324,104.87 350.692,103.871 353.715,103.871C356.775,103.871 359.17,104.87 360.898,106.867C362.626,108.865 363.489,111.773 363.489,115.588C363.489,119.441 362.626,122.365 360.898,124.363C359.17,126.361 356.775,127.36 353.715,127.36C350.692,127.36 348.324,126.361 346.614,124.363ZM356.794,121.258C357.442,120.106 357.765,118.217 357.765,115.588C357.765,113.033 357.432,111.17 356.766,110C356.1,108.83 355.083,108.245 353.715,108.245C352.383,108.245 351.394,108.83 350.745,110C350.097,111.17 349.774,113.033 349.774,115.588C349.774,118.18 350.097,120.062 350.745,121.231C351.394,122.402 352.383,122.986 353.715,122.986C355.119,122.986 356.146,122.411 356.794,121.258ZM356.312,137.717L375.586,104.41C378.246,104.41 379.907,107.293 378.572,109.595L359.277,142.858C356.639,142.858 354.991,140.001 356.312,137.717L356.312,137.717ZM373.992,140.239C372.282,138.241 371.427,135.298 371.427,131.41C371.427,127.595 372.282,124.697 373.992,122.716C375.702,120.737 378.087,119.747 381.148,119.747C384.207,119.747 386.592,120.737 388.302,122.716C390.012,124.697 390.867,127.613 390.867,131.464C390.867,135.317 390.012,138.241 388.302,140.239C386.592,142.237 384.207,143.236 381.148,143.236C378.087,143.236 375.702,142.237 373.992,140.239ZM384.171,137.107C384.819,135.938 385.144,134.057 385.144,131.464C385.144,128.909 384.81,127.046 384.145,125.875C383.478,124.706 382.479,124.121 381.148,124.121C379.779,124.121 378.772,124.706 378.124,125.875C377.475,127.046 377.151,128.909 377.151,131.464C377.151,134.057 377.475,135.938 378.124,137.107C378.772,138.278 379.779,138.862 381.148,138.862C382.515,138.862 383.524,138.278 384.172,137.107L384.171,137.107Z" style="fill-rule:nonzero;"/>
</svg>
