<?xml version="1.0" encoding="UTF-8" standalone="no"?>
<!DOCTYPE svg PUBLIC "-//W3C//DTD SVG 1.1//EN" "http://www.w3.org/Graphics/SVG/1.1/DTD/svg11.dtd">
<svg width="100%" height="100%" viewBox="0 0 856 611" version="1.1" xmlns="http://www.w3.org/2000/svg" xmlns:xlink="http://www.w3.org/1999/xlink" xml:space="preserve" xmlns:serif="http://www.serif.com/" style="fill-rule:evenodd;clip-rule:evenodd;stroke-linejoin:round;stroke-miterlimit:2;">
    <circle cx="39.536" cy="110.727" r="13.631" style="fill:rgb(204,204,204);"/>
    <circle cx="80.428" cy="110.727" r="13.631" style="fill:rgb(204,204,204);"/>
    <circle cx="121.319" cy="110.727" r="13.631" style="fill:rgb(204,204,204);"/>
    <circle cx="162.211" cy="110.727" r="13.631" style="fill:rgb(204,204,204);"/>
    <circle cx="203.103" cy="110.727" r="13.631" style="fill:rgb(204,204,204);"/>
    <circle cx="243.994" cy="110.727" r="13.631" style="fill:rgb(204,204,204);"/>
    <circle cx="284.886" cy="110.727" r="13.631" style="fill:rgb(204,204,204);"/>
    <g transform="matrix(1,0,0,1,-172.291,-144.612)">
        <path d="M488.674,271.938L180.329,271.938C177.287,271.934 174.786,269.433 174.782,266.391L174.782,244.287C174.786,241.246 177.287,238.744 180.329,238.74L488.674,238.74C491.716,238.744 494.218,241.246 494.221,244.287L494.221,266.391C494.218,269.433 491.716,271.934 488.674,271.938ZM180.329,240.959C178.504,240.961 177.003,242.462 177.001,244.287L177.001,266.391C177.003,268.216 178.504,269.717 180.329,269.719L488.674,269.719C490.499,269.717 492.001,268.216 492.003,266.391L492.003,244.287C492.001,242.462 490.499,240.961 488.674,240.959L180.329,240.959Z" style="fill:rgb(204,204,204);fill-rule:nonzero;"/>
    </g>
    <g transform="matrix(1,0,0,1,-172.291,-144.612)">
        <path d="M246.317,147.799C248.065,147.801 249.502,149.239 249.504,150.986L249.504,220.049C249.502,221.797 248.065,223.234 246.317,223.236L178.665,223.236C176.917,223.234 175.48,221.797 175.478,220.049L175.478,150.986C175.48,149.239 176.917,147.801 178.665,147.799L246.317,147.799M246.317,144.612L178.665,144.612C175.168,144.612 172.291,147.49 172.291,150.986L172.291,220.049C172.291,223.546 175.168,226.423 178.665,226.423L246.317,226.423C249.814,226.423 252.691,223.546 252.691,220.049L252.691,150.986C252.691,147.49 249.814,144.612 246.317,144.612L246.317,144.612Z" style="fill:rgb(204,204,204);fill-rule:nonzero;"/>
    </g>
    <g transform="matrix(1,0,0,1,-172.291,-144.612)">
        <path d="M235.765,165.953L190.628,165.953C190.625,165.953 190.621,165.953 190.618,165.953C189.744,165.953 189.024,165.234 189.024,164.359C189.024,163.485 189.744,162.766 190.618,162.766C190.621,162.766 190.625,162.766 190.628,162.766L235.765,162.766C235.768,162.766 235.771,162.766 235.774,162.766C236.649,162.766 237.368,163.485 237.368,164.359C237.368,165.234 236.649,165.953 235.774,165.953C235.771,165.953 235.768,165.953 235.765,165.953Z" style="fill:rgb(221,43,70);fill-rule:nonzero;"/>
    </g>
    <g transform="matrix(1,0,0,1,-172.291,-144.612)">
        <path d="M235.765,177.238L190.628,177.238C190.625,177.238 190.621,177.238 190.618,177.238C189.744,177.238 189.024,176.518 189.024,175.644C189.024,174.77 189.744,174.051 190.618,174.051C190.621,174.051 190.625,174.051 190.628,174.051L235.765,174.051C235.768,174.051 235.771,174.051 235.774,174.051C236.649,174.051 237.368,174.77 237.368,175.644C237.368,176.518 236.649,177.238 235.774,177.238C235.771,177.238 235.768,177.238 235.765,177.238Z" style="fill:rgb(221,43,70);fill-rule:nonzero;"/>
    </g>
    <g transform="matrix(1,0,0,1,-172.291,-144.612)">
        <path d="M235.765,188.521L190.628,188.521C190.625,188.521 190.621,188.521 190.618,188.521C189.744,188.521 189.024,187.802 189.024,186.928C189.024,186.054 189.744,185.334 190.618,185.334C190.621,185.334 190.625,185.334 190.628,185.334L235.765,185.334C235.768,185.334 235.771,185.334 235.774,185.334C236.649,185.334 237.368,186.054 237.368,186.928C237.368,187.802 236.649,188.521 235.774,188.521C235.771,188.521 235.768,188.521 235.765,188.521Z" style="fill:rgb(221,43,70);fill-rule:nonzero;"/>
    </g>
    <g transform="matrix(1,0,0,1,-172.291,-144.612)">
        <path d="M235.765,199.806L190.628,199.806C190.625,199.806 190.621,199.806 190.618,199.806C189.744,199.806 189.024,199.087 189.024,198.213C189.024,197.338 189.744,196.619 190.618,196.619C190.621,196.619 190.625,196.619 190.628,196.619L235.765,196.619C235.768,196.619 235.771,196.619 235.774,196.619C236.649,196.619 237.368,197.338 237.368,198.213C237.368,199.087 236.649,199.806 235.774,199.806C235.771,199.806 235.768,199.806 235.765,199.806Z" style="fill:rgb(221,43,70);fill-rule:nonzero;"/>
    </g>
    <g transform="matrix(1,0,0,1,-172.291,-144.612)">
        <path d="M235.765,211.091L190.628,211.091C189.754,211.091 189.034,210.371 189.034,209.497C189.034,208.623 189.754,207.904 190.628,207.904L235.765,207.904C236.639,207.904 237.358,208.623 237.358,209.497C237.358,210.371 236.639,211.091 235.765,211.091Z" style="fill:rgb(221,43,70);fill-rule:nonzero;"/>
    </g>
    <g transform="matrix(1,0,0,1,-172.291,-144.612)">
        <path d="M477.378,147.799C479.126,147.801 480.563,149.239 480.565,150.986L480.565,220.049C480.563,221.797 479.126,223.234 477.378,223.236L409.726,223.236C407.979,223.234 406.541,221.797 406.539,220.049L406.539,150.986C406.541,149.239 407.979,147.801 409.726,147.799L477.378,147.799M477.378,144.612L409.726,144.612C406.229,144.612 403.352,147.49 403.352,150.986L403.352,220.049C403.352,223.546 406.229,226.423 409.726,226.423L477.378,226.423C480.875,226.423 483.752,223.546 483.752,220.049L483.752,150.986C483.752,147.49 480.875,144.612 477.378,144.612L477.378,144.612Z" style="fill:rgb(204,204,204);fill-rule:nonzero;"/>
    </g>
    <g transform="matrix(1,0,0,1,-172.291,-144.612)">
        <path d="M466.826,165.953L421.689,165.953C421.686,165.953 421.682,165.953 421.679,165.953C420.805,165.953 420.086,165.234 420.086,164.359C420.086,163.485 420.805,162.766 421.679,162.766C421.682,162.766 421.686,162.766 421.689,162.766L466.826,162.766C467.696,162.771 468.41,163.489 468.41,164.359C468.41,165.23 467.696,165.948 466.826,165.953Z" style="fill:rgb(221,43,70);fill-rule:nonzero;"/>
    </g>
    <g transform="matrix(1,0,0,1,-172.291,-144.612)">
        <path d="M466.826,177.238L421.689,177.238C421.686,177.238 421.682,177.238 421.679,177.238C420.805,177.238 420.086,176.518 420.086,175.644C420.086,174.77 420.805,174.051 421.679,174.051C421.682,174.051 421.686,174.051 421.689,174.051L466.826,174.051C467.696,174.056 468.41,174.774 468.41,175.644C468.41,176.515 467.696,177.232 466.826,177.238Z" style="fill:rgb(221,43,70);fill-rule:nonzero;"/>
    </g>
    <g transform="matrix(1,0,0,1,-172.291,-144.612)">
        <path d="M466.826,188.521L421.689,188.521C421.686,188.521 421.682,188.521 421.679,188.521C420.805,188.521 420.086,187.802 420.086,186.928C420.086,186.054 420.805,185.334 421.679,185.334C421.682,185.334 421.686,185.334 421.689,185.334L466.826,185.334C467.696,185.34 468.41,186.057 468.41,186.928C468.41,187.798 467.696,188.516 466.826,188.521Z" style="fill:rgb(221,43,70);fill-rule:nonzero;"/>
    </g>
    <g transform="matrix(1,0,0,1,-172.291,-144.612)">
        <path d="M466.826,199.806L421.689,199.806C421.686,199.806 421.682,199.806 421.679,199.806C420.805,199.806 420.086,199.087 420.086,198.213C420.086,197.338 420.805,196.619 421.679,196.619C421.682,196.619 421.686,196.619 421.689,196.619L466.826,196.619C467.696,196.624 468.41,197.342 468.41,198.213C468.41,199.083 467.696,199.801 466.826,199.806Z" style="fill:rgb(221,43,70);fill-rule:nonzero;"/>
    </g>
    <g transform="matrix(1,0,0,1,-172.291,-144.612)">
        <path d="M466.826,211.091L421.689,211.091C420.815,211.091 420.095,210.371 420.095,209.497C420.095,208.623 420.815,207.904 421.689,207.904L466.826,207.904C467.7,207.904 468.419,208.623 468.419,209.497C468.419,210.371 467.7,211.091 466.826,211.091Z" style="fill:rgb(221,43,70);fill-rule:nonzero;"/>
    </g>
    <g transform="matrix(0.988216,-0.153068,0.153068,0.988216,-212.627,-48.6076)">
        <path d="M707.317,280.591C709.065,280.593 710.502,282.03 710.504,283.778L710.504,352.84C710.502,354.588 709.065,356.025 707.317,356.027L639.665,356.027C637.917,356.025 636.48,354.588 636.478,352.84L636.478,283.778C636.48,282.03 637.917,280.593 639.665,280.591L707.317,280.591M707.317,277.404L639.665,277.404C636.168,277.404 633.291,280.281 633.291,283.778L633.291,352.84C633.291,356.337 636.168,359.215 639.665,359.215L707.317,359.215C710.814,359.215 713.691,356.337 713.691,352.84L713.691,283.778C713.691,280.281 710.814,277.404 707.317,277.404L707.317,277.404Z" style="fill:rgb(221,43,70);fill-rule:nonzero;"/>
    </g>
    <g transform="matrix(0.988216,-0.153068,0.153068,0.988216,-212.627,-48.6076)">
        <path d="M696.765,298.744L651.628,298.744C651.625,298.744 651.621,298.744 651.618,298.744C650.744,298.744 650.025,298.025 650.025,297.151C650.025,296.277 650.744,295.557 651.618,295.557C651.621,295.557 651.625,295.557 651.628,295.557L696.765,295.557C697.635,295.563 698.349,296.28 698.349,297.151C698.349,298.021 697.635,298.739 696.765,298.744Z" style="fill:rgb(221,43,70);fill-rule:nonzero;"/>
    </g>
    <g transform="matrix(0.988216,-0.153068,0.153068,0.988216,-212.627,-48.6076)">
        <path d="M696.765,310.029L651.628,310.029C650.754,310.029 650.034,309.31 650.034,308.435C650.034,307.561 650.754,306.842 651.628,306.842L696.765,306.842C697.639,306.842 698.358,307.561 698.358,308.435C698.358,309.31 697.639,310.029 696.765,310.029Z" style="fill:rgb(221,43,70);fill-rule:nonzero;"/>
    </g>
    <g transform="matrix(0.988216,-0.153068,0.153068,0.988216,-212.627,-48.6076)">
        <path d="M696.765,321.313L651.628,321.313C651.625,321.313 651.623,321.313 651.62,321.313C650.746,321.313 650.026,320.593 650.026,319.719C650.026,318.845 650.746,318.126 651.62,318.126C651.623,318.126 651.625,318.126 651.628,318.126L696.765,318.126C697.635,318.131 698.349,318.849 698.349,319.719C698.349,320.59 697.635,321.307 696.765,321.313Z" style="fill:rgb(221,43,70);fill-rule:nonzero;"/>
    </g>
    <g transform="matrix(0.988216,-0.153068,0.153068,0.988216,-212.627,-48.6076)">
        <path d="M696.765,332.597L651.628,332.597C651.625,332.597 651.621,332.597 651.618,332.597C650.744,332.597 650.025,331.878 650.025,331.004C650.025,330.13 650.744,329.41 651.618,329.41C651.621,329.41 651.625,329.41 651.628,329.41L696.765,329.41C697.635,329.416 698.349,330.133 698.349,331.004C698.349,331.874 697.635,332.592 696.765,332.597Z" style="fill:rgb(221,43,70);fill-rule:nonzero;"/>
    </g>
    <g transform="matrix(0.988216,-0.153068,0.153068,0.988216,-212.627,-48.6076)">
        <path d="M696.765,343.882L651.628,343.882C651.625,343.882 651.621,343.882 651.618,343.882C650.744,343.882 650.025,343.163 650.025,342.289C650.025,341.414 650.744,340.695 651.618,340.695C651.621,340.695 651.625,340.695 651.628,340.695L696.765,340.695C697.635,340.7 698.349,341.418 698.349,342.289C698.349,343.159 697.635,343.877 696.765,343.882Z" style="fill:rgb(221,43,70);fill-rule:nonzero;"/>
    </g>
    <g transform="matrix(1,0,0,1,-172.291,-144.612)">
        <path d="M362.733,226.423L293.309,226.423C289.426,226.419 286.233,223.225 286.228,219.342L286.228,169.665C286.232,165.782 289.426,162.588 293.309,162.583L362.733,162.583C366.616,162.588 369.811,165.782 369.815,169.665L369.815,219.342C369.81,223.225 366.616,226.419 362.733,226.423ZM293.309,165.77C291.174,165.773 289.417,167.53 289.415,169.665L289.415,219.342C289.417,221.477 291.174,223.234 293.309,223.236L362.733,223.236C364.868,223.234 366.625,221.477 366.628,219.342L366.628,169.665C366.625,167.53 364.869,165.773 362.733,165.77L293.309,165.77Z" style="fill:rgb(204,204,204);fill-rule:nonzero;"/>
    </g>
    <g transform="matrix(1,0,0,1,-172.291,-144.612)">
        <path d="M350.59,184.812L305.453,184.812C304.583,184.807 303.869,184.089 303.869,183.219C303.869,182.348 304.583,181.631 305.453,181.625L350.59,181.625C350.593,181.625 350.597,181.625 350.6,181.625C351.474,181.625 352.193,182.345 352.193,183.219C352.193,184.093 351.474,184.812 350.6,184.812C350.597,184.812 350.593,184.812 350.59,184.812Z" style="fill:rgb(221,43,70);fill-rule:nonzero;"/>
    </g>
    <g transform="matrix(1,0,0,1,-172.291,-144.612)">
        <path d="M350.59,196.097L305.453,196.097C304.583,196.092 303.869,195.374 303.869,194.504C303.869,193.633 304.583,192.915 305.453,192.91L350.59,192.91C350.593,192.91 350.597,192.91 350.6,192.91C351.474,192.91 352.193,193.629 352.193,194.504C352.193,195.378 351.474,196.097 350.6,196.097C350.597,196.097 350.593,196.097 350.59,196.097Z" style="fill:rgb(221,43,70);fill-rule:nonzero;"/>
    </g>
    <g transform="matrix(1,0,0,1,-172.291,-144.612)">
        <path d="M350.59,207.381L305.453,207.381C304.583,207.376 303.869,206.658 303.869,205.787C303.869,204.917 304.583,204.199 305.453,204.194L350.59,204.194C350.593,204.194 350.597,204.194 350.6,204.194C351.474,204.194 352.193,204.913 352.193,205.787C352.193,206.662 351.474,207.381 350.6,207.381C350.597,207.381 350.593,207.381 350.59,207.381Z" style="fill:rgb(221,43,70);fill-rule:nonzero;"/>
    </g>
    <g transform="matrix(1,0,0,1,-172.291,-144.612)">
        <path d="M593.091,253.95L526.415,234.614C522.687,233.528 520.509,229.571 521.586,225.841L535.422,178.13C536.508,174.402 540.465,172.223 544.196,173.3L610.872,192.637C614.601,193.722 616.779,197.68 615.701,201.411L601.865,249.122C600.779,252.85 596.822,255.028 593.091,253.95ZM543.308,176.361C541.256,175.769 539.08,176.967 538.483,179.018L524.647,226.728C524.054,228.78 525.252,230.956 527.303,231.553L593.979,250.889C596.031,251.482 598.207,250.284 598.804,248.234L612.641,200.523C613.233,198.471 612.035,196.295 609.984,195.698L543.308,176.361Z" style="fill:rgb(221,43,70);fill-rule:nonzero;"/>
    </g>
    <g transform="matrix(1,0,0,1,-172.291,-144.612)">
        <path d="M593.018,210.604L549.668,198.032C548.99,197.834 548.521,197.209 548.521,196.503C548.521,195.629 549.24,194.909 550.114,194.909C550.264,194.909 550.412,194.93 550.555,194.971L593.906,207.543C594.585,207.74 595.056,208.367 595.056,209.074C595.056,209.948 594.336,210.667 593.462,210.667C593.312,210.667 593.163,210.646 593.018,210.604L593.018,210.604Z" style="fill:rgb(221,43,70);fill-rule:nonzero;"/>
    </g>
    <g transform="matrix(1,0,0,1,-172.291,-144.612)">
        <path d="M589.875,221.442L546.525,208.87C545.845,208.673 545.375,208.047 545.375,207.34C545.375,206.466 546.094,205.746 546.968,205.746C547.119,205.746 547.268,205.768 547.412,205.81L590.763,218.381C591.441,218.579 591.91,219.205 591.91,219.911C591.91,220.785 591.19,221.504 590.316,221.504C590.167,221.504 590.019,221.483 589.875,221.442L589.875,221.442Z" style="fill:rgb(221,43,70);fill-rule:nonzero;"/>
    </g>
    <g transform="matrix(1,0,0,1,-172.291,-144.612)">
        <path d="M586.732,232.28L543.382,219.708C542.704,219.51 542.235,218.884 542.235,218.178C542.235,217.304 542.954,216.585 543.829,216.585C543.978,216.585 544.126,216.606 544.269,216.647L587.62,229.219C588.299,229.416 588.77,230.042 588.77,230.749C588.77,231.623 588.05,232.343 587.176,232.343C587.026,232.343 586.877,232.321 586.732,232.28Z" style="fill:rgb(221,43,70);fill-rule:nonzero;"/>
    </g>
    <rect x="156.106" y="607.775" width="699.313" height="3" style="fill:rgb(230,230,230);"/>
    <path d="M562.14,603.085L448.421,603.085L452.276,552.973L558.285,552.973L562.14,603.085Z" style="fill:rgb(217,217,217);fill-rule:nonzero;"/>
    <rect x="442.639" y="597.303" width="127.21" height="11.565" style="fill:rgb(230,230,230);"/>
    <g transform="matrix(1,0,0,1,-172.291,-144.612)">
        <path d="M895.371,374.74L460.735,374.74C454.391,374.74 449.171,379.961 449.171,386.305L449.171,651.327L906.935,651.327L906.935,386.305C906.935,379.961 901.715,374.74 895.371,374.74Z" style="fill:rgb(63,61,86);fill-rule:nonzero;"/>
    </g>
    <g transform="matrix(1,0,0,1,-172.291,-144.612)">
        <path d="M449.171,651.327L449.171,694.694C449.171,701.038 454.391,706.258 460.735,706.258L895.371,706.258C901.715,706.258 906.935,701.038 906.935,694.694L906.935,651.327L449.171,651.327Z" style="fill:rgb(230,230,230);fill-rule:nonzero;"/>
    </g>
    <rect x="300.009" y="254.221" width="412.47" height="231.292" style="fill:rgb(230,230,230);"/>
    <circle cx="506.244" cy="533.698" r="11.565" style="fill:rgb(63,61,86);"/>
    <circle cx="312.87" cy="261.795" r="2.195" style="fill:white;"/>
    <circle cx="321.2" cy="261.795" r="2.195" style="fill:white;"/>
    <circle cx="329.531" cy="261.795" r="2.195" style="fill:white;"/>
    <rect x="310.675" y="269.253" width="389.916" height="194.247" style="fill:white;"/>
    <g transform="matrix(1,0,0,1,-172.291,-144.612)">
        <path d="M508.885,443.411C508.129,443.412 507.507,444.034 507.507,444.79L507.507,514.465C507.507,515.221 508.129,515.843 508.885,515.844L589.349,515.844C590.105,515.843 590.727,515.221 590.728,514.465L590.728,444.79C590.727,444.034 590.105,443.412 589.349,443.411L508.885,443.411Z" style="fill:rgb(230,230,230);fill-rule:nonzero;"/>
    </g>
    <g transform="matrix(1,0,0,1,-172.291,-144.612)">
        <path d="M638.081,443.635C637.325,443.636 636.703,444.258 636.702,445.014L636.702,514.465C636.703,515.221 637.325,515.843 638.081,515.844L718.289,515.844C719.044,515.843 719.666,515.221 719.667,514.465L719.667,445.014C719.666,444.258 719.044,443.636 718.289,443.635L638.081,443.635Z" style="fill:rgb(61,131,246);fill-rule:nonzero;"/>
    </g>
    <g transform="matrix(1,0,0,1,-172.291,-144.612)">
        <path d="M765.922,442.907C765.166,442.908 764.544,443.53 764.544,444.286L764.544,514.465C764.544,515.221 765.166,515.843 765.922,515.844L846.964,515.844C847.719,515.843 848.341,515.221 848.341,514.465L848.342,444.286C848.341,443.53 847.719,442.908 846.964,442.907L765.922,442.907Z" style="fill:rgb(230,230,230);fill-rule:nonzero;"/>
    </g>
    <g transform="matrix(1,0,0,1,-172.291,-144.612)">
        <path d="M510.356,550.333C508.795,550.336 507.512,551.621 507.512,553.183C507.512,554.744 508.795,556.03 510.356,556.033L586.008,556.033C587.57,556.03 588.853,554.744 588.853,553.183C588.853,551.621 587.57,550.336 586.008,550.333L510.356,550.333Z" style="fill:rgb(230,230,230);fill-rule:nonzero;"/>
    </g>
    <g transform="matrix(1,0,0,1,-172.291,-144.612)">
        <path d="M510.356,563.889C508.795,563.892 507.511,565.177 507.511,566.739C507.511,568.3 508.795,569.586 510.356,569.589L544.418,569.589C545.98,569.586 547.263,568.3 547.263,566.739C547.263,565.177 545.98,563.892 544.418,563.889L510.356,563.889Z" style="fill:rgb(61,131,246);fill-rule:nonzero;"/>
    </g>
    <g transform="matrix(1,0,0,1,-172.291,-144.612)">
        <path d="M640.94,550.333C639.379,550.336 638.096,551.621 638.096,553.183C638.096,554.744 639.379,556.03 640.94,556.033L716.592,556.033C718.154,556.03 719.437,554.744 719.437,553.183C719.437,551.621 718.154,550.336 716.592,550.333L640.94,550.333Z" style="fill:rgb(230,230,230);fill-rule:nonzero;"/>
    </g>
    <g transform="matrix(1,0,0,1,-172.291,-144.612)">
        <path d="M640.94,563.889C639.379,563.892 638.095,565.177 638.095,566.739C638.095,568.3 639.379,569.586 640.94,569.589L675.003,569.589C676.564,569.586 677.847,568.3 677.847,566.739C677.847,565.177 676.564,563.892 675.003,563.889L640.94,563.889Z" style="fill:rgb(61,131,246);fill-rule:nonzero;"/>
    </g>
    <g transform="matrix(1,0,0,1,-172.291,-144.612)">
        <path d="M768.26,550.333C766.699,550.336 765.416,551.621 765.416,553.183C765.416,554.744 766.699,556.03 768.26,556.033L843.913,556.033C845.474,556.03 846.757,554.744 846.757,553.183C846.757,551.621 845.474,550.336 843.913,550.333L768.26,550.333Z" style="fill:rgb(230,230,230);fill-rule:nonzero;"/>
    </g>
    <g transform="matrix(1,0,0,1,-172.291,-144.612)">
        <path d="M510.356,536.333C508.795,536.336 507.512,537.621 507.512,539.183C507.512,540.744 508.795,542.03 510.356,542.033L586.008,542.033C587.57,542.03 588.853,540.744 588.853,539.183C588.853,537.621 587.57,536.336 586.008,536.333L510.356,536.333Z" style="fill:rgb(230,230,230);fill-rule:nonzero;"/>
    </g>
    <g transform="matrix(1,0,0,1,-172.291,-144.612)">
        <path d="M640.94,536.333C639.379,536.336 638.096,537.621 638.096,539.183C638.096,540.744 639.379,542.03 640.94,542.033L716.592,542.033C718.154,542.03 719.437,540.744 719.437,539.183C719.437,537.621 718.154,536.336 716.592,536.333L640.94,536.333Z" style="fill:rgb(230,230,230);fill-rule:nonzero;"/>
    </g>
    <g transform="matrix(1,0,0,1,-172.291,-144.612)">
        <path d="M768.26,536.333C766.699,536.336 765.416,537.621 765.416,539.183C765.416,540.744 766.699,542.03 768.26,542.033L843.913,542.033C845.474,542.03 846.757,540.744 846.757,539.183C846.757,537.621 845.474,536.336 843.913,536.333L768.26,536.333Z" style="fill:rgb(230,230,230);fill-rule:nonzero;"/>
    </g>
    <g transform="matrix(1,0,0,1,-172.291,-144.612)">
        <path d="M768.26,563.889C766.699,563.892 765.416,565.177 765.416,566.739C765.416,568.3 766.699,569.586 768.26,569.589L802.322,569.589C803.883,569.586 805.167,568.3 805.167,566.739C805.167,565.177 803.883,563.892 802.322,563.889L768.26,563.889Z" style="fill:rgb(61,131,246);fill-rule:nonzero;"/>
    </g>
</svg>
