<?xml version="1.0" encoding="UTF-8" standalone="no"?><!DOCTYPE svg PUBLIC "-//W3C//DTD SVG 1.1//EN" "http://www.w3.org/Graphics/SVG/1.1/DTD/svg11.dtd"><svg width="100%" height="100%" viewBox="0 0 367 248" version="1.1" xmlns="http://www.w3.org/2000/svg" xmlns:xlink="http://www.w3.org/1999/xlink" xml:space="preserve" xmlns:serif="http://www.serif.com/" style="fill-rule:evenodd;clip-rule:evenodd;stroke-linejoin:round;stroke-miterlimit:2;"><g id="Group_1949"><g id="Group_1701"><path id="Path_2578" d="M318.832,247.454c-16.738,-12.717 -45.365,-44.273 -7.667,-93.81c46.618,-61.258 -9.212,-86.39 -62.725,-83.767c-43.053,2.11 -91.5,-52.015 -139.838,-42.341c-64.153,12.84 -22.5,68.085 -66,97.849c-37.1,25.384 -21.17,102.728 27.11,122.068l249.12,0.001Z" style="fill:#f2f2f2;fill-rule:nonzero;"/><path id="Path_2579" d="M349.042,135.119c-0.258,-9.084 -8.72,-12.607 -14.368,-6.031c-4.007,4.588 -6.429,10.348 -6.907,16.421c-1.294,16.2 12.875,11.5 18.17,2.831c2.246,-4.031 3.322,-8.611 3.105,-13.221Z" style="fill:#f2f2f2;fill-rule:nonzero;"/><path id="Path_2580" d="M218.57,21.576c-8.929,-1.69 -14.18,5.823 -8.963,12.747c3.626,4.895 8.735,8.493 14.565,10.258c15.545,4.726 13.989,-10.119 6.65,-17.145c-3.458,-3.056 -7.703,-5.086 -12.252,-5.86Z" style="fill:#f2f2f2;fill-rule:nonzero;"/><path id="Path_2581" d="M37.342,110.84c3.573,-8.356 -2.634,-15.1 -10.518,-11.5c-5.561,2.488 -10.175,6.702 -13.154,12.016c-7.962,14.163 6.87,15.84 15.311,10.186c3.729,-2.718 6.626,-6.425 8.361,-10.702Z" style="fill:#f2f2f2;fill-rule:nonzero;"/></g></g><g id="Group_1706"><g id="Group_1703"><path id="Path_2582" d="M350.73,158.567c-7.849,7.847 0.906,8.512 -4.853,14.439c-5.25,5.4 -13,0.144 -12.481,13.336c0.113,2.886 -1.987,5.027 -4.934,6.124c-4.414,1.68 -9.437,0.403 -12.513,-3.181c-0.238,-0.267 -0.463,-0.547 -0.675,-0.838c-2.393,-3.224 -2.919,-7.48 -1.383,-11.19c1.333,-3.3 3.694,-6.542 7.877,-7.835c9.815,-3.033 4.367,-16.032 12.663,-16.6c10,-0.689 10.363,-4.358 17.463,-9.3c7.526,-5.252 9.475,4.415 -1.164,15.045Z" style="fill:#f05572;fill-rule:nonzero;"/><g id="Group_1702"><path id="Path_2583" d="M347.211,154.279c-0.219,0.226 -18.42,18.992 -31.262,35c-0.237,-0.267 -0.462,-0.546 -0.675,-0.838c12.877,-16.022 30.964,-34.673 31.185,-34.9c0.099,-0.109 0.24,-0.171 0.388,-0.171c0.288,-0 0.525,0.237 0.525,0.525c-0,0.142 -0.058,0.279 -0.161,0.378l0,0.006Z" style="fill:#dd2b46;fill-rule:nonzero;"/></g></g><g id="Group_1705"><path id="Path_2584" d="M352.745,184.762c-12.3,7.24 -1.613,10.887 -10.69,16.41c-8.275,5.032 -16.225,-4.006 -19.832,12.581c-0.789,3.629 -4.093,5.617 -8.113,6.034c-6.036,0.669 -11.877,-2.538 -14.552,-7.99c-0.209,-0.409 -0.4,-0.831 -0.57,-1.26c-1.941,-4.784 -1.225,-10.252 1.883,-14.375c2.721,-3.675 6.7,-6.953 12.328,-7.215c13.193,-0.616 10.6,-18.55 21.108,-16.589c12.674,2.365 14.3,-2.087 24.733,-5.958c11.057,-4.103 10.372,8.552 -6.295,18.362Z" style="fill:#dd2b46;fill-rule:nonzero;"/><g id="Group_1704"><path id="Path_2585" d="M349.745,178.292c-0.346,0.21 -29.045,17.708 -50.187,33.505c-0.209,-0.409 -0.4,-0.831 -0.57,-1.26c21.188,-15.8 49.709,-33.189 50.056,-33.4c0.108,-0.069 0.234,-0.105 0.362,-0.105c0.37,-0 0.675,0.304 0.675,0.675c-0,0.24 -0.129,0.463 -0.337,0.584l0.001,0.001Z" style="fill:#c11c3a;fill-rule:nonzero;"/></g></g></g><g id="Group_1711"><g id="Group_1708"><path id="Path_2586" d="M48.164,46.332c3.634,8.84 -3.545,6.464 -0.935,13.085c2.379,6.035 10.281,4.427 5.493,14.741c-1.047,2.256 -0.089,4.654 1.888,6.5c2.95,2.8 7.366,3.452 11,1.625c0.277,-0.133 0.55,-0.281 0.815,-0.442c2.971,-1.768 4.802,-4.976 4.813,-8.433c0.213,-3.352 -1.139,-6.62 -3.659,-8.841c-6.793,-5.667 1.85,-14.189 -4.553,-17.4c-7.722,-3.867 -6.789,-6.9 -10.79,-13.189c-4.241,-6.659 -8.998,0.373 -4.072,12.354Z" style="fill:#dd2b46;fill-rule:nonzero;"/><g id="Group_1707"><path id="Path_2587" d="M52.383,44.092c0.1,0.253 8.336,21.206 13.226,38.193c0.277,-0.133 0.55,-0.281 0.815,-0.442c-4.916,-17.006 -13.1,-37.83 -13.2,-38.083c-0.068,-0.172 -0.235,-0.286 -0.42,-0.286c-0.249,-0 -0.453,0.204 -0.453,0.452c0,0.057 0.011,0.113 0.032,0.166Z" style="fill:#c11c3a;fill-rule:nonzero;"/></g></g><g id="Group_1710"><path id="Path_2588" d="M37.815,69.425c7.664,9.607 -2.053,9.253 3.549,16.488c5.107,6.595 14.283,1.77 12.079,16.223c-0.482,3.161 1.563,5.778 4.669,7.35c4.65,2.395 10.336,1.611 14.164,-1.952c0.295,-0.265 0.578,-0.545 0.847,-0.839c3.033,-3.25 4.14,-7.869 2.91,-12.141c-1.058,-3.793 -3.253,-7.656 -7.7,-9.6c-10.423,-4.555 -2.816,-18.182 -11.873,-19.839c-10.922,-2 -10.862,-6.08 -18.06,-12.4c-7.628,-6.701 -10.97,3.69 -0.585,16.71Z" style="fill:#f05572;fill-rule:nonzero;"/><g id="Group_1709"><path id="Path_2589" d="M42.219,65.144c0.213,0.276 17.913,23.182 30.057,42.394c0.295,-0.265 0.578,-0.545 0.847,-0.839c-12.181,-19.226 -29.77,-41.992 -29.984,-42.268c-0.11,-0.142 -0.28,-0.225 -0.46,-0.225c-0.318,-0 -0.581,0.262 -0.581,0.581c0,0.129 0.043,0.254 0.122,0.356l-0.001,0.001Z" style="fill:#dd2b46;fill-rule:nonzero;"/></g></g></g><path id="Path_2591" d="M60.296,180.009c-2.835,1.784 -1.3,9.991 2.459,15.567l-6.981,-6.523c-0.691,-2.355 -0.936,-4.818 -0.722,-7.262c0.358,-5.234 -0.191,-10.873 -3.032,-9.086c-2.662,1.675 -1.474,9.011 1.795,14.516l-8.961,-8.377c-0.316,-1.329 -0.42,-2.7 -0.309,-4.061c0.225,-3.3 -0.121,-6.852 -1.911,-5.726c-1.553,0.978 -1.027,5.015 0.7,8.362l-2.9,-2.715c-1.046,-1.289 -1.918,-2.711 -2.592,-4.229c-1.752,-4.219 -4.189,-7.89 -5.653,-5.857c-1.464,2.033 2.846,8.275 7.931,11.166l1.494,1.4c-3.669,-2.171 -8.972,-2.812 -9.982,-0.938c-1.01,1.874 2.566,1.968 5.842,1.521c1.684,-0.276 3.409,-0.184 5.054,0.271l7.059,6.6c-5.82,-3.422 -14.192,-4.424 -15.789,-1.46c-1.597,2.964 4.072,3.122 9.27,2.413c2.663,-0.435 5.389,-0.291 7.991,0.422l8.465,7.912c-5.8,-3.266 -14.117,-4.287 -15.454,-1.266c-1.031,2.329 2.579,3.043 8.446,2.27c2.899,-0.405 5.85,-0.217 8.673,0.554l3.987,3.727c0.297,-0.169 0.536,-0.425 0.685,-0.733l-1.587,-1.483c-0.871,-2.535 -1.191,-5.227 -0.94,-7.895c0.351,-5.238 -0.197,-10.874 -3.038,-9.09Z" style="fill:#dd2b46;fill-rule:nonzero;"/><g id="Group_1989"><g id="Group_1968"><g id="Group_1961"><g id="Group_1960"><path id="Rectangle_442" d="M317.614,89.132c0,-8.04 -6.527,-14.567 -14.567,-14.567l-228.856,0c-8.04,0 -14.567,6.527 -14.567,14.567l-0,141.473c-0,8.04 6.527,14.567 14.567,14.567l228.856,-0c8.04,-0 14.567,-6.527 14.567,-14.567l0,-141.473Z" style="fill:#333;"/></g></g><g id="Group_1963"><g id="Group_1962"><path id="Rectangle_443" d="M48.835,232.553l279.513,0c-0,8.189 -6.739,14.928 -14.928,14.928l-249.657,0c-8.189,0 -14.928,-6.739 -14.928,-14.928Z" style="fill:#262626;fill-rule:nonzero;"/></g></g><g id="Group_1965"><g id="Group_1964"><rect id="Rectangle_444" x="66.549" y="81.343" width="243.419" height="144.075" style="fill:#4d4d4d;"/></g></g><g id="Group_1967"><g id="Group_1966"><path id="Path_2864" d="M163.186,232.553l3.469,5.517l48.807,0l3.221,-5.517l-55.497,0Z" style="fill:#404040;fill-rule:nonzero;"/></g></g></g><g id="Group_1986"><g id="Group_1985"><g id="Group_1984"><g id="Group_1971"><g id="Group_1970"><g id="Group_1969"><path id="Rectangle_445" d="M74.835,86.221l227.347,0c1.796,0 3.273,1.477 3.273,3.273l-0,132.19c-0,1.796 -1.477,3.273 -3.273,3.273l-227.347,0c-1.795,0 -3.272,-1.477 -3.272,-3.272l0,-132.192c0,-1.795 1.477,-3.272 3.272,-3.272Z" style="fill:#ebebeb;fill-rule:nonzero;"/></g></g></g><g id="Group_1974"><g id="Group_1973"><g id="Group_1972"><rect id="Rectangle_446" x="71.563" y="96.386" width="233.892" height="128.571" style="fill:#fafafa;"/></g></g></g><g id="Group_1977"><g id="Group_1976"><g id="Group_1975"><path id="Path_2865" d="M90.746,91.578c0,0 0,0.001 0,0.001c0,1.025 -0.843,1.868 -1.868,1.868c-1.025,0 -1.868,-0.843 -1.868,-1.868c0,-1.025 0.843,-1.868 1.868,-1.868c1.024,-0 1.867,0.843 1.868,1.867Z" style="fill:#263238;fill-rule:nonzero;"/></g></g></g><g id="Group_1980"><g id="Group_1979"><g id="Group_1978"><path id="Path_2866" d="M79.425,91.578c0,0 0,0.001 0,0.001c0,1.025 -0.843,1.868 -1.868,1.868c-1.025,0 -1.868,-0.843 -1.868,-1.868c0,-1.025 0.843,-1.868 1.868,-1.868c1.024,-0 1.867,0.843 1.868,1.867Z" style="fill:#263238;fill-rule:nonzero;"/></g></g></g><g id="Group_1983"><g id="Group_1982"><g id="Group_1981"><path id="Path_2867" d="M84.859,91.578c0,0 0,0.001 0,0.001c0,1.025 -0.843,1.868 -1.868,1.868c-1.025,0 -1.868,-0.843 -1.868,-1.868c0,-1.025 0.843,-1.868 1.868,-1.868c1.024,-0 1.867,0.843 1.868,1.867Z" style="fill:#263238;fill-rule:nonzero;"/></g></g></g></g></g></g><g id="Group_1988"><g id="Group_1987"><path id="Path_2868" d="M315.398,232.553c0,0.092 -57.262,0.167 -127.881,0.167c-70.644,-0 -127.893,-0.075 -127.893,-0.167c0,-0.092 57.249,-0.167 127.893,-0.167c70.619,0 127.881,0.074 127.881,0.167Z" style="fill:#455a64;fill-rule:nonzero;"/></g></g></g><g id="Group_2213"><g id="Group_2101"><g id="Group_2072"><rect id="Rectangle_452" x="118.914" y="112.663" width="131.124" height="102.031" style="fill:#fff;"/><g id="Group_2071"><g id="Group_2070"><path id="Path_2899" d="M250.038,214.694c-0,-0.764 -0.036,-40.44 -0.092,-102.031l0.092,0.092l-131.113,0.019l-0.011,-0l0.111,-0.111c-0,36.777 -0.008,71.563 -0.011,102.031l-0.1,-0.1l131.124,0.1l-131.124,0.1l-0.1,-0l-0,-0.1c-0,-30.468 -0.007,-65.254 -0.012,-102.031l-0,-0.111l0.122,-0l131.113,0.019l0.092,-0l-0,0.092c-0.055,61.59 -0.09,101.268 -0.091,102.031Z" style="fill:#263238;fill-rule:nonzero;"/></g></g></g><g id="Group_2100"><g id="Group_2074"><g id="Group_2073"><path id="Path_2900" d="M154.969,206.125c-0.061,0 -0.111,-11.091 -0.111,-24.77c0,-13.679 0.05,-24.772 0.111,-24.772c0.061,0 0.111,11.089 0.111,24.772c0,13.683 -0.05,24.77 -0.111,24.77Z" style="fill:#263238;fill-rule:nonzero;"/></g></g><g id="Group_2076"><g id="Group_2075"><path id="Path_2901" d="M211.874,206.125c-0.061,0 -0.111,-11.091 -0.111,-24.77c-0,-13.679 0.049,-24.772 0.111,-24.772c0.062,0 0.111,11.089 0.111,24.772c-0,13.683 -0.05,24.77 -0.111,24.77Z" style="fill:#263238;fill-rule:nonzero;"/></g></g><g id="Group_2078"><g id="Group_2077"><path id="Path_2902" d="M174.391,206.125c-0.061,-0 -0.111,-14.179 -0.111,-31.666c-0,-17.487 0.05,-31.668 0.111,-31.668c0.061,-0 0.111,14.176 0.111,31.668c-0,17.492 -0.045,31.666 -0.111,31.666Z" style="fill:#263238;fill-rule:nonzero;"/></g></g><g id="Group_2080"><g id="Group_2079"><path id="Path_2903" d="M135.021,206.125c-0.061,-0 -0.111,-14.179 -0.111,-31.666c0,-17.487 0.05,-31.668 0.111,-31.668c0.061,-0 0.111,14.176 0.111,31.668c0,17.492 -0.054,31.666 -0.111,31.666Z" style="fill:#263238;fill-rule:nonzero;"/></g></g><g id="Group_2082"><g id="Group_2081"><path id="Path_2904" d="M234.209,206.125c-0.061,-0 -0.111,-14.179 -0.111,-31.666c-0,-17.487 0.05,-31.668 0.111,-31.668c0.061,-0 0.111,14.176 0.111,31.668c-0,17.492 -0.05,31.666 -0.111,31.666Z" style="fill:#263238;fill-rule:nonzero;"/></g></g><g id="Group_2084"><g id="Group_2083"><path id="Path_2905" d="M191.432,206.125c-0.061,0 -0.111,-16.371 -0.111,-36.562c0,-20.191 0.05,-36.566 0.111,-36.566c0.061,0 0.111,16.368 0.111,36.566c0,20.198 -0.049,36.562 -0.111,36.562Z" style="fill:#263238;fill-rule:nonzero;"/></g></g><g id="Group_2085"><path id="Path_2906" d="M155.433,156.584c0,0.255 -0.21,0.465 -0.465,0.465c-0.255,0 -0.465,-0.21 -0.465,-0.465c0,-0.255 0.21,-0.465 0.465,-0.465c0.255,0 0.465,0.21 0.465,0.465Z" style="fill:#263238;fill-rule:nonzero;"/></g><g id="Group_2086"><circle id="Ellipse_67" cx="174.396" cy="142.792" r="0.465" style="fill:#263238;"/></g><g id="Group_2087"><path id="Path_2907" d="M174.396,144.421c-0.894,0 -1.63,-0.736 -1.63,-1.63c-0,-0.894 0.736,-1.63 1.63,-1.63c0.894,0 1.63,0.736 1.63,1.63c-0.001,0.894 -0.736,1.629 -1.63,1.63Zm-0,-3.153c-0.835,0 -1.523,0.688 -1.523,1.523c-0,0.835 0.688,1.523 1.523,1.523c0.835,0 1.523,-0.688 1.523,-1.523c-0.001,-0.835 -0.688,-1.522 -1.523,-1.523Z" style="fill:#263238;fill-rule:nonzero;"/></g><g id="Group_2088"><circle id="Ellipse_68" cx="191.432" cy="132.998" r="0.465" style="fill:#263238;"/></g><g id="Group_2089"><circle id="Ellipse_69" cx="211.874" cy="157.049" r="0.465" style="fill:#263238;"/></g><g id="Group_2090"><circle id="Ellipse_70" cx="234.221" cy="142.792" r="0.465" style="fill:#263238;"/></g><g id="Group_2091"><path id="Path_2908" d="M135.482,143.256c-0,0.255 -0.21,0.465 -0.465,0.465c-0.255,-0 -0.465,-0.21 -0.465,-0.465c0,-0.255 0.21,-0.465 0.465,-0.465c0,-0 0.001,-0 0.001,0c0.255,0.001 0.464,0.21 0.464,0.465Z" style="fill:#263238;fill-rule:nonzero;"/></g><g id="Group_2094"><rect id="Rectangle_453" x="134.552" y="124.116" width="22.863" height="1.272" style="fill:#263238;"/></g><g id="Group_2095"><rect id="Rectangle_454" x="134.552" y="127.093" width="11.298" height="1.272" style="fill:#263238;"/></g><g id="Group_2096"><path id="Rectangle_455" d="M123.264,104.339l122.268,0c2.472,0 4.506,2.034 4.506,4.506l0,3.818l-131.28,0l0,-3.818c0,-2.472 2.034,-4.506 4.506,-4.506Z" style="fill:#263238;fill-rule:nonzero;"/></g><g id="Group_2097"><path id="Path_2910" d="M125.561,108.661c0,0.494 -0.406,0.9 -0.9,0.9c-0.494,0 -0.9,-0.406 -0.9,-0.9c0,-0.494 0.406,-0.9 0.9,-0.9c0.494,0 0.9,0.406 0.9,0.9Z" style="fill:#fff;fill-rule:nonzero;"/></g><g id="Group_2098"><path id="Path_2911" d="M129.471,108.661c0,0.494 -0.406,0.9 -0.9,0.9c-0.494,0 -0.9,-0.406 -0.9,-0.9c0,-0.494 0.406,-0.9 0.9,-0.9c0.494,0 0.9,0.406 0.9,0.9Z" style="fill:#fff;fill-rule:nonzero;"/></g><g id="Group_2099"><path id="Path_2912" d="M133.378,108.661c0,0.494 -0.406,0.9 -0.9,0.9c-0.494,0 -0.9,-0.406 -0.9,-0.9c0,-0.494 0.406,-0.9 0.9,-0.9c0.494,0 0.9,0.406 0.9,0.9Z" style="fill:#fff;fill-rule:nonzero;"/></g></g></g><g id="Group_2110"><g id="Group_2102"><path id="Rectangle_456" d="M72.826,149.448c-0,-1.783 -1.447,-3.23 -3.23,-3.23l-66.366,-0c-1.783,-0 -3.23,1.447 -3.23,3.23l-0,13.959c-0,1.783 1.447,3.23 3.23,3.23l66.366,0c1.783,0 3.23,-1.447 3.23,-3.23l-0,-13.959Z" style="fill:#e6e6e6;"/></g><g id="Group_2103"><path id="Path_2913" d="M15.35,159.832c-0.842,1.049 -2.116,1.661 -3.461,1.661c-2.434,-0 -4.437,-2.003 -4.437,-4.437c-0,-2.434 2.003,-4.437 4.437,-4.437c1.009,-0 1.988,0.344 2.775,0.975c1.05,0.842 1.662,2.116 1.662,3.462c-0,1.009 -0.345,1.989 -0.976,2.776Z" style="fill:#fff;fill-rule:nonzero;"/></g><g id="Group_2105"><g id="Group_2104"><path id="Path_2914" d="M14.383,155.55c-0.726,0.918 -1.529,1.771 -2.4,2.552l-0.586,0.565l-0.105,0.1l-0.1,-0.1c-0.662,-0.608 -1.265,-1.278 -1.8,-2c0.722,0.535 1.392,1.138 2,1.8l-0.205,0l0.58,-0.572c0.803,-0.855 1.679,-1.639 2.616,-2.345Z" style="fill:#263238;fill-rule:nonzero;"/></g></g><g id="Group_2107"><g id="Group_2106"><path id="Path_2915" d="M65.718,154.931c0,0.083 -9.258,0.151 -20.675,0.151c-11.417,-0 -20.676,-0.067 -20.676,-0.151c0,-0.084 9.255,-0.15 20.676,-0.15c11.421,-0 20.675,0.067 20.675,0.15Z" style="fill:#263238;fill-rule:nonzero;"/></g></g><g id="Group_2109"><g id="Group_2108"><path id="Path_2916" d="M48.758,158.969c0,0.083 -5.352,0.151 -11.952,0.151c-6.6,0 -11.954,-0.068 -11.954,-0.151c0,-0.083 5.351,-0.15 11.954,-0.15c6.603,0 11.952,0.067 11.952,0.15Z" style="fill:#263238;fill-rule:nonzero;"/></g></g></g><g id="Group_2120"><g id="Group_2111"><path id="Rectangle_457" d="M131.727,132.185c0,-1.444 -1.172,-2.616 -2.616,-2.616l-45.256,0c-1.444,0 -2.616,1.172 -2.616,2.616l0,15.735c0,1.444 1.172,2.616 2.616,2.616l45.256,-0c1.444,-0 2.616,-1.172 2.616,-2.616l0,-15.735Z" style="fill:#e0e0e0;"/></g><g id="Group_2115"><g id="Group_2112"><path id="Path_2917" d="M91.728,136.195c0,0 0,0.001 0,0.001c0,1.291 -1.063,2.354 -2.354,2.354c-1.291,-0 -2.354,-1.063 -2.354,-2.354c0,-1.291 1.063,-2.354 2.354,-2.354c1.291,-0 2.353,1.062 2.354,2.353Z" style="fill:#dd2b46;fill-rule:nonzero;"/></g><g id="Group_2113"><rect id="Rectangle_458" x="94.082" y="134.57" width="16.4" height="0.911" style="fill:#dd2b46;"/></g><g id="Group_2114"><rect id="Rectangle_459" x="94.082" y="136.639" width="31.903" height="0.911" style="fill:#fff;"/></g></g><g id="Group_2119"><g id="Group_2116"><path id="Path_2918" d="M91.728,143.431c0,0 0,0.001 0,0.001c0,1.291 -1.063,2.354 -2.354,2.354c-1.291,-0 -2.354,-1.063 -2.354,-2.354c0,-1.291 1.063,-2.354 2.354,-2.354c1.291,-0 2.353,1.062 2.354,2.353Z" style="fill:#dd2b46;fill-rule:nonzero;"/></g><g id="Group_2117"><rect id="Rectangle_460" x="94.082" y="141.806" width="8.375" height="0.91" style="fill:#dd2b46;"/></g><g id="Group_2118"><rect id="Rectangle_461" x="94.082" y="143.875" width="31.903" height="0.91" style="fill:#fff;"/></g></g></g><g id="Group_2212"><g id="Group_2111-2"><path id="Rectangle_457-2" d="M311.038,168.804c0,-1.444 -1.172,-2.616 -2.616,-2.616l-90.298,0c-1.444,0 -2.616,1.172 -2.616,2.616l0,34.441c0,1.444 1.172,2.616 2.616,2.616l90.298,-0c1.444,-0 2.616,-1.172 2.616,-2.616l0,-34.441Z" style="fill:#e0e0e0;"/></g><g id="Group_2115-2"><g id="Group_2112-2"><path id="Path_2917-2" d="M235.355,178.727c-0,2.443 -2.01,4.453 -4.453,4.453c-2.443,-0 -4.453,-2.01 -4.453,-4.453c0,-2.442 2.01,-4.452 4.452,-4.453c2.443,-0 4.453,2.01 4.454,4.453Z" style="fill:#dd2b46;fill-rule:nonzero;"/></g><g id="Group_2113-2"><rect id="Rectangle_458-2" x="239.808" y="175.651" width="31.031" height="1.723" style="fill:#dd2b46;"/></g><g id="Group_2114-2"><rect id="Rectangle_459-2" x="239.808" y="179.566" width="60.364" height="1.723" style="fill:#fff;"/></g></g><g id="Group_2119-2"><g id="Group_2116-2"><path id="Path_2918-2" d="M235.355,192.418c-0,2.443 -2.01,4.453 -4.453,4.453c-2.443,-0 -4.453,-2.01 -4.453,-4.453c0,-2.442 2.01,-4.452 4.452,-4.453c2.443,-0 4.453,2.01 4.454,4.453Z" style="fill:#dd2b46;fill-rule:nonzero;"/></g><g id="Group_2117-2"><rect id="Rectangle_460-2" x="239.808" y="189.342" width="15.846" height="1.723" style="fill:#dd2b46;"/></g><g id="Group_2118-2"><rect id="Rectangle_461-2" x="239.808" y="193.257" width="60.364" height="1.723" style="fill:#fff;"/></g></g></g><g id="Group_2121"><path id="Rectangle_462" d="M164.609,192.974c-0,-2.184 -1.774,-3.958 -3.958,-3.958l-89.593,0c-2.184,0 -3.958,1.774 -3.958,3.958l-0,33.531c-0,2.184 1.774,3.958 3.958,3.958l89.593,0c2.184,0 3.958,-1.774 3.958,-3.958l-0,-33.531Z" style="fill:#e0e0e0;"/></g><g id="Group_2131"><rect id="Rectangle_463" x="103.238" y="203.153" width="51.467" height="2.332" style="fill:#fff;"/></g><g id="Group_2132"><rect id="Rectangle_464" x="103.238" y="209.3" width="51.467" height="2.332" style="fill:#fff;"/></g><g id="Group_2133"><rect id="Rectangle_465" x="103.238" y="216.097" width="27.816" height="2.332" style="fill:#fff;"/></g><g id="Group_2208"><g id="Group_2200"><path id="Rectangle_501" d="M232.984,117.256l67.11,0c1.772,0 3.23,1.458 3.23,3.23l0,14.17c0,1.772 -1.458,3.23 -3.23,3.23l-67.109,0c-1.772,0 -3.23,-1.458 -3.231,-3.23l-0,-14.17c-0,-1.772 1.458,-3.23 3.23,-3.23Z" style="fill:#dd2b46;fill-rule:nonzero;"/></g><g id="Group_2201"><path id="Path_2935" d="M245.262,131.01c-0.85,1.061 -2.139,1.68 -3.498,1.68c-2.46,-0 -4.483,-2.024 -4.483,-4.483c-0,-2.46 2.023,-4.483 4.483,-4.483c1.019,-0 2.009,0.348 2.805,0.986c1.917,1.538 2.23,4.382 0.693,6.3Z" style="fill:#fff;fill-rule:nonzero;"/><path id="Path_2936" d="M241.756,132.706c-2.466,-0.004 -4.493,-2.034 -4.493,-4.5c0,-2.469 2.032,-4.5 4.5,-4.5c2.469,0 4.5,2.031 4.5,4.5c0,1.023 -0.349,2.017 -0.989,2.815c-0.856,1.065 -2.152,1.685 -3.518,1.685Zm0.017,-8.967c-0.003,-0 -0.006,-0 -0.009,-0c-2.45,-0 -4.467,2.016 -4.467,4.467c0,2.451 2.017,4.467 4.467,4.467c1.355,-0 2.638,-0.616 3.485,-1.672c0.635,-0.793 0.981,-1.778 0.981,-2.794c0,-2.447 -2.01,-4.462 -4.457,-4.468Z" style="fill:#263238;fill-rule:nonzero;"/></g><g id="Group_2203"><g id="Group_2202"><path id="Path_2937" d="M244.284,126.683c-0.721,0.938 -1.529,1.805 -2.414,2.59l-0.592,0.571l-0.117,0.113l-0.112,-0.114c-0.669,-0.614 -1.273,-1.296 -1.8,-2.035c0.739,0.527 1.421,1.131 2.034,1.8l-0.229,0l0.586,-0.578c0.806,-0.864 1.691,-1.649 2.644,-2.347Z" style="fill:#dd2b46;fill-rule:nonzero;"/></g></g><g id="Group_2205"><g id="Group_2204"><path id="Path_2938" d="M296.145,126.058c0,0.092 -9.352,0.168 -20.886,0.168c-11.534,0 -20.888,-0.076 -20.888,-0.168c0,-0.092 9.35,-0.168 20.888,-0.168c11.538,0 20.886,0.075 20.886,0.168Z" style="fill:#fff;fill-rule:nonzero;"/></g></g><g id="Group_2207"><g id="Group_2206"><path id="Path_2939" d="M279.011,130.138c-0,0.093 -5.407,0.168 -12.075,0.168c-6.668,0 -12.076,-0.075 -12.076,-0.168c-0,-0.093 5.406,-0.168 12.076,-0.168c6.67,0 12.075,0.074 12.075,0.168Z" style="fill:#fff;fill-rule:nonzero;"/></g></g></g><g id="Group_2211"><g id="Group_2209"><path id="Path_2913-2" d="M95.537,217.645c-2.333,2.909 -5.866,4.604 -9.595,4.604c-6.748,0 -12.3,-5.552 -12.3,-12.3c-0,-6.747 5.552,-12.3 12.3,-12.3c2.797,0 5.513,0.955 7.695,2.705c2.909,2.333 4.605,5.867 4.605,9.595c-0,2.798 -0.955,5.514 -2.705,7.696Z" style="fill:#dd2b46;fill-rule:nonzero;"/></g><g id="Group_2210"><g id="Group_2104-2"><path id="Path_2914-2" d="M92.856,205.774c0.162,0.165 -2.82,3.332 -6.656,7.073l-1.625,1.568l-0.291,0.281l-0.278,-0.285c-2.993,-3.053 -5.117,-5.413 -4.978,-5.55c0.139,-0.137 2.5,1.985 5.55,4.978l-0.569,-0l1.609,-1.585c3.837,-3.744 7.078,-6.644 7.238,-6.48Z" style="fill:#fff;fill-rule:nonzero;"/></g></g></g></g><g id="Group_2056"><g id="Group_2054"><g id="Group_2052"><path id="Path_2890" d="M214.513,112.871l-29.895,-0.807l-30.487,-0c-4.046,0.079 -7.311,3.472 -7.235,7.518l0,20.674c-0.1,14.322 3.316,28.451 9.949,41.145c5.632,10.57 14.353,21.453 27.777,28.37c12.341,-4.635 21.552,-16.994 27.184,-27.563c6.631,-12.694 10.047,-26.824 9.945,-41.145l-0,-20.674c0.076,-4.047 -3.191,-7.44 -7.238,-7.518Z" style="fill:#3b82f6;fill-rule:nonzero;"/></g><g id="Group_2053"><path id="Path_2891" d="M183.584,161.254l-11.062,-9.152l3.729,-4.507l6.669,5.517l10.91,-12.52l4.411,3.844l-14.657,16.818Z" style="fill:#fff;fill-rule:nonzero;"/></g></g><g id="Group_2055" opacity="0.3"><path id="Path_2892" d="M214.513,112.871l-29.895,-0.807l-30.487,-0c-4.046,0.079 -7.311,3.472 -7.235,7.518l0,20.674c-0.1,14.322 3.316,28.451 9.949,41.145c5.632,10.57 14.353,21.453 27.777,28.37c12.341,-4.635 21.552,-16.994 27.184,-27.563c6.631,-12.694 10.047,-26.824 9.945,-41.145l-0,-20.674c0.076,-4.047 -3.191,-7.44 -7.238,-7.518Zm-0.988,29.721c0.08,11.33 -2.622,22.509 -7.868,32.552c-4.456,8.362 -11.01,16.973 -21.631,22.446c-10.621,-5.473 -16.928,-14.084 -21.381,-22.446c-5.246,-10.043 -7.948,-21.222 -7.868,-32.552l-0,-16.361c-0.06,-3.201 2.523,-5.885 5.724,-5.948l47.3,-0c3.201,0.062 5.784,2.747 5.724,5.948l-0,16.361Z" style="fill-rule:nonzero;"/></g></g></svg>