<?xml version="1.0" encoding="UTF-8" standalone="no"?>
<!DOCTYPE svg PUBLIC "-//W3C//DTD SVG 1.1//EN" "http://www.w3.org/Graphics/SVG/1.1/DTD/svg11.dtd">
<svg width="100%" height="100%" viewBox="0 0 809 590" version="1.1" xmlns="http://www.w3.org/2000/svg" xmlns:xlink="http://www.w3.org/1999/xlink" xml:space="preserve" xmlns:serif="http://www.serif.com/" style="fill-rule:evenodd;clip-rule:evenodd;stroke-linejoin:round;stroke-miterlimit:2;">
    <g transform="matrix(1,0,0,1,-223.317,-125.217)">
        <path d="M1010.65,651.374C1007.94,630.896 995.071,610.799 975.468,604.283C983.343,625.316 983.525,648.472 975.981,669.626C973.041,677.775 968.923,686.533 971.814,694.701C973.612,699.782 977.944,703.647 982.771,706.047C987.598,708.446 992.943,709.566 998.221,710.663L999.265,711.512C1007.48,692.559 1013.36,671.853 1010.65,651.374Z" style="fill:rgb(240,240,240);fill-rule:nonzero;"/>
    </g>
    <g transform="matrix(1,0,0,1,-223.317,-125.217)">
        <path d="M975.277,604.672C986.761,617.336 993.966,633.304 995.863,650.294C996.336,653.945 996.231,657.648 995.551,661.266C994.775,664.769 993.075,668.001 990.628,670.625C988.395,673.117 985.823,675.408 984.235,678.4C982.638,681.52 982.448,685.179 983.713,688.448C985.168,692.517 987.999,695.821 990.879,698.956C994.078,702.437 997.455,706.002 998.839,710.639C999.007,711.201 999.869,710.907 999.701,710.346C997.293,702.279 989.407,697.748 985.605,690.494C983.832,687.109 983.067,683.17 984.676,679.569C986.084,676.421 988.734,674.056 991.017,671.552C993.441,669.027 995.211,665.947 996.172,662.581C997.033,659.009 997.281,655.316 996.904,651.661C996.186,643.419 994.177,635.341 990.95,627.723C987.315,619.009 982.216,610.98 975.874,603.985C975.482,603.552 974.887,604.242 975.277,604.672L975.277,604.672Z" style="fill:white;fill-rule:nonzero;"/>
    </g>
    <g transform="matrix(1,0,0,1,-223.317,-125.217)">
        <path d="M995.574,644.787C1001.35,643.336 1005.26,637.861 1004.76,631.928C1004.71,631.345 1003.8,631.397 1003.85,631.981C1004.33,637.506 1000.67,642.605 995.282,643.924C994.713,644.064 995.008,644.926 995.574,644.787Z" style="fill:white;fill-rule:nonzero;"/>
    </g>
    <g transform="matrix(1,0,0,1,-223.317,-125.217)">
        <path d="M991.926,669.51C986.823,666.517 983.032,661.707 981.314,656.045C981.145,655.484 980.283,655.777 980.452,656.338C982.25,662.226 986.206,667.224 991.523,670.326C992.031,670.622 992.431,669.804 991.926,669.51L991.926,669.51Z" style="fill:white;fill-rule:nonzero;"/>
    </g>
    <g transform="matrix(1,0,0,1,-223.317,-125.217)">
        <path d="M986.477,619.878C984.388,620.891 981.923,620.785 979.928,619.597C979.425,619.296 979.025,620.114 979.525,620.414C981.734,621.716 984.452,621.838 986.77,620.74C987.001,620.653 987.126,620.399 987.055,620.163C986.974,619.927 986.714,619.799 986.478,619.878L986.477,619.878Z" style="fill:white;fill-rule:nonzero;"/>
    </g>
    <g transform="matrix(1,0,0,1,-223.317,-125.217)">
        <path d="M916.168,641.368C916.477,641.565 916.786,641.763 917.095,641.968C921.234,644.643 925.149,647.649 928.8,650.958C929.087,651.209 929.373,651.468 929.652,651.727C938.364,659.792 945.504,669.405 950.708,680.077C952.775,684.325 954.515,688.724 955.915,693.237C957.847,699.469 959.446,706.379 963.213,711.46C963.6,711.994 964.02,712.504 964.47,712.986L998.148,712.72C998.224,712.681 998.3,712.649 998.377,712.61L999.722,712.661C999.666,712.423 999.603,712.178 999.547,711.94C999.515,711.802 999.476,711.664 999.444,711.526C999.421,711.434 999.397,711.342 999.381,711.258C999.373,711.227 999.365,711.196 999.357,711.173C999.341,711.089 999.317,711.012 999.301,710.936C998.952,709.563 998.593,708.19 998.224,706.818C998.223,706.81 998.223,706.81 998.216,706.802C995.501,696.317 991.552,686.19 986.451,676.635C986.295,676.352 986.139,676.061 985.967,675.778C983.607,671.55 980.905,667.521 977.888,663.732C976.23,661.663 974.467,659.679 972.608,657.788C967.795,652.911 962.244,648.822 956.16,645.67C944.031,639.388 930.027,637.055 917.149,641.053C916.82,641.155 916.498,641.258 916.168,641.368Z" style="fill:rgb(240,240,240);fill-rule:nonzero;"/>
    </g>
    <g transform="matrix(1,0,0,1,-223.317,-125.217)">
        <path d="M916.248,641.795C933.042,644.992 948.408,653.404 960.151,665.828C962.727,668.458 964.873,671.478 966.508,674.776C967.998,678.04 968.586,681.644 968.212,685.212C967.93,688.547 967.255,691.924 967.789,695.269C968.392,698.722 970.443,701.758 973.422,703.606C977.034,705.979 981.283,706.913 985.47,707.682C990.12,708.536 994.962,709.349 998.859,712.218C999.332,712.565 999.843,711.812 999.372,711.465C992.591,706.474 983.567,707.604 976.164,704.101C972.71,702.466 969.728,699.781 968.845,695.937C968.073,692.576 968.766,689.092 969.081,685.718C969.497,682.243 969.055,678.718 967.795,675.452C966.333,672.081 964.307,668.984 961.806,666.292C956.27,660.144 949.803,654.904 942.64,650.764C934.491,645.994 925.586,642.653 916.31,640.886C915.736,640.777 915.677,641.686 916.248,641.795L916.248,641.795Z" style="fill:white;fill-rule:nonzero;"/>
    </g>
    <g transform="matrix(1,0,0,1,-223.317,-125.217)">
        <path d="M956.605,661.604C960.342,656.969 960.17,650.242 956.2,645.805C955.808,645.37 955.113,645.959 955.506,646.394C959.211,650.521 959.359,656.795 955.852,661.092C955.483,661.546 956.237,662.056 956.605,661.604Z" style="fill:white;fill-rule:nonzero;"/>
    </g>
    <g transform="matrix(1,0,0,1,-223.317,-125.217)">
        <path d="M968.578,683.54C962.701,684.224 956.778,682.665 951.998,679.179C951.524,678.833 951.013,679.586 951.485,679.931C956.466,683.55 962.634,685.159 968.747,684.435C969.33,684.365 969.157,683.471 968.578,683.54Z" style="fill:white;fill-rule:nonzero;"/>
    </g>
    <g transform="matrix(1,0,0,1,-223.317,-125.217)">
        <path d="M934.345,647.193C933.287,649.259 931.255,650.659 928.947,650.912C928.363,650.974 928.537,651.868 929.116,651.806C931.664,651.516 933.908,649.977 935.098,647.705C935.23,647.497 935.177,647.218 934.978,647.073C934.771,646.933 934.486,646.987 934.345,647.193L934.345,647.193Z" style="fill:white;fill-rule:nonzero;"/>
    </g>
    <g transform="matrix(1,0,0,1,-223.317,-125.217)">
        <path d="M788.709,445.353C789.959,446.997 791.911,447.965 793.977,447.965C795.826,447.965 797.592,447.19 798.845,445.83L820.41,455.21L818.31,443.171L798.153,436.11C796.971,435.158 795.497,434.638 793.979,434.638C790.329,434.638 787.326,437.642 787.326,441.292C787.326,442.761 787.812,444.189 788.709,445.353L788.709,445.353Z" style="fill:rgb(160,97,106);fill-rule:nonzero;"/>
    </g>
    <g transform="matrix(1,0,0,1,-223.317,-125.217)">
        <path d="M808.33,438.551L849.527,443.891L892.012,418.298C894.938,416.536 898.289,415.605 901.704,415.605C909.07,415.605 915.784,419.937 918.819,426.648C922.889,435.677 919.164,446.453 910.386,451.041L853.297,471.385L853.189,471.423L803.1,449.111L808.33,438.551Z" style="fill:rgb(63,61,86);fill-rule:nonzero;"/>
    </g>
    <path d="M690.298,579.764L681.54,579.764L677.374,545.984L690.3,545.985L690.298,579.764Z" style="fill:rgb(160,97,106);fill-rule:nonzero;"/>
    <g transform="matrix(1,0,0,1,-223.317,-125.217)">
        <path d="M915.848,713.47L887.61,713.469L887.61,713.112C887.61,707.083 892.571,702.121 898.601,702.121L898.602,702.121L903.76,698.208L913.383,702.122L915.848,702.122L915.848,713.47Z" style="fill:rgb(47,46,65);fill-rule:nonzero;"/>
    </g>
    <path d="M656.36,574.245L647.818,576.174L636.313,544.142L648.921,541.295L656.36,574.245Z" style="fill:rgb(160,97,106);fill-rule:nonzero;"/>
    <g transform="matrix(1,0,0,1,-223.317,-125.217)">
        <path d="M883.725,707.251L856.181,713.47L856.102,713.122C854.774,707.24 858.521,701.308 864.402,699.98L864.403,699.98L868.572,695.026L878.822,696.724L881.226,696.181L883.725,707.251Z" style="fill:rgb(47,46,65);fill-rule:nonzero;"/>
    </g>
    <g transform="matrix(1,0,0,1,-223.317,-125.217)">
        <path d="M924.706,498.471C928.812,510.854 928.378,524.296 923.72,538.724L921.728,619.952C921.728,619.952 924.695,673.22 915.12,691.964L901.234,691.964L894.359,615.087L893.496,563.487L863.725,607.02L882.687,690.707L865.596,692.235L834.826,601.415L872.79,513.304L924.706,498.471Z" style="fill:rgb(47,46,65);fill-rule:nonzero;"/>
    </g>
    <g transform="matrix(1,0,0,1,-223.317,-125.217)">
        <path d="M868.493,510.442L871.917,501.881L869.653,494.521L869.137,423.199L869.137,423.145L877.354,410.042L877.421,401.754L900.367,401.194L902.855,407.513L907.779,410.457C918.693,417.003 925.305,428.914 925.087,441.638L924.197,489.759L926.487,494.339C927.157,495.677 927.505,497.154 927.505,498.651C927.505,502.83 924.787,506.554 920.807,507.829L870.314,515.906L868.493,510.442Z" style="fill:rgb(63,61,86);fill-rule:nonzero;"/>
    </g>
    <circle cx="663.476" cy="247.27" r="20.849" style="fill:rgb(160,97,106);"/>
    <g transform="matrix(1,0,0,1,-223.317,-125.217)">
        <path d="M908.503,377.032C909.125,374.412 908.839,370.726 908.488,368.088C907.578,361.058 903.724,354.734 897.891,350.705C896.785,349.864 895.47,349.342 894.089,349.194C892.677,349.075 891.339,349.883 890.789,351.19C890.086,349.436 888.688,348.05 886.929,347.362C885.18,346.692 883.299,346.439 881.435,346.622C874.084,347.228 867.635,351.837 864.683,358.597C864.126,359.92 862.571,355.033 861.865,356.283C861.217,357.582 860.085,358.576 858.714,359.052C857.331,359.438 856.77,365.134 856.225,363.806C855.886,364.596 855.71,365.447 855.71,366.307C855.71,369.781 858.569,372.639 862.042,372.639C862.121,372.639 862.2,372.637 862.279,372.634C863.675,372.454 865.058,372.189 866.422,371.841C871.579,371.191 876.464,374.531 877.731,379.572C878.112,378.149 878.72,376.796 879.531,375.567C880.367,374.327 881.753,373.565 883.247,373.525C884.671,373.688 885.966,374.433 886.823,375.58C887.741,376.658 888.43,377.916 889.355,378.987C892.068,382.133 895.738,389.468 899.604,388.933C902.655,388.51 907.654,380.609 908.503,377.032Z" style="fill:rgb(47,46,65);fill-rule:nonzero;"/>
    </g>
    <g transform="matrix(1,0,0,1,-223.317,-125.217)">
        <path d="M809.071,500.687C809.903,501.049 810.8,501.235 811.707,501.235C814.762,501.235 817.44,499.12 818.146,496.148L841.544,493.784L833.824,484.31L812.789,488.007C812.423,487.945 812.053,487.914 811.682,487.914C808.032,487.914 805.029,490.918 805.029,494.568C805.029,497.228 806.624,499.643 809.071,500.687L809.071,500.687Z" style="fill:rgb(160,97,106);fill-rule:nonzero;"/>
    </g>
    <g transform="matrix(1,0,0,1,-223.317,-125.217)">
        <path d="M822.86,485.16L861.407,469.672L885.952,426.574C889.288,420.715 895.532,417.086 902.274,417.086C906.284,417.086 910.19,418.37 913.418,420.749C921.384,426.635 923.403,437.857 917.99,446.15L878.139,491.812L878.064,491.898L823.462,496.929L822.86,485.16Z" style="fill:rgb(63,61,86);fill-rule:nonzero;"/>
    </g>
    <g transform="matrix(1,0,0,1,-223.317,-125.217)">
        <path d="M1030.28,714.661L682.287,714.661C682.286,714.661 682.285,714.661 682.284,714.661C681.631,714.661 681.093,714.123 681.093,713.47C681.093,712.817 681.631,712.28 682.284,712.28C682.285,712.28 682.286,712.28 682.287,712.28L1030.28,712.28C1030.28,712.28 1030.28,712.28 1030.28,712.28C1030.93,712.28 1031.47,712.817 1031.47,713.47C1031.47,714.123 1030.93,714.661 1030.28,714.661C1030.28,714.661 1030.28,714.661 1030.28,714.661Z" style="fill:rgb(204,204,204);fill-rule:nonzero;"/>
    </g>
    <g transform="matrix(1,0,0,1,-223.317,-125.217)">
        <path d="M805.383,521.018L647.243,521.018C644.964,521.015 643.089,519.14 643.087,516.861L643.087,452.695C643.089,450.416 644.964,448.541 647.243,448.538L805.383,448.538C807.662,448.541 809.537,450.416 809.54,452.695L809.54,516.861C809.537,519.14 807.662,521.015 805.383,521.018Z" style="fill:rgb(61,131,246);fill-rule:nonzero;"/>
    </g>
    <g transform="matrix(1,0,0,1,-223.317,-125.217)">
        <path d="M790.325,551.799L662.301,551.799C662.299,551.799 662.296,551.799 662.294,551.799C659.558,551.799 657.306,549.547 657.306,546.811C657.306,544.074 659.558,541.823 662.294,541.823C662.296,541.823 662.299,541.823 662.301,541.823L790.325,541.823C796.758,541.733 796.822,551.889 790.325,551.799Z" style="fill:rgb(228,228,228);fill-rule:nonzero;"/>
    </g>
    <g transform="matrix(1,0,0,1,-223.317,-125.217)">
        <path d="M790.325,574.66L662.301,574.66C659.565,574.66 657.313,572.408 657.313,569.672C657.313,566.936 659.565,564.684 662.301,564.684L790.325,564.684C796.758,564.594 796.822,574.751 790.325,574.66Z" style="fill:rgb(228,228,228);fill-rule:nonzero;"/>
    </g>
    <g transform="matrix(1,0,0,1,-223.317,-125.217)">
        <path d="M790.325,597.522L662.301,597.522C662.299,597.522 662.296,597.522 662.294,597.522C659.558,597.522 657.306,595.27 657.306,592.534C657.306,589.797 659.558,587.546 662.294,587.546C662.296,587.546 662.299,587.546 662.301,587.546L790.325,587.546C796.758,587.456 796.822,597.612 790.325,597.522Z" style="fill:rgb(228,228,228);fill-rule:nonzero;"/>
    </g>
    <g transform="matrix(1,0,0,1,-223.317,-125.217)">
        <path d="M252.327,350.827C224.489,314.25 213.274,262.353 233.996,221.323C254.554,266.873 290.585,303.709 335.67,325.267C353.092,333.52 373.329,340.885 381.576,358.31C386.707,369.152 385.931,382.047 382.076,393.405C378.22,404.764 371.539,414.914 364.929,424.923L364.613,427.901C321.92,410.868 280.166,387.404 252.327,350.827Z" style="fill:rgb(240,240,240);fill-rule:nonzero;"/>
    </g>
    <g transform="matrix(1,0,0,1,-223.317,-125.217)">
        <path d="M234.908,221.638C236.614,259.245 250.346,296.552 273.969,325.936C279.076,332.289 284.81,338.289 291.669,342.765C298.387,347.078 306.14,349.512 314.118,349.816C321.551,350.248 329.205,349.83 336.403,352.061C343.991,354.414 349.646,359.988 352.986,367.104C357.072,375.809 357.786,385.464 358.156,394.93C358.567,405.44 358.828,416.364 363.915,425.854C364.532,427.004 362.711,427.894 362.096,426.745C353.244,410.233 358.585,390.712 353.209,373.301C350.7,365.177 345.727,357.759 337.541,354.6C330.381,351.837 322.489,352.262 314.958,351.889C307.052,351.498 299.647,349.826 292.751,345.814C285.697,341.709 279.717,335.921 274.469,329.727C262.675,315.591 253.177,299.689 246.323,282.604C238.392,263.148 233.848,242.477 232.887,221.489C232.828,220.19 234.849,220.347 234.908,221.638L234.908,221.638Z" style="fill:white;fill-rule:nonzero;"/>
    </g>
    <g transform="matrix(1,0,0,1,-223.317,-125.217)">
        <path d="M265.786,316.79C254.396,323.557 239.634,321.052 231.115,310.905C230.28,309.904 231.796,308.56 232.632,309.563C240.55,319.028 254.324,321.337 264.895,314.97C266.013,314.299 266.897,316.122 265.786,316.79L265.786,316.79Z" style="fill:white;fill-rule:nonzero;"/>
    </g>
    <g transform="matrix(1,0,0,1,-223.317,-125.217)">
        <path d="M310.32,350.093C313.682,337.365 312.121,323.826 305.952,312.196C305.34,311.044 307.16,310.154 307.772,311.305C314.169,323.419 315.764,337.512 312.236,350.749C311.899,352.011 309.985,351.348 310.32,350.093L310.32,350.093Z" style="fill:white;fill-rule:nonzero;"/>
    </g>
    <g transform="matrix(1,0,0,1,-223.317,-125.217)">
        <path d="M241.077,263.205C245.964,261.528 249.69,257.495 250.976,252.49C251.297,251.225 253.211,251.889 252.892,253.147C251.447,258.667 247.349,263.123 241.968,265.025C241.468,265.25 240.87,265.046 240.613,264.56C240.372,264.061 240.581,263.452 241.077,263.205L241.077,263.205Z" style="fill:white;fill-rule:nonzero;"/>
    </g>
    <g transform="matrix(1,0,0,1,-223.317,-125.217)">
        <path d="M385.762,186.853C385.584,187.649 385.406,188.445 385.239,189.254C382.902,199.967 381.439,210.852 380.864,221.802C380.806,222.648 380.76,223.506 380.727,224.352C379.623,250.747 383.43,277.119 391.954,302.125C395.355,312.072 399.507,321.746 404.376,331.063C411.1,343.93 419.415,357.347 421.437,371.274C421.664,372.725 421.801,374.188 421.847,375.656L368.271,428.055C368.089,428.113 367.919,428.184 367.737,428.242L365.693,430.432C365.409,429.969 365.123,429.483 364.839,429.02C364.672,428.752 364.518,428.473 364.352,428.205C364.245,428.022 364.138,427.839 364.031,427.681C363.995,427.62 363.96,427.559 363.936,427.511C363.829,427.353 363.747,427.194 363.652,427.048C362.049,424.334 360.464,421.604 358.894,418.858C358.882,418.846 358.882,418.846 358.882,418.822C346.976,397.869 336.714,375.737 330.138,352.752C329.941,352.06 329.73,351.357 329.557,350.642C326.651,340.265 324.597,329.667 323.417,318.955C322.789,313.088 322.459,307.192 322.428,301.292C322.377,286.045 324.724,270.884 329.383,256.367C338.677,227.427 357.122,201.782 383.719,187.895C384.4,187.54 385.069,187.196 385.762,186.853Z" style="fill:rgb(240,240,240);fill-rule:nonzero;"/>
    </g>
    <g transform="matrix(1,0,0,1,-223.317,-125.217)">
        <path d="M386.307,187.651C365.027,218.706 353.53,256.761 354.7,294.445C354.953,302.592 355.919,310.835 358.7,318.539C361.468,326.027 366.193,332.639 372.38,337.684C378.054,342.505 384.417,346.779 388.821,352.895C393.464,359.342 394.623,367.197 393.005,374.889C391.026,384.3 385.783,392.439 380.38,400.22C374.38,408.859 368.011,417.737 366.359,428.378C366.159,429.668 364.17,429.282 364.37,427.994C367.244,409.481 383.262,397.111 389.452,379.972C392.34,371.974 392.836,363.058 388.201,355.606C384.148,349.09 377.59,344.677 371.802,339.846C365.725,334.773 360.819,328.98 357.729,321.625C354.568,314.1 353.278,305.878 352.818,297.773C351.911,279.386 353.901,260.971 358.715,243.202C364.097,222.892 372.914,203.652 384.783,186.316C385.518,185.243 387.037,186.586 386.307,187.651L386.307,187.651Z" style="fill:white;fill-rule:nonzero;"/>
    </g>
    <g transform="matrix(1,0,0,1,-223.317,-125.217)">
        <path d="M353.673,282.216C340.505,280.762 330.226,269.873 329.533,256.643C329.469,255.341 331.489,255.181 331.553,256.484C332.176,268.809 341.784,278.945 354.057,280.227C355.354,280.364 354.962,282.352 353.673,282.216L353.673,282.216Z" style="fill:white;fill-rule:nonzero;"/>
    </g>
    <g transform="matrix(1,0,0,1,-223.317,-125.217)">
        <path d="M369.18,335.619C379.528,327.48 386.433,315.731 388.51,302.731C388.714,301.442 390.703,301.828 390.499,303.115C388.313,316.639 381.102,328.852 370.315,337.297C369.286,338.102 368.157,336.419 369.18,335.619L369.18,335.619Z" style="fill:white;fill-rule:nonzero;"/>
    </g>
    <g transform="matrix(1,0,0,1,-223.317,-125.217)">
        <path d="M366.206,224.555C371.118,226.158 376.521,225.181 380.561,221.959C381.579,221.142 382.707,222.825 381.696,223.637C377.218,227.175 371.263,228.265 365.822,226.544C365.287,226.423 364.933,225.9 365.02,225.358C365.128,224.814 365.661,224.453 366.206,224.555L366.206,224.555Z" style="fill:white;fill-rule:nonzero;"/>
    </g>
    <circle cx="176.735" cy="141.337" r="22.445" style="fill:rgb(47,46,65);"/>
    <g transform="matrix(1,0,0,1,-223.317,-125.217)">
        <path d="M522.866,482.549L364.726,482.549C362.447,482.546 360.572,480.671 360.57,478.392L360.57,414.226C360.572,411.946 362.447,410.072 364.726,410.069L522.866,410.069C525.145,410.072 527.02,411.946 527.023,414.226L527.023,478.392C527.02,480.671 525.145,482.546 522.866,482.549Z" style="fill:rgb(209,211,212);fill-rule:nonzero;"/>
    </g>
    <g transform="matrix(1,0,0,1,-223.317,-125.217)">
        <path d="M507.808,513.329L379.784,513.329C377.056,513.317 374.819,511.069 374.819,508.341C374.819,505.614 377.056,503.366 379.784,503.354L507.808,503.354C514.241,503.264 514.305,513.42 507.808,513.329Z" style="fill:rgb(228,228,228);fill-rule:nonzero;"/>
    </g>
    <g transform="matrix(1,0,0,1,-223.317,-125.217)">
        <path d="M507.808,536.191L379.784,536.191C379.782,536.191 379.78,536.191 379.777,536.191C377.041,536.191 374.789,533.939 374.789,531.203C374.789,528.467 377.041,526.215 379.777,526.215C379.78,526.215 379.782,526.215 379.784,526.215L507.808,526.215C514.241,526.125 514.305,536.281 507.808,536.191Z" style="fill:rgb(228,228,228);fill-rule:nonzero;"/>
    </g>
    <g transform="matrix(1,0,0,1,-223.317,-125.217)">
        <path d="M507.808,559.052L379.784,559.052C377.048,559.052 374.796,556.801 374.796,554.064C374.796,551.328 377.048,549.076 379.784,549.076L507.808,549.076C514.241,548.987 514.305,559.143 507.808,559.052Z" style="fill:rgb(228,228,228);fill-rule:nonzero;"/>
    </g>
    <g transform="matrix(1,0,0,1,-223.317,-125.217)">
        <path d="M518.32,310.88C516.924,312.997 514.552,314.274 512.016,314.274C510.081,314.274 508.217,313.53 506.814,312.197L450.779,336.117L452.253,322.248L506.861,301.075C508.263,299.782 510.102,299.064 512.009,299.064C516.175,299.064 519.603,302.492 519.603,306.658C519.603,308.161 519.156,309.631 518.32,310.88L518.32,310.88Z" style="fill:rgb(255,182,182);fill-rule:nonzero;"/>
    </g>
    <g transform="matrix(1,0,0,1,-223.317,-125.217)">
        <path d="M404.264,309.592C404.264,309.592 397.336,316.321 404.212,324.98C411.087,333.639 445.082,339.27 450.534,340.342C455.986,341.413 486.313,320.784 486.313,320.784L489.25,305.839L455.399,317.453L404.264,309.592Z" style="fill:rgb(221,43,70);fill-rule:nonzero;"/>
    </g>
    <g transform="matrix(1,0,0,1,-223.317,-125.217)">
        <path d="M385.659,360.648L386.204,371.013C386.204,371.013 384.594,380.194 385.918,382.176C387.233,384.147 423.097,384.396 423.097,384.396C423.097,384.396 425.467,371.622 427.508,360.44L385.659,360.648Z" style="fill:rgb(255,182,182);fill-rule:nonzero;"/>
    </g>
    <path d="M265.457,372.482L272.955,370.968L270.809,340.682L259.743,342.918L265.457,372.482Z" style="fill:rgb(255,182,182);fill-rule:nonzero;"/>
    <path d="M276.197,333.07L283.167,329.936L274.125,300.959L263.837,305.586L276.197,333.07Z" style="fill:rgb(255,182,182);fill-rule:nonzero;"/>
    <g transform="matrix(1,0,0,1,-223.317,-125.217)">
        <path d="M505.585,441.96L492.461,449.392L460.093,397.379C437.37,412.687 415.15,420.018 392.751,423.93C385.177,425.279 377.456,424.595 376.002,416.887C375.934,416.527 375.88,416.165 375.84,415.8C374.945,407.381 385.418,396.589 386.75,386.288L415.413,384.567L418.947,389.099L452.095,368.72C454.309,367.388 456.845,366.684 459.43,366.684C464.454,366.684 469.121,369.346 471.678,373.671C471.897,374.032 472.101,374.401 472.288,374.78L505.585,441.96Z" style="fill:rgb(47,46,65);fill-rule:nonzero;"/>
    </g>
    <g transform="matrix(1,0,0,1,-223.317,-125.217)">
        <path d="M497.552,476.95L482.534,478.345L455.305,422.656C428.303,427.3 402.829,428.788 380.795,423.17C373.317,421.195 368.745,413.471 370.61,405.965C370.696,405.608 370.795,405.256 370.908,404.907C373.545,396.861 380.447,391.168 385.886,382.319L425.61,382.923L421.173,398.232L459.763,393.238C460.324,393.171 460.888,393.137 461.452,393.137C468.663,393.137 474.791,398.618 475.593,405.784C475.645,406.203 475.679,406.624 475.695,407.046L497.552,476.95Z" style="fill:rgb(47,46,65);fill-rule:nonzero;"/>
    </g>
    <circle cx="177.853" cy="149.546" r="16.13" style="fill:rgb(255,182,182);"/>
    <g transform="matrix(1,0,0,1,-223.317,-125.217)">
        <path d="M391.713,296.716L406.503,298.456C407.779,298.606 408.825,299.555 409.099,300.809L411.451,311.572L426.113,328.839C426.113,328.839 431.378,338.711 429.404,349.9C427.43,361.088 426.562,369.401 426.562,369.401C426.562,369.401 387.231,384.148 385.914,382.174C384.598,380.199 384.171,371.231 384.171,371.231L378.906,312.657C378.906,312.657 384.829,302.785 388.12,302.785C390.244,302.713 389.971,297.933 391.713,296.716Z" style="fill:rgb(221,43,70);fill-rule:nonzero;"/>
    </g>
    <ellipse cx="203.645" cy="243.279" rx="3.755" ry="4.506" style="fill:rgb(221,43,70);"/>
    <g transform="matrix(1,0,0,1,-223.317,-125.217)">
        <path d="M485.053,489.901L496.484,484.172L498.638,489.198L513.093,492.12C514.68,492.441 515.832,493.849 515.832,495.469C515.832,496.832 515.016,498.071 513.762,498.608L499.796,504.595L495.257,500.655L496.449,506.03L491.183,508.287L485.053,489.901Z" style="fill:rgb(47,46,65);fill-rule:nonzero;"/>
    </g>
    <g transform="matrix(1,0,0,1,-223.317,-125.217)">
        <path d="M496.242,455.876L507.57,449.947L509.813,454.935L524.317,457.602C525.932,457.899 527.116,459.32 527.116,460.962C527.116,462.304 526.324,463.527 525.1,464.077L511.241,470.309L506.634,466.449L507.92,471.802L502.694,474.151L496.242,455.876Z" style="fill:rgb(47,46,65);fill-rule:nonzero;"/>
    </g>
    <g transform="matrix(1,0,0,1,-223.317,-125.217)">
        <path d="M391.954,269.703C387.693,269.71 383.532,268.398 380.047,265.947L379.93,265.865L379.93,265.723C379.94,257.198 386.953,250.185 395.478,250.175L402.025,250.175C410.55,250.185 417.563,257.198 417.573,265.723C417.564,267.673 415.981,269.283 414.032,269.326L392.322,269.7C392.199,269.702 392.076,269.703 391.954,269.703Z" style="fill:rgb(47,46,65);fill-rule:nonzero;"/>
    </g>
    <g transform="matrix(1,0,0,1,-223.317,-125.217)">
        <path d="M456.88,395.176C456.649,395.198 456.417,395.208 456.185,395.208C452.041,395.208 448.632,391.799 448.632,387.656C448.632,387.443 448.641,387.231 448.659,387.02L394.956,358.241L406.702,350.721L457.368,380.103C461.064,380.663 463.823,383.873 463.823,387.61C463.823,391.531 460.787,394.84 456.88,395.176L456.88,395.176Z" style="fill:rgb(255,182,182);fill-rule:nonzero;"/>
    </g>
    <g transform="matrix(1,0,0,1,-223.317,-125.217)">
        <path d="M386.577,305.355C386.577,305.355 376.993,304.155 374.534,314.935C372.074,325.715 388.934,355.767 391.506,360.692C394.079,365.617 429.139,376.388 429.139,376.388L442.64,369.337L412.411,350.178L386.577,305.355Z" style="fill:rgb(221,43,70);fill-rule:nonzero;"/>
    </g>
    <g transform="matrix(1,0,0,1,-223.317,-125.217)">
        <path d="M403.666,252.579C405.175,250.729 403.996,247.988 402.758,245.945C399.922,241.266 396.945,236.676 393.828,232.175C389.932,226.551 385.212,220.672 378.505,219.323C372.388,218.094 366.226,221 360.964,224.352C355.79,227.648 350.694,231.799 348.725,237.609C346.84,243.169 348.164,249.343 350.509,254.725C352.517,259.334 355.219,264.846 352.355,268.978C350.984,270.676 349.141,271.93 347.058,272.583C341.769,274.637 336.086,275.476 330.429,275.036C338.196,274.953 344.995,282.928 352.524,281.02C356.794,279.938 359.638,275.958 361.684,272.057C363.181,269.438 364.194,266.57 364.674,263.591C365.171,259.551 364.095,255.299 365.453,251.462C366.867,247.468 370.626,244.795 374.419,242.909C376.938,241.656 379.684,240.61 382.489,240.823C390.44,241.425 394.558,251.211 402.103,253.792" style="fill:rgb(47,46,65);fill-rule:nonzero;"/>
    </g>
    <g transform="matrix(1,0,0,1,-223.317,-125.217)">
        <path d="M673.905,307.196L515.766,307.196C513.486,307.194 511.612,305.319 511.609,303.04L511.609,238.873C511.612,236.594 513.486,234.719 515.766,234.717L673.905,234.717C676.185,234.719 678.059,236.594 678.062,238.873L678.062,303.04C678.059,305.319 676.185,307.194 673.905,307.196Z" style="fill:rgb(61,131,246);fill-rule:nonzero;"/>
    </g>
    <g transform="matrix(1,0,0,1,-223.317,-125.217)">
        <path d="M658.848,337.977L530.824,337.977C528.087,337.977 525.836,335.725 525.836,332.989C525.836,330.253 528.087,328.001 530.824,328.001L658.848,328.001C665.28,327.911 665.344,338.068 658.848,337.977Z" style="fill:rgb(228,228,228);fill-rule:nonzero;"/>
    </g>
    <g transform="matrix(1,0,0,1,-223.317,-125.217)">
        <path d="M658.848,360.839L530.824,360.839C530.821,360.839 530.819,360.839 530.816,360.839C528.08,360.839 525.829,358.587 525.829,355.851C525.829,353.114 528.08,350.863 530.816,350.863C530.819,350.863 530.821,350.863 530.824,350.863L658.848,350.863C665.28,350.773 665.344,360.929 658.848,360.839Z" style="fill:rgb(228,228,228);fill-rule:nonzero;"/>
    </g>
    <g transform="matrix(1,0,0,1,-223.317,-125.217)">
        <path d="M658.848,383.7L530.824,383.7C528.087,383.7 525.836,381.448 525.836,378.712C525.836,375.976 528.087,373.724 530.824,373.724L658.848,373.724C665.28,373.634 665.344,383.791 658.848,383.7Z" style="fill:rgb(228,228,228);fill-rule:nonzero;"/>
    </g>
    <g transform="matrix(1,0,0,1,-223.317,-125.217)">
        <path d="M842.658,148.606L312.917,148.606C311.29,148.604 309.951,147.265 309.95,145.638L309.95,128.184C309.951,126.557 311.29,125.219 312.917,125.217L842.658,125.217C844.285,125.219 845.624,126.557 845.625,128.184L845.625,145.638C845.624,147.265 844.285,148.604 842.658,148.606Z" style="fill:rgb(230,231,232);fill-rule:nonzero;"/>
    </g>
    <circle id="b637d542-0ea5-46b9-aa61-095218110267" cx="103.853" cy="10.843" r="4.213" style="fill:white;"/>
    <circle id="b2f1169c-b566-47c9-8d4c-e5da87bed52d" cx="119.843" cy="10.843" r="4.213" style="fill:white;"/>
    <circle id="a4343e91-3550-42c2-91d2-f5254c8e4c9c" cx="135.834" cy="10.843" r="4.213" style="fill:white;"/>
    <g transform="matrix(1,0,0,1,-223.317,-125.217)">
        <path d="M826.991,133.16L808.578,133.16C807.834,133.154 807.225,132.54 807.225,131.796C807.225,131.052 807.834,130.438 808.578,130.432L826.991,130.432C827.735,130.438 828.344,131.052 828.344,131.796C828.344,132.54 827.735,133.154 826.991,133.16Z" style="fill:white;fill-rule:nonzero;"/>
    </g>
    <g transform="matrix(1,0,0,1,-223.317,-125.217)">
        <path d="M826.991,138.275L808.578,138.275C807.83,138.275 807.214,137.659 807.214,136.911C807.214,136.163 807.83,135.547 808.578,135.547L826.991,135.547C826.995,135.547 826.999,135.547 827.003,135.547C827.751,135.547 828.367,136.163 828.367,136.911C828.367,137.659 827.751,138.275 827.003,138.275C826.999,138.275 826.995,138.275 826.991,138.275Z" style="fill:white;fill-rule:nonzero;"/>
    </g>
    <g transform="matrix(1,0,0,1,-223.317,-125.217)">
        <path d="M826.991,143.39L808.578,143.39C807.83,143.39 807.214,142.774 807.214,142.026C807.214,141.278 807.83,140.662 808.578,140.662L826.991,140.662C827.739,140.662 828.355,141.278 828.355,142.026C828.355,142.774 827.739,143.39 826.991,143.39Z" style="fill:white;fill-rule:nonzero;"/>
    </g>
</svg>
